<svg width="2000" height="500" viewBox="0 0 2000 500" fill="none" xmlns="http://www.w3.org/2000/svg">
<rect width="2000" height="500" rx="8" fill="#0D0C0B"/>
<rect x="840.75" y="143.75" width="382.5" height="191.25" rx="21.25" fill="#FFF9F0"/>
<rect x="862" y="154.375" width="61.0938" height="10.625" rx="5.3125" fill="#ADA79E"/>
<rect x="973.562" y="154.375" width="78.3594" height="10.625" rx="5.3125" fill="#ADA79E"/>
<rect x="1085.12" y="154.375" width="50.4688" height="10.625" rx="5.3125" fill="#ADA79E"/>
<rect x="1186.73" y="155.039" width="9.29688" height="9.29688" rx="4.64844" stroke="#ADA79E" stroke-width="1.32812"/>
<rect x="1202.66" y="155.039" width="9.29688" height="9.29688" rx="4.64844" stroke="#ADA79E" stroke-width="1.32812"/>
<line x1="1212.63" y1="176.289" x2="851.375" y2="176.289" stroke="#E3DDD3" stroke-width="1.32812"/>
<rect width="361.25" height="106.25" transform="translate(851.375 186.25)" fill="#FFF9F0"/>
<path d="M961.609 186.25V292.5H964.266V186.25H961.609Z" fill="#E3DDD3" mask="url(#path-9-inside-1_275_15250)"/>
<rect x="862" y="196.875" width="67.7344" height="5.3125" rx="2.65625" fill="#ADA79E"/>
<rect x="862" y="223.438" width="61.0938" height="5.3125" rx="2.65625" fill="#ADA79E"/>
<rect x="862" y="250" width="71.7188" height="5.3125" rx="2.65625" fill="#ADA79E"/>
<rect x="862" y="276.562" width="62.4219" height="5.3125" rx="2.65625" fill="#ADA79E"/>
<path d="M1073.17 186.25V292.5H1075.83V186.25H1073.17Z" fill="#E3DDD3" mask="url(#path-15-inside-2_275_15250)"/>
<rect x="973.562" y="196.875" width="33.2031" height="5.3125" rx="2.65625" fill="#ADA79E"/>
<rect x="973.562" y="223.438" width="58.4375" height="5.3125" rx="2.65625" fill="#ADA79E"/>
<rect x="973.562" y="250" width="78.3594" height="5.3125" rx="2.65625" fill="#ADA79E"/>
<rect x="973.562" y="276.562" width="53.125" height="5.3125" rx="2.65625" fill="#ADA79E"/>
<path d="M1184.73 186.25V292.5H1187.39V186.25H1184.73Z" fill="#E3DDD3" mask="url(#path-21-inside-3_275_15250)"/>
<rect x="1085.12" y="196.875" width="50.4688" height="5.3125" rx="2.65625" fill="#ADA79E"/>
<rect x="1085.12" y="223.438" width="79.6875" height="5.3125" rx="2.65625" fill="#ADA79E"/>
<rect x="1085.12" y="250" width="54.4531" height="5.3125" rx="2.65625" fill="#ADA79E"/>
<rect x="1085.12" y="276.562" width="29.2188" height="5.3125" rx="2.65625" fill="#ADA79E"/>
<rect x="1194.7" y="194.883" width="9.29688" height="9.29688" rx="4.64844" stroke="#ADA79E" stroke-width="1.32812"/>
<rect x="1194.7" y="221.445" width="9.29688" height="9.29688" rx="4.64844" stroke="#ADA79E" stroke-width="1.32812"/>
<rect x="1194.7" y="248.008" width="9.29688" height="9.29688" rx="4.64844" stroke="#ADA79E" stroke-width="1.32812"/>
<rect x="1194.7" y="274.57" width="9.29688" height="9.29688" rx="4.64844" stroke="#ADA79E" stroke-width="1.32812"/>
<line x1="1212.63" y1="303.789" x2="851.375" y2="303.789" stroke="#E3DDD3" stroke-width="1.32812"/>
<rect x="851.375" y="316.406" width="61.0938" height="5.3125" rx="2.65625" fill="#ADA79E"/>
<rect x="1122.98" y="314.414" width="9.29688" height="9.29688" rx="4.64844" stroke="#ADA79E" stroke-width="1.32812"/>
<rect x="1138.25" y="313.75" width="10.625" height="10.625" rx="5.3125" fill="#ADA79E"/>
<rect x="1154.19" y="313.75" width="10.625" height="10.625" rx="5.3125" fill="#ADA79E"/>
<rect x="1170.12" y="313.75" width="10.625" height="10.625" rx="5.3125" fill="#ADA79E"/>
<rect x="1186.06" y="313.75" width="10.625" height="10.625" rx="5.3125" fill="#ADA79E"/>
<rect x="1202.66" y="314.414" width="9.29688" height="9.29688" rx="4.64844" stroke="#ADA79E" stroke-width="1.32812"/>
<circle cx="1147.55" cy="101.25" r="21.25" fill="#F1E678"/>
<circle cx="1103.72" cy="398.75" r="21.25" fill="#BF406B"/>
<circle cx="798.25" cy="226.094" r="21.25" fill="#EC905F"/>
<path d="M1124.3 397.422H1167.47V329.688" stroke="#BF406B" stroke-width="2.65625" stroke-linejoin="round"/>
<path d="M1126.96 100.586H1004.11V147.734" stroke="#F1E678" stroke-width="2.65625" stroke-linejoin="round"/>
<path d="M818.836 226.094H851.376" stroke="#EC905F" stroke-width="2.65625"/>
</svg>
