<svg width="500" height="500" viewBox="0 0 500 500" fill="none" xmlns="http://www.w3.org/2000/svg">
<rect width="500" height="500" rx="8" fill="#0D0C0B"/>
<rect x="84" y="150" width="360" height="180" rx="20" fill="#FFF9F0"/>
<rect x="104" y="160" width="57.5" height="10" rx="5" fill="#ADA79E"/>
<rect x="209" y="160" width="73.75" height="10" rx="5" fill="#ADA79E"/>
<rect x="314" y="160" width="47.5" height="10" rx="5" fill="#ADA79E"/>
<rect x="409.625" y="160.625" width="8.75" height="8.75" rx="4.375" stroke="#ADA79E" stroke-width="1.25"/>
<rect x="424.625" y="160.625" width="8.75" height="8.75" rx="4.375" stroke="#ADA79E" stroke-width="1.25"/>
<line x1="434" y1="180.625" x2="94" y2="180.625" stroke="#E3DDD3" stroke-width="1.25"/>
<rect width="340" height="100" transform="translate(94 190)" fill="#FFF9F0"/>
<rect x="104" y="200" width="63.75" height="5" rx="2.5" fill="#ADA79E"/>
<rect x="104" y="225" width="57.5" height="5" rx="2.5" fill="#ADA79E"/>
<rect x="104" y="250" width="67.5" height="5" rx="2.5" fill="#ADA79E"/>
<rect x="104" y="275" width="58.75" height="5" rx="2.5" fill="#ADA79E"/>
<path d="M197.75 190V290H200.25V190H197.75Z" fill="#E3DDD3" mask="url(#path-9-inside-1_123_8423)"/>
<rect x="209" y="200" width="31.25" height="5" rx="2.5" fill="#ADA79E"/>
<rect x="209" y="225" width="55" height="5" rx="2.5" fill="#ADA79E"/>
<rect x="209" y="250" width="73.75" height="5" rx="2.5" fill="#ADA79E"/>
<rect x="209" y="275" width="50" height="5" rx="2.5" fill="#ADA79E"/>
<path d="M302.75 190V290H305.25V190H302.75Z" fill="#E3DDD3" mask="url(#path-15-inside-2_123_8423)"/>
<rect x="314" y="200" width="47.5" height="5" rx="2.5" fill="#ADA79E"/>
<rect x="314" y="225" width="75" height="5" rx="2.5" fill="#ADA79E"/>
<rect x="314" y="250" width="51.25" height="5" rx="2.5" fill="#ADA79E"/>
<rect x="314" y="275" width="27.5" height="5" rx="2.5" fill="#ADA79E"/>
<path d="M407.75 190V290H410.25V190H407.75Z" fill="#E3DDD3" mask="url(#path-21-inside-3_123_8423)"/>
<rect x="417.125" y="198.125" width="8.75" height="8.75" rx="4.375" stroke="#ADA79E" stroke-width="1.25"/>
<rect x="417.125" y="223.125" width="8.75" height="8.75" rx="4.375" stroke="#ADA79E" stroke-width="1.25"/>
<rect x="417.125" y="248.125" width="8.75" height="8.75" rx="4.375" stroke="#ADA79E" stroke-width="1.25"/>
<rect x="417.125" y="273.125" width="8.75" height="8.75" rx="4.375" stroke="#ADA79E" stroke-width="1.25"/>
<line x1="434" y1="300.625" x2="94" y2="300.625" stroke="#E3DDD3" stroke-width="1.25"/>
<rect x="94" y="312.5" width="57.5" height="5" rx="2.5" fill="#ADA79E"/>
<rect x="349.625" y="310.625" width="8.75" height="8.75" rx="4.375" stroke="#ADA79E" stroke-width="1.25"/>
<rect x="364" y="310" width="10" height="10" rx="5" fill="#ADA79E"/>
<rect x="379" y="310" width="10" height="10" rx="5" fill="#ADA79E"/>
<rect x="394" y="310" width="10" height="10" rx="5" fill="#ADA79E"/>
<rect x="409" y="310" width="10" height="10" rx="5" fill="#ADA79E"/>
<rect x="424.625" y="310.625" width="8.75" height="8.75" rx="4.375" stroke="#ADA79E" stroke-width="1.25"/>
<circle cx="372.75" cy="110" r="20" fill="#F1E678"/>
<circle cx="331.5" cy="390" r="20" fill="#BF406B"/>
<circle cx="44" cy="227.5" r="20" fill="#EC905F"/>
<path d="M350.875 388.75H391.5V325" stroke="#BF406B" stroke-width="2.5" stroke-linejoin="round"/>
<path d="M353.375 109.375H237.75V153.75" stroke="#F1E678" stroke-width="2.5" stroke-linejoin="round"/>
<path d="M63.375 227.5H94.0012" stroke="#EC905F" stroke-width="2.5"/>
<rect x="345" y="308" width="92" height="15" rx="3" stroke="#BF406B" stroke-width="2"/>
<rect x="101" y="220" width="63" height="15" rx="3" stroke="#EC905F" stroke-width="2"/>
<rect x="205" y="157" width="82" height="15" rx="3" stroke="#F1E678" stroke-width="2"/>
</svg>
