<svg width="500" height="500" viewBox="0 0 500 500" fill="none" xmlns="http://www.w3.org/2000/svg">
<rect width="500" height="500" rx="8" fill="#0D0C0B"/>
<path d="M94 92C94 83.1634 101.163 76 110 76H390.5C399.337 76 406.5 83.1634 406.5 92V258.5H94V92Z" fill="#FFF9F0"/>
<rect x="200.25" y="117.25" width="100" height="100" rx="50" fill="#E3DDD3"/>
<path fill-rule="evenodd" clip-rule="evenodd" d="M250.251 140.584C245.649 140.584 241.918 144.315 241.918 148.917C241.918 153.519 245.649 157.25 250.251 157.25C254.854 157.25 258.585 153.519 258.585 148.917C258.585 144.315 254.854 140.584 250.251 140.584ZM235.251 148.917C235.251 140.633 241.967 133.917 250.251 133.917C258.536 133.917 265.251 140.633 265.251 148.917C265.251 157.201 258.536 163.917 250.251 163.917C241.967 163.917 235.251 157.201 235.251 148.917ZM229.179 190.584H271.323C268.96 180.887 261.019 173.917 250.251 173.917C239.483 173.917 231.542 180.887 229.179 190.584ZM221.933 193.605C223.307 178.987 234.392 167.25 250.251 167.25C266.111 167.25 277.196 178.987 278.57 193.605C278.658 194.539 278.348 195.467 277.716 196.161C277.084 196.855 276.19 197.25 275.251 197.25H225.251C224.313 197.25 223.418 196.855 222.786 196.161C222.155 195.467 221.845 194.539 221.933 193.605Z" fill="#918B83"/>
<rect x="94" y="258.5" width="312.5" height="10" fill="#F1E678"/>
<rect x="94" y="268.5" width="312.5" height="10" fill="#EC905F"/>
<rect x="94" y="278.5" width="312.5" height="10" fill="#BF406B"/>
<path d="M94 288.5H406.5V312.5C406.5 321.337 399.337 328.5 390.5 328.5H110C101.163 328.5 94 321.337 94 312.5V288.5Z" fill="#E3DDD3"/>
<rect x="104" y="293.5" width="30" height="30" rx="15" fill="#E3DDD3"/>
<path fill-rule="evenodd" clip-rule="evenodd" d="M119.001 301.834C117.851 301.834 116.918 302.766 116.918 303.917C116.918 305.068 117.851 306 119.001 306C120.152 306 121.085 305.068 121.085 303.917C121.085 302.766 120.152 301.834 119.001 301.834ZM115.251 303.917C115.251 301.846 116.93 300.167 119.001 300.167C121.072 300.167 122.751 301.846 122.751 303.917C122.751 305.988 121.072 307.667 119.001 307.667C116.93 307.667 115.251 305.988 115.251 303.917ZM113.733 314.334H124.269C123.679 311.91 121.693 310.167 119.001 310.167C116.309 310.167 114.324 311.91 113.733 314.334ZM111.922 315.089C112.265 311.435 115.036 308.5 119.001 308.5C122.966 308.5 125.737 311.435 126.081 315.089C126.103 315.323 126.025 315.555 125.868 315.728C125.71 315.901 125.486 316 125.251 316H112.751C112.517 316 112.293 315.901 112.135 315.728C111.977 315.555 111.9 315.323 111.922 315.089Z" fill="#918B83"/>
<rect x="144" y="296" width="57.5" height="10" rx="5" fill="#ADA79E"/>
<rect x="206.5" y="296" width="42.5" height="10" rx="5" fill="#F1E678"/>
<rect x="144" y="311" width="212" height="10" rx="5" fill="#C7C1B7"/>
<rect x="94" y="336.5" width="312.5" height="40" rx="16" fill="#FFF9F0"/>
<rect x="104" y="341.5" width="30" height="30" rx="15" fill="#E3DDD3"/>
<path fill-rule="evenodd" clip-rule="evenodd" d="M119.001 349.834C117.851 349.834 116.918 350.766 116.918 351.917C116.918 353.068 117.851 354 119.001 354C120.152 354 121.085 353.068 121.085 351.917C121.085 350.766 120.152 349.834 119.001 349.834ZM115.251 351.917C115.251 349.846 116.93 348.167 119.001 348.167C121.072 348.167 122.751 349.846 122.751 351.917C122.751 353.988 121.072 355.667 119.001 355.667C116.93 355.667 115.251 353.988 115.251 351.917ZM113.733 362.334H124.269C123.679 359.91 121.693 358.167 119.001 358.167C116.309 358.167 114.324 359.91 113.733 362.334ZM111.922 363.089C112.265 359.435 115.036 356.5 119.001 356.5C122.966 356.5 125.737 359.435 126.081 363.089C126.103 363.323 126.025 363.555 125.868 363.728C125.71 363.901 125.486 364 125.251 364H112.751C112.517 364 112.293 363.901 112.135 363.728C111.977 363.555 111.9 363.323 111.922 363.089Z" fill="#918B83"/>
<rect x="144" y="344" width="57.5" height="10" rx="5" fill="#ADA79E"/>
<rect x="206.5" y="344" width="42.5" height="10" rx="5" fill="#F1E678"/>
<rect x="144" y="359" width="145" height="10" rx="5" fill="#C7C1B7"/>
<rect x="94" y="384.5" width="312.5" height="40" rx="16" fill="#FFF9F0"/>
<rect x="104" y="389.5" width="30" height="30" rx="15" fill="#E3DDD3"/>
<path fill-rule="evenodd" clip-rule="evenodd" d="M119.001 397.834C117.851 397.834 116.918 398.766 116.918 399.917C116.918 401.068 117.851 402 119.001 402C120.152 402 121.085 401.068 121.085 399.917C121.085 398.766 120.152 397.834 119.001 397.834ZM115.251 399.917C115.251 397.846 116.93 396.167 119.001 396.167C121.072 396.167 122.751 397.846 122.751 399.917C122.751 401.988 121.072 403.667 119.001 403.667C116.93 403.667 115.251 401.988 115.251 399.917ZM113.733 410.334H124.269C123.679 407.91 121.693 406.167 119.001 406.167C116.309 406.167 114.324 407.91 113.733 410.334ZM111.922 411.089C112.265 407.435 115.036 404.5 119.001 404.5C122.966 404.5 125.737 407.435 126.081 411.089C126.103 411.323 126.025 411.555 125.868 411.728C125.71 411.901 125.486 412 125.251 412H112.751C112.517 412 112.293 411.901 112.135 411.728C111.977 411.555 111.9 411.323 111.922 411.089Z" fill="#918B83"/>
<rect x="144" y="392" width="57.5" height="10" rx="5" fill="#ADA79E"/>
<rect x="206.5" y="392" width="42.5" height="10" rx="5" fill="#F1E678"/>
<rect x="144" y="407" width="252.5" height="10" rx="5" fill="#C7C1B7"/>
</svg>
