<svg width="500" height="500" viewBox="0 0 500 500" fill="none" xmlns="http://www.w3.org/2000/svg">
<rect width="500" height="500" rx="8" fill="#0D0C0B"/>
<path d="M75 96C75 87.1635 82.1634 80 91 80H409C417.837 80 425 87.1634 425 96V324.299H75V96Z" fill="#FFF9F0"/>
<path d="M112.656 119.25V142H109.641V119.25H112.656ZM122.188 129.484V131.953H112V129.484H122.188ZM123.734 119.25V121.719H112V119.25H123.734ZM130.031 118V142H127.125V118H130.031ZM141.688 142.313C140.51 142.313 139.443 142.115 138.484 141.719C137.536 141.312 136.719 140.745 136.031 140.016C135.354 139.286 134.833 138.422 134.469 137.422C134.104 136.422 133.922 135.328 133.922 134.141V133.484C133.922 132.109 134.125 130.885 134.531 129.812C134.938 128.729 135.49 127.812 136.188 127.062C136.885 126.312 137.677 125.745 138.563 125.359C139.448 124.974 140.365 124.781 141.313 124.781C142.521 124.781 143.563 124.99 144.438 125.406C145.323 125.823 146.047 126.406 146.609 127.156C147.172 127.896 147.589 128.771 147.859 129.781C148.13 130.781 148.266 131.875 148.266 133.062V134.359H135.641V132H145.375V131.781C145.333 131.031 145.177 130.302 144.906 129.594C144.646 128.885 144.229 128.302 143.656 127.844C143.083 127.385 142.302 127.156 141.313 127.156C140.656 127.156 140.052 127.297 139.5 127.578C138.948 127.849 138.474 128.255 138.078 128.797C137.682 129.339 137.375 130 137.156 130.781C136.938 131.562 136.828 132.464 136.828 133.484V134.141C136.828 134.943 136.938 135.698 137.156 136.406C137.385 137.104 137.714 137.719 138.141 138.25C138.578 138.781 139.104 139.198 139.719 139.5C140.344 139.802 141.052 139.953 141.844 139.953C142.865 139.953 143.729 139.745 144.438 139.328C145.146 138.911 145.766 138.354 146.297 137.656L148.047 139.047C147.682 139.599 147.219 140.125 146.656 140.625C146.094 141.125 145.401 141.531 144.578 141.844C143.766 142.156 142.802 142.313 141.688 142.313ZM158.656 142.313C157.479 142.313 156.411 142.115 155.453 141.719C154.505 141.312 153.688 140.745 153 140.016C152.323 139.286 151.802 138.422 151.438 137.422C151.073 136.422 150.891 135.328 150.891 134.141V133.484C150.891 132.109 151.094 130.885 151.5 129.812C151.906 128.729 152.458 127.812 153.156 127.062C153.854 126.312 154.646 125.745 155.531 125.359C156.417 124.974 157.333 124.781 158.281 124.781C159.49 124.781 160.531 124.99 161.406 125.406C162.292 125.823 163.016 126.406 163.578 127.156C164.141 127.896 164.557 128.771 164.828 129.781C165.099 130.781 165.234 131.875 165.234 133.062V134.359H152.609V132H162.344V131.781C162.302 131.031 162.146 130.302 161.875 129.594C161.615 128.885 161.198 128.302 160.625 127.844C160.052 127.385 159.271 127.156 158.281 127.156C157.625 127.156 157.021 127.297 156.469 127.578C155.917 127.849 155.443 128.255 155.047 128.797C154.651 129.339 154.344 130 154.125 130.781C153.906 131.562 153.797 132.464 153.797 133.484V134.141C153.797 134.943 153.906 135.698 154.125 136.406C154.354 137.104 154.682 137.719 155.109 138.25C155.547 138.781 156.073 139.198 156.688 139.5C157.313 139.802 158.021 139.953 158.813 139.953C159.833 139.953 160.698 139.745 161.406 139.328C162.115 138.911 162.734 138.354 163.266 137.656L165.016 139.047C164.651 139.599 164.188 140.125 163.625 140.625C163.063 141.125 162.37 141.531 161.547 141.844C160.734 142.156 159.771 142.313 158.656 142.313ZM175.688 125.094V127.312H166.547V125.094H175.688ZM169.641 120.984H172.531V137.812C172.531 138.385 172.62 138.818 172.797 139.109C172.974 139.401 173.203 139.594 173.484 139.687C173.766 139.781 174.068 139.828 174.391 139.828C174.63 139.828 174.88 139.807 175.141 139.766C175.411 139.714 175.615 139.672 175.75 139.641L175.766 142C175.536 142.073 175.234 142.141 174.859 142.203C174.495 142.276 174.052 142.313 173.531 142.313C172.823 142.313 172.172 142.172 171.578 141.891C170.984 141.609 170.51 141.141 170.156 140.484C169.813 139.818 169.641 138.922 169.641 137.797V120.984ZM199.578 136.25C199.578 135.719 199.495 135.25 199.328 134.844C199.172 134.427 198.891 134.052 198.484 133.719C198.089 133.385 197.537 133.068 196.828 132.766C196.13 132.464 195.245 132.156 194.172 131.844C193.047 131.51 192.031 131.141 191.125 130.734C190.219 130.318 189.443 129.844 188.797 129.312C188.151 128.781 187.656 128.172 187.313 127.484C186.969 126.797 186.797 126.01 186.797 125.125C186.797 124.24 186.979 123.422 187.344 122.672C187.708 121.922 188.229 121.271 188.906 120.719C189.594 120.156 190.412 119.719 191.359 119.406C192.307 119.094 193.365 118.937 194.531 118.937C196.24 118.937 197.688 119.266 198.875 119.922C200.073 120.568 200.984 121.417 201.609 122.469C202.234 123.51 202.547 124.625 202.547 125.812H199.547C199.547 124.958 199.365 124.203 199 123.547C198.635 122.88 198.083 122.359 197.344 121.984C196.604 121.599 195.667 121.406 194.531 121.406C193.458 121.406 192.573 121.568 191.875 121.891C191.177 122.214 190.656 122.651 190.313 123.203C189.979 123.755 189.813 124.385 189.813 125.094C189.813 125.573 189.912 126.01 190.109 126.406C190.318 126.792 190.635 127.151 191.063 127.484C191.5 127.818 192.052 128.125 192.719 128.406C193.396 128.687 194.203 128.958 195.141 129.219C196.432 129.583 197.547 129.99 198.484 130.437C199.422 130.885 200.193 131.391 200.797 131.953C201.412 132.505 201.865 133.135 202.156 133.844C202.458 134.542 202.609 135.333 202.609 136.219C202.609 137.146 202.422 137.984 202.047 138.734C201.672 139.484 201.135 140.125 200.438 140.656C199.74 141.187 198.901 141.599 197.922 141.891C196.953 142.172 195.87 142.313 194.672 142.313C193.62 142.313 192.583 142.167 191.563 141.875C190.552 141.583 189.63 141.146 188.797 140.562C187.974 139.979 187.313 139.26 186.813 138.406C186.323 137.542 186.078 136.542 186.078 135.406H189.078C189.078 136.187 189.229 136.859 189.531 137.422C189.833 137.974 190.245 138.432 190.766 138.797C191.297 139.161 191.896 139.432 192.563 139.609C193.24 139.776 193.943 139.859 194.672 139.859C195.724 139.859 196.615 139.714 197.344 139.422C198.073 139.13 198.625 138.714 199 138.172C199.385 137.63 199.578 136.99 199.578 136.25ZM215.984 139.109V130.406C215.984 129.74 215.849 129.161 215.578 128.672C215.318 128.172 214.922 127.786 214.391 127.516C213.859 127.245 213.203 127.109 212.422 127.109C211.693 127.109 211.052 127.234 210.5 127.484C209.958 127.734 209.531 128.062 209.219 128.469C208.917 128.875 208.766 129.312 208.766 129.781H205.875C205.875 129.177 206.031 128.578 206.344 127.984C206.656 127.391 207.104 126.854 207.688 126.375C208.281 125.885 208.99 125.5 209.813 125.219C210.646 124.927 211.573 124.781 212.594 124.781C213.823 124.781 214.906 124.99 215.844 125.406C216.792 125.823 217.531 126.453 218.063 127.297C218.604 128.13 218.875 129.177 218.875 130.437V138.312C218.875 138.875 218.922 139.474 219.016 140.109C219.12 140.745 219.271 141.292 219.469 141.75V142H216.453C216.307 141.667 216.193 141.224 216.109 140.672C216.026 140.109 215.984 139.589 215.984 139.109ZM216.484 131.75L216.516 133.781H213.594C212.771 133.781 212.037 133.849 211.391 133.984C210.745 134.109 210.203 134.302 209.766 134.562C209.328 134.823 208.995 135.151 208.766 135.547C208.537 135.932 208.422 136.385 208.422 136.906C208.422 137.437 208.542 137.922 208.781 138.359C209.021 138.797 209.38 139.146 209.859 139.406C210.349 139.656 210.948 139.781 211.656 139.781C212.542 139.781 213.323 139.594 214 139.219C214.677 138.844 215.214 138.385 215.609 137.844C216.016 137.302 216.234 136.776 216.266 136.266L217.5 137.656C217.427 138.094 217.229 138.578 216.906 139.109C216.583 139.641 216.151 140.151 215.609 140.641C215.078 141.12 214.443 141.521 213.703 141.844C212.974 142.156 212.151 142.313 211.234 142.313C210.089 142.313 209.083 142.089 208.219 141.641C207.365 141.193 206.698 140.594 206.219 139.844C205.75 139.083 205.516 138.234 205.516 137.297C205.516 136.391 205.693 135.594 206.047 134.906C206.401 134.208 206.912 133.63 207.578 133.172C208.245 132.703 209.047 132.349 209.984 132.109C210.922 131.87 211.969 131.75 213.125 131.75H216.484ZM227.734 142H224.844V123.312C224.844 122.094 225.063 121.068 225.5 120.234C225.948 119.391 226.589 118.755 227.422 118.328C228.255 117.891 229.245 117.672 230.391 117.672C230.724 117.672 231.057 117.693 231.391 117.734C231.734 117.776 232.068 117.839 232.391 117.922L232.234 120.281C232.016 120.229 231.766 120.193 231.484 120.172C231.214 120.151 230.943 120.141 230.672 120.141C230.057 120.141 229.526 120.266 229.078 120.516C228.641 120.755 228.307 121.109 228.078 121.578C227.849 122.047 227.734 122.625 227.734 123.312V142ZM231.328 125.094V127.312H222.172V125.094H231.328ZM241.188 142.313C240.01 142.313 238.943 142.115 237.984 141.719C237.037 141.312 236.219 140.745 235.531 140.016C234.854 139.286 234.333 138.422 233.969 137.422C233.604 136.422 233.422 135.328 233.422 134.141V133.484C233.422 132.109 233.625 130.885 234.031 129.812C234.438 128.729 234.99 127.812 235.688 127.062C236.385 126.312 237.177 125.745 238.063 125.359C238.948 124.974 239.865 124.781 240.813 124.781C242.021 124.781 243.063 124.99 243.938 125.406C244.823 125.823 245.547 126.406 246.109 127.156C246.672 127.896 247.089 128.771 247.359 129.781C247.63 130.781 247.766 131.875 247.766 133.062V134.359H235.141V132H244.875V131.781C244.833 131.031 244.677 130.302 244.406 129.594C244.146 128.885 243.729 128.302 243.156 127.844C242.583 127.385 241.802 127.156 240.813 127.156C240.156 127.156 239.552 127.297 239 127.578C238.448 127.849 237.974 128.255 237.578 128.797C237.182 129.339 236.875 130 236.656 130.781C236.438 131.562 236.328 132.464 236.328 133.484V134.141C236.328 134.943 236.438 135.698 236.656 136.406C236.885 137.104 237.214 137.719 237.641 138.25C238.078 138.781 238.604 139.198 239.219 139.5C239.844 139.802 240.552 139.953 241.344 139.953C242.365 139.953 243.229 139.745 243.938 139.328C244.646 138.911 245.266 138.354 245.797 137.656L247.547 139.047C247.182 139.599 246.719 140.125 246.156 140.625C245.594 141.125 244.901 141.531 244.078 141.844C243.266 142.156 242.302 142.313 241.188 142.313ZM258.219 125.094V127.312H249.078V125.094H258.219ZM252.172 120.984H255.063V137.812C255.063 138.385 255.151 138.818 255.328 139.109C255.505 139.401 255.734 139.594 256.016 139.687C256.297 139.781 256.599 139.828 256.922 139.828C257.162 139.828 257.412 139.807 257.672 139.766C257.943 139.714 258.146 139.672 258.281 139.641L258.297 142C258.068 142.073 257.766 142.141 257.391 142.203C257.026 142.276 256.583 142.313 256.063 142.313C255.354 142.313 254.703 142.172 254.109 141.891C253.516 141.609 253.042 141.141 252.688 140.484C252.344 139.818 252.172 138.922 252.172 137.797V120.984ZM266.359 140.25L271.063 125.094H274.156L267.375 144.609C267.219 145.026 267.011 145.474 266.75 145.953C266.5 146.443 266.177 146.906 265.781 147.344C265.386 147.781 264.906 148.135 264.344 148.406C263.792 148.688 263.13 148.828 262.359 148.828C262.13 148.828 261.839 148.797 261.484 148.734C261.13 148.672 260.88 148.62 260.734 148.578L260.719 146.234C260.802 146.245 260.932 146.255 261.109 146.266C261.297 146.286 261.427 146.297 261.5 146.297C262.156 146.297 262.714 146.208 263.172 146.031C263.63 145.865 264.016 145.578 264.328 145.172C264.651 144.776 264.927 144.229 265.156 143.531L266.359 140.25ZM262.906 125.094L267.297 138.219L268.047 141.266L265.969 142.328L259.75 125.094H262.906ZM297.266 136.25C297.266 135.719 297.182 135.25 297.016 134.844C296.859 134.427 296.578 134.052 296.172 133.719C295.776 133.385 295.224 133.068 294.516 132.766C293.818 132.464 292.932 132.156 291.859 131.844C290.734 131.51 289.719 131.141 288.813 130.734C287.906 130.318 287.13 129.844 286.484 129.312C285.839 128.781 285.344 128.172 285 127.484C284.656 126.797 284.484 126.01 284.484 125.125C284.484 124.24 284.667 123.422 285.031 122.672C285.396 121.922 285.917 121.271 286.594 120.719C287.281 120.156 288.099 119.719 289.047 119.406C289.995 119.094 291.052 118.937 292.219 118.937C293.927 118.937 295.375 119.266 296.563 119.922C297.761 120.568 298.672 121.417 299.297 122.469C299.922 123.51 300.234 124.625 300.234 125.812H297.234C297.234 124.958 297.052 124.203 296.688 123.547C296.323 122.88 295.771 122.359 295.031 121.984C294.292 121.599 293.354 121.406 292.219 121.406C291.146 121.406 290.261 121.568 289.563 121.891C288.865 122.214 288.344 122.651 288 123.203C287.667 123.755 287.5 124.385 287.5 125.094C287.5 125.573 287.599 126.01 287.797 126.406C288.005 126.792 288.323 127.151 288.75 127.484C289.188 127.818 289.74 128.125 290.406 128.406C291.083 128.687 291.891 128.958 292.828 129.219C294.12 129.583 295.234 129.99 296.172 130.437C297.109 130.885 297.88 131.391 298.484 131.953C299.099 132.505 299.552 133.135 299.844 133.844C300.146 134.542 300.297 135.333 300.297 136.219C300.297 137.146 300.109 137.984 299.734 138.734C299.359 139.484 298.823 140.125 298.125 140.656C297.427 141.187 296.589 141.599 295.609 141.891C294.641 142.172 293.557 142.313 292.359 142.313C291.307 142.313 290.271 142.167 289.25 141.875C288.24 141.583 287.318 141.146 286.484 140.562C285.662 139.979 285 139.26 284.5 138.406C284.011 137.542 283.766 136.542 283.766 135.406H286.766C286.766 136.187 286.917 136.859 287.219 137.422C287.521 137.974 287.932 138.432 288.453 138.797C288.984 139.161 289.583 139.432 290.25 139.609C290.927 139.776 291.63 139.859 292.359 139.859C293.412 139.859 294.302 139.714 295.031 139.422C295.761 139.13 296.313 138.714 296.688 138.172C297.073 137.63 297.266 136.99 297.266 136.25ZM310.469 139.937C311.156 139.937 311.792 139.797 312.375 139.516C312.958 139.234 313.438 138.849 313.813 138.359C314.188 137.859 314.401 137.292 314.453 136.656H317.203C317.151 137.656 316.813 138.589 316.188 139.453C315.573 140.307 314.766 141 313.766 141.531C312.766 142.052 311.667 142.313 310.469 142.313C309.198 142.313 308.089 142.089 307.141 141.641C306.203 141.193 305.422 140.578 304.797 139.797C304.182 139.016 303.719 138.12 303.406 137.109C303.104 136.089 302.953 135.01 302.953 133.875V133.219C302.953 132.083 303.104 131.01 303.406 130C303.719 128.979 304.182 128.078 304.797 127.297C305.422 126.516 306.203 125.901 307.141 125.453C308.089 125.005 309.198 124.781 310.469 124.781C311.792 124.781 312.948 125.052 313.938 125.594C314.927 126.125 315.703 126.854 316.266 127.781C316.839 128.698 317.151 129.74 317.203 130.906H314.453C314.401 130.208 314.203 129.578 313.86 129.016C313.526 128.453 313.068 128.005 312.485 127.672C311.912 127.328 311.24 127.156 310.469 127.156C309.583 127.156 308.839 127.333 308.235 127.687C307.641 128.031 307.167 128.5 306.813 129.094C306.469 129.677 306.219 130.328 306.063 131.047C305.917 131.755 305.844 132.479 305.844 133.219V133.875C305.844 134.615 305.917 135.344 306.063 136.062C306.208 136.781 306.453 137.432 306.797 138.016C307.151 138.599 307.625 139.068 308.219 139.422C308.823 139.766 309.573 139.937 310.469 139.937ZM319.688 133.734V133.375C319.688 132.156 319.865 131.026 320.219 129.984C320.573 128.932 321.083 128.021 321.75 127.25C322.417 126.469 323.224 125.865 324.172 125.437C325.12 125 326.182 124.781 327.36 124.781C328.547 124.781 329.615 125 330.563 125.437C331.521 125.865 332.333 126.469 333 127.25C333.677 128.021 334.193 128.932 334.547 129.984C334.901 131.026 335.078 132.156 335.078 133.375V133.734C335.078 134.953 334.901 136.083 334.547 137.125C334.193 138.167 333.677 139.078 333 139.859C332.333 140.63 331.526 141.234 330.578 141.672C329.641 142.099 328.578 142.313 327.391 142.313C326.203 142.313 325.136 142.099 324.188 141.672C323.24 141.234 322.427 140.63 321.75 139.859C321.083 139.078 320.573 138.167 320.219 137.125C319.865 136.083 319.688 134.953 319.688 133.734ZM322.578 133.375V133.734C322.578 134.578 322.677 135.375 322.875 136.125C323.073 136.865 323.37 137.521 323.766 138.094C324.172 138.667 324.677 139.12 325.281 139.453C325.886 139.776 326.589 139.937 327.391 139.937C328.182 139.937 328.875 139.776 329.469 139.453C330.073 139.12 330.573 138.667 330.969 138.094C331.365 137.521 331.662 136.865 331.86 136.125C332.068 135.375 332.172 134.578 332.172 133.734V133.375C332.172 132.542 332.068 131.755 331.86 131.016C331.662 130.266 331.36 129.604 330.953 129.031C330.557 128.448 330.057 127.99 329.453 127.656C328.86 127.323 328.162 127.156 327.36 127.156C326.568 127.156 325.87 127.323 325.266 127.656C324.672 127.99 324.172 128.448 323.766 129.031C323.37 129.604 323.073 130.266 322.875 131.016C322.677 131.755 322.578 132.542 322.578 133.375ZM341.594 127.75V142H338.703V125.094H341.516L341.594 127.75ZM346.875 125L346.86 127.687C346.62 127.635 346.391 127.604 346.172 127.594C345.964 127.573 345.724 127.562 345.453 127.562C344.787 127.562 344.198 127.667 343.688 127.875C343.177 128.083 342.745 128.375 342.391 128.75C342.037 129.125 341.755 129.573 341.547 130.094C341.349 130.604 341.219 131.167 341.156 131.781L340.344 132.25C340.344 131.229 340.443 130.271 340.641 129.375C340.849 128.479 341.167 127.687 341.594 127C342.021 126.302 342.563 125.76 343.219 125.375C343.886 124.979 344.677 124.781 345.594 124.781C345.802 124.781 346.042 124.807 346.313 124.859C346.583 124.901 346.771 124.948 346.875 125ZM356.25 142.313C355.073 142.313 354.005 142.115 353.047 141.719C352.099 141.312 351.281 140.745 350.594 140.016C349.917 139.286 349.396 138.422 349.031 137.422C348.667 136.422 348.485 135.328 348.485 134.141V133.484C348.485 132.109 348.688 130.885 349.094 129.812C349.5 128.729 350.052 127.812 350.75 127.062C351.448 126.312 352.24 125.745 353.125 125.359C354.011 124.974 354.927 124.781 355.875 124.781C357.083 124.781 358.125 124.99 359 125.406C359.886 125.823 360.61 126.406 361.172 127.156C361.735 127.896 362.151 128.771 362.422 129.781C362.693 130.781 362.828 131.875 362.828 133.062V134.359H350.203V132H359.938V131.781C359.896 131.031 359.74 130.302 359.469 129.594C359.208 128.885 358.792 128.302 358.219 127.844C357.646 127.385 356.865 127.156 355.875 127.156C355.219 127.156 354.615 127.297 354.063 127.578C353.511 127.849 353.037 128.255 352.641 128.797C352.245 129.339 351.938 130 351.719 130.781C351.5 131.562 351.391 132.464 351.391 133.484V134.141C351.391 134.943 351.5 135.698 351.719 136.406C351.948 137.104 352.276 137.719 352.703 138.25C353.141 138.781 353.667 139.198 354.281 139.5C354.906 139.802 355.615 139.953 356.406 139.953C357.427 139.953 358.292 139.745 359 139.328C359.708 138.911 360.328 138.354 360.86 137.656L362.61 139.047C362.245 139.599 361.781 140.125 361.219 140.625C360.656 141.125 359.964 141.531 359.141 141.844C358.328 142.156 357.365 142.313 356.25 142.313Z" fill="#423E3A"/>
<path d="M207 182L207 248" stroke="#E3DDD3" stroke-width="2" stroke-linecap="round"/>
<path d="M233.572 182L233.572 248" stroke="#E3DDD3" stroke-width="2" stroke-linecap="round"/>
<path d="M260.143 182L260.143 248" stroke="#E3DDD3" stroke-width="2" stroke-linecap="round"/>
<path d="M286.715 182L286.715 248" stroke="#E3DDD3" stroke-width="2" stroke-linecap="round"/>
<path d="M313.285 182L313.285 248" stroke="#E3DDD3" stroke-width="2" stroke-linecap="round"/>
<path d="M339.857 182L339.857 248" stroke="#E3DDD3" stroke-width="2" stroke-linecap="round"/>
<path d="M366.428 182L366.428 248" stroke="#E3DDD3" stroke-width="2" stroke-linecap="round"/>
<path d="M393 182L393 248" stroke="#E3DDD3" stroke-width="2" stroke-linecap="round"/>
<path d="M133.606 202.056H109.122V192.809H149.6L122.918 246.627H111.396L133.606 202.056ZM170.065 212.82C172.592 212.82 174.942 213.249 177.114 214.108C179.287 214.917 181.157 216.079 182.724 217.595C184.29 219.111 185.503 220.93 186.362 223.053C187.272 225.175 187.726 227.525 187.726 230.102C187.726 232.831 187.221 235.307 186.21 237.531C185.25 239.754 183.886 241.649 182.117 243.216C180.349 244.833 178.251 246.071 175.826 246.93C173.4 247.839 170.773 248.294 167.943 248.294C164.001 248.294 160.464 247.46 157.331 245.793C154.248 244.125 151.898 241.851 150.281 238.971L156.118 232.907C157.533 234.878 159.301 236.444 161.424 237.606C163.546 238.769 165.744 239.35 168.018 239.35C170.747 239.35 172.971 238.541 174.689 236.924C176.458 235.257 177.342 233.058 177.342 230.33C177.342 227.702 176.508 225.579 174.84 223.962C173.223 222.345 171.152 221.537 168.625 221.537C166.957 221.537 165.391 221.916 163.925 222.674C162.51 223.432 161.373 224.468 160.514 225.782H151.646C151.646 225.63 151.747 225.074 151.949 224.114C152.151 223.103 152.404 221.84 152.707 220.324C153.01 218.757 153.339 217.039 153.692 215.17C154.046 213.249 154.425 211.304 154.829 209.333C155.739 204.684 156.75 199.479 157.861 193.718H184.391V202.966H165.214L163.016 215.018C163.622 214.361 164.506 213.83 165.669 213.426C166.881 213.022 168.347 212.82 170.065 212.82Z" fill="#423E3A"/>
<path d="M207 227.262L220.286 218.119L233.571 227.262L246.857 242.5L260.143 239.452L273.429 224.214L286.714 221.167L300 215.071L313.286 227.262L326.571 236.405L339.857 202.881L353.143 205.929L366.429 196.786L379.714 178.5L393 208.976" stroke="#78726B" stroke-width="4" stroke-linecap="round" stroke-linejoin="round"/>
<path d="M117.323 271.968C118.068 270.677 119.932 270.677 120.677 271.968L130.738 289.394C131.483 290.685 130.551 292.298 129.061 292.298H108.939C107.449 292.298 106.517 290.685 107.262 289.394L117.323 271.968Z" fill="#598C0E"/>
<rect x="139" y="273.649" width="38" height="16" rx="8.00001" fill="#598C0E"/>
<rect x="185" y="273.649" width="106" height="16" rx="8.00001" fill="#ADA79E"/>
<rect x="75" y="324.298" width="350" height="32" fill="#F1E678"/>
<rect x="75" y="356.299" width="350" height="32" fill="#EC905F"/>
<path d="M75 388.299H425V404.299C425 413.135 417.837 420.299 409 420.299H91C82.1634 420.299 75 413.135 75 404.299V388.299Z" fill="#BF406B"/>
</svg>
