<svg width="500" height="500" viewBox="0 0 500 500" fill="none" xmlns="http://www.w3.org/2000/svg">
<rect width="500" height="500" rx="8" fill="#0D0C0B"/>
<rect x="65" y="80" width="370" height="116" rx="16" fill="#FFF9F0"/>
<path d="M91.9453 100.938H95.4492V112.211C95.4492 113.523 95.168 114.629 94.6055 115.527C94.0508 116.426 93.2812 117.102 92.2969 117.555C91.3203 118.008 90.1953 118.234 88.9219 118.234C87.6484 118.234 86.5156 118.008 85.5234 117.555C84.5391 117.102 83.7656 116.426 83.2031 115.527C82.6484 114.629 82.3711 113.523 82.3711 112.211V100.938H85.8867V112.211C85.8867 112.977 86.0078 113.602 86.25 114.086C86.4922 114.57 86.8398 114.926 87.293 115.152C87.7539 115.379 88.2969 115.492 88.9219 115.492C89.5625 115.492 90.1055 115.379 90.5508 115.152C91.0039 114.926 91.3477 114.57 91.582 114.086C91.8242 113.602 91.9453 112.977 91.9453 112.211V100.938ZM104.988 114.496C104.988 114.254 104.918 114.035 104.777 113.84C104.637 113.645 104.375 113.465 103.992 113.301C103.617 113.129 103.074 112.973 102.363 112.832C101.723 112.691 101.125 112.516 100.57 112.305C100.023 112.086 99.5469 111.824 99.1406 111.52C98.7422 111.215 98.4297 110.855 98.2031 110.441C97.9766 110.02 97.8633 109.539 97.8633 109C97.8633 108.469 97.9766 107.969 98.2031 107.5C98.4375 107.031 98.7695 106.617 99.1992 106.258C99.6367 105.891 100.168 105.605 100.793 105.402C101.426 105.191 102.137 105.086 102.926 105.086C104.027 105.086 104.973 105.262 105.762 105.613C106.559 105.965 107.168 106.449 107.59 107.066C108.02 107.676 108.234 108.371 108.234 109.152H104.859C104.859 108.824 104.789 108.531 104.648 108.273C104.516 108.008 104.305 107.801 104.016 107.652C103.734 107.496 103.367 107.418 102.914 107.418C102.539 107.418 102.215 107.484 101.941 107.617C101.668 107.742 101.457 107.914 101.309 108.133C101.168 108.344 101.098 108.578 101.098 108.836C101.098 109.031 101.137 109.207 101.215 109.363C101.301 109.512 101.438 109.648 101.625 109.773C101.812 109.898 102.055 110.016 102.352 110.125C102.656 110.227 103.031 110.32 103.477 110.406C104.391 110.594 105.207 110.84 105.926 111.145C106.645 111.441 107.215 111.848 107.637 112.363C108.059 112.871 108.27 113.539 108.27 114.367C108.27 114.93 108.145 115.445 107.895 115.914C107.645 116.383 107.285 116.793 106.816 117.145C106.348 117.488 105.785 117.758 105.129 117.953C104.48 118.141 103.75 118.234 102.938 118.234C101.758 118.234 100.758 118.023 99.9375 117.602C99.125 117.18 98.5078 116.645 98.0859 115.996C97.6719 115.34 97.4648 114.668 97.4648 113.98H100.664C100.68 114.441 100.797 114.812 101.016 115.094C101.242 115.375 101.527 115.578 101.871 115.703C102.223 115.828 102.602 115.891 103.008 115.891C103.445 115.891 103.809 115.832 104.098 115.715C104.387 115.59 104.605 115.426 104.754 115.223C104.91 115.012 104.988 114.77 104.988 114.496ZM117.305 115.141V109.492C117.305 109.086 117.238 108.738 117.105 108.449C116.973 108.152 116.766 107.922 116.484 107.758C116.211 107.594 115.855 107.512 115.418 107.512C115.043 107.512 114.719 107.578 114.445 107.711C114.172 107.836 113.961 108.02 113.812 108.262C113.664 108.496 113.59 108.773 113.59 109.094H110.215C110.215 108.555 110.34 108.043 110.59 107.559C110.84 107.074 111.203 106.648 111.68 106.281C112.156 105.906 112.723 105.613 113.379 105.402C114.043 105.191 114.785 105.086 115.605 105.086C116.59 105.086 117.465 105.25 118.23 105.578C118.996 105.906 119.598 106.398 120.035 107.055C120.48 107.711 120.703 108.531 120.703 109.516V114.941C120.703 115.637 120.746 116.207 120.832 116.652C120.918 117.09 121.043 117.473 121.207 117.801V118H117.797C117.633 117.656 117.508 117.227 117.422 116.711C117.344 116.188 117.305 115.664 117.305 115.141ZM117.75 110.277L117.773 112.188H115.887C115.441 112.188 115.055 112.238 114.727 112.34C114.398 112.441 114.129 112.586 113.918 112.773C113.707 112.953 113.551 113.164 113.449 113.406C113.355 113.648 113.309 113.914 113.309 114.203C113.309 114.492 113.375 114.754 113.508 114.988C113.641 115.215 113.832 115.395 114.082 115.527C114.332 115.652 114.625 115.715 114.961 115.715C115.469 115.715 115.91 115.613 116.285 115.41C116.66 115.207 116.949 114.957 117.152 114.66C117.363 114.363 117.473 114.082 117.48 113.816L118.371 115.246C118.246 115.566 118.074 115.898 117.855 116.242C117.645 116.586 117.375 116.91 117.047 117.215C116.719 117.512 116.324 117.758 115.863 117.953C115.402 118.141 114.855 118.234 114.223 118.234C113.418 118.234 112.688 118.074 112.031 117.754C111.383 117.426 110.867 116.977 110.484 116.406C110.109 115.828 109.922 115.172 109.922 114.438C109.922 113.773 110.047 113.184 110.297 112.668C110.547 112.152 110.914 111.719 111.398 111.367C111.891 111.008 112.504 110.738 113.238 110.559C113.973 110.371 114.824 110.277 115.793 110.277H117.75ZM131.332 105.32H134.391V117.578C134.391 118.734 134.133 119.715 133.617 120.52C133.109 121.332 132.398 121.945 131.484 122.359C130.57 122.781 129.508 122.992 128.297 122.992C127.766 122.992 127.203 122.922 126.609 122.781C126.023 122.641 125.461 122.422 124.922 122.125C124.391 121.828 123.945 121.453 123.586 121L125.074 119.008C125.465 119.461 125.918 119.812 126.434 120.062C126.949 120.32 127.52 120.449 128.145 120.449C128.754 120.449 129.27 120.336 129.691 120.109C130.113 119.891 130.438 119.566 130.664 119.137C130.891 118.715 131.004 118.203 131.004 117.602V108.25L131.332 105.32ZM122.801 111.812V111.566C122.801 110.598 122.918 109.719 123.152 108.93C123.395 108.133 123.734 107.449 124.172 106.879C124.617 106.309 125.156 105.867 125.789 105.555C126.422 105.242 127.137 105.086 127.934 105.086C128.777 105.086 129.484 105.242 130.055 105.555C130.625 105.867 131.094 106.312 131.461 106.891C131.828 107.461 132.113 108.137 132.316 108.918C132.527 109.691 132.691 110.539 132.809 111.461V112C132.691 112.883 132.516 113.703 132.281 114.461C132.047 115.219 131.738 115.883 131.355 116.453C130.973 117.016 130.496 117.453 129.926 117.766C129.363 118.078 128.691 118.234 127.91 118.234C127.129 118.234 126.422 118.074 125.789 117.754C125.164 117.434 124.629 116.984 124.184 116.406C123.738 115.828 123.395 115.148 123.152 114.367C122.918 113.586 122.801 112.734 122.801 111.812ZM126.176 111.566V111.812C126.176 112.336 126.227 112.824 126.328 113.277C126.43 113.73 126.586 114.133 126.797 114.484C127.016 114.828 127.285 115.098 127.605 115.293C127.934 115.48 128.32 115.574 128.766 115.574C129.383 115.574 129.887 115.445 130.277 115.188C130.668 114.922 130.961 114.559 131.156 114.098C131.352 113.637 131.465 113.105 131.496 112.504V110.969C131.48 110.477 131.414 110.035 131.297 109.645C131.18 109.246 131.016 108.906 130.805 108.625C130.594 108.344 130.32 108.125 129.984 107.969C129.648 107.812 129.25 107.734 128.789 107.734C128.344 107.734 127.957 107.836 127.629 108.039C127.309 108.234 127.039 108.504 126.82 108.848C126.609 109.191 126.449 109.598 126.34 110.066C126.23 110.527 126.176 111.027 126.176 111.566ZM142.852 118.234C141.867 118.234 140.984 118.078 140.203 117.766C139.422 117.445 138.758 117.004 138.211 116.441C137.672 115.879 137.258 115.227 136.969 114.484C136.68 113.734 136.535 112.938 136.535 112.094V111.625C136.535 110.664 136.672 109.785 136.945 108.988C137.219 108.191 137.609 107.5 138.117 106.914C138.633 106.328 139.258 105.879 139.992 105.566C140.727 105.246 141.555 105.086 142.477 105.086C143.375 105.086 144.172 105.234 144.867 105.531C145.562 105.828 146.145 106.25 146.613 106.797C147.09 107.344 147.449 108 147.691 108.766C147.934 109.523 148.055 110.367 148.055 111.297V112.703H137.977V110.453H144.738V110.195C144.738 109.727 144.652 109.309 144.48 108.941C144.316 108.566 144.066 108.27 143.73 108.051C143.395 107.832 142.965 107.723 142.441 107.723C141.996 107.723 141.613 107.82 141.293 108.016C140.973 108.211 140.711 108.484 140.508 108.836C140.312 109.188 140.164 109.602 140.062 110.078C139.969 110.547 139.922 111.062 139.922 111.625V112.094C139.922 112.602 139.992 113.07 140.133 113.5C140.281 113.93 140.488 114.301 140.754 114.613C141.027 114.926 141.355 115.168 141.738 115.34C142.129 115.512 142.57 115.598 143.062 115.598C143.672 115.598 144.238 115.48 144.762 115.246C145.293 115.004 145.75 114.641 146.133 114.156L147.773 115.938C147.508 116.32 147.145 116.688 146.684 117.039C146.23 117.391 145.684 117.68 145.043 117.906C144.402 118.125 143.672 118.234 142.852 118.234Z" fill="#423E3A"/>
<rect x="81" y="140" width="48" height="8" rx="4" fill="#918B83"/>
<rect x="183" y="140" width="132" height="8" rx="4" fill="#C7C1B7"/>
<rect x="183" y="152" width="210" height="8" rx="4" fill="#C7C1B7"/>
<rect x="183" y="164" width="186" height="8" rx="4" fill="#C7C1B7"/>
<rect x="65" y="228" width="370" height="192" rx="16" fill="#FFF9F0"/>
<path d="M88.6758 262.438L92.6953 248.938H96.6094L90.668 266H88.0898L88.6758 262.438ZM84.9727 248.938L88.9805 262.438L89.5898 266H86.9883L81.082 248.938H84.9727ZM104.297 263.141V257.492C104.297 257.086 104.23 256.738 104.098 256.449C103.965 256.152 103.758 255.922 103.477 255.758C103.203 255.594 102.848 255.512 102.41 255.512C102.035 255.512 101.711 255.578 101.438 255.711C101.164 255.836 100.953 256.02 100.805 256.262C100.656 256.496 100.582 256.773 100.582 257.094H97.207C97.207 256.555 97.332 256.043 97.582 255.559C97.832 255.074 98.1953 254.648 98.6719 254.281C99.1484 253.906 99.7148 253.613 100.371 253.402C101.035 253.191 101.777 253.086 102.598 253.086C103.582 253.086 104.457 253.25 105.223 253.578C105.988 253.906 106.59 254.398 107.027 255.055C107.473 255.711 107.695 256.531 107.695 257.516V262.941C107.695 263.637 107.738 264.207 107.824 264.652C107.91 265.09 108.035 265.473 108.199 265.801V266H104.789C104.625 265.656 104.5 265.227 104.414 264.711C104.336 264.188 104.297 263.664 104.297 263.141ZM104.742 258.277L104.766 260.188H102.879C102.434 260.188 102.047 260.238 101.719 260.34C101.391 260.441 101.121 260.586 100.91 260.773C100.699 260.953 100.543 261.164 100.441 261.406C100.348 261.648 100.301 261.914 100.301 262.203C100.301 262.492 100.367 262.754 100.5 262.988C100.633 263.215 100.824 263.395 101.074 263.527C101.324 263.652 101.617 263.715 101.953 263.715C102.461 263.715 102.902 263.613 103.277 263.41C103.652 263.207 103.941 262.957 104.145 262.66C104.355 262.363 104.465 262.082 104.473 261.816L105.363 263.246C105.238 263.566 105.066 263.898 104.848 264.242C104.637 264.586 104.367 264.91 104.039 265.215C103.711 265.512 103.316 265.758 102.855 265.953C102.395 266.141 101.848 266.234 101.215 266.234C100.41 266.234 99.6797 266.074 99.0234 265.754C98.375 265.426 97.8594 264.977 97.4766 264.406C97.1016 263.828 96.9141 263.172 96.9141 262.438C96.9141 261.773 97.0391 261.184 97.2891 260.668C97.5391 260.152 97.9062 259.719 98.3906 259.367C98.8828 259.008 99.4961 258.738 100.23 258.559C100.965 258.371 101.816 258.277 102.785 258.277H104.742ZM113.672 256.086V266H110.297V253.32H113.473L113.672 256.086ZM117.492 253.238L117.434 256.367C117.27 256.344 117.07 256.324 116.836 256.309C116.609 256.285 116.402 256.273 116.215 256.273C115.738 256.273 115.324 256.336 114.973 256.461C114.629 256.578 114.34 256.754 114.105 256.988C113.879 257.223 113.707 257.508 113.59 257.844C113.48 258.18 113.418 258.562 113.402 258.992L112.723 258.781C112.723 257.961 112.805 257.207 112.969 256.52C113.133 255.824 113.371 255.219 113.684 254.703C114.004 254.188 114.395 253.789 114.855 253.508C115.316 253.227 115.844 253.086 116.438 253.086C116.625 253.086 116.816 253.102 117.012 253.133C117.207 253.156 117.367 253.191 117.492 253.238ZM122.648 253.32V266H119.262V253.32H122.648ZM119.051 250.016C119.051 249.523 119.223 249.117 119.566 248.797C119.91 248.477 120.371 248.316 120.949 248.316C121.52 248.316 121.977 248.477 122.32 248.797C122.672 249.117 122.848 249.523 122.848 250.016C122.848 250.508 122.672 250.914 122.32 251.234C121.977 251.555 121.52 251.715 120.949 251.715C120.371 251.715 119.91 251.555 119.566 251.234C119.223 250.914 119.051 250.508 119.051 250.016ZM132.281 263.141V257.492C132.281 257.086 132.215 256.738 132.082 256.449C131.949 256.152 131.742 255.922 131.461 255.758C131.188 255.594 130.832 255.512 130.395 255.512C130.02 255.512 129.695 255.578 129.422 255.711C129.148 255.836 128.938 256.02 128.789 256.262C128.641 256.496 128.566 256.773 128.566 257.094H125.191C125.191 256.555 125.316 256.043 125.566 255.559C125.816 255.074 126.18 254.648 126.656 254.281C127.133 253.906 127.699 253.613 128.355 253.402C129.02 253.191 129.762 253.086 130.582 253.086C131.566 253.086 132.441 253.25 133.207 253.578C133.973 253.906 134.574 254.398 135.012 255.055C135.457 255.711 135.68 256.531 135.68 257.516V262.941C135.68 263.637 135.723 264.207 135.809 264.652C135.895 265.09 136.02 265.473 136.184 265.801V266H132.773C132.609 265.656 132.484 265.227 132.398 264.711C132.32 264.188 132.281 263.664 132.281 263.141ZM132.727 258.277L132.75 260.188H130.863C130.418 260.188 130.031 260.238 129.703 260.34C129.375 260.441 129.105 260.586 128.895 260.773C128.684 260.953 128.527 261.164 128.426 261.406C128.332 261.648 128.285 261.914 128.285 262.203C128.285 262.492 128.352 262.754 128.484 262.988C128.617 263.215 128.809 263.395 129.059 263.527C129.309 263.652 129.602 263.715 129.938 263.715C130.445 263.715 130.887 263.613 131.262 263.41C131.637 263.207 131.926 262.957 132.129 262.66C132.34 262.363 132.449 262.082 132.457 261.816L133.348 263.246C133.223 263.566 133.051 263.898 132.832 264.242C132.621 264.586 132.352 264.91 132.023 265.215C131.695 265.512 131.301 265.758 130.84 265.953C130.379 266.141 129.832 266.234 129.199 266.234C128.395 266.234 127.664 266.074 127.008 265.754C126.359 265.426 125.844 264.977 125.461 264.406C125.086 263.828 124.898 263.172 124.898 262.438C124.898 261.773 125.023 261.184 125.273 260.668C125.523 260.152 125.891 259.719 126.375 259.367C126.867 259.008 127.48 258.738 128.215 258.559C128.949 258.371 129.801 258.277 130.77 258.277H132.727ZM141.586 256.027V266H138.211V253.32H141.375L141.586 256.027ZM141.094 259.215H140.18C140.18 258.277 140.301 257.434 140.543 256.684C140.785 255.926 141.125 255.281 141.562 254.75C142 254.211 142.52 253.801 143.121 253.52C143.73 253.23 144.41 253.086 145.16 253.086C145.754 253.086 146.297 253.172 146.789 253.344C147.281 253.516 147.703 253.789 148.055 254.164C148.414 254.539 148.688 255.035 148.875 255.652C149.07 256.27 149.168 257.023 149.168 257.914V266H145.77V257.902C145.77 257.34 145.691 256.902 145.535 256.59C145.379 256.277 145.148 256.059 144.844 255.934C144.547 255.801 144.18 255.734 143.742 255.734C143.289 255.734 142.895 255.824 142.559 256.004C142.23 256.184 141.957 256.434 141.738 256.754C141.527 257.066 141.367 257.434 141.258 257.855C141.148 258.277 141.094 258.73 141.094 259.215ZM157.945 253.32V255.711H150.562V253.32H157.945ZM152.391 250.191H155.766V262.18C155.766 262.547 155.812 262.828 155.906 263.023C156.008 263.219 156.156 263.355 156.352 263.434C156.547 263.504 156.793 263.539 157.09 263.539C157.301 263.539 157.488 263.531 157.652 263.516C157.824 263.492 157.969 263.469 158.086 263.445L158.098 265.93C157.809 266.023 157.496 266.098 157.16 266.152C156.824 266.207 156.453 266.234 156.047 266.234C155.305 266.234 154.656 266.113 154.102 265.871C153.555 265.621 153.133 265.223 152.836 264.676C152.539 264.129 152.391 263.41 152.391 262.52V250.191ZM166.723 262.496C166.723 262.254 166.652 262.035 166.512 261.84C166.371 261.645 166.109 261.465 165.727 261.301C165.352 261.129 164.809 260.973 164.098 260.832C163.457 260.691 162.859 260.516 162.305 260.305C161.758 260.086 161.281 259.824 160.875 259.52C160.477 259.215 160.164 258.855 159.938 258.441C159.711 258.02 159.598 257.539 159.598 257C159.598 256.469 159.711 255.969 159.938 255.5C160.172 255.031 160.504 254.617 160.934 254.258C161.371 253.891 161.902 253.605 162.527 253.402C163.16 253.191 163.871 253.086 164.66 253.086C165.762 253.086 166.707 253.262 167.496 253.613C168.293 253.965 168.902 254.449 169.324 255.066C169.754 255.676 169.969 256.371 169.969 257.152H166.594C166.594 256.824 166.523 256.531 166.383 256.273C166.25 256.008 166.039 255.801 165.75 255.652C165.469 255.496 165.102 255.418 164.648 255.418C164.273 255.418 163.949 255.484 163.676 255.617C163.402 255.742 163.191 255.914 163.043 256.133C162.902 256.344 162.832 256.578 162.832 256.836C162.832 257.031 162.871 257.207 162.949 257.363C163.035 257.512 163.172 257.648 163.359 257.773C163.547 257.898 163.789 258.016 164.086 258.125C164.391 258.227 164.766 258.32 165.211 258.406C166.125 258.594 166.941 258.84 167.66 259.145C168.379 259.441 168.949 259.848 169.371 260.363C169.793 260.871 170.004 261.539 170.004 262.367C170.004 262.93 169.879 263.445 169.629 263.914C169.379 264.383 169.02 264.793 168.551 265.145C168.082 265.488 167.52 265.758 166.863 265.953C166.215 266.141 165.484 266.234 164.672 266.234C163.492 266.234 162.492 266.023 161.672 265.602C160.859 265.18 160.242 264.645 159.82 263.996C159.406 263.34 159.199 262.668 159.199 261.98H162.398C162.414 262.441 162.531 262.812 162.75 263.094C162.977 263.375 163.262 263.578 163.605 263.703C163.957 263.828 164.336 263.891 164.742 263.891C165.18 263.891 165.543 263.832 165.832 263.715C166.121 263.59 166.34 263.426 166.488 263.223C166.645 263.012 166.723 262.77 166.723 262.496Z" fill="#423E3A"/>
<rect x="81" y="286" width="82" height="24" rx="8" fill="#F1E678"/>
<rect x="179" y="288" width="44" height="8" rx="4" fill="#918B83"/>
<rect x="179" y="300" width="210" height="8" rx="4" fill="#C7C1B7"/>
<rect x="82" y="331" width="78" height="22" rx="7" stroke="#EC905F" stroke-width="2"/>
<rect x="177" y="332" width="44" height="8" rx="4" fill="#918B83"/>
<rect x="177" y="344" width="182" height="8" rx="4" fill="#C7C1B7"/>
<rect x="97" y="382" width="48" height="8" rx="4" fill="#BF406B"/>
<rect x="177" y="376" width="44" height="8" rx="4" fill="#918B83"/>
<rect x="177" y="388" width="210" height="8" rx="4" fill="#C7C1B7"/>
</svg>
