<svg xmlns="http://www.w3.org/2000/svg" viewBox="0 0 6978.57 2628.25"><title>Logo</title><g id="Layer_2" data-name="Layer 2"><g id="Layer_1-2" data-name="Layer 1"><path d="M3455.75,2040.29q17.2-22.13,34.95-43.85c11.85-14.46,23.85-28.82,36.17-42.92,24.62-28.2,50.19-55.69,77.8-81.34a526.56,526.56,0,0,1,43.51-36.47c15.35-11.28,31.57-21.8,49.95-29.4,9.21-3.7,19-6.76,29.54-7.82a70.92,70.92,0,0,1,16.2.15,58.89,58.89,0,0,1,16.21,4.46,55.24,55.24,0,0,1,14.5,9.34,59.4,59.4,0,0,1,10.81,13.17,82.34,82.34,0,0,1,7,14.58,133.41,133.41,0,0,1,4.39,14.7c2.34,9.74,3.82,19.31,5.15,28.71s2.46,18.63,3.79,27.69c2.64,18.07,6.07,35.59,12.45,51.17a101.34,101.34,0,0,0,11.76,21.51,85.52,85.52,0,0,0,7.67,9.12,74.17,74.17,0,0,0,8.83,7.88,75.8,75.8,0,0,0,20.23,11.3,86.67,86.67,0,0,0,23,5c16.11,1.35,33.25-1,50.32-4.87,4.27-1,8.56-2.1,12.84-3.22s8.56-2.43,12.85-3.79q12.84-4,25.65-8.74c34.17-12.57,68.12-27.69,102.43-42.51s69-29.75,104.33-43.39,71.49-26,108.41-36.32a859.54,859.54,0,0,1,113-23.87,728,728,0,0,1,116.28-7c19.52.43,39.11,1.72,58.64,4s39,5.55,58.31,9.78a579.84,579.84,0,0,1,57.15,15.78c18.74,6.27,37.17,13.43,55.1,21.42,35.93,15.89,69.9,34.9,102.41,53.84,16.26,9.44,32.21,18.85,48,27.6s31.38,16.92,47,23.69a268.68,268.68,0,0,0,46.59,15.82,194.8,194.8,0,0,0,46.64,5.08c2-.06,3.9,0,5.86-.15l5.87-.32c3.91-.4,7.83-.63,11.71-1.24l2.92-.38,1.46-.19,1.45-.26,5.81-1c1.93-.34,3.85-.82,5.78-1.21l2.89-.61c1-.21,1.91-.49,2.87-.73l5.74-1.47,5.69-1.71,2.85-.85,2.82-1,5.65-1.94,5.59-2.18,2.8-1.08,2.77-1.2,5.54-2.4c1.84-.83,3.65-1.75,5.48-2.61,7.32-3.45,14.47-7.47,21.57-11.6,1.77-1.06,3.51-2.18,5.27-3.27s3.52-2.14,5.25-3.31l5.18-3.49c1.73-1.16,3.46-2.29,5.15-3.55a405.17,405.17,0,0,0,39.44-32l4.72-4.39,2.36-2.19,2.31-2.27c3.07-3.05,6.19-6,9.21-9.13l9-9.38,8.85-9.65c11.68-13,22.9-26.64,33.77-40.64s21.2-28.57,31.34-43.3l7.46-11.19,3.72-5.6,3.64-5.68,7.27-11.36,7.09-11.52c18.86-30.74,36.46-62.51,53.16-94.87,33.4-64.74,63-131.92,90.6-200.09,13.79-34.09,26.85-68.55,39.53-103.18,6.39-17.29,12.49-34.72,18.67-52.1,6-17.47,12.12-34.88,18-52.42s11.65-35.08,17.42-52.64l8.46-26.42,4.22-13.21,4.13-13.25,8.24-26.51,8.06-26.58,4-13.29,3.94-13.32L5646,1060c41.52-142.28,78.57-286.13,112.77-430.76l108.43,29.1q-104,365.71-209,731.06l-52.52,182.66-3.29,11.42-1.64,5.71-.82,2.85-.21.71-.13.58-.26,1.15-2.26,9.84q-1.24,5.43-2.38,10.88-4.63,21.79-8.19,43.79t-6.1,44.13q-2.47,22.14-3.92,44.37c-.95,14.82-1.48,29.65-1.77,44.48-.24,15.78-.46,31.26-.43,46.53s.25,30.37.82,45.24,1.47,29.52,2.87,43.73,3.28,28,5.85,40.77c1.27,6.38,2.73,12.48,4.35,18.08a128,128,0,0,0,5.22,15c.92,2.06,1.81,4,2.67,5.55a41.8,41.8,0,0,0,2.25,3.67c1.22,1.67,1.66,1.68,0,.47a14.77,14.77,0,0,0-3.37-1.73,15.24,15.24,0,0,0-3.42-.84c-.81-.09-1.12-.05-.91-.08a16.9,16.9,0,0,0,2-.43,58.62,58.62,0,0,0,10.09-4,132,132,0,0,0,13.8-8,282.84,282.84,0,0,0,30.51-23.6c10.32-9,20.59-18.93,30.73-29.33s20.1-21.28,30.29-32.76l3.88-4.37,3.58-4.13,7.16-8.27c4.67-5.67,9.44-11.21,14-17,9.27-11.43,18.16-23.36,27-35.35,17.48-24.18,34.12-49.3,50-75.1,31.75-51.68,60.67-105.88,87.48-161.44s51.61-112.49,74.92-170.2c46.52-115.49,87.2-234,124.28-353.87q27.76-89.92,52.88-180.83t48.11-182.49l124.76,32.11L6233.36,1095l-93.21,345.68,1.15-5.24c-3.94,22.22-7.18,44.53-9.54,66.95s-3.85,44.91-4.52,67.42-.51,45.05.5,67.54l1,16.86c.13,2.81.37,5.62.6,8.42l.67,8.42c.39,5.62,1,11.21,1.58,16.81l.86,8.4,1,8.86c2.73,23.8,5.52,47,8.79,70s7,45.43,11.62,67.43c1.16,5.49,2.3,11,3.59,16.41.63,2.71,1.23,5.45,1.89,8.14l2,8.07,1,4,1.08,4,2.15,8,2.3,7.87c.78,2.61,1.5,5.27,2.35,7.83,1.66,5.16,3.24,10.37,5.06,15.41l2.65,7.62,2.82,7.48,1.41,3.74c.48,1.24,1,2.45,1.5,3.67l3,7.33c1,2.45,2.12,4.78,3.17,7.18l1.6,3.58c.52,1.2,1.06,2.39,1.64,3.54,2.3,4.62,4.45,9.37,6.93,13.82l3.6,6.77,3.82,6.55,1.9,3.28c.64,1.09,1.34,2.11,2,3.17l4,6.33c1.34,2.1,2.82,4.06,4.21,6.11l2.11,3,1.06,1.52,1.12,1.45c3,3.85,5.85,7.84,9,11.43,1.57,1.83,3.07,3.73,4.68,5.52l4.89,5.24,2.43,2.63,2.56,2.46,5.09,5c1.75,1.58,3.55,3.09,5.31,4.65s3.49,3.17,5.38,4.54c28.88,23.55,65.7,39.35,105.79,47.92,2.52.5,5,1.12,7.55,1.54l7.62,1.37c2.55.44,5.13.77,7.7,1.17l3.85.58,3.89.46c10.35,1.34,20.87,2.09,31.45,2.58l8,.3,8,.09c2.66.06,5.33,0,8,0s5.34,0,8-.15c10.72-.32,21.47-1,32.23-2a528.59,528.59,0,0,0,64.37-10.41,559.18,559.18,0,0,0,63.07-18.08c41.27-14.6,80.9-33.92,116.66-57.86,8.89-6,17.58-12.29,26-18.85s16.45-13.41,24.14-20.56c1-.87,1.94-1.77,2.87-2.69l2.83-2.72,2.83-2.72c.94-.91,1.82-1.86,2.74-2.78,1.81-1.87,3.66-3.7,5.44-5.59l5.25-5.71c6.85-7.7,13.41-15.59,19.36-23.77a287.72,287.72,0,0,0,16.33-25.18,252.45,252.45,0,0,0,12.83-26.39,211.14,211.14,0,0,0,14.44-56.16,258.76,258.76,0,0,0-.29-60.17,356.56,356.56,0,0,0-13.16-61.79,508.27,508.27,0,0,0-23.26-61.4c-9.15-20.26-19.55-40.26-30.86-60s-23.55-39.09-36.48-58.21-26.56-38-40.7-56.89l-10.73-14.3L6708.54,1448c-3.51-4.45-7.13-8.81-10.69-13.23-1.76-2.22-3.63-4.36-5.47-6.52l-5.52-6.48q-22.28-25.77-46.83-49.67a898.75,898.75,0,0,0-105.7-87.95q-28.16-20.09-57.76-38.38T6416.21,1211a1373.93,1373.93,0,0,0-126.77-59.9q-32.53-13.44-65.72-25.52t-66.93-22.83c-22.47-7.24-45.13-14-67.9-20.39s-45.68-12.47-68.71-18.11-46.13-11.07-69.35-16.07-46.52-9.71-69.9-14.13-46.84-8.45-70.34-12.31-47.08-7.37-70.7-10.7c-94.49-13.17-189.71-22.37-285.25-28.43q-71.65-4.62-143.52-6.88-35.93-1.18-71.88-1.88t-71.94-.86q-72-.4-144,1t-144,4.36c-192.06,7.94-384,24.1-575.34,46.4q142.3-25.19,285.76-44.05t287.73-31.33q72.14-6.22,144.47-10.63t144.8-6.94q36.24-1.22,72.5-2t72.56-.94q72.58-.33,145.24,1.56c96.86,2.68,193.78,8.56,290.47,18.84s193.15,24.87,288.76,45.39q35.85,7.68,71.5,16.62c23.76,5.95,47.46,12.24,71,19.08s47.08,14,70.44,21.79,46.57,16.07,69.64,24.87a1437.51,1437.51,0,0,1,136,59.83q33.31,16.78,65.68,35.7t63.57,39.95c20.78,14.06,41.17,28.82,60.93,44.49s39,32.1,57.54,49.35,36.43,35.31,53.52,54.16l6.36,7.11c2.12,2.38,4.26,4.73,6.3,7.17,4.12,4.86,8.29,9.67,12.35,14.58l12,14.86,11.29,14.33c15.13,19.29,30.18,39.17,44.65,59.63s28.43,41.51,41.57,63.3,25.49,44.29,36.67,67.68a596.34,596.34,0,0,1,29.36,73,457.56,457.56,0,0,1,18.36,79A361.32,361.32,0,0,1,6977,1845a315.3,315.3,0,0,1-19.78,83.71,350.79,350.79,0,0,1-18,38.88,392.28,392.28,0,0,1-22.27,35.81c-8,11.44-16.65,22.26-25.62,32.69l-6.83,7.71c-2.31,2.53-4.67,5-7,7.48-1.18,1.23-2.34,2.5-3.54,3.71l-3.61,3.61c-2.42,2.38-4.79,4.86-7.27,7.16l-7.41,7c-2.48,2.3-5,4.51-7.55,6.76l-3.79,3.36-3.86,3.25c-2.58,2.15-5.14,4.35-7.75,6.46-10.43,8.46-21.15,16.46-32.06,24.13-43.78,30.4-91,54.32-140.24,72.61A657,657,0,0,1,6507.13,2226c-13.19,1.43-26.45,2.52-39.79,3.13-3.33.18-6.68.22-10,.34s-6.69.2-10,.19l-10.07,0-10.1-.22c-13.48-.42-27-1.22-40.56-2.76l-5.08-.54-5.09-.67c-3.39-.47-6.78-.88-10.18-1.41l-10.18-1.67c-3.39-.53-6.78-1.28-10.17-1.92l-5.09-1c-1.69-.35-3.39-.76-5.08-1.14-3.39-.79-6.77-1.52-10.15-2.37l-10.13-2.67c-1.69-.43-3.37-.94-5.05-1.44l-5-1.51a369.83,369.83,0,0,1-39.94-14.58c-3.3-1.35-6.56-2.89-9.81-4.41s-6.52-3-9.72-4.71-6.43-3.29-9.62-5l-9.48-5.39a329.36,329.36,0,0,1-36.31-24.78c-3-2.18-5.71-4.61-8.52-7s-5.61-4.73-8.34-7.17l-8-7.51-4-3.77-3.78-3.92-7.51-7.89c-2.45-2.67-4.76-5.42-7.13-8.14-4.83-5.4-9.13-11.08-13.57-16.71l-1.65-2.12-1.56-2.16-3.1-4.33c-2-2.9-4.18-5.76-6.13-8.7l-5.78-8.84c-1-1.48-1.94-2.94-2.86-4.44l-2.69-4.49-5.37-9-5-9.1c-3.42-6.05-6.36-12.22-9.47-18.35-.79-1.53-1.51-3.08-2.22-4.62l-2.15-4.64c-1.41-3.09-2.9-6.18-4.22-9.29l-4-9.33c-.65-1.56-1.34-3.11-2-4.67l-1.84-4.68-3.66-9.37-3.4-9.4c-2.33-6.26-4.33-12.54-6.43-18.82-1.07-3.14-2-6.28-3-9.42l-2.86-9.43-2.66-9.43-1.33-4.72-1.24-4.71-2.46-9.43c-.81-3.14-1.53-6.28-2.3-9.42-1.56-6.28-2.94-12.55-4.33-18.82-5.54-25.07-9.89-50-13.74-74.75s-7-49.25-10-73.26l-1.12-9.07-1.08-9.55c-.71-6.37-1.47-12.73-2-19.12l-.86-9.58c-.29-3.19-.59-6.38-.77-9.58l-1.27-19.18q-2.13-38.39-1.29-76.86t4.46-76.71c2.45-25.5,5.9-50.9,10.18-76.12l.4-2.38.75-2.86,90.79-346.32,91.17-346.22,124.76,32.11q-11.52,46.56-23.57,93T6278.08,934q-25.41,92.63-53.6,184.65t-59.94,183.17Q6132.78,1393,6096.63,1483c-24.22,59.95-50.25,119.38-78.67,178.05s-59.46,116.49-94.27,172.87q-26.19,42.24-55.78,83.07c-10,13.53-20.15,27-30.9,40.19-5.25,6.65-10.84,13.13-16.29,19.68l-8.44,9.69-4.23,4.84-4,4.51c-10.92,12.2-22.46,24.71-34.5,36.94s-24.69,24.35-38.3,36.16a407.92,407.92,0,0,1-45,34.23,258.28,258.28,0,0,1-27.5,15.6c-5,2.45-10.34,4.79-16,7a170.32,170.32,0,0,1-18.3,5.84,141.81,141.81,0,0,1-21.35,3.75,123.21,123.21,0,0,1-24.65-.06,111.72,111.72,0,0,1-51.09-18.54,118.53,118.53,0,0,1-19.2-16.15,140.82,140.82,0,0,1-14-17,168.17,168.17,0,0,1-10.14-16.62c-2.92-5.44-5.33-10.71-7.57-15.92a254.27,254.27,0,0,1-10.37-30c-2.72-9.66-4.86-19-6.64-28.21a533.08,533.08,0,0,1-7.38-53.44c-1.59-17.37-2.5-34.41-3-51.25s-.67-33.47-.57-49.92.41-32.69.79-48.63c.45-16.88,1.19-33.75,2.4-50.59s2.84-33.64,4.84-50.39,4.48-33.45,7.31-50.08,6.09-33.19,9.74-49.67q1.36-6.18,2.81-12.34l1.5-6.35,1.71-7,.43-1.74.22-.87.21-.71.85-2.86,1.7-5.71,3.4-11.42,54.39-182.7q108.87-365.38,218.7-730.4l108.43,29.1c-36.79,145.63-76.72,290.64-121.56,434.45-45.11,143.71-94.82,286.38-154.39,425.94q-22.4,52.31-47,103.88c-16.43,34.35-33.69,68.4-52,102s-37.72,66.82-58.78,99.23l-7.91,12.15-8.14,12-4.07,6-4.18,6-8.39,11.91c-11.43,15.76-23.17,31.35-35.55,46.58s-25.36,30.11-39,44.56a600.11,600.11,0,0,1-43.29,41.61,486.06,486.06,0,0,1-48.54,37.23c-2.1,1.47-4.31,2.84-6.5,4.23l-6.56,4.15c-2.19,1.38-4.47,2.66-6.71,4s-4.48,2.64-6.75,3.92c-9.18,5-18.48,9.89-28.17,14.16-38.41,17.54-81.82,27.53-125.21,26.74a270.37,270.37,0,0,1-64.26-8.92,342.25,342.25,0,0,1-58.79-21.8c-18.45-8.69-35.68-18.41-52.29-28.27s-32.51-20-48.27-29.78-31.27-19.36-46.9-28.34q-11.72-6.76-23.53-13t-23.79-12.06q-23.94-11.56-48.68-20.75A516.55,516.55,0,0,0,4638.3,1918q-25.58-6.51-51.85-10.47c-17.5-2.64-35.19-4.37-53-5.39a671.36,671.36,0,0,0-107.39,2.68,826,826,0,0,0-106.88,18.61c-35.39,8.48-70.45,19.09-105.27,31s-69.42,25.15-104.2,38.68c-17.4,6.77-34.86,13.57-52.51,20.2s-35.48,13.1-53.75,18.94q-13.67,4.42-27.74,8.21c-9.37,2.53-18.91,4.78-28.66,6.57a252.88,252.88,0,0,1-29.87,3.83,163.87,163.87,0,0,1-31.14-.81,119,119,0,0,1-31.24-8.25,107.1,107.1,0,0,1-27.78-17.12,111.35,111.35,0,0,1-21.34-24,130.11,130.11,0,0,1-13.86-28.17,189.12,189.12,0,0,1-7.65-29.19c-1.79-9.71-3-19.33-3.94-28.81s-1.69-18.83-2.54-28-1.85-18.12-3.49-26.63-3.95-16.57-7.6-23.2a38.07,38.07,0,0,0-6.46-8.76,34.37,34.37,0,0,0-8.67-6.19c-6.54-3.29-14.21-4.56-22.3-4.12s-16.49,2.5-24.72,5.36c-16.52,5.89-32.42,15-47.65,25.1a513.15,513.15,0,0,0-44.07,33.36c-28.41,23.79-55.2,49.75-81.2,76.47S3480.42,2012.23,3455.75,2040.29Z"/><path d="M695.94,88.7C951.6,29.92,1214.82.62,1478.64.07L1503.38,0l24.74.3c16.49.24,33,.33,49.49.93l24.74.72c8.25.26,16.5.41,24.75.85l49.48,2.28L1726,8.17c4.12.27,8.25.5,12.36.8l12.35,1,24.71,2,12.35,1c4.12.33,8.24.64,12.35,1.07l24.68,2.4,24.68,2.4c4.12.37,8.22.86,12.33,1.33l12.32,1.41,24.65,2.82,12.33,1.41c4.11.49,8.2,1.07,12.3,1.6l49.2,6.56,49.11,7.38c8.2,1.16,16.34,2.65,24.51,4l24.5,4.13q97.89,17.08,194.83,39.9c64.59,15.25,128.65,32.93,192.16,52.56l23.82,7.35c7.92,2.53,15.79,5.19,23.69,7.78l23.69,7.82c4,1.33,7.87,2.56,11.87,4l12,4.21c16,5.74,31.9,11.74,47.69,18.13s31.48,13.12,47,20.29a961.36,961.36,0,0,1,91.34,47.79l5.58,3.31c1.85,1.11,3.68,2.27,5.53,3.41l11,6.87c7.27,4.75,14.59,9.4,21.75,14.39s14.29,10,21.39,15.09c3.52,2.59,7,5.26,10.5,7.89l5.24,4,5.16,4.1a622.81,622.81,0,0,1,77.75,72.5l8.91,10.08,8.62,10.4c2.91,3.43,5.64,7,8.4,10.61l4.14,5.37c.68.9,1.39,1.78,2.06,2.7l2,2.76,7.92,11.06c2.57,3.75,5.05,7.57,7.57,11.35,1.24,1.91,2.54,3.77,3.73,5.72l3.57,5.84,3.57,5.85,1.78,2.93,1.69,3,6.7,12c2.19,4,4.2,8.16,6.3,12.24l3.1,6.15,2.91,6.27,2.9,6.28,2.72,6.38a432.92,432.92,0,0,1,18.44,52.5,423.2,423.2,0,0,1,15.66,110.52,433.56,433.56,0,0,1-3.08,55.67,467.67,467.67,0,0,1-9.91,54.5,522.47,522.47,0,0,1-37.09,102.87,598.7,598.7,0,0,1-55.47,92.5,674.91,674.91,0,0,1-69.55,81.19,706.08,706.08,0,0,1-81,69.38,682.08,682.08,0,0,1-91,56.43l-32-107.11,11.25-1.17,5.63-.57,5.62-.44,11.24-.86,11.23-.6c1.87-.09,3.75-.21,5.61-.28l5.6-.16,11.21-.3,11.18-.06h5.59l5.58.1,11.16.21,11.13.45,5.56.23,5.55.34,11.09.71c14.75,1.17,29.48,2.54,44.09,4.49s29.17,4.19,43.66,6.7c14.45,2.7,28.87,5.56,43.15,9,3.57.85,7.16,1.64,10.71,2.53l10.66,2.71,5.33,1.36,5.3,1.46,10.6,2.92c3.53,1,7,2.06,10.55,3.09s7,2,10.53,3.17c7,2.24,14,4.36,20.92,6.77a909.07,909.07,0,0,1,160.67,71.79,852.93,852.93,0,0,1,74.61,48,761.28,761.28,0,0,1,69.25,56.73,666.72,666.72,0,0,1,62.1,65.91c9.54,11.85,18.88,23.92,27.56,36.55,8.84,12.5,17,25.57,24.83,38.83l5.67,10.1,2.82,5.06,2.68,5.15,5.33,10.31,5,10.5,2.49,5.26c.82,1.76,1.56,3.56,2.35,5.34l4.63,10.7c1.5,3.59,2.88,7.24,4.31,10.86s2.88,7.23,4.13,10.94a486,486,0,0,1,23.39,90.75l1.74,11.62c.5,3.88.9,7.78,1.34,11.66,1,7.77,1.42,15.58,2,23.38.34,3.9.37,7.8.54,11.71s.29,7.83.36,11.69v17.19l-.17,5.72-.35,11.44-.67,11.42c-.37,7.62-1.19,15.19-1.84,22.77-.35,3.79-.86,7.56-1.29,11.33s-.84,7.56-1.44,11.31l-1.66,11.26-.42,2.82-.49,2.8-1,5.6c-2.52,15-5.82,29.71-9.34,44.38l-2.84,10.94-1.44,5.46-1.56,5.42-3.13,10.84L3453,1902.2a744.57,744.57,0,0,1-32.31,83.46l-2.3,5.07-2.39,5-4.79,10-5,9.91c-1.67,3.3-3.31,6.62-5.07,9.86l-5.19,9.78c-1.71,3.27-3.56,6.46-5.33,9.69s-3.56,6.46-5.41,9.63l-5.56,9.53c-14.87,25.38-31,49.81-48.06,73.51s-35.05,46.52-53.82,68.61c-9.35,11.08-19,21.85-28.74,32.55s-19.72,21.12-29.88,31.36a1311.38,1311.38,0,0,1-129,114.42q-34,26.36-69.59,50.63t-72.71,46.14c-24.77,14.56-50,28.46-75.81,41.33q-19.33,9.74-39.13,18.68l-20.07,8.73-10,4.36c-1.66.75-3.37,1.38-5.07,2.06l-5.1,2-20.4,7.95-5.1,2-5.17,1.8-10.34,3.59-10.34,3.58-5.17,1.79c-1.73.59-3.44,1.22-5.19,1.73l-20.94,6.39-10.47,3.18c-3.5,1-7,1.9-10.56,2.86l-21.15,5.59c-1.77.45-3.52,1-5.3,1.36l-5.33,1.2-10.67,2.4-10.67,2.39c-3.56.78-7.1,1.65-10.69,2.27A1030.07,1030.07,0,0,1,2452.09,2628a1152.46,1152.46,0,0,1-172.76-9.3,1308.89,1308.89,0,0,1-168.36-34l-20.58-5.86c-6.85-2-13.73-3.85-20.51-6.05-13.59-4.27-27.23-8.39-40.66-13.09-6.73-2.31-13.48-4.56-20.18-6.92l-20-7.34-10-3.67c-3.33-1.24-6.61-2.58-9.92-3.86l-19.81-7.79c-3.31-1.27-6.58-2.65-9.85-4l-9.81-4.11-9.81-4.11c-3.26-1.38-6.55-2.7-9.78-4.17l-19.41-8.63-9.7-4.32-9.61-4.51-19.21-9c-6.39-3-12.68-6.26-19-9.38l-9.49-4.72-4.75-2.36-4.7-2.44-18.78-9.81c-3.12-1.65-6.27-3.24-9.37-4.93l-9.29-5.08-18.57-10.17-18.45-10.53c-3.06-1.78-6.17-3.48-9.2-5.31l-9.13-5.44c-12.22-7.17-24.21-14.74-36.24-22.21-11.89-7.7-23.83-15.34-35.51-23.35a1549.31,1549.31,0,0,1-135.09-102.57q-64.37-55-123.09-115.29c-39.16-40.06-76.53-81.51-112.75-123.63s-71.26-85-105.73-128l-25.8-32.31c-2.17-2.75-4.22-5.22-6.31-7.81l-6.25-7.69c-2.06-2.59-4.24-5.07-6.37-7.59l-6.43-7.55q-26-30-54.67-57.53t-59.93-52.32Q976,1704.3,942.56,1682.3a978.65,978.65,0,0,0-140.84-76.66,1144.66,1144.66,0,0,0-152-54.81A1366.46,1366.46,0,0,0,490.89,1516a1621.71,1621.71,0,0,0-162.52-17.33c-109.09-6.23-219-2.38-328.37,9.27,108.13-20.07,218.29-31.12,329-31.53A1574.91,1574.91,0,0,1,495,1484.49a1352.78,1352.78,0,0,1,164.8,27,1162.71,1162.71,0,0,1,160.61,49.11,1012.54,1012.54,0,0,1,152,74q36.45,21.77,71,46.82t66.49,53.38q32,28.27,61.32,59.52l7.25,7.87c2.41,2.63,4.86,5.22,7.19,7.92l7.06,8c2.33,2.66,4.77,5.4,7,8l26.86,31.1c71.71,82.74,144.3,164,222.16,238.56q58.28,56,120.84,106.35a1486.21,1486.21,0,0,0,130.1,93.06c5.64,3.54,11.2,7.19,16.92,10.61l17,10.39c11.49,6.72,22.91,13.55,34.57,20l8.7,4.89c2.89,1.65,5.85,3.18,8.77,4.77l17.59,9.45,17.83,9.17,8.91,4.59c3,1.53,6,3,9,4.44l18,8.82,4.5,2.2,4.54,2.11,9.07,4.22c6.06,2.79,12.07,5.68,18.16,8.4l18.29,8.09,9.14,4,9.22,3.85,18.43,7.69c3.06,1.31,6.17,2.48,9.27,3.7l9.29,3.64,9.28,3.64c3.09,1.22,6.18,2.44,9.31,3.56l18.71,6.86c3.12,1.13,6.22,2.32,9.36,3.4l9.42,3.21,18.83,6.43c6.3,2.06,12.64,4,18.95,6,12.59,4.14,25.34,7.69,38,11.41,6.33,1.92,12.75,3.52,19.13,5.22l19.16,5a1237.16,1237.16,0,0,0,155.17,28.23,1047.38,1047.38,0,0,0,156.28,5.7c1.63,0,3.25-.13,4.86-.23l4.86-.3,9.72-.59,9.72-.58c1.62-.11,3.24-.16,4.85-.32l4.84-.46c12.9-1.27,25.83-2.24,38.64-4.11,6.41-.85,12.84-1.61,19.24-2.53l19.13-3.16,9.57-1.57c3.18-.58,6.33-1.27,9.5-1.89l19-3.82c3.18-.58,6.3-1.41,9.44-2.15l9.41-2.26,9.41-2.25,4.7-1.12c1.57-.37,3.11-.85,4.66-1.27l18.63-5.19c3.1-.89,6.23-1.67,9.3-2.63l9.21-2.94,18.41-5.87c1.54-.46,3-1,4.56-1.59l4.54-1.64,9.09-3.28,9.09-3.27,4.54-1.64,4.48-1.82,17.91-7.24,4.48-1.8c1.49-.61,3-1.18,4.46-1.86l8.81-4,17.63-7.9c11.75-5.5,23.47-11.23,35.05-17.24,23.22-11.92,46-24.78,68.5-38.3s44.45-27.89,66-42.82,42.67-30.64,63.28-46.9a1210.41,1210.41,0,0,0,116.75-105c9.14-9.32,18-18.87,26.81-28.48s17.31-19.43,25.64-29.39c16.72-19.86,32.69-40.27,47.61-61.28,29.93-42,56.1-86.18,76.93-132.2a624.93,624.93,0,0,0,27-70.23l2.79-8.92,2.56-9,1.29-4.48,1.17-4.5,2.34-9c2.86-12,5.58-24.12,7.6-36.26l.8-4.55.4-2.27.33-2.28,1.34-9.12c.5-3,.77-6.09,1.15-9.13s.77-6.09,1-9.14c.5-6.1,1.19-12.2,1.46-18.3l.54-9.15.27-9.15.15-4.58v-13.72c-.06-3-.2-5.93-.28-8.9s-.11-5.93-.39-8.87c-.46-5.9-.74-11.81-1.51-17.67-.34-2.94-.62-5.88-1-8.81l-1.32-8.76-.65-4.38-.83-4.35-1.64-8.71c-.6-2.89-1.31-5.76-2-8.64s-1.26-5.77-2.08-8.62l-2.29-8.57-.58-2.14-.66-2.12-1.31-4.24-1.3-4.25c-.42-1.42-.86-2.83-1.37-4.23l-2.93-8.4c-.92-2.82-2.07-5.57-3.14-8.34s-2.12-5.56-3.27-8.31l-3.54-8.21c-.6-1.37-1.15-2.75-1.78-4.1l-1.92-4.05-3.83-8.11-4.13-8-2.05-4-2.2-3.94-4.4-7.88c-6.14-10.38-12.46-20.7-19.47-30.65-6.83-10.05-14.31-19.74-21.95-29.33l-5.9-7.08-3-3.54-3.06-3.47-6.11-6.94-6.32-6.79c-4.14-4.58-8.59-8.93-12.91-13.38-2.15-2.23-4.45-4.34-6.67-6.52s-4.44-4.36-6.74-6.46a643.13,643.13,0,0,0-58-47.94,734.77,734.77,0,0,0-63.68-41.55c-22-12.74-44.8-24.41-68.07-35-2.89-1.37-5.84-2.62-8.76-3.91l-8.79-3.85-8.87-3.68c-3-1.22-5.9-2.48-8.9-3.62-6-2.33-11.91-4.72-17.94-6.89l-9-3.33-9.08-3.16c-6-2.17-12.16-4.06-18.24-6.08-3-1-6.12-1.89-9.18-2.85s-6.12-1.9-9.2-2.79l-9.24-2.63-4.62-1.32-4.64-1.22-9.29-2.45c-3.1-.81-6.22-1.52-9.32-2.29-12.43-3.08-24.95-5.66-37.48-8.15-12.55-2.29-25.13-4.51-37.74-6.18s-25.24-3.1-37.86-4.25l-9.47-.7-4.73-.35-4.73-.25-9.46-.5-9.44-.28-4.72-.14-4.71,0-9.42-.07-9.39.15-4.7.08c-1.56,0-3.12.12-4.68.18l-9.35.38-9.31.61-4.65.3-4.63.42-9.25.85-302.24,27.69,270.27-134.8a570.3,570.3,0,0,0,76.48-46.09,599.06,599.06,0,0,0,69-57.46,571.2,571.2,0,0,0,59.26-67.05,498.73,498.73,0,0,0,46.81-75.09,415.67,415.67,0,0,0,31-81.18,348.43,348.43,0,0,0,11.64-84.36,319.75,319.75,0,0,0-10.13-83.78,331,331,0,0,0-13.3-40.45l-2-5-2.15-4.92-2.14-4.93-2.33-4.87c-1.58-3.24-3.06-6.52-4.71-9.73l-5.07-9.58-1.27-2.4-1.37-2.35L2874,518l-2.72-4.71c-.9-1.57-1.93-3.08-2.89-4.63-2-3.07-3.86-6.17-5.85-9.23l-6.19-9.06-1.54-2.27c-.52-.75-1.08-1.48-1.62-2.22l-3.27-4.44c-2.18-3-4.31-5.95-6.65-8.81l-6.86-8.69-7.18-8.49c-2.34-2.87-4.89-5.59-7.37-8.36s-4.92-5.58-7.56-8.24l-7.76-8.1-8-7.91c-10.78-10.48-21.95-20.67-33.69-30.34l-4.37-3.66-4.47-3.56c-3-2.36-5.95-4.77-9-7.11-6.11-4.6-12.15-9.29-18.43-13.72s-12.58-8.84-18.91-13.22l-9.67-6.37c-1.62-1.05-3.22-2.13-4.85-3.17l-4.92-3.08c-13.05-8.31-26.5-16.12-40.08-23.74L2640,309.23l-10.35-5.48c-3.44-1.85-6.94-3.6-10.42-5.37s-7-3.58-10.49-5.27c-14-7-28.32-13.51-42.71-19.87s-29-12.28-43.7-18L2511.23,251c-3.68-1.41-7.55-2.77-11.32-4.15l-22.75-8.29c-7.59-2.75-15.15-5.57-22.76-8.25l-22.92-7.84-22.92-7.85-5.73-2-5.77-1.85-11.54-3.7-23.08-7.41-11.54-3.7c-3.85-1.24-7.73-2.35-11.6-3.54l-46.45-14-46.72-13.14q-93.68-25.45-188.87-45.62l-23.81-4.93c-7.94-1.62-15.86-3.38-23.84-4.82l-47.8-9.06-48-8.28c-4-.68-8-1.4-12-2l-12-1.87-24.06-3.75-12-1.88c-4-.63-8-1.27-12-1.8l-24.13-3.35-24.13-3.35c-4-.59-8.05-1.06-12.08-1.55l-12.09-1.47-24.19-3L1733,67.08c-4-.48-8.08-.87-12.12-1.31l-48.5-5.14-48.59-4.41c-8.1-.8-16.21-1.32-24.32-2l-24.34-1.83c-16.22-1.34-32.47-2.17-48.72-3.15L1502,47.81l-24.4-1.11c-32.53-1.65-65.1-2.46-97.68-3.33l-48.89-.7c-4.08-.09-8.15-.06-12.23-.06l-12.23,0h-24.46q-97.84.5-195.74,5.72l-48.92,2.91-48.89,3.61c-8.16.54-16.29,1.34-24.43,2L939.7,59.05c-16.31,1.32-32.56,3.15-48.84,4.78l-24.42,2.5L842.07,69.2c-16.25,1.93-32.54,3.66-48.76,5.92L769,78.34c-8.12,1.1-16.26,2.05-24.35,3.3Z"/></g></g></svg>