<svg id="Layer_1" data-name="Layer 1" xmlns="http://www.w3.org/2000/svg" viewBox="0 0 393.22 180.26"><defs><style>.cls-1{fill:none;stroke:#f772bb;stroke-linecap:round;stroke-miterlimit:10;stroke-width:4px;stroke-dasharray:90 10;}</style></defs><title>Work</title><path class="cls-1" d="M14,55.46a20.83,20.83,0,0,1-8-16c23.39,3.4,34.21-7.2,53.83-7.2,5.53,0,16.1,3.2,21.13,7.2-6.54,28-10.82,60.2-13.58,89,14.59-30.4,29.93-60.6,47-89,8.55,0,16.35,1.4,23.39,7-6.79,29.6-14.84,71-17.36,101,14.84-33.8,40.5-87.8,66.66-122.2,6.54,0,21.38,3.4,25.15,7-33.71,24.2-65.4,76.6-89.8,130.6-10.31,0-19.87-5.6-22.39-8.2.25-27.6,6-58.8,11.57-88-16.1,23.8-31.7,56.2-42,80.8-10.31,0-20.37-4.6-23.14-7.2.25-32,4.78-62.2,11.07-95.2C50.27,45.06,24.61,55.46,14,55.46Z" transform="translate(-4 0)"/><path class="cls-1" d="M196.42,76.66c9.56,0,20.38,3.2,24.9,6.6,9.06,15.6,2.77,36.6-9.56,50,1,1.4,2.26,2.8,3.27,4,13.08,14.4,37.73,25.8,59.62,25.8,24.15,0,48.8-8.4,71.69-8.4,9.81,0,19.37.8,28.93,4.4,4.78,4.6,4,13,2,18.2-10.31-6.6-20.88-10-32.2-10-21.13,0-43,2.8-64.4,2.8-28.68,0-56.85-7.4-75.21-25.2-1-1-2-2.2-3-3.2a43.33,43.33,0,0,1-13.08,5.8c-11.07,0-22.39-4.8-24.9-12.2-4.78-15.8,4.78-34.8,16.35-46.8A74.27,74.27,0,0,1,196.42,76.66Zm1.51,59.4a68.18,68.18,0,0,1-11.57-25.4c-2.52,5.4-12.58,29.8,3,29.8A25.2,25.2,0,0,0,197.93,136.06Zm2.26-46c.25,11.6,1.51,24.2,7,35.4a42.86,42.86,0,0,0,5.79-20.4C213,98.06,209.5,90.06,200.19,90.06Z" transform="translate(-4 0)"/><path class="cls-1" d="M238.18,76.66A38.68,38.68,0,0,1,258,83.06c-1.51,6-2.52,12-3.77,18,6.79-9.8,16.35-18,27.67-24.4a53.11,53.11,0,0,1,19.87,4c-5.53,6.6-14.34,23-14.34,33-7.8-.6-15.35-4.6-17.11-11.6,1.26-3.2,3.52-8.4,6-13.4-22.64,14.6-26.41,36.8-29.18,58.8-6.54-.2-14.84-2.4-19.12-6.4C229.62,119.66,233.65,97.66,238.18,76.66Z" transform="translate(-4 0)"/><path class="cls-1" d="M333,110.26c5.28-2.6,18.36-11.2,22.64-21-14.34,3.4-25.16,16.8-28.93,25.2-4.78,10.2-6.54,21.4-7.8,33-6.54-.2-14.84-2.4-19.12-6.4,1.51-22.4,6.79-50.2,12.33-75.6,2.26-10.4,4.78-21,7.55-31.4-33.2-6-76.72-16.8-110.93-8.8,0-5.2,2.52-11,7.3-15.6,36.22,0,70.94,11,106.15,18.8,3.27-6.6,8.55-12.4,16.35-17.4,12.07-7.8,29.18-12.2,44.78-6.4,12.83,4.8,15.85,16.8,6.29,25.6-12.33,11.2-32.2,9.6-48.55,7.4-3.77,10.8-6.29,22.6-8.8,33.4-2.52,10-4.53,20-6.29,30a81.91,81.91,0,0,1,27.42-24.4c9.31,0,17.11,8,18.36,13.6a109.38,109.38,0,0,1-27.17,19.4,39.76,39.76,0,0,1,8.55,1.6c0,10.8,3.52,27.4,7.55,35.8,15.09-11.8,28.17-33.6,28.17-49.4l5.28,4.8c-.5,19.6-16.1,39.4-33.2,52.2-6.54,0-14.84-2.6-19.12-6.4C338.79,140.66,333,120.66,333,110.26ZM375.52,8.86c-16.85,0-27.67,10.8-33,24.2,14.34,2.6,33.2,4.8,43.52-5.8C393.38,19.66,387.85,8.86,375.52,8.86Z" transform="translate(-4 0)"/></svg>