<svg xmlns="http://www.w3.org/2000/svg" viewBox="0 0 75.09 90.49"><defs><style>.cls-1{fill:#29292b;}</style></defs><title>BFLogo_1</title><g id="Layer_2" data-name="Layer 2"><g id="Layer_1-2" data-name="Layer 1"><polygon class="cls-1" points="19.02 50.76 19.02 50.76 19.41 48.58 22.06 33.51 22.91 28.71 22.91 28.71 25.03 16.7 19.02 16.7 13.01 16.7 11.17 27.13 8.95 39.74 5.95 56.77 0 90.49 12.02 90.49 15.22 72.32 15.22 72.32 19.02 50.76"/><path class="cls-1" d="M53.11,16.7H30.37l-2.12,12H51a7.48,7.48,0,0,0,7.05-6A4.9,4.9,0,0,0,53.11,16.7Z"/><path class="cls-1" d="M45,62.77h0a7.48,7.48,0,0,0,7.05-6,4.9,4.9,0,0,0-4.93-6H24.37l-2.12,12Z"/><polygon class="cls-1" points="20.96 39.74 22.06 33.51 19.41 48.58 20.96 39.74"/><path class="cls-1" d="M74.74,22.71C77,10.17,68.58,0,56.05,0H11.9l2,11.35H54c6.26,0,10.45,5.09,9.34,11.35A14.13,14.13,0,0,1,50,34.06H27.31l-2,11.35H48c6.26,0,10.44,5.09,9.34,11.35A14.13,14.13,0,0,1,44,68.12H21.31l-2,11.35H42c12.54,0,24.49-10.17,26.7-22.71C69.93,50,68,43.9,64,39.74A27.92,27.92,0,0,0,74.74,22.71Z"/><polygon class="cls-1" points="27.31 34.06 25.31 45.41 25.31 45.41 27.31 34.06 27.31 34.06"/></g></g></svg>