<svg xmlns="http://www.w3.org/2000/svg" viewBox="0 0 507.9 507.9"><defs></defs><title>gmail</title><g id="Layer_2" data-name="Layer 2"><g id="Layer_1-2" data-name="Layer 1"><path class="cls-1" d="M475.38,0H32.52A32.52,32.52,0,0,0,0,32.52V475.38A32.52,32.52,0,0,0,32.52,507.9H475.38a32.52,32.52,0,0,0,32.52-32.52V32.52A32.52,32.52,0,0,0,475.38,0ZM422.14,272.64c-1.65.86-1.3,2.5-1.51,3.92-6.75,44.19-27.15,80.61-62,108.8a173.42,173.42,0,0,1-58.31,30.25c-9.13,2.78-18.84,2.83-27.71,6.53H233.77c-2.11-2.68-5.39-2-8.12-2.57-67-13.61-111.14-52.94-132.9-117.72-3.06-9.11-3.1-18.88-7-27.72V233.77c2.53-3,2.16-6.88,2.81-10.35,13.35-71.67,69.42-123.17,136.3-135,3.39-.6,7.79,1.44,10.39-2.61h31.4c7,1.17,14,2.12,21,3.55,10.84,2.23,20.87,6.91,31.23,10.53,13.17,4.6,24.33,11.91,35.65,19.38,4.9,3.23,6.15,6.09.51,10.49-14.12,11-27.93,22.44-41.57,34.05-4.54,3.87-7.85,4.41-13.6,1.55-35.45-17.61-70.46-15.83-103,6.69-33.22,23-47.1,56.24-41.9,95.92,9.3,70.89,87.25,108,149.73,72.11,20.45-12.31,37.73-33.12,42-51-22.48,0-44.83.08-67.17,0-6.93,0-15.94,2.92-20.23-1.12-4.71-4.44-1.41-13.64-1.55-20.74-.26-12.94.07-25.89-.15-38.83-.07-4.23,1.37-5.61,5.56-5.6q75.43.15,150.87,0c3.7,0,5.1,1.34,6,4.83s-.58,7.55,2.09,10.7Z"/></g></g></svg>