<svg xmlns="http://www.w3.org/2000/svg" viewBox="0 0 507.9 507.9"><defs></defs><title>instagram</title><g id="Layer_2" data-name="Layer 2"><g id="Layer_1-2" data-name="Layer 1"><path class="cls-1" d="M404.13,241.59h0V284h0Z"/><path class="cls-1" d="M400.07,159.92c-4-20.95-14.85-37-34.5-46.39-12.22-5.84-25.35-7.65-38.69-8.09-47-1.55-94.07-1.46-141.1-.15-11.24.31-22.54.77-33.38,4.33a85,85,0,0,0-15,6.08c-1.9,1.06-3.28,3-5.6,3.35-2.38,2.18-4.91,4.22-7.12,6.56-8.63,9.14-13.8,20.07-16.55,32.27-2.94,13.06-3.21,26.35-3.4,39.6-.57,38.21-.8,76.43,0,114.64.28,13.46.46,26.95,3.83,40.14s9.62,24.52,20,33.58c10.9,9.51,24,13.68,37.85,15.66,12.55,1.79,25.26,1.84,37.9,2.06,32.64.56,65.28.64,97.92,0,14.26-.28,28.58-.22,42.72-2.62,20.14-3.41,36.62-12.54,47.32-30.59,2.66-4.49,4.35-9.39,6-14.29l2-1.16-2,1.16c.42-1.77.82-3.55,1.26-5.31,3.24-13.11,3.2-26.54,3.51-39.89.69-29.9.54-59.82.27-89.73C403.22,200.68,404,180.15,400.07,159.92ZM255.4,347.8c-51.71.85-95.48-41.32-95.3-93.61-.79-49.86,40.92-92.74,90.57-94,53.25-1.31,95.67,40.16,97.06,91.25C349.17,304.64,306.7,347,255.4,347.8Zm96.23-169.2c-12,.06-22.15-9.74-22.23-21.53-.09-13.84,10.18-22.27,21.6-22.41,12.31-.15,22.07,8.38,22.4,22A22.07,22.07,0,0,1,351.63,178.6Z"/><path class="cls-1" d="M253.63,193.25c-33.19,0-61,28.08-60.39,61.65.63,33.27,27.61,60.06,60.89,59.8,33.09.41,61-27.7,60.55-61.39A60.81,60.81,0,0,0,253.63,193.25Z"/><path class="cls-1" d="M475.38,0H32.52A32.52,32.52,0,0,0,0,32.52V475.38A32.52,32.52,0,0,0,32.52,507.9H475.38a32.52,32.52,0,0,0,32.52-32.52V32.52A32.52,32.52,0,0,0,475.38,0ZM436,313.63c-.44,12.8-.5,25.66-3,38.34-3.06,15.54-8.21,30.16-17.68,43-.47.64-.81,1.42-1.64,1.74l0,0a5,5,0,0,1-2.48,3,7.66,7.66,0,0,1-3,3.42.54.54,0,0,1-.25.29.32.32,0,0,1-.3.36l-.56.64a5.28,5.28,0,0,1-2.57,2.41,81.44,81.44,0,0,1-25.68,17.8c-16.69,7.64-34.41,10.1-52.57,10.86-40.53,1.7-81.06,1-121.6.82-14.58-.05-29.2-.48-43.66-2.46-20.07-2.75-38.62-9.65-54-23.12A91.41,91.41,0,0,1,82.34,377c-6.71-16-9.35-32.82-10-50C70.58,281.8,71,236.6,71.8,191.4c.27-14.57,1-29.17,4.67-43.41C81,130.26,89,114.47,102.41,101.71c8-8.75,17.86-14.89,28.62-19.54a117.16,117.16,0,0,1,38.05-9.09c22.06-1.64,44.17-1.89,66.28-1.79,28.28.13,56.56-.38,84.84.71,15.42.59,30.77,1.56,45.65,6.17,24.53,7.6,43.29,22.4,55.94,44.81a12.07,12.07,0,0,1,1.92,5.23c.1,1.28,1.49,3,2.27,4.52,3.68,7.4,5.64,15.26,7.08,23.28,3.35,18.65,3.29,37.54,3.43,56.37C436.74,246.12,437.22,279.88,436,313.63Z"/></g></g></svg>