<svg xmlns="http://www.w3.org/2000/svg" viewBox="0 0 1326.5 1389"><defs><style></style></defs><title>LogoAnim</title><g id="Layer_2" data-name="Layer 2"><g id="Layer_1-2" data-name="Layer 1"><polygon class="cls-2" points="572.04 715.29 572.04 715.29 573.83 705.19 586.11 635.55 590.02 613.36 590.02 613.36 599.81 557.8 572.03 557.8 544.26 557.8 535.75 606.05 525.47 664.33 511.59 743.07 484.09 899 539.65 899 554.46 815 554.46 815 572.04 715.29"/><polygon class="cls-2" points="519.04 1205.29 519.04 1205.29 520.83 1195.19 533.11 1125.55 537.02 1103.36 537.02 1103.36 557.81 991.8 470.04 991.8 442.26 991.8 422.75 1096.05 412.47 1154.33 398.59 1233.07 371.09 1389 486.65 1389 501.46 1305 501.46 1305 519.04 1205.29"/><path class="cls-2" d="M729.66,557.81H624.53l-9.8,55.56H719.86c15.32,0,29.91-12.45,32.61-27.78S745,557.84,729.66,557.81Z"/><path class="cls-2" d="M692,770.85h.07c15.32,0,29.91-12.45,32.61-27.78s-7.51-27.74-22.82-27.78H596.76L587,770.85Z"/><path class="cls-2" d="M715.44,638.07H610.38l-9.26,52.5H706.19a50.84,50.84,0,0,1,7.58.57l9.45-53.65A55,55,0,0,1,715.44,638.07Z"/><path class="cls-2" d="M829.68,585.58c9.77-55.42-25.16-100.8-78.9-104.71l-9.29,52.79c24.69,3.72,40.3,25.55,35.65,51.93s-27.94,48.19-53.93,51.92l-9.45,53.65c24.66,3.74,40.26,25.56,35.61,51.92S721.45,791.24,695.48,795l-9.29,52.79c55.07-4,106-49.32,115.73-104.71,5.53-31.37-3.28-59.51-21.7-78.74C805.42,645.09,824.15,617,829.68,585.58Z"/><path class="cls-2" d="M743.27,480.59H539.11l9.26,52.5H734a50.86,50.86,0,0,1,7.54.57l9.29-52.79C748.32,480.69,745.82,480.59,743.27,480.59Z"/><path class="cls-2" d="M687.67,795.56H582.61l-9.26,52.5H678.48q3.86,0,7.71-.28L695.48,795A55,55,0,0,1,687.67,795.56Z"/><polygon class="cls-2" points="1314.33 542 1326.5 473 929.5 473 917.33 542 1314.33 542"/><polygon class="cls-2" points="397 620 409.17 551 12.17 551 0 620 397 620"/><polygon class="cls-2" points="1314.33 699 1326.5 630 929.5 630 917.33 699 1314.33 699"/><polygon class="cls-2" points="397 778 409.17 709 12.17 709 0 778 397 778"/><polygon class="cls-2" points="1314.33 856 1326.5 787 929.5 787 917.33 856 1314.33 856"/><polygon class="cls-2" points="940.17 0 823.17 0 753.16 397 870.16 397 940.17 0"/></g></g></svg>