<svg xmlns="http://www.w3.org/2000/svg" viewBox="0 0 1445.5 1421"><title>LogoAnim2</title><g id="Layer_2" data-name="Layer 2"><g id="Layer_1-2" data-name="Layer 1"><polygon class="cls-2" points="632.04 735.29 632.04 735.29 633.83 725.19 646.11 655.55 650.02 633.36 650.02 633.36 659.81 577.8 632.03 577.8 604.26 577.8 595.75 626.05 585.47 684.33 571.59 763.07 544.09 919 599.65 919 614.46 835 614.46 835 632.04 735.29"/><polygon class="cls-2" points="573.04 1237.29 573.04 1237.29 574.83 1227.19 587.11 1157.55 591.02 1135.36 591.02 1135.36 611.81 1023.8 524.03 1023.8 496.26 1023.8 476.75 1128.05 466.47 1186.33 452.59 1265.07 425.09 1421 540.65 1421 555.46 1337 555.46 1337 573.04 1237.29"/><path class="cls-2" d="M789.66,577.81H684.53l-9.8,55.56H779.86c15.32,0,29.91-12.45,32.61-27.78S805,577.84,789.66,577.81Z"/><path class="cls-2" d="M752,790.85h.07c15.32,0,29.91-12.45,32.61-27.78s-7.51-27.74-22.82-27.78H656.76L647,790.85Z"/><path class="cls-2" d="M775.44,658.07H670.38l-9.26,52.5H766.19a50.84,50.84,0,0,1,7.58.57l9.45-53.65A55,55,0,0,1,775.44,658.07Z"/><path class="cls-2" d="M889.68,605.58c9.77-55.42-25.16-100.8-78.9-104.71l-9.29,52.79c24.69,3.72,40.3,25.55,35.65,51.93s-27.94,48.19-53.93,51.92l-9.45,53.65c24.66,3.74,40.26,25.56,35.61,51.92S781.45,811.24,755.48,815l-9.29,52.79c55.07-4,106-49.32,115.73-104.71,5.53-31.37-3.28-59.51-21.7-78.74C865.42,665.09,884.15,637,889.68,605.58Z"/><path class="cls-2" d="M803.27,500.59H599.11l9.26,52.5H794a50.86,50.86,0,0,1,7.54.57l9.29-52.79C808.32,500.69,805.82,500.59,803.27,500.59Z"/><path class="cls-2" d="M747.67,815.56H642.61l-9.26,52.5H738.48q3.86,0,7.71-.28L755.48,815A55,55,0,0,1,747.67,815.56Z"/><polygon class="cls-2" points="1433.33 562 1445.5 493 1048.5 493 1036.33 562 1433.33 562"/><polygon class="cls-2" points="397 640 409.17 571 12.17 571 0 640 397 640"/><polygon class="cls-2" points="1433.33 719 1445.5 650 1048.5 650 1036.33 719 1433.33 719"/><polygon class="cls-2" points="397 798 409.17 729 12.17 729 0 798 397 798"/><polygon class="cls-2" points="1433.33 876 1445.5 807 1048.5 807 1036.33 876 1433.33 876"/><polygon class="cls-2" points="1006.17 0 889.17 0 819.16 397 936.16 397 1006.17 0"/></g></g></svg>