<svg width="203" height="69" viewBox="0 0 203 69" fill="none" xmlns="http://www.w3.org/2000/svg">
<path d="M203.001 24.361V42.9357L179.206 66.7305L180.647 68.1721H159.19L203.001 24.361Z" fill="#BF406B"/>
<path d="M197.8 0.828125H203.001V14.2022L150.472 66.7305L151.914 68.1721H130.456L197.8 0.828125Z" fill="#BF406B"/>
<path d="M169.067 0.828125H187.641L121.739 66.7305L123.181 68.1721H101.723L169.067 0.828125Z" fill="#BF406B"/>
<path d="M140.333 0.828125H158.908L93.0056 66.7305L94.4471 68.1721H72.9893L140.333 0.828125Z" fill="#BF406B"/>
<path d="M111.6 0.828125H130.175L64.2721 66.7305L65.7137 68.1721H44.2559L111.6 0.828125Z" fill="#BF406B"/>
<path d="M82.8664 0.828125H101.441L35.5387 66.7305L36.9803 68.1721H15.5225L82.8664 0.828125Z" fill="#BF406B"/>
<path d="M54.133 0.828125H72.7076L6.80523 66.7305L8.24681 68.1721H0.96875V53.9924L54.133 0.828125Z" fill="#BF406B"/>
<path d="M25.3996 0.828125H43.9742L0.96875 43.8336V25.2589L25.3996 0.828125Z" fill="#BF406B"/>
<path d="M15.2408 0.828125H0.96875V15.1001L15.2408 0.828125Z" fill="#BF406B"/>
<path d="M187.923 68.1721L203.001 53.0945V68.1721H187.923Z" fill="#BF406B"/>
</svg>
