<svg xmlns="http://www.w3.org/2000/svg" xmlns:xlink="http://www.w3.org/1999/xlink" viewBox="0 0 182.38 54.16"><defs><style>.cls-1{fill:#4c4c4d;opacity:0.3;}.cls-2{fill:#8e8e8e;}.cls-3{fill:#f4f4f6;}.cls-13,.cls-3,.cls-7{stroke:#dcdbdb;}.cls-13,.cls-15,.cls-3,.cls-7{stroke-miterlimit:10;stroke-width:0.5px;}.cls-4{fill:#59585a;}.cls-5{fill:#0b0b0b;}.cls-6{fill:#303030;}.cls-7{fill:#e8e8e8;}.cls-8{fill:#3d3d3d;}.cls-9{fill:#545554;opacity:0.2;}.cls-10{fill:#a5a4a4;}.cls-11{fill:#872035;}.cls-12{opacity:0.81;fill:url(#linear-gradient);}.cls-13,.cls-15,.cls-17{fill:none;}.cls-14{opacity:0.5;fill:url(#linear-gradient-2);}.cls-15{stroke:#3d3d3d;}.cls-16{fill:#262626;}.cls-18{fill:#6d6d6d;}.cls-19{fill:#c2c1c0;}.cls-20{fill:#ddd;}.cls-21{fill:url(#linear-gradient-3);}.cls-22{opacity:0.49;fill:url(#linear-gradient-4);}</style><linearGradient id="linear-gradient" x1="178.72" y1="27.59" x2="174.42" y2="29.37" gradientUnits="userSpaceOnUse"><stop offset="0" stop-color="#fff" stop-opacity="0"/><stop offset="1"/></linearGradient><linearGradient id="linear-gradient-2" x1="102.03" y1="26.63" x2="107.76" y2="29.33" xlink:href="#linear-gradient"/><linearGradient id="linear-gradient-3" x1="91.19" y1="0.25" x2="91.19" y2="48.42" gradientUnits="userSpaceOnUse"><stop offset="0" stop-color="#fff" stop-opacity="0"/><stop offset="1" stop-opacity="0"/></linearGradient><linearGradient id="linear-gradient-4" x1="91.19" y1="37.71" x2="91.19" y2="46.16" xlink:href="#linear-gradient"/></defs><title>audi</title><g id="Layer_2" data-name="Layer 2"><g id="Layer_2-2" data-name="Layer 2"><g id="r8"><path class="cls-1" d="M109.57,7.64l-1.88,10.07h-6.25l1.38-1.88c.08-.34.21-.88.31-1.56.38-2.5-.07-3.4.38-5.32a4.12,4.12,0,0,1,1.19-2.56c1.56-1.22,4.15,0,4.44.13Z"/><ellipse class="cls-1" cx="72.44" cy="16.99" rx="1.13" ry="5.16" transform="translate(-1.15 27.95) rotate(-21.67)"/><path class="cls-2" d="M153.73,18.5c-22.08-9.43-28.92,4.14-68.32,2.65-5.84-.22-37.77-1.73-57.7,2.24-3.49.69-10.45,2.32-13.13,7.68-2,3.93-1.29,9.19-.84,10.9a7,7,0,0,0,1,2.24,8.05,8.05,0,0,0,2.24,2.1c7.82,4.79,64.41-.14,64.41-.14,15.58-1.36,32-2.78,51.84.7,0,0,14.42,2.53,38.84-1.82,2.9-.52,6.31-1.22,7.13-3.49C181.13,36,166.87,24.11,153.73,18.5Z"/><path class="cls-3" d="M55.17,10.27l10-5C61.45,7,58,8.78,55.17,10.27Z"/><path class="cls-3" d="M48.4,13.91l6.76-3.63C52.06,11.89,49.67,13.2,48.4,13.91Z"/><path class="cls-3" d="M118.73,2.1l11.75,3.18C126.23,4,122.1,2.88,118.73,2.1Z"/><path class="cls-3" d="M130.49,5.28l12.84,3.91C139.41,8,134.89,6.57,130.49,5.28Z"/><path class="cls-3" d="M117.94,1.92l.69.16Z"/><path class="cls-3" d="M182.12,35.74c-.3-1.37-3.72-16.64-6.08-19.07a7.41,7.41,0,0,0-.84-.73,8.2,8.2,0,0,0-4.93-1.36c-3.7-.05-7.33-1.05-11-1.47-.53-.06-2.29-.14-4.6-.55l-.43-.08c-.29-.05-.73-.17-1.32-.33h0l-.86.14L150.25,12l-8-2.31L131,6.58,117.87,3.49l-.09-1.44V1.92l-.1,0S108.44-.16,81.84.32a29.28,29.28,0,0,0-5.13.52,30.16,30.16,0,0,0-7,2.31c-1.56.71-3.1,1.42-4.59,2.14l4.34-1.87h1.9l.66.26.38.19V4.2L50.74,17.46H48.85L45.44,17l-1.73-.33.82-.61,3.79-2.15-1,.54-3.67,2.1a122.08,122.08,0,0,0-12.37,1.15C29.71,18,25,19,15.72,21.07A57.79,57.79,0,0,0,4,25.58a6,6,0,0,0-2.2,1.78A6.47,6.47,0,0,0,.94,29C.4,30.72.11,35.78.31,42.55l.05.28.31.31.66.51,4.58,2.57,1.94.87,1,.14c4.23.14,6.85.73,10.2.42a43.09,43.09,0,0,1,0-6.71,21.8,21.8,0,0,1,1.19-6.71A15,15,0,0,1,24.56,28,15.3,15.3,0,0,1,34.89,24.6a15.35,15.35,0,0,1,13.48,8.73,19.29,19.29,0,0,1,1.75,6.5,32.58,32.58,0,0,1,.07,8.59H135a37.82,37.82,0,0,1-.14-5.17c.14-3.31.25-6,1.54-8.94a17.17,17.17,0,0,1,7.27-7.89,16.88,16.88,0,0,1,16.91.77,17,17,0,0,1,5.66,6.36,20.45,20.45,0,0,1,2,9.43,27.87,27.87,0,0,1-.21,4.12l.7-.07c4.75-.57,11.58-3.29,13.13-8.59A8.28,8.28,0,0,0,182.12,35.74Zm-68.9-20.17H95.1l-17.29.58-22.37.52A13.19,13.19,0,0,1,57.34,15,131,131,0,0,1,72.62,6.09l2.15-.73C81.49,2.8,90.51,3.6,92.21,3.62a93.05,93.05,0,0,1,22,2.57l1.57.42Z"/><polygon class="cls-3" points="65.17 5.27 65.16 5.27 65.17 5.26 65.17 5.27"/><polygon class="cls-3" points="48.4 13.9 48.4 13.91 48.4 13.9 48.4 13.9"/><polygon class="cls-3" points="55.17 10.27 55.16 10.27 55.17 10.27 55.17 10.27"/><path class="cls-4" d="M132.14,10.53l-16.47-4h0l.19.05-1.19,4.14h0c-.31,1.2-.64,2.34-1,3.32l-.43,1.5h-.06c-.35,1-.59,1.69-.59,1.69-2.31,5.21-3.55,7.78-6.15,13.48l-4.4,9.64c2.31-.07,4.27-.15,5.73-.21,3.23-.14.83-.07,10.2-.91a8.71,8.71,0,0,0,3.21-.77A8.91,8.91,0,0,0,124.38,36c5.89-7,9.09-20.3,9.36-21.45a3.76,3.76,0,0,0-.28-3.14A2.56,2.56,0,0,0,132.14,10.53Z"/><path class="cls-4" d="M113.73,14c-.17.56-.34,1.07-.49,1.5h.06Z"/><path class="cls-4" d="M115.86,6.59l-.19-.05c0,.15-.44,2-1,4.19Z"/><circle class="cls-5" cx="151.52" cy="40.03" r="13.95"/><path class="cls-6" d="M4.47,29.85A11,11,0,0,0,2.63,34a33,33,0,0,0-.26,5.36c0,.88,0,1.61,0,2.11a24,24,0,0,0,4.29,0c2.45-.36,2.73-.43,3.1-.78a5.45,5.45,0,0,0,.86-1.08l3.57-9.13A62.37,62.37,0,0,1,4.47,29.85Z"/><path class="cls-7" d="M7.38,27.39a7.93,7.93,0,0,0-1,.6,8.28,8.28,0,0,0-1.9,1.86,62.37,62.37,0,0,0,9.71.67l1.4-3.59Z"/><path class="cls-4" d="M102.77,38.89l-49.16,3q13.32-.32,26.64-.75,11.26-.36,22.51-.8"/><path class="cls-8" d="M13,33.4l-1.46.68-1.49.08a54.16,54.16,0,0,1-7.27,0l-.53,0-.13,0-.09.07a.42.42,0,0,0-.06.52.41.41,0,0,0,.35.13L3.92,35c1.21.07,2.54.09,4,0s2.66-.15,3.83-.3l.93-.29Z"/><path class="cls-8" d="M2.23,37.71l.38,0c.24,0,1.51.08,4.44,0l1.72-.09h0l1.49-.08,1.46-.68L11.3,37.9l-.93.29c-1.17.14-2.46.25-3.83.3s-2.74,0-4,0l-.33,0c-.34,0-.56-.06-.65-.21a.5.5,0,0,1,.05-.44l.16-.05A1.25,1.25,0,0,1,2.23,37.71Z"/><path class="cls-9" d="M72.46,3.85l-.38-.19-.66-.26h-1.9L65.17,5.27l-10,5L48.4,13.91l-3.8,2.15-.82.61,1.73.33,3.41.44h1.89L72.46,4.18Z"/><path class="cls-9" d="M114.29,6.17a93.05,93.05,0,0,0-22-2.57c-1.7,0-10.72-.82-17.45,1.73l-2.15.73A131,131,0,0,0,57.41,15a13.19,13.19,0,0,0-1.9,1.68l22.37-.52,17.29-.58h18.13l2.57-9Z"/><polygon class="cls-9" points="117.85 2.03 117.94 3.46 131.06 6.55 142.3 9.68 150.32 11.98 152.14 12.26 153 12.13 143.34 9.19 130.48 5.28 118.72 2.09 117.85 1.9 117.85 2.03"/><path class="cls-10" d="M176.47,22.51,176.3,22c-.41.11-.83.23-1.26.36a25,25,0,0,0-3.28,1.3l5.05,9.91a2.59,2.59,0,0,0,.57.42,3,3,0,0,0,2.28.15c-.56-2.16-1.14-4.48-1.74-6.63Q177.19,25,176.47,22.51Z"/><path class="cls-6" d="M179.75,26.56l-1.19-4.38-.21-.66c-.65.11-1.34.25-2.06.44l.17.55q.73,2.45,1.44,5c.61,2.15,1.19,4.47,1.74,6.63a6.28,6.28,0,0,0,1.77-.86Z"/><path class="cls-11" d="M177.75,19.58l-.87-2-.42-.72a16.05,16.05,0,0,0-5.69,2.91q-.34.31-.64.63l1.63,3.19a25,25,0,0,1,3.28-1.3c.43-.14.85-.26,1.26-.36l-.18-.56.18.56c.72-.19,1.41-.33,2.06-.44Z"/><polygon class="cls-6" points="177.25 25.2 172.56 25.2 172.94 25.94 177.48 25.94 177.25 25.2"/><polygon class="cls-6" points="174.53 29.06 174.88 29.76 178.58 29.76 178.33 29.03 174.53 29.06"/><polygon class="cls-6" points="168.97 14.52 171.42 14.34 172.04 14.43 172.13 14.71 171.16 14.84 168.93 14.74 168.97 14.52"/><path class="cls-12" d="M176.47,22.51,176.3,22c-.41.11-.83.23-1.26.36a25,25,0,0,0-3.28,1.3l5.05,9.91a2.59,2.59,0,0,0,.57.42,3,3,0,0,0,2.28.15c-.56-2.16-1.14-4.48-1.74-6.63Q177.19,25,176.47,22.51Z"/><line class="cls-13" x1="50.43" y1="44.71" x2="134.9" y2="44.71"/><path class="cls-14" d="M113.29,15.55c-.25.58-.45,1.41-.65,1.69l-1.94,4.32L108,27.35l-2.47,5.4-2.51,5.5-.29.63-.76.06a46.82,46.82,0,0,1-7.72.47c-1.36-.92-.38-11.28,3.94-22.25a12.24,12.24,0,0,0,6.32-1.41C104.86,15.59,113.44,15.22,113.29,15.55Z"/><path class="cls-15" d="M113.29,15.55c2.24.16,4.57.28,7,.33,4.61.1,9.2,0,13.2-.33"/><polygon class="cls-5" points="55.43 16.67 56.84 15.26 61.84 11.88 62 16.47 55.43 16.67"/><path class="cls-16" d="M65.07,12.69c-.12-1-.14-1.66-.52-2L58.8,13.85l-.94.75-.56.75v.36A25,25,0,0,0,64,16.91l.76,0A9.94,9.94,0,0,0,65.07,12.69Z"/><line class="cls-17" x1="145.43" y1="42.07" x2="145.29" y2="41.66"/><line class="cls-17" x1="148.7" y1="39.8" x2="149.28" y2="41.57"/><line class="cls-17" x1="145.36" y1="41.86" x2="148.99" y2="40.68"/><circle class="cls-5" cx="34.79" cy="40.21" r="13.95"/><circle class="cls-18" cx="34.78" cy="40.24" r="9.81"/><circle class="cls-19" cx="34.79" cy="40.21" r="8.62"/><circle class="cls-20" cx="34.79" cy="40.21" r="3.22"/><polygon class="cls-20" points="32.26 40.96 24.17 39.13 23.76 40.38 28.56 41.94 32.26 40.96"/><polygon class="cls-20" points="32.26 40.96 26.79 47.2 25.73 46.42 28.69 42.34 32.26 40.96"/><polygon class="cls-20" points="34.79 42.8 30.55 49.93 31.61 50.7 34.57 46.62 34.79 42.8"/><polygon class="cls-20" points="34.79 42.8 39.03 49.93 37.97 50.7 35 46.62 34.79 42.8"/><polygon class="cls-20" points="37.32 40.96 42.79 47.2 43.85 46.42 40.89 42.34 37.32 40.96"/><polygon class="cls-20" points="37.32 40.96 45.41 39.13 45.82 40.38 41.02 41.94 37.32 40.96"/><polygon class="cls-20" points="36.35 37.98 43.98 34.71 43.57 33.46 38.77 35.02 36.35 37.98"/><polygon class="cls-20" points="36.35 37.98 37.11 29.72 38.42 29.72 38.42 34.77 36.35 37.98"/><polygon class="cls-20" points="33.22 37.98 32.47 29.72 31.15 29.72 31.15 34.77 33.22 37.98"/><polygon class="cls-20" points="33.22 37.98 25.6 34.71 26.01 33.46 30.8 35.02 33.22 37.98"/><path class="cls-20" d="M34.79,29.31a10.9,10.9,0,1,0,10.9,10.9A10.9,10.9,0,0,0,34.79,29.31Zm0,20.75a9.81,9.81,0,1,1,9.81-9.81A9.81,9.81,0,0,1,34.78,50.05Z"/><circle class="cls-18" cx="151.51" cy="40.24" r="9.81"/><circle class="cls-19" cx="151.52" cy="40.21" r="8.62"/><circle class="cls-20" cx="151.52" cy="40.21" r="3.22"/><polygon class="cls-20" points="148.99 40.96 140.9 39.13 140.5 40.38 145.29 41.94 148.99 40.96"/><polygon class="cls-20" points="148.99 40.96 143.52 47.2 142.46 46.42 145.43 42.34 148.99 40.96"/><polygon class="cls-20" points="151.52 42.8 147.28 49.93 148.34 50.7 151.31 46.62 151.52 42.8"/><polygon class="cls-20" points="151.52 42.8 155.76 49.93 154.7 50.7 151.74 46.62 151.52 42.8"/><polygon class="cls-20" points="154.06 40.96 159.52 47.2 160.59 46.42 157.62 42.34 154.06 40.96"/><polygon class="cls-20" points="154.06 40.96 162.14 39.13 162.55 40.38 157.75 41.94 154.06 40.96"/><polygon class="cls-20" points="153.09 37.98 160.71 34.71 160.3 33.46 155.51 35.02 153.09 37.98"/><polygon class="cls-20" points="153.09 37.98 153.84 29.72 155.16 29.72 155.16 34.77 153.09 37.98"/><polygon class="cls-20" points="149.96 37.98 149.2 29.72 147.89 29.72 147.89 34.77 149.96 37.98"/><polygon class="cls-20" points="149.96 37.98 142.34 34.71 142.74 33.46 147.54 35.02 149.96 37.98"/><path class="cls-20" d="M151.52,29.31a10.9,10.9,0,1,0,10.9,10.9A10.9,10.9,0,0,0,151.52,29.31Zm0,20.75a9.81,9.81,0,1,1,9.81-9.81A9.81,9.81,0,0,1,151.51,50.05Z"/><path class="cls-19" d="M57.3,15.72V16a3,3,0,0,0,.81,1c.93.73,2.08.67,3.57.56A14.19,14.19,0,0,0,64.75,17l0-.06-.76,0A25,25,0,0,1,57.3,15.72Z"/><path class="cls-21" d="M182.12,35.74c-.3-1.37-3.72-16.64-6.08-19.07a7.41,7.41,0,0,0-.84-.73,8.2,8.2,0,0,0-4.93-1.36c-3.7-.05-7.33-1.05-11-1.47-.53-.06-2.29-.14-4.6-.55l-.43-.08c-.29-.05-.73-.17-1.32-.33h0l-.86.14L150.25,12l-8-2.31L131,6.58,117.87,3.49l-.09-1.44V1.92l-.1,0S108.44-.16,81.84.32a29.28,29.28,0,0,0-5.13.52,30.16,30.16,0,0,0-7,2.31c-1.56.71-3.1,1.42-4.59,2.14l4.34-1.87h1.9l.66.26.38.19V4.2L50.74,17.46H48.85L45.44,17l-1.73-.33.82-.61,3.79-2.15-1,.54-3.67,2.1a122.08,122.08,0,0,0-12.37,1.15C29.71,18,25,19,15.72,21.07A57.79,57.79,0,0,0,4,25.58a6,6,0,0,0-2.2,1.78A6.47,6.47,0,0,0,.94,29C.4,30.72.11,35.78.31,42.55l.05.28.31.31.66.51,4.58,2.57,1.94.87,1,.14c4.23.14,6.85.73,10.2.42a43.09,43.09,0,0,1,0-6.71,21.8,21.8,0,0,1,1.19-6.71A15,15,0,0,1,24.56,28,15.3,15.3,0,0,1,34.89,24.6a15.35,15.35,0,0,1,13.48,8.73,19.29,19.29,0,0,1,1.75,6.5,32.58,32.58,0,0,1,.07,8.59H135a37.82,37.82,0,0,1-.14-5.17c.14-3.31.25-6,1.54-8.94a17.17,17.17,0,0,1,7.27-7.89,16.88,16.88,0,0,1,16.91.77,17,17,0,0,1,5.66,6.36,20.45,20.45,0,0,1,2,9.43,27.87,27.87,0,0,1-.21,4.12l.7-.07c4.75-.57,11.58-3.29,13.13-8.59A8.28,8.28,0,0,0,182.12,35.74Zm-68.9-20.17H95.1l-17.29.58-22.37.52A13.19,13.19,0,0,1,57.34,15,131,131,0,0,1,72.62,6.09l2.15-.73C81.49,2.8,90.51,3.6,92.21,3.62a93.05,93.05,0,0,1,22,2.57l1.57.42Z"/><path class="cls-22" d="M182.12,35.74c-.3-1.37-3.72-16.64-6.08-19.07a7.41,7.41,0,0,0-.84-.73,8.2,8.2,0,0,0-4.93-1.36c-3.7-.05-7.33-1.05-11-1.47-.53-.06-2.29-.14-4.6-.55l-.43-.08c-.29-.05-.73-.17-1.32-.33h0l-.86.14L150.25,12l-8-2.31L131,6.58,117.87,3.49l-.09-1.44V1.92l-.1,0S108.44-.16,81.84.32a29.28,29.28,0,0,0-5.13.52,30.16,30.16,0,0,0-7,2.31c-1.56.71-3.1,1.42-4.59,2.14l4.34-1.87h1.9l.66.26.38.19V4.2L50.74,17.46H48.85L45.44,17l-1.73-.33.82-.61,3.79-2.15-1,.54-3.67,2.1a122.08,122.08,0,0,0-12.37,1.15C29.71,18,25,19,15.72,21.07A57.79,57.79,0,0,0,4,25.58a6,6,0,0,0-2.2,1.78A6.47,6.47,0,0,0,.94,29C.4,30.72.11,35.78.31,42.55l.05.28.31.31.66.51,4.58,2.57,1.94.87,1,.14c4.23.14,6.85.73,10.2.42a43.09,43.09,0,0,1,0-6.71,21.8,21.8,0,0,1,1.19-6.71A15,15,0,0,1,24.56,28,15.3,15.3,0,0,1,34.89,24.6a15.35,15.35,0,0,1,13.48,8.73,19.29,19.29,0,0,1,1.75,6.5,32.58,32.58,0,0,1,.07,8.59H135a37.82,37.82,0,0,1-.14-5.17c.14-3.31.25-6,1.54-8.94a17.17,17.17,0,0,1,7.27-7.89,16.88,16.88,0,0,1,16.91.77,17,17,0,0,1,5.66,6.36,20.45,20.45,0,0,1,2,9.43,27.87,27.87,0,0,1-.21,4.12l.7-.07c4.75-.57,11.58-3.29,13.13-8.59A8.28,8.28,0,0,0,182.12,35.74Zm-68.9-20.17H95.1l-17.29.58-22.37.52A13.19,13.19,0,0,1,57.34,15,131,131,0,0,1,72.62,6.09l2.15-.73C81.49,2.8,90.51,3.6,92.21,3.62a93.05,93.05,0,0,1,22,2.57l1.57.42Z"/></g></g></g></svg>