<svg xmlns="http://www.w3.org/2000/svg" xmlns:xlink="http://www.w3.org/1999/xlink" viewBox="0 0 181.77 55.59"><defs><style>.cls-1,.cls-2{fill:#29120d;}.cls-1{opacity:0.22;}.cls-2{opacity:0.18;}.cls-10,.cls-3{fill:#888791;}.cls-4{fill:#421215;}.cls-5{fill:#8c1825;}.cls-6{fill:#66121e;}.cls-7{fill:#7d737c;}.cls-8{fill:#cd4b29;}.cls-9{fill:#040504;}.cls-10{opacity:0.13;}.cls-11{fill:#f78d31;}.cls-11,.cls-12,.cls-13{stroke:#640f12;}.cls-11,.cls-12,.cls-13,.cls-14{stroke-miterlimit:10;}.cls-11,.cls-12{stroke-width:0.25px;}.cls-12{fill:#d33327;}.cls-13,.cls-14{fill:none;stroke-width:0.5px;}.cls-14{stroke:#771524;}.cls-15{fill:#010101;}.cls-16{fill:#c1bcb6;}.cls-17{fill:#13080a;}.cls-18{fill:#771524;}.cls-19{fill:#631121;}.cls-20{fill:url(#linear-gradient);}.cls-21{opacity:0.51;fill:url(#linear-gradient-2);}.cls-22{fill:#bfbfbf;}.cls-23{fill:#58a4da;}.cls-24{fill:#fff;}</style><linearGradient id="linear-gradient" x1="89.56" y1="0.71" x2="90.44" y2="26.06" gradientUnits="userSpaceOnUse"><stop offset="0" stop-color="#c72135"/><stop offset="1" stop-color="#8c1826" stop-opacity="0"/></linearGradient><linearGradient id="linear-gradient-2" x1="90.89" y1="45.36" x2="90.72" y2="34.94" gradientUnits="userSpaceOnUse"><stop offset="0" stop-color="#591019"/><stop offset="0.63" stop-color="#781722" stop-opacity="0.37"/><stop offset="1" stop-color="#8c1826" stop-opacity="0"/></linearGradient></defs><title>bmw</title><g id="Layer_2" data-name="Layer 2"><g id="Layer_2-2" data-name="Layer 2"><g id="bmw"><ellipse class="cls-1" cx="71.4" cy="18.36" rx="1.14" ry="7.18" transform="translate(-2.32 19.09) rotate(-14.99)"/><path class="cls-2" d="M112.89,9.06a4.26,4.26,0,0,0-1.47-1.22,5.15,5.15,0,0,0-3.18-.43c-2.19.49-3.11,2.68-3.66,4a19.25,19.25,0,0,0-.67,3.19c-.24,1.39-.3,2.16.24,2.71a2.09,2.09,0,0,0,.86.48c.45.16,3.46,1.15,5.68-.32a3.54,3.54,0,0,0,.85-.77l-3.68.22,3.68-.22a9,9,0,0,0,.8-1.3C112.8,14.54,114.56,11.32,112.89,9.06Z"/><path class="cls-3" d="M161.53,39.24a6.53,6.53,0,0,0-.76.4l2.86-.27Z"/><path class="cls-3" d="M163.52,39.64l-2.85.4c-1.62,1.09-2.27,2.64-1.86,3.64a2.22,2.22,0,0,0,1.47,1.17L173,43.61a3.47,3.47,0,0,0,.61-.27,3.66,3.66,0,0,0,1.3-1.29l4.81-.21,1.19-2.34-6.85.3Z"/><polygon class="cls-4" points="87.69 43.95 61.3 48.27 116.11 47.77 111.66 43.95 87.69 43.95"/><path class="cls-4" d="M160.64,22.86c-3.08-5.61-8.68-9-16-10.79v.62l-.29.74-1.57,1.62-30,2,.06-.4-3.74.23v0l-1.13,0h0L70.46,18c-16.16,3-32,6.12-45.37,7.37-1.67.16-7.62.69-12.31,5C7.89,34.8,5.09,42.7,7.67,45.65c.87,1,2,1.07,5.11,1.31,16.36,1.25,14.57,1.33,17.16,1.31,4.48,0,8.81-.25,13.49-.65,8.4-.73,14.08-1.74,17.29-2.23,9.62-1.46,23.17-.86,49.9.39,12,.56,11,.69,13.88.65,16.14-.2,31.15-.83,39.91-4a22.31,22.31,0,0,0,.35-3.14l-7,.67,7-.67C165,32.15,162.13,25.59,160.64,22.86ZM41.37,44.58l87.89-2.19Z"/><path class="cls-4" d="M113.66,11.17l-3.55.37-1,5.29,3.74-.23Z"/><path d="M2.56,47l3.08,1.09,4.71.22c.29-1.4.72-3.5,1.18-6.09l.06-.31H1.51Z"/><path class="cls-5" d="M133.71,1.81l2.42.76C135.34,2.3,134.54,2,133.71,1.81Z"/><path class="cls-6" d="M42.77,47c0,.71,0,1.31,0,1.7l20.82-.31h.85l17.81-2H99.74s14.6,1.31,14.8,1.38,13.75-.59,13.75-.59a20.7,20.7,0,0,1,0-4.8L42.68,44.55C42.73,45.45,42.75,46.28,42.77,47Z"/><path class="cls-5" d="M178.45,29.35v-1l-1-.46.07-1,.13-2.29L177.6,21l-.39-1.7a15.13,15.13,0,0,0,1.24-4.85l-18.47-2-.64-.27h0l1.18.64h-3.59l-.42-.2-6.11-3.14-9-4.2L133.69,1.8A47.62,47.62,0,0,0,128.88.66C127.69.45,125.46.09,115.26,0c-4.8,0-3.72,0-14.6.13A118.62,118.62,0,0,0,87.89.73a26.91,26.91,0,0,0-8.19,2l-.49.22a9.37,9.37,0,0,1,1.22-.24l.32.25v.42l-4,2.19-9.31,5.94L58,18.25l-2.92-.12L53.74,18l-1-.1.21-.19h0a3.87,3.87,0,0,1-1.11.08l-.2,0c-.41-.05-7.74.84-24.32,3l-1.2.19-.21,0C19.32,22.13,13,24.16,6.49,25.74a5.9,5.9,0,0,0-3,1.57l-.12.13a7.94,7.94,0,0,0-1.9,5.89,2.14,2.14,0,0,1-.2,1.77c-.29.33-.58.23-.92.59A2.37,2.37,0,0,0,0,37.46a5.34,5.34,0,0,0,.46,1.9,7.71,7.71,0,0,0,.85,1.57l.19.93H11.59c.76-4.26.73-4.86,1.32-6.17a13.65,13.65,0,0,1,5.57-6,15.63,15.63,0,0,1,7.53-2,15.12,15.12,0,0,1,8.58,1.51,14.63,14.63,0,0,1,6,6.74,22.1,22.1,0,0,1,2.07,8.59l85.65-2.13a20.19,20.19,0,0,1,.62-3.05c.62-2.18,1.4-4.91,3.86-7.14s5.17-2.7,7.6-3.14a18.17,18.17,0,0,1,8.25.2,13.65,13.65,0,0,1,7.14,3.93,13.73,13.73,0,0,1,3.13,6.61l20.5-2,.08-.26a4.71,4.71,0,0,1,1-2,4.24,4.24,0,0,1,.92-.79V30.07ZM144.59,12.7l-.29.74-1.57,1.62-29.81,1.56v0l-3.83.23v0l-1.13,0h0L61.2,18.25l11-8.15A47,47,0,0,1,82,4.59,25.78,25.78,0,0,1,88.41,3c2.43-.45,5.13-.78,13.16-.93,2.66-.05,6.19-.09,10.36,0V2l3.23,0V2c2.19-.08,7,0,10.71.26l2.18.39c2.13.42,14.15,6.86,15.22,7.71l.49.39.35.29.49.69Z"/><path d="M158.92,39.82a11.85,11.85,0,0,1,.15,1.45c0,.38,0,2.87,0,3.09l18.2-3.22a8.83,8.83,0,0,0,2.15-3.28Z"/><path class="cls-5" d="M136.14,2.57h0Z"/><path class="cls-5" d="M133.69,1.8h0Z"/><path class="cls-7" d="M4.23,30.33a8.09,8.09,0,0,1,1-1.84H4.65a3.26,3.26,0,0,0-.34.27C2.9,30,3,32.2,3.05,33.1l0,.15h.7A8.14,8.14,0,0,1,4.23,30.33Z"/><path class="cls-8" d="M8.28,29.89a2.55,2.55,0,0,0-1.55-1.4,1.55,1.55,0,0,0-.54,0h-1a8.08,8.08,0,0,0-1.49,4.76H10A22.71,22.71,0,0,0,8.28,29.89Z"/><polygon points="0 37.94 0 36.54 0.3 35.82 11.92 35.82 11.08 37.94 0 37.94"/><path d="M155.59,31.31c.53.62,1.07,1.47,1.6,2.1l24.57-.93-.11-2.15Z"/><circle class="cls-9" cx="143.67" cy="42.84" r="12.75"/><path class="cls-10" d="M111.85,2h.07V2c-4.17,0-7.7,0-10.36,0-8,.16-10.73.48-13.16.93A25.78,25.78,0,0,0,82,4.59a47,47,0,0,0-9.87,5.5l-11,8.15L108,16.9l1.14-.07L111.92,2Z"/><polygon class="cls-10" points="109.09 16.83 107.95 16.9 109.09 16.87 109.09 16.83"/><path class="cls-10" d="M144.1,11l-.35-.29-.49-.39C142.2,9.48,130.18,3,128,2.63l-2.18-.39c-3.69-.24-8.52-.34-10.71-.26V2h0L112.92,16.6h0v0l29.81-1.56,1.57-1.62.29-.74v-1Z"/><polygon class="cls-10" points="159.35 12.18 150.22 8.26 144.59 5.8 140.67 4.17 138.86 3.51 136.14 2.57 133.69 1.8 141.45 5.28 150.41 9.48 156.53 12.62 156.94 12.82 160.53 12.82 159.35 12.18"/><path class="cls-10" d="M63.35,11.79,54,17.11l-1,.58-.21.19,1,.1,1.35.15,2.92.12,9.45-6.78,9.31-5.94,4-2.19V2.92l-.32-.25A8.3,8.3,0,0,0,78.84,3C73.49,6,68.7,8.8,63.35,11.79Z"/><path class="cls-11" d="M177.48,19.89l-.25-.32h-1.68a2,2,0,0,0-.79.32,2.37,2.37,0,0,0-.82,1.21c-.11.28-.19.54-.27.79h4.11C177.69,21.19,177.59,20.52,177.48,19.89Z"/><path class="cls-12" d="M177.78,21.89h-4.11a12.78,12.78,0,0,0-.54,2.45l4.84-.12C177.93,23.41,177.86,22.63,177.78,21.89Z"/><path class="cls-12" d="M178,24.22l-4.84.12a12,12,0,0,1-.22,1.44.75.75,0,0,0,0,.43,1.05,1.05,0,0,0,.68.57H178c0-.74,0-1.53,0-2.36C178,24.36,178,24.29,178,24.22Z"/><path class="cls-7" d="M4.26,30.14a8.09,8.09,0,0,1,1-1.84H4.67a3.26,3.26,0,0,0-.34.27C2.92,29.84,3,32,3.08,32.92l0,.15h.7A8.14,8.14,0,0,1,4.26,30.14Z"/><path class="cls-8" d="M8.31,29.7a2.55,2.55,0,0,0-1.55-1.4,1.55,1.55,0,0,0-.54,0h-1a8.08,8.08,0,0,0-1.49,4.76H10A22.71,22.71,0,0,0,8.31,29.7Z"/><path class="cls-13" d="M4.69,28.24c.75,0,.93,0,1.28,0,0,0,.33,0,1,0a2.71,2.71,0,0,1,.76.48,2.54,2.54,0,0,1,.54.71c.31.56,1,1.89,1.85,3.6"/><path class="cls-14" d="M111.37,17.82c-.3-.4-1.19-.58-1.34-.75l.06-.29-2.24.14,2.24-.14L113.36,2h0L113.6,1h-8l-16.62.59a27.45,27.45,0,0,0-4.74,1,30.71,30.71,0,0,0-6.95,3.28c-2.6,1.54-6,3.71-10,6.59l-6.63,5.21-1.5,2.29a31.86,31.86,0,0,0,1.11,23.53L109,42.22c3.36-10.63,4.56-20.11,3.87-22C112.17,18.25,111.37,17.82,111.37,17.82Z"/><polygon class="cls-15" points="40.14 35.05 40.78 36.33 131.59 33.53 132.81 32.23 40.14 35.05"/><path class="cls-9" d="M101,21.65a1.7,1.7,0,0,1,.81-1.15,1.36,1.36,0,0,1,.42-.13c2.95-.06,4.81-.13,5.33-.21a.68.68,0,0,1,.33,0c.42.14.61.83.71,1.28a8.55,8.55,0,0,1-1.07.17c-2.22.07-4.3.18-6.22.09Z"/><circle class="cls-16" cx="107.2" cy="20.95" r="0.45"/><polygon class="cls-17" points="111.92 2.04 109.09 16.83 112.92 16.6 115.15 2.02 111.92 2.04"/><polygon class="cls-18" points="61.2 18.25 67.17 13.76 66.84 18.08 61.2 18.25"/><path class="cls-19" d="M67.36,12.92a7,7,0,0,0-3.89,1.85,2.64,2.64,0,0,0-1,2c.11,1.07,1.23,1.72,1.72,2a5.91,5.91,0,0,0,3.35.69V12.92Z"/><path class="cls-18" d="M67.5,12.78a7,7,0,0,0-3.89,1.85,2.64,2.64,0,0,0-1,2c.11,1.07,1.23,1.72,1.72,2a5.91,5.91,0,0,0,3.35.69V12.78Z"/><rect x="67.68" y="12.78" width="0.53" height="6.56"/><circle class="cls-9" cx="26.8" cy="42.84" r="12.75"/><path class="cls-20" d="M178.45,29.35v-1l-1-.46.07-1,.13-2.29L177.6,21l-.39-1.7a15.13,15.13,0,0,0,1.24-4.85l-18.47-2-.64-.27h0l1.18.64h-3.59l-.42-.2-6.11-3.14-9-4.2L133.69,1.8A47.62,47.62,0,0,0,128.88.66C127.69.45,125.46.09,115.26,0c-4.8,0-3.72,0-14.6.13A118.62,118.62,0,0,0,87.89.73a26.91,26.91,0,0,0-8.19,2l-.49.22a9.37,9.37,0,0,1,1.22-.24l.32.25v.42l-4,2.19-9.31,5.94L58,18.25l-2.92-.12L53.74,18l-1-.1.21-.19h0a3.87,3.87,0,0,1-1.11.08l-.2,0c-.41-.05-7.74.84-24.32,3l-1.2.19-.21,0C19.32,22.13,13,24.16,6.49,25.74a5.9,5.9,0,0,0-3,1.57l-.12.13a7.94,7.94,0,0,0-1.9,5.89,2.14,2.14,0,0,1-.2,1.77c-.29.33-.58.23-.92.59A2.37,2.37,0,0,0,0,37.46a5.34,5.34,0,0,0,.46,1.9,7.71,7.71,0,0,0,.85,1.57l.19.93H11.59c.76-4.26.73-4.86,1.32-6.17a13.65,13.65,0,0,1,5.57-6,15.63,15.63,0,0,1,7.53-2,15.12,15.12,0,0,1,8.58,1.51,14.63,14.63,0,0,1,6,6.74c1.47,3,2,10.21,2.16,12.77l85.52-1.51c.12-1,.35-6.78.65-7.86.62-2.18,1.4-4.91,3.86-7.14s5.17-2.7,7.6-3.14a18.17,18.17,0,0,1,8.25.2,13.65,13.65,0,0,1,7.14,3.93,13.73,13.73,0,0,1,3.13,6.61l20.5-2,.08-.26a4.71,4.71,0,0,1,1-2,4.24,4.24,0,0,1,.92-.79V30.07ZM144.59,12.7l-.29.74-1.57,1.62-29.81,1.56v0l-3.83.23v0l-1.13,0h0L61.2,18.25l11-8.15A47,47,0,0,1,82,4.59,25.78,25.78,0,0,1,88.41,3c2.43-.45,5.13-.78,13.16-.93,2.66-.05,6.19-.09,10.36,0V2l3.23,0V2c2.19-.08,7,0,10.71.26l2.18.39c2.13.42,14.15,6.86,15.22,7.71l.49.39.35.29.49.69Z"/><path class="cls-21" d="M178.45,29.35v-1l-1-.46.07-1,.13-2.29L177.6,21l-.39-1.7a15.13,15.13,0,0,0,1.24-4.85l-18.47-2-.64-.27h0l1.18.64h-3.59l-.42-.2-6.11-3.14-9-4.2L133.69,1.8A47.62,47.62,0,0,0,128.88.66C127.69.45,125.46.09,115.26,0c-4.8,0-3.72,0-14.6.13A118.62,118.62,0,0,0,87.89.73a26.91,26.91,0,0,0-8.19,2l-.49.22a9.37,9.37,0,0,1,1.22-.24l.32.25v.42l-4,2.19-9.31,5.94L58,18.25l-2.92-.12L53.74,18l-1-.1.21-.19h0a3.87,3.87,0,0,1-1.11.08l-.2,0c-.41-.05-7.74.84-24.32,3l-1.2.19-.21,0C19.32,22.13,13,24.16,6.49,25.74a5.9,5.9,0,0,0-3,1.57l-.12.13a7.94,7.94,0,0,0-1.9,5.89,2.14,2.14,0,0,1-.2,1.77c-.29.33-.58.23-.92.59A2.37,2.37,0,0,0,0,37.46a5.34,5.34,0,0,0,.46,1.9,7.71,7.71,0,0,0,.85,1.57l.19.93H11.59c.76-4.26.73-4.86,1.32-6.17a13.65,13.65,0,0,1,5.57-6,15.63,15.63,0,0,1,7.53-2,15.12,15.12,0,0,1,8.58,1.51,14.63,14.63,0,0,1,6,6.74c1.47,3,2,10.21,2.16,12.77l85.52-1.51c.12-1,.35-6.78.65-7.86.62-2.18,1.4-4.91,3.86-7.14s5.17-2.7,7.6-3.14a18.17,18.17,0,0,1,8.25.2,13.65,13.65,0,0,1,7.14,3.93,13.73,13.73,0,0,1,3.13,6.61l20.5-2,.08-.26a4.71,4.71,0,0,1,1-2,4.24,4.24,0,0,1,.92-.79V30.07ZM144.59,12.7l-.29.74-1.57,1.62-29.81,1.56v0l-3.83.23v0l-1.13,0h0L61.2,18.25l11-8.15A47,47,0,0,1,82,4.59,25.78,25.78,0,0,1,88.41,3c2.43-.45,5.13-.78,13.16-.93,2.66-.05,6.19-.09,10.36,0V2l3.23,0V2c2.19-.08,7,0,10.71.26l2.18.39c2.13.42,14.15,6.86,15.22,7.71l.49.39.35.29.49.69Z"/><circle class="cls-4" cx="26.84" cy="42.78" r="8.07"/><path class="cls-22" d="M26.8,33.24a9.6,9.6,0,1,0,9.6,9.6A9.6,9.6,0,0,0,26.8,33.24Zm0,17.52a7.91,7.91,0,1,1,7.91-7.91A7.91,7.91,0,0,1,26.8,50.76Z"/><circle class="cls-22" cx="26.81" cy="42.84" r="6.78"/><rect class="cls-22" x="26.35" y="34.74" width="0.95" height="1.84" rx="0.47" ry="0.47"/><rect class="cls-22" x="28.36" y="35.63" width="1.84" height="0.95" rx="0.47" ry="0.47" transform="translate(-14.67 51.24) rotate(-69.97)"/><rect class="cls-22" x="30.52" y="36.88" width="1.84" height="0.95" rx="0.47" ry="0.47" transform="translate(-17.38 37.37) rotate(-49.93)"/><rect class="cls-22" x="32.12" y="38.8" width="1.84" height="0.95" rx="0.47" ry="0.47" transform="translate(-15.18 21.69) rotate(-29.9)"/><rect class="cls-22" x="32.96" y="41.15" width="1.84" height="0.95" rx="0.47" ry="0.47" transform="translate(-6.63 6.42) rotate(-9.87)"/><rect class="cls-22" x="33.4" y="43.2" width="0.95" height="1.84" rx="0.47" ry="0.47" transform="translate(-15.53 69.67) rotate(-79.83)"/><rect class="cls-22" x="32.53" y="45.54" width="0.95" height="1.84" rx="0.47" ry="0.47" transform="translate(-23.75 51.62) rotate(-59.8)"/><rect class="cls-22" x="30.92" y="47.45" width="0.95" height="1.84" rx="0.47" ry="0.47" transform="translate(-23.68 31.27) rotate(-39.76)"/><rect class="cls-22" x="28.75" y="48.68" width="0.95" height="1.84" rx="0.47" ry="0.47" transform="translate(-15.03 12.78) rotate(-19.73)"/><rect class="cls-22" x="25.84" y="49.55" width="1.84" height="0.95" rx="0.47" ry="0.47" transform="translate(-23.4 76.51) rotate(-89.7)"/><rect class="cls-22" x="23.38" y="49.1" width="1.84" height="0.95" rx="0.47" ry="0.47" transform="translate(-30.62 55.13) rotate(-69.66)"/><rect class="cls-22" x="21.23" y="47.83" width="1.84" height="0.95" rx="0.47" ry="0.47" transform="translate(-29 33.89) rotate(-49.63)"/><rect class="cls-22" x="19.64" y="45.9" width="1.84" height="0.95" rx="0.47" ry="0.47" transform="translate(-20.22 16.2) rotate(-29.6)"/><rect class="cls-22" x="18.81" y="43.55" width="1.84" height="0.95" rx="0.47" ry="0.47" transform="translate(-7.04 3.89) rotate(-9.56)"/><rect class="cls-22" x="19.27" y="40.61" width="0.95" height="1.84" rx="0.47" ry="0.47" transform="translate(-24.67 53.4) rotate(-79.53)"/><rect class="cls-22" x="20.15" y="38.27" width="0.95" height="1.84" rx="0.47" ry="0.47" transform="translate(-23.61 37.07) rotate(-59.5)"/><rect class="cls-22" x="21.78" y="36.37" width="0.95" height="1.84" rx="0.47" ry="0.47" transform="translate(-18.63 22.64) rotate(-39.46)"/><rect class="cls-22" x="23.96" y="35.15" width="0.95" height="1.84" rx="0.47" ry="0.47" transform="translate(-10.61 10.18) rotate(-19.43)"/><line class="cls-22" x1="26.81" y1="36.06" x2="26.81" y2="42.84"/><path class="cls-23" d="M26.8,44A1.16,1.16,0,0,0,28,42.84H26.8Z"/><path class="cls-24" d="M26.8,41.68v1.16H28A1.16,1.16,0,0,0,26.8,41.68Z"/><path class="cls-23" d="M26.8,41.68a1.16,1.16,0,0,0-1.16,1.16H26.8Z"/><path class="cls-24" d="M25.64,42.84A1.16,1.16,0,0,0,26.8,44V42.84Z"/><circle class="cls-4" cx="143.71" cy="42.78" r="8.07"/><path class="cls-22" d="M143.67,33.24a9.6,9.6,0,1,0,9.6,9.6A9.6,9.6,0,0,0,143.67,33.24Zm0,17.52a7.91,7.91,0,1,1,7.91-7.91A7.91,7.91,0,0,1,143.67,50.76Z"/><circle class="cls-22" cx="143.68" cy="42.84" r="6.78"/><rect class="cls-22" x="143.21" y="34.74" width="0.95" height="1.84" rx="0.47" ry="0.47"/><rect class="cls-22" x="145.23" y="35.63" width="1.84" height="0.95" rx="0.47" ry="0.47" transform="translate(62.17 161.04) rotate(-69.97)"/><rect class="cls-22" x="147.39" y="36.88" width="1.84" height="0.95" rx="0.47" ry="0.47" transform="translate(24.26 126.81) rotate(-49.93)"/><rect class="cls-22" x="148.99" y="38.8" width="1.84" height="0.95" rx="0.47" ry="0.47" transform="translate(0.38 79.95) rotate(-29.9)"/><rect class="cls-22" x="149.83" y="41.15" width="1.84" height="0.95" rx="0.47" ry="0.47" transform="translate(-4.9 26.44) rotate(-9.87)"/><rect class="cls-22" x="150.27" y="43.2" width="0.95" height="1.84" rx="0.47" ry="0.47" transform="translate(80.7 184.7) rotate(-79.83)"/><rect class="cls-22" x="149.4" y="45.54" width="0.95" height="1.84" rx="0.47" ry="0.47" transform="translate(34.33 152.62) rotate(-59.8)"/><rect class="cls-22" x="147.79" y="47.45" width="0.95" height="1.84" rx="0.47" ry="0.47" transform="matrix(0.77, -0.64, 0.64, 0.77, 3.36, 106.02)"/><rect class="cls-22" x="145.61" y="48.68" width="0.95" height="1.84" rx="0.47" ry="0.47" transform="translate(-8.17 52.23) rotate(-19.73)"/><rect class="cls-22" x="142.71" y="49.55" width="1.84" height="0.95" rx="0.47" ry="0.47" transform="translate(92.85 193.38) rotate(-89.7)"/><rect class="cls-22" x="140.25" y="49.1" width="1.84" height="0.95" rx="0.47" ry="0.47" transform="translate(45.63 164.71) rotate(-69.66)"/><rect class="cls-22" x="138.1" y="47.83" width="1.84" height="0.95" rx="0.47" ry="0.47" transform="translate(12.17 122.93) rotate(-49.63)"/><rect class="cls-22" x="136.51" y="45.9" width="1.84" height="0.95" rx="0.47" ry="0.47" transform="translate(-4.97 73.92) rotate(-29.6)"/><rect class="cls-22" x="135.67" y="43.55" width="1.84" height="0.95" rx="0.47" ry="0.47" transform="translate(-5.42 23.3) rotate(-9.56)"/><rect class="cls-22" x="136.14" y="40.61" width="0.95" height="1.84" rx="0.47" ry="0.47" transform="translate(70.96 168.32) rotate(-79.53)"/><rect class="cls-22" x="137.02" y="38.27" width="0.95" height="1.84" rx="0.47" ry="0.47" transform="translate(33.94 137.76) rotate(-59.5)"/><rect class="cls-22" x="138.65" y="36.37" width="0.95" height="1.84" rx="0.47" ry="0.47" transform="translate(8.01 96.92) rotate(-39.46)"/><rect class="cls-22" x="140.82" y="35.15" width="0.95" height="1.84" rx="0.47" ry="0.47" transform="translate(-3.95 49.05) rotate(-19.43)"/><line class="cls-22" x1="143.68" y1="36.06" x2="143.68" y2="42.84"/><path class="cls-23" d="M143.67,44a1.16,1.16,0,0,0,1.16-1.16h-1.16Z"/><path class="cls-24" d="M143.67,41.68v1.16h1.16A1.16,1.16,0,0,0,143.67,41.68Z"/><path class="cls-23" d="M143.67,41.68a1.16,1.16,0,0,0-1.16,1.16h1.16Z"/><path class="cls-24" d="M142.51,42.84A1.16,1.16,0,0,0,143.67,44V42.84Z"/></g></g></g></svg>