
<svg xmlns="http://www.w3.org/2000/svg" xmlns:xlink="http://www.w3.org/1999/xlink" viewBox="0 0 268.32 204.85"><defs><style>
    @font-face{
        font-family: 'Source Sans Pro', sans-serif;
        src:url(https://fonts.googleapis.com/css?family=Source+Sans+Pro:300,400,700" rel="stylesheet);
        font-weight: 300,400,700;
    
    }
    
    
    .cls-1 { isolation: isolate; } .cls-2 { opacity: 0.5; mix-blend-mode: multiply; } .cls-3, .cls-32, .cls-5 { fill: #fff; } .cls-4 { fill: #414042; } .cls-5, .cls-6 { font-size: 25.34px; } .cls-11, .cls-12, .cls-13, .cls-30, .cls-5, .cls-6, .cls-7 { font-family: SourceSansPro-Bold, Source Sans Pro; } .cls-11, .cls-12, .cls-13, .cls-30, .cls-32, .cls-5, .cls-6, .cls-7 { font-weight: 700; } .cls-11, .cls-12, .cls-6 { fill: #424142; } .cls-11, .cls-7 { font-size: 11.78px; } .cls-13, .cls-18, .cls-22, .cls-30, .cls-7 { fill: #231f20; } .cls-8 { letter-spacing: -0.01em; } .cls-9 { letter-spacing: 0em; } .cls-10 { letter-spacing: -0.02em; } .cls-12 { font-size: 10.47px; } .cls-13 { font-size: 8.16px; } .cls-14 { letter-spacing: 0em; } .cls-15 { fill: #f8e9ae; } .cls-16 { fill: #6d6e71; } .cls-17 { fill: none; stroke: #bcbec0; stroke-miterlimit: 10; stroke-width: 0.5px; } .cls-18 { font-size: 18px; font-family: ArchivoBlack-Regular, Archivo Black; } .cls-19 { letter-spacing: 0.06em; } .cls-20 { letter-spacing: -0.09em; } .cls-21 { letter-spacing: 0.04em; } .cls-22 { font-size: 13.98px; font-family: SourceSansPro-Regular, Source Sans Pro; } .cls-23 { letter-spacing: 0em; } .cls-24 { letter-spacing: 0em; } .cls-25 { letter-spacing: -0.01em; } .cls-26 { letter-spacing: -0.01em; } .cls-27 { letter-spacing: 0.02em; } .cls-28 { letter-spacing: 0em; } .cls-29 { letter-spacing: 0em; } .cls-30 { font-size: 12.23px; } .cls-31 { fill: #376195; } .cls-32 { font-size: 16.24px; font-family: BerlinSansFBDemi-Bold, Berlin Sans FB Demi; }</style></defs><title>CarPanel</title><g class="cls-1"><g id="Layer_2" data-name="Layer 2"><g id="Layer_2-2" data-name="Layer 2"><g id="carPanel1984"><image class="cls-2" width="1118" height="831" transform="matrix(.24 0 0 .24 0 5.41)" xlink:href="CarPanel1.png"/><path class="cls-3" d="M10.06 15.5h238.09v169.33H10.06z"/><g id="GasAmount"><path class="cls-4" d="M40.68 127.35h14.46v23.23H40.68zM56.18 127.35h14.46v23.23H56.18zM71.6 127.35h14.46v23.23H71.6zM91.79 127.35h14.46v23.23H91.79z"/><g id="GasNumber1"><text class="cls-5" transform="translate(41.22 147.23)">0</text><text class="cls-5" transform="translate(56.73 147.23)">3</text><text class="cls-5" transform="translate(72.14 147.23)">9</text><text class="cls-5" transform="translate(92.33 147.23)">9</text></g><text class="cls-6" transform="translate(85.07 147.65)">.</text><text class="cls-7" transform="translate(30.95 167.1)"><tspan> per lit</tspan> <tspan class="cls-8" x="33.57" y="0">r</tspan> <tspan x="38.14" y="0">e </tspan> <tspan class="cls-9" x="46.69" y="0">o</tspan> <tspan x="53.17" y="0">f </tspan> <tspan class="cls-10" x="59.63" y="0">g</tspan> <tspan x="65.7" y="0">as</tspan></text><text class="cls-11" transform="translate(107.44 142.93)">¢</text><text class="cls-12" transform="rotate(-90 93.48 56.7)">SELF</text></g><g id="CarPriceTag"><text class="cls-13" transform="translate(159.05 165.42)">Car C<tspan class="cls-14" x="18.76" y="0">o</tspan><tspan x="23.24" y="0">st at time</tspan></text><path class="cls-15" d="M216.54 133.21h-58.47a7 7 0 0 0-7 7v7.72a7 7 0 0 0 7 7h58.47zM216.54 133.21v21.7l7.94-10.85zm2.34 10.85a1.06 1.06 0 1 1 1.06 1.06 1.06 1.06 0 0 1-1.06-1.07z"/><path class="cls-16" d="M218.16 144.05a1.78 1.78 0 1 0 1.78-1.78 1.78 1.78 0 0 0-1.78 1.78zm.72 0a1.06 1.06 0 1 1 1.06 1.06 1.06 1.06 0 0 1-1.06-1.06z"/><path class="cls-17" d="M125.94 106.71c-.57 2-7.91 7.33-3.87 16.74 1.2 2.81 6.32 8.09 34.5 4.92 39-4.38 58.84-17.92 70.13-9.28.6.46 8.05 6.17 7.88 12.72a12.65 12.65 0 0 1-1.37 5.19 11.9 11.9 0 0 1-4.25 4.29 16.75 16.75 0 0 1-8.75 2.63"/></g><text class="cls-18" transform="translate(51.91 15.19)">Car o<tspan class="cls-19" x="52" y="0">f</tspan><tspan x="60.06" y="0"> the </tspan><tspan class="cls-20" x="104.06" y="0">Y</tspan><tspan x="116.37" y="0">ea</tspan><tspan class="cls-21" x="140.38" y="0">r</tspan><tspan x="149.12" y="0">:</tspan></text><text class="cls-22" transform="translate(74.48 37.87)">Ch<tspan class="cls-23" x="15.52" y="0">e</tspan><tspan class="cls-24" x="22.52" y="0">v</tspan><tspan class="cls-25" x="29.05" y="0">r</tspan><tspan x="33.76" y="0">ol</tspan><tspan class="cls-26" x="44.9" y="0">e</tspan><tspan x="51.64" y="0">t Co</tspan><tspan class="cls-27" x="74.68" y="0">r</tspan><tspan class="cls-28" x="79.8" y="0">v</tspan><tspan class="cls-26" x="86.27" y="0">e</tspan><tspan x="93.01" y="0">t</tspan><tspan class="cls-25" x="97.73" y="0">t</tspan><tspan class="cls-29" x="102.32" y="0">e</tspan></text><text class="cls-30" transform="translate(164.7 148)">$27,000</text></g><g id="CarPanelInfo1984"><circle class="cls-31" cx="235.27" cy="28.38" r="7.85"/><text class="cls-32" transform="translate(233.03 33.95)">i</text></g></g></g></g></svg>