<?xml version="1.0" encoding="utf-8"?>
<!-- Generator: Adobe Illustrator 22.0.1, SVG Export Plug-In . SVG Version: 6.00 Build 0)  -->
<svg version="1.1" id="Layer_1" xmlns="http://www.w3.org/2000/svg" xmlns:xlink="http://www.w3.org/1999/xlink" x="0px" y="0px"
	 viewBox="0 0 169.8 82.3" style="enable-background:new 0 0 169.8 82.3;" xml:space="preserve">
<style type="text/css">
	.st0{fill:#FFFFFF;}
</style>
<title>cloud</title>
<g id="Layer_2_1_">
	<g id="Layer_1-2">
		<path class="st0" d="M169.3,40c0-13-18.6-23.5-41.7-23.5c-0.7,0-1.4,0-2.1,0c-5.5-9.3-21.1-16-39.5-16c-16.8,0-31.2,5.6-37.9,13.6
			c-3.9-2.6-8.5-4-13.2-3.9c-11,0-19.9,7-20.3,15.7c-8.1,2.2-14.1,11-14.1,21.5c0,9.9,5.4,18.4,12.8,21.1
			c2.8,7.8,9.2,13.3,16.6,13.3c5.2-0.1,10-2.7,13.1-6.8c2.6,0.3,5.2,0.2,7.8-0.3c2.5,4.3,6.3,7.2,10.5,7.2c4.6,0,8.6-3.2,11-8.1
			c7.3,3.6,16.8,5.7,27.3,5.7c19.1,0,35.1-7.2,40.1-17C156.8,59.5,169.3,50.6,169.3,40z"/>
		<path class="st0" d="M72.3,73.8c0.4-0.6,0.8-1.3,1-2.1"/>
		<path class="st0" d="M43,75c0.2-0.2,0.3-0.5,0.5-0.7s0.3-0.6,0.5-0.8"/>
		<path class="st0" d="M13.3,68.5c-0.2-0.6-0.4-1.2-0.5-1.8s-0.3-1.4-0.5-2"/>
		<path class="st0" d="M48.1,14.1c-0.2,0.3-0.4,0.6-0.7,0.9c-0.4,0.5-0.7,1-1,1.5"/>
		<path class="st0" d="M139.6,62.4c0.7-1.2,1.1-2.5,1.5-3.8"/>
	</g>
</g>
</svg>
