<?xml version="1.0" encoding="utf-8"?>
<!-- Generator: Adobe Illustrator 22.0.1, SVG Export Plug-In . SVG Version: 6.00 Build 0)  -->
<svg version="1.1" id="Layer_1" xmlns="http://www.w3.org/2000/svg" xmlns:xlink="http://www.w3.org/1999/xlink" x="0px" y="0px"
	 viewBox="0 0 179.9 47.9" style="enable-background:new 0 0 179.9 47.9;" xml:space="preserve">
<style type="text/css">
	.st0{opacity:0.2;fill:#513B2D;enable-background:new    ;}
	.st1{fill:#2B2B2B;}
	.st2{fill:#4F4F4F;}
	.st3{fill:#3D2C22;}
	.st4{fill:#513B2D;}
	.st5{fill:#D5C395;}
	.st6{fill:#B8A269;}
	.st7{fill:#262626;}
	.st8{fill:#BEC3C7;}
	.st9{fill:none;stroke:#BEC3C7;stroke-miterlimit:10;}
	.st10{fill:#FFCD02;}
	.st11{fill:#ECF0F1;}
	.st12{fill:#E84C3D;}
	.st13{opacity:0.1;fill:#B8A269;enable-background:new    ;}
	.st14{fill:#513B2D;stroke:#3D2C22;stroke-miterlimit:10;}
	.st15{fill:none;stroke:#3D2C22;stroke-miterlimit:10;}
	.st16{fill:none;stroke:#4F4F4F;stroke-miterlimit:10;}
	.st17{fill:none;stroke:#A08C5F;stroke-miterlimit:10;}
	.st18{opacity:0.66;fill:#2B2B2B;enable-background:new    ;}
	.st19{opacity:0.85;fill:#9E895F;enable-background:new    ;}
	.st20{fill:#B29B68;}
	.st21{fill:#C3C8DF;}
	.st22{fill:#C2382B;}
	.st23{opacity:0.57;fill:url(#SVGID_1_);enable-background:new    ;}
	.st24{opacity:0.57;fill:url(#SVGID_2_);enable-background:new    ;}
	.st25{opacity:0.57;fill:url(#SVGID_3_);enable-background:new    ;}
	.st26{fill:url(#SVGID_4_);}
	.st27{fill:none;stroke:#A09270;stroke-miterlimit:10;}
</style>
<g id="Layer_1_copy">
	<title>corvette</title>
	<path class="st0" d="M89.9,10.3c0.5,0.4,0.6,0.8,1.3,3.9c0.2,0.9,0.3,1.3,0.1,1.5s-1.2,0-1.7-0.3c-1.1-0.8-1.3-2.1-1.6-4.5
		c-0.1-0.6-0.1-1,0.2-1.2S89.4,9.9,89.9,10.3z"/>
	<path class="st0" d="M118.6,12.3c0.3-0.3,0.5-0.6,0.6-1c0.2-0.7-0.1-1.1,0-1.7s0.4-1,1.2-1.7c2.1-1.7,4.5-3.8,8.2-3.7
		c1.1,0,2.2,0.2,3.2,0.6l-0.2,6.7v2.3h-13L118.6,12.3z"/>
	<polygon class="st1" points="166.9,35.4 151,36 151,40.3 152.7,40.3 158.4,38.9 166.9,38.4 166.9,36.9 166.7,36.9 	"/>
	<polygon class="st2" points="166.9,35.3 166.9,35.4 166.9,35.4 	"/>
	<polygon class="st2" points="166.9,35.4 166.7,36.9 166.9,36.9 	"/>
	<path class="st1" d="M172.2,35.3h-2l-3.4,0.1v1.5h0.2l2.9-0.3c0.1,0.3,0.4,1.3,1.1,1.6c0.1,0,0.3,0.1,0.4,0.1c0.6,0,2,0.2,2.4-0.6
		c0.1-0.1,0.1-0.2,0.1-0.3C174.2,36.7,173.5,35.9,172.2,35.3z"/>
	<path class="st3" d="M164.3,33.4c0.1-0.2,0.3-0.4,0.4-0.5c1.7-2.7,1.2-6.6-0.2-9.1c-4.2-8.1-20.1-9.6-32.1-6
		c-8.5,2.6-7.9,5.6-16.4,9.5c-18.9,8.5-40.4,1.8-46.6-0.2c-14-4.4-15.9-9.1-27.5-9.5c-10.1-0.3-16.7,3.1-21.7,5.7
		c-4,2-5.9,3.7-6.7,6.1c-0.7,2.3-0.5,4.7,0.5,6.8l8.8,0.8L14,36.2c0.8,1.7,2,3.3,3.5,4.4c3.1,2.2,6.8,1.6,9.4,1.3
		c8.1-1,16.3,0.9,24.4,0.5c18.9-0.9,37.8-1.1,49-0.9c11.4,0.1,13.3,0.5,23.1,0.3c16.5-0.3,5.1-1.3,32.7-4.9c2.2-0.3,6.1-0.8,8.1-3.4
		L164.3,33.4z"/>
	<path class="st4" d="M20.5,34.1c0.2-2.1,0.7-4.1,1.3-6.1c0.3-1.1,0.6-1.9,0.8-2.6L1.9,26l-0.1,0.1c-0.2,0.6-2,7.3-1.7,7.9l0.8,0.3
		l4.3,1.1l15.2,1.3C20.4,35.2,20.5,34.1,20.5,34.1z"/>
	<path class="st4" d="M5.1,35.4l0.6,0.2c4.2,2,7,4.1,7.1,4.8c0,0.5,0,1.1,0,1.1c0,0.3,0,0.6,0,0.8h7.7c0-0.4,0-0.7,0-1.1
		c0-0.3,0-0.5,0-0.6c-0.1-1.3-0.2-2.7-0.1-4L5.1,35.4z"/>
	<path class="st4" d="M50.6,25.4c1.4,2.2,2.2,4.7,2.3,7.3c0.1,2.3-0.3,4.5-1.3,6.6c-0.6,1.2-1.8,3-1.1,3.8c0.1,0.1,0.2,0.2,0.4,0.3
		h71.4c0-0.1,0-0.3-0.1-0.6c-0.3-2.4-0.3-4.8,0-7.2c0.1-1.2,0.2-2.4,0.5-3.6c0.3-1.6,0.8-3.1,1.5-4.6c0.5-0.9,1.1-1.8,1.8-2.6H50.2
		C50.4,25,50.5,25.2,50.6,25.4z"/>
	<path class="st5" d="M178.1,24.3c-0.6-2.7,0-5.6,0.1-9.1c0-0.4-0.1-0.8-0.3-1.2c-0.5-0.5-1.2-0.7-1.9-0.6c-2.8,0-5.5-0.6-8.3-0.7
		c-1.8,0-3.6-0.3-5.4-0.7c-0.5-0.1-1-0.3-1.1-0.3c-1.4-0.4-2.7-1-4-1.6c-3-1.6-11.4-4.2-12.2-4.5c-5.1-1.7-10.2-2.9-15.5-3.8
		c-1.7-0.3-0.2,0-13.5-1.2c0,0-1.4-0.1-14.6-0.5c-1.6-0.1-3.2,0.1-4.7,0.6c-0.6,0.2-1.2,0.4-1.8,0.6l-1.2,0.5l0.2,0.1
		c0.8,0.2,1.6,0.3,2.3,0.3c0.3,0,0.6,0,0.8,0L76.8,12.4h-0.7c-0.4,0-1-0.1-1.8-0.1c-1.2,0-2.1,0-2.1-0.2s0.2-0.2,0.4-0.3h0.2h0.1
		c-0.4,0.1-0.9,0.2-1.3,0.3c-0.1,0-0.8,0.1-1.6,0.2c-1,0.1-2.3,0.1-3.7,0.2h-0.1c-3.1,0-12.7,0.6-16.3,0.8
		c-5.4,0.2-10.7,0.7-16.1,1.5c-3.9,0.7-7,1.5-8.7,1.9c-1.1,0.3-1.4,0.4-8.9,2.8c0,0-10.4,3.3-13.9,6.1L2,25.8L1.9,26l20.8-0.5
		c1.8-2.1,4.1-3.7,6.6-4.8c5.5-2.3,11.7-2.1,17,0.6c0.7,0.4,1.3,0.9,1.9,1.4c0.8,0.7,1.5,1.4,2.1,2.2h75.8c0.3-0.3,0.7-0.7,1-1
		c1.8-1.6,4.1-2.8,6.5-3.5c3.8-1.1,7.8-1.1,11.5,0.2c1.8,0.6,3.5,1.6,5,2.9c0.5,0.4,1,0.9,1.4,1.4h26.8
		C178.2,24.6,178.1,24.4,178.1,24.3z M120.6,12.1c-0.2,0.4-0.3,1-0.4,1.2l-41.3,0.2l0.3-0.4L98.6,2.7h24.5L120.6,12.1z M155.9,11.9
		l-8.2,0.3l-14.2,0.3l-5.7,0.2l0.8-10h0.6c5,0,7.1,1.2,15.6,3.7c1.1,0.3,5.8,1.7,9,2.9l1.2,0.5c2,0.8,3.5,1.6,4.6,2.1H155.9z"/>
	<path class="st6" d="M92.4,2.3c-3.7,1.7-7.7,3.8-7.7,3.8l4.9-2.5L92.4,2.3z"/>
	<path class="st4" d="M178.7,26.8c-0.1-0.2-0.4-1-0.6-1.9h-26.8c0.5,0.6,0.9,1.2,1.4,1.8c0.6,0.8,1,1.7,1.4,2.6c0.7,2,1,4.1,0.8,6.1
		v0.1l24.9-5.5v-0.1C179.6,28.9,179.2,27.8,178.7,26.8z"/>
	<path class="st4" d="M154.9,35.5l-0.1,0.5l-0.7,1.8l-1,2.1l3.8-1c7.2-1.8,6.6-1.5,12-2.8l9.9-2.5c0.5-1.1,0.8-2.2,1-3.3
		c0-0.1,0-0.2,0-0.3L154.9,35.5z"/>
	<circle class="st7" cx="37.3" cy="34.5" r="13.4"/>
	<circle class="st8" cx="37.3" cy="34.5" r="9.6"/>
	<circle class="st7" cx="37.3" cy="34.5" r="8"/>
	<circle class="st8" cx="37.3" cy="34.5" r="6.9"/>
	<circle class="st7" cx="37.3" cy="34.5" r="2.9"/>
	<line class="st9" x1="43" y1="38.4" x2="46" y2="38.4"/>
	<line class="st9" x1="38.6" y1="41.3" x2="40.7" y2="43.5"/>
	<line class="st9" x1="33.4" y1="40.2" x2="33.4" y2="43.3"/>
	<line class="st9" x1="30.5" y1="35.8" x2="28.3" y2="38"/>
	<line class="st9" x1="31.6" y1="30.7" x2="28.5" y2="30.7"/>
	<line class="st9" x1="36" y1="27.8" x2="33.8" y2="25.6"/>
	<line class="st9" x1="41.1" y1="28.9" x2="41.1" y2="25.8"/>
	<line class="st9" x1="44" y1="33.2" x2="46.2" y2="31.1"/>
	<circle class="st7" cx="139" cy="34.5" r="13.4"/>
	<circle class="st8" cx="139" cy="34.5" r="9.6"/>
	<circle class="st7" cx="139" cy="34.5" r="8.1"/>
	<circle class="st8" cx="139" cy="34.5" r="6.9"/>
	<line class="st9" x1="144.7" y1="38.4" x2="147.8" y2="38.4"/>
	<line class="st9" x1="140.4" y1="41.3" x2="142.5" y2="43.5"/>
	<line class="st9" x1="135.2" y1="40.2" x2="135.2" y2="43.3"/>
	<line class="st9" x1="132.3" y1="35.8" x2="130.1" y2="38"/>
	<circle class="st7" cx="139" cy="34.5" r="2.9"/>
	<line class="st9" x1="133.4" y1="30.7" x2="130.3" y2="30.7"/>
	<line class="st9" x1="137.7" y1="27.8" x2="135.6" y2="25.6"/>
	<line class="st9" x1="142.9" y1="28.9" x2="142.9" y2="25.8"/>
	<line class="st9" x1="145.8" y1="33.2" x2="148" y2="31.1"/>
	<polygon class="st10" points="11.4,27.3 10,29.2 9.9,29.4 13.4,29.4 14.9,27.3 	"/>
	<polygon class="st11" points="20.8,27.3 14.9,27.3 13.4,29.4 19.8,29.4 	"/>
	<rect x="161.3" y="26.3" class="st11" width="6.3" height="2.3"/>
	<rect x="167.7" y="26.3" class="st12" width="3.8" height="2.3"/>
	<polygon class="st7" points="178.3,25.2 151.7,25.2 151.4,24.8 178.2,24.8 	"/>
	<path class="st13" d="M98.6,2.7L79.2,13.2l-0.3,0.4l41.3-0.2c0.1-0.2,0.2-0.8,0.4-1.2l2.5-9.5L98.6,2.7z"/>
	<path class="st13" d="M144.8,6.4c1.1,0.3,5.8,1.7,9,2.9l1.2,0.5c2,0.8,3.5,1.6,4.6,2.1h-3.7l-8.2,0.3l-14.2,0.3l-5.7,0.2l0.8-10
		h0.6C134.1,2.7,136.3,3.9,144.8,6.4z"/>
	<path class="st13" d="M72.2,12.2c0,0.2,0.9,0.1,2.1,0.2c0.8,0,1.4,0.1,1.8,0.1h0.7L96.9,2.2c-0.3,0-0.5,0-0.8,0
		c-0.8,0-1.6-0.1-2.3-0.3l-0.2-0.1l-1.1,0.5l-2.9,1.4l-4.9,2.5l-5.3,2.7l-2.8,1.4L74,11.4l-0.7,0.3l-0.5,0.2h-0.2
		C72.4,11.9,72.2,12.1,72.2,12.2z"/>
	<path class="st14" d="M61.2,26.5h-2.7c-0.3,1.5,0.1,7,0.6,7.7h2.3"/>
	<path class="st15" d="M65,26.5h-2.8c-0.3,1.5,0.1,7,0.6,7.7H65"/>
	<path class="st16" d="M65.3,34.3"/>
	<polygon class="st7" points="125.7,25.3 50.6,25.3 50.2,24.8 126.1,24.8 	"/>
	<path class="st15" d="M68.2,34.2c0.6,2.5,1.3,5,2.2,7.4H112c0.7-0.5,1.3-1.1,1.9-1.6c3.6-3.6,6.2-8.1,7.4-13.1
		c0.1-0.5,0.3-1,0.4-1.6H67.2C67.1,28.3,67.5,31.3,68.2,34.2z"/>
	<line class="st17" x1="8.4" y1="26" x2="6.8" y2="23"/>
	<polygon class="st7" points="22.7,25.5 1.9,25.9 1.8,26.1 22.5,26 	"/>
	<polygon class="st18" points="88.5,13.6 88.5,8.1 78.6,13.6 	"/>
	<path class="st19" d="M89.2,11c0.3,0.7,0.5,1.4,0.4,2.2c0,0.4-0.1,0.8-0.3,1.2c-0.2,0.2-0.6,0.6-3.4,0.4c-1.6,0-3.1-0.4-4.5-1
		c-0.3-0.1-0.5-0.3-0.7-0.4l0.4-0.4l0.5-0.3l0.4-0.2c2-1,4.1-1.7,6.3-2.2"/>
	<path class="st20" d="M81.3,13.2l0.5-0.3l0.4-0.2c1.9-1.1,4-2,6.2-2.4c0.1,0,0.1,0,0.2,0c0.2,0,0.5,0.1,0.9,1.1
		c0.3,0.7,0.5,1.4,0.4,2.2c0,0.4-0.1,0.8-0.3,1.2c-0.2,0.2-0.6,0.6-3.4,0.4c-1.6,0-3.1-0.4-4.5-1c-0.3-0.1-0.5-0.3-0.7-0.4
		L81.3,13.2z"/>
	<line class="st17" x1="171.9" y1="24.9" x2="172.9" y2="13.1"/>
	<path class="st7" d="M113.5,16.3L113.5,16.3c-0.4,0.5-0.4,1.3-0.1,1.9c0.1,0.1,0.3,0.2,0.4,0.2h6.1c0.3-0.6,0.4-1.3,0.1-1.9
		c-0.1-0.1-0.2-0.2-0.3-0.3L113.5,16.3"/>
	<path class="st1" d="M114,16.5L114,16.5c-0.3,0.6-0.4,1.1-0.1,1.4c0.1,0.1,0.2,0.2,0.4,0.2h5.2c0.3-0.4,0.3-1,0.1-1.5
		c-0.1-0.1-0.2-0.2-0.3-0.3H114"/>
	<polygon class="st21" points="36.3,34.3 37.3,34.4 37.3,34.8 36.3,34.6 	"/>
	<polygon class="st22" points="38.2,34.3 37.3,34.4 37.3,34.8 38.2,34.6 	"/>
	<polygon class="st21" points="138.1,34.3 139,34.4 139,34.8 138.1,34.6 	"/>
	<polygon class="st22" points="140,34.3 139.1,34.4 139.1,34.8 140,34.6 	"/>
	
		<linearGradient id="SVGID_1_" gradientUnits="userSpaceOnUse" x1="12.8" y1="348.9" x2="12.8" y2="352.03" gradientTransform="matrix(1 0 0 1 0 -310)">
		<stop  offset="0" style="stop-color:#4F2417;stop-opacity:0"/>
		<stop  offset="1" style="stop-color:#20100C"/>
	</linearGradient>
	<path class="st23" d="M5.1,35.4l0.6,0.2c4.2,2,7,4.1,7.1,4.8c0,0.5,0,1.1,0,1.1c0,0.3,0,0.6,0,0.8h7.7c0-0.4,0-0.7,0-1.1
		c0-0.3,0-0.5,0-0.6c-0.1-1.3-0.2-2.7-0.1-4L5.1,35.4z"/>
	
		<linearGradient id="SVGID_2_" gradientUnits="userSpaceOnUse" x1="88.1" y1="339.08" x2="88.1" y2="351.57" gradientTransform="matrix(1 0 0 1 0 -310)">
		<stop  offset="0.2462" style="stop-color:#4F2417;stop-opacity:0"/>
		<stop  offset="0.4955" style="stop-color:#381A10;stop-opacity:0.2646"/>
		<stop  offset="1" style="stop-color:#000000;stop-opacity:0.8"/>
	</linearGradient>
	<path class="st24" d="M50.6,25.4c1.4,2.2,2.2,4.7,2.3,7.3c0.1,2.3-0.3,4.5-1.3,6.6c-0.6,1.2-1.8,3-1.1,3.8c0.1,0.1,0.2,0.2,0.4,0.3
		h71.4c0-0.1,0-0.3-0.1-0.6c-0.3-2.4-0.3-4.8,0-7.2c0.1-1.2,0.2-2.4,0.5-3.6c0.3-1.6,0.8-3.1,1.5-4.6c0.5-0.9,1.1-1.8,1.8-2.6H50.2
		C50.4,25,50.5,25.2,50.6,25.4z"/>
	
		<linearGradient id="SVGID_3_" gradientUnits="userSpaceOnUse" x1="166.1545" y1="342.1527" x2="166.6045" y2="346.4128" gradientTransform="matrix(1 0 0 1 0 -310)">
		<stop  offset="0" style="stop-color:#4F2417;stop-opacity:0"/>
		<stop  offset="1" style="stop-color:#20100C"/>
	</linearGradient>
	<path class="st25" d="M154.9,35.5l-0.1,0.5l-0.7,1.8l-1,2.1l3.8-1c7.2-1.8,6.6-1.5,12-2.8l9.9-2.5c0.5-1.1,0.8-2.2,1-3.3
		c0-0.1,0-0.2,0-0.3L154.9,35.5z"/>
	
		<linearGradient id="SVGID_4_" gradientUnits="userSpaceOnUse" x1="90.1" y1="24" x2="90.1" y2="50.0004" gradientTransform="matrix(1 0 0 -1 0 50)">
		<stop  offset="0.6291" style="stop-color:#D5C395"/>
		<stop  offset="0.6623" style="stop-color:#D2BF90"/>
		<stop  offset="0.8771" style="stop-color:#BEA973"/>
		<stop  offset="1" style="stop-color:#B7A168"/>
	</linearGradient>
	<path class="st26" d="M178.1,24.3c-0.6-2.7,0-5.6,0.1-9.1c0-0.4-0.1-0.8-0.3-1.2c-0.5-0.5-1.2-0.7-1.9-0.6c-2.8,0-5.5-0.6-8.3-0.7
		c-1.8,0-3.6-0.3-5.4-0.7c-0.5-0.1-1-0.3-1.1-0.3c-1.4-0.4-2.7-1-4-1.6c-3-1.6-11.4-4.2-12.2-4.5c-5.1-1.7-10.2-2.9-15.5-3.8
		c-1.7-0.3-0.2,0-13.5-1.2c0,0-1.4-0.1-14.6-0.5c-1.6-0.1-3.2,0.1-4.7,0.6c-0.6,0.2-1.2,0.4-1.8,0.6l-1.2,0.5l0.2,0.1
		c0.8,0.2,1.6,0.3,2.3,0.3c0.3,0,0.6,0,0.8,0L76.8,12.4h-0.7c-0.4,0-1-0.1-1.8-0.1c-1.2,0-2.1,0-2.1-0.2s0.2-0.2,0.4-0.3h0.2h0.1
		c-0.4,0.1-0.9,0.2-1.3,0.3c-0.1,0-0.8,0.1-1.6,0.2c-1,0.1-2.3,0.1-3.7,0.2h-0.1c-3.1,0-12.7,0.6-16.3,0.8
		c-5.4,0.2-10.7,0.7-16.1,1.5c-3.9,0.7-7,1.5-8.7,1.9c-1.1,0.3-1.4,0.4-8.9,2.8c0,0-10.4,3.3-13.9,6.1L2,25.8L1.9,26l20.8-0.5
		c1.8-2.1,4.1-3.7,6.6-4.8c5.5-2.3,11.7-2.1,17,0.6c0.7,0.4,1.3,0.9,1.9,1.4c0.8,0.7,1.5,1.4,2.1,2.2h75.8c0.3-0.3,0.7-0.7,1-1
		c1.8-1.6,4.1-2.8,6.5-3.5c3.8-1.1,7.8-1.1,11.5,0.2c1.8,0.6,3.5,1.6,5,2.9c0.5,0.4,1,0.9,1.4,1.4h26.8
		C178.2,24.6,178.1,24.4,178.1,24.3z M120.6,12.1c-0.2,0.4-0.3,1-0.4,1.2l-41.3,0.2l0.3-0.4L98.6,2.7h24.5L120.6,12.1z M155.9,11.9
		l-8.2,0.3l-14.2,0.3l-5.7,0.2l0.8-10h0.6c5,0,7.1,1.2,15.6,3.7c1.1,0.3,5.8,1.7,9,2.9l1.2,0.5c2,0.8,3.5,1.6,4.6,2.1H155.9z"/>
	<path class="st27" d="M77.5,13.1l-1.8,0.3c-1.1,0.3-2.2,0.7-3.1,1.2c-1,0.5-1.9,1.3-2.7,2.1c-1,1.2-1.7,2.6-2.1,4.1
		c-0.3,1.3-0.5,2.6-0.6,4h54.6c0.6-3.1,0.8-6.2,0.5-9.4l-0.3-1.1l-1-1"/>
</g>
<g id="Layer_3">
</g>
</svg>
