<?xml version="1.0" encoding="utf-8"?>
<!-- Generator: Adobe Illustrator 22.0.1, SVG Export Plug-In . SVG Version: 6.00 Build 0)  -->
<svg version="1.1" xmlns="http://www.w3.org/2000/svg" xmlns:xlink="http://www.w3.org/1999/xlink" x="0px" y="0px"
	 viewBox="0 0 8192.6 181.5" style="enable-background:new 0 0 8192.6 181.5;" xml:space="preserve">
<style type="text/css">
	.st0{fill:#A8DBD7;}
	.st1{fill:#7DC9C2;}
	.st2{fill:#0A2927;}
	.st3{fill:#26A59A;}
	.st4{fill:#1C7C73;}
	.st5{display:none;}
	.st6{display:inline;fill:#8EA4AF;}
	.st7{display:inline;fill:#B6C3CB;}
	.st8{display:inline;fill:#598B32;}
	.st9{display:inline;fill:#26A59A;}
	.st10{display:inline;opacity:0.59;fill:url(#SVGID_1_);enable-background:new    ;}
</style>
<g id="Layer_1_copy">
	<title>costRate</title>
	<path class="st0" d="M1412.8,172.7v-9.4h20.7v9.4h57.1v-8.3h10.9v8.3h172.9V153h21.9v19.7h139.9v-11.4h11.2v11.4h24.1v-51.5h21
		v51.5h73.8v-53.8h18.5v55.4h79.4c0,0-2-57.6,0-57.6h20.3v56h28.1v-18.1h14.3v18.1h38.3v-21h9.5v21h7.7v-59.6h43.7v59.6h20.2v-63.4
		h23.3v63.4h32.8v-60.2h10.2v60.2h62.7v-56.2h23.3v56.2h42.2v-24.8h17.6v24.8h6.7v-31.5h19.1v31.5h88.7v-34.1h15.4v34.8h6.4v-53.9
		h27.1v53.2h85v-48.9h16.1v48.9h41.5v-45.5h25.4v45.7h38.2v-35.6h10.7v35.5h275.9v-30.9h25.4v30.9h115v-29.1h34.1v29.1h51.2v-40.5
		h26.8v40.5h73v-68.9h25.1v69.9h86.7v-57.8h32.5v56.9h8.7v-39.2h36.1V173h219.5v-36.4h34.5v36.1h43.8V99.4h32.8v73.3h210.2v-67.3
		h24.1v67.3h12.4v-69.9h56.6v70.9c0,0,128.2,2.9,128.2,0v-69.5h19.1v68.6h100.1V97.4h23.4v75.3h96.7v-67.9h35.1v67.9h24.4v-70.6
		h20.1v71h63.9v-48.6h19.7v48.2h36.1v-59.9h28.8v59.9h32.1v-33.5h21.8v33.5h53.5v-66.6h36.5v66.6h67.6v-71.6h26.8v72.1h26.8V83.3
		h46.9v90.4h46.9V87.3h27.1v85.8h67.3V85.7h23.1v87h57.2v-74h25.1v75h141.6V83.3h15.1v89.4h96.7V71.3h32.8v101.4h67.6V61.6h21.8
		v111.1h8.4V61.6h48.5v111.1h40.5V58.9h62.6v113.8h5.7V58.9h16.4v113.8H6099V58.9h21.8v114.5h24.4V66.3h20.7v106.4h146.8V49.3h51.8
		v123.2h216.4V44.8h33v127.8h117.8V43h8.5v130.3h74.5V40.8h29v132.5h91v-31.2h38.8v30.6h79.9V44.4h12.9v129H7198V61.8h18.3v110.9
		h119.6V28.3h32.6v145.2h87.9V76.1h19.6v96.6h9.4V55.5h34.4v117.1h68.3V23.4h42.8v149.3h39.3V52.9h12.5v119.8h35.3V81h120v91.7h74.1
		V14h34.4v159.4h7.1V10h25v163.5h66V10h12.9v163.5h4.9V6.5h17v166.2h32.1V10.5h19.2v162.2h19.2V6.5h19.6v166.2"/>
	<path class="st1" d="M947.4,172.6v-6.4h44.2v6.4h27.8v-5h44.2v6h66.3v-7.4h18.7v7.4h35.1v-5h43.2v5h63.2v-15.4h95.7v15.4h44.2
		v-27.4h41.5v27.4h24.1v-27.4h28.1v27.4h29v-32.8h17.9v32.8h57.6V135h53.5v38.6h25.4v-44.4h48.2v44.4h37.5v-50.2h48.2v50.2h9.8V152
		h21.9v21.6h105.7v-45.7h28.1v45.7h6.7v-14.9h43.7v14.9h23.6v-10h10.7v10h72.7v-11.8h15.2v11.8h62v-56.9h98.2v56.9h51.3v-44.8h51.8
		v44.8h90.1v-22.1h46.9v22.1h32.6v-39h47.7v39h60.7v-20.3h30.3v20.3h35.7v-54.2h46.4v54.2h10.3v-24.3h39.3v24.3h20.5v-56.9h50.4
		v56.9h79.4v-28.4h46.4v28.4h7.1v-15.8h13.8v15.8h176.2v-19h24.5v19h19.6v-60.9h24.1v60.9h68.3v-64.9h33.5v64.9h98.2v-51.5h36.6
		v52.2h37.9v-28.6h82.5v27.9h134.3v-63.1h41v63.1h16.1v-44h42.4v44h14.3v-69.4h68.7v70.1h120.9v-63.8h35.7v63.8h38.4v-67.4h43.7
		v66.7h8.5V102h37v71.6h86.1v-62.2h36.6v62.2h20.1v-36.8h37v36.8h29V102h25.9v71.6h9.4V98h37.9v75.6h43.3v-53.8h44.2v54.4h4.5v-29.4
		h59.3v28.8h119.6v-22.1h37.9v22.8h63.4v-86h29.9v86h12V97.1h22.3v76.5h65.6V88.3h27.7v85.3h20.1V78.3h29v95.3h5.8v-43.1h35.3v43.1
		h29.9V80.1h30.3v94.2h33.5v-54.9h19.2v54.2h110.7v-47.3h46v47.3h97.7V69.8h22.3v103.7h6.2V66.3h82.1v107.3h25.4V61.4h37v112.9h38.8
		V72.5h14.3v101.1h108V77.4h36.1v96.2h23.2V68.5h45.5v105.7h32.1V78.5h44.2v95h69.9V81.9h32.1v92.4h82V58.8h52.5v114.8h14.4V66.5
		h19.4v107.8h201.5V50.1h31.5v123.5h6V55.1h145.9v119.1h12.7V47.1h84v126.5h10.4V47.1h20.7v126.5H7192V37.1h21.4v136.5h14.1V57.5
		h63.2v116.1h34.1V33h101.7v140.6h70.9V69.5h32.1v104.1h6v-94h29.4v94.7h36.8V35.4h34.1v138.9h49.9V31h35.1v142.6h9V37.1h21.8v137.2
		h83V22.3h44.5v151.9h47.9V19.3h30.8v154.3h70.6V14h55.9v160.3h22.8c0,0-3-159,0-159h15.1v158.3h33.1V37.4h22.1v136.2h6.7
		L947.4,172.6z"/>
	<rect y="172.7" class="st2" width="8191.9" height="10"/>
	<path class="st3" d="M0,172.7h909.4v-2.9h46.1v2.9h27.7v-15.8h32.1v15.8h96.2v-18.3h26.3v18.3h7.1V153h21.4v19.6h92.4v-26.1h53.5
		v26.1h64.3V139h41.9v33.7h98.7v-44.8h41.9v44.8h32.3v-48.9h44.1v48.9h111.2v-60.2h26.8v60.2h34.1v-60.2h11.3v60.2h65.9v-62.2h85.2
		v62.2h49.7v-62.2h47.7v62.2h52.7v-63.3h47.5v63.3h18.7v-64.2h36.1v64.2H2327v-65.9h53.2v65.9h99.2v-67.8h60.2v67.8h42.8v-69h13v69
		h59.9v-69.9h53.9v69.9h21.4v-70.8h36.5v70.8h102.1v-70.8h26.4v70.8h30.1v-70.8H3047v70.8h88.3v-70.8h126.5v70.8h95.7v-70.8h62.2
		v70.8h36.8v-70.8h99.1v70.8h14.7v-70.8h26.1v70.8h87v-70.8h170v70.8h159.3V98H4144v74.7h139.7V95.2h118.5v77.5h14.3V93.9h40.2v78.8
		h11.6V93.9h47.7v78.8h56.2V92.4h64.3v80.3h69.8V87.3h73.6v85.4h16.7V84.1h36.1v88.6h93.7V79.9h46.2v92.8h56.9V76.5h46.2v96.2h107.1
		V71.4h40.2v101.3h34.6v-104h49.5v104h15.2v-106h74.1v106h70V62h97.4v110.7h46.2V58.8h65.3v113.8h56.5c0.7,0,0-116.5,0-116.5h44.2
		v116.5h29.4V54.5h39.5v118.1h14.1V53.4h23.4v119.3H6002V50.2h54.9v122.5h54.2V47.8h37.5v124.9h33.5V46.2h97.7v126.4h65.9V42.4
		h102.7v130.1h25.4V42.4h77.6v130.3h53.2V36.8h131.5v135.9h39.2V33.1h47.2v139.5h39.2V31.2h96.7v141.5h4.9V28.9h95.5v143.8h11.6
		V26.6h132.1v146.1h37V22.7h90.4v149.9h20.1V20.5h28.8v152.2h33.5V19h50.2v153.7h77V16.2h58.2v156.4h25.4V14.4h51.5v158.3h69.6v-161
		h81v161h31.5V9.2h62.2v163.4h48.9V6.8h79v165.9h22.8V2h48.8v170.7h7.4V2h33.5v170.7h6.4V2h26.4v170.7h-26.4"/>
	<rect x="2446.8" y="335.5" class="st4" width="65" height="38"/>
	<rect x="2552.8" y="335.5" class="st3" width="65" height="38"/>
</g>
<g id="Layer_1_copy_2" class="st5">
	<title>costRate</title>
	<path class="st6" d="M1412.8,172.7v-9.4h20.7v9.4h57.1v-8.3h10.9v8.3h172.9V153h21.9v19.7h139.9v-11.4h11.2v11.4h24.1v-51.5h21
		v51.5h73.8v-53.8h18.5v55.4h79.4c0,0-2-57.6,0-57.6h20.3v56h28.1v-18.1h14.3v18.1h38.3v-21h9.5v21h7.7v-59.6h43.7v59.6h20.2v-63.4
		h23.3v63.4h32.8v-60.2h10.2v60.2h62.7v-56.2h23.3v56.2h42.2v-24.8h17.6v24.8h6.7v-31.5h19.1v31.5h88.7v-34.1h15.4v34.8h6.4v-53.9
		h27.1v53.2h85v-48.9h16.1v48.9h41.5v-45.5h25.4v45.7h38.2v-35.6h10.7v35.5h275.9v-30.9h25.4v30.9h115v-29.1h34.1v29.1h51.2v-40.5
		h26.8v40.5h73v-68.9h25.1v69.9h86.7v-57.8h32.5v56.9h8.7v-39.2h36.1V173h219.5v-36.4h34.5v36.1h43.8V99.4h32.8v73.3h210.2v-67.3
		h24.1v67.3h12.4v-69.9h56.6v70.9c0,0,128.2,2.9,128.2,0v-69.5h19.1v68.6h100.1V97.4h23.4v75.3h96.7v-67.9h35.1v67.9h24.4v-70.6
		h20.1v71h63.9v-48.6h19.7v48.2h36.1v-59.9h28.8v59.9h32.1v-33.5h21.8v33.5h53.5v-66.6h36.5v66.6h67.6v-71.6h26.8v72.1h26.8V83.3
		h46.9v90.4h46.9V87.3h27.1v85.8h67.3V85.7h23.1v87h57.2v-74h25.1v75h141.6V83.3h15.1v89.4h96.7V71.3h32.8v101.4h67.6V61.6h21.8
		v111.1h8.4V61.6h48.5v111.1h40.5V58.9h62.6v113.8h5.7V58.9h16.4v113.8H6099V58.9h21.8v114.5h24.4V66.3h20.7v106.4h146.8V49.3h51.8
		v123.2h216.4V44.8h33v127.8h117.8V43h8.5v130.3h74.5V40.8h29v132.5h91v-31.2h38.8v30.6h79.9V44.4h12.9v129H7198V61.8h18.3v110.9
		h119.6V28.3h32.6v145.2h87.9V76.1h19.6v96.6h9.4V55.5h34.4v117.1h68.3V23.4h42.8v149.3h39.3V52.9h12.5v119.8h35.3V81h120v91.7h74.1
		V14h34.4v159.4h7.1V10h25v163.5h66V10h12.9v163.5h4.9V6.5h17v166.2h32.1V10.5h19.2v162.2h19.2V6.5h19.6v166.2"/>
	<path class="st7" d="M947.4,172.6v-6.4h44.2v6.4h27.8v-5h44.2v6h66.3v-7.4h18.7v7.4h35.1v-5h43.2v5h63.2v-15.4h95.7v15.4h44.2
		v-27.4h41.5v27.4h24.1v-27.4h28.1v27.4h29v-32.8h17.9v32.8h57.6V135h53.5v38.6h25.4v-44.4h48.2v44.4h37.5v-50.2h48.2v50.2h9.8V152
		h21.9v21.6h105.7v-45.7h28.1v45.7h6.7v-14.9h43.7v14.9h23.6v-10h10.7v10h72.7v-11.8h15.2v11.8h62v-56.9h98.2v56.9h51.3v-44.8h51.8
		v44.8h90.1v-22.1h46.9v22.1h32.6v-39h47.7v39h60.7v-20.3h30.3v20.3h35.7v-54.2h46.4v54.2h10.3v-24.3h39.3v24.3h20.5v-56.9h50.4
		v56.9h79.4v-28.4h46.4v28.4h7.1v-15.8h13.8v15.8h176.2v-19h24.5v19h19.6v-60.9h24.1v60.9h68.3v-64.9h33.5v64.9h98.2v-51.5h36.6
		v52.2h37.9v-28.6h82.5v27.9h134.3v-63.1h41v63.1h16.1v-44h42.4v44h14.3v-69.4h68.7v70.1h120.9v-63.8h35.7v63.8h38.4v-67.4h43.7
		v66.7h8.5V102h37v71.6h86.1v-62.2h36.6v62.2h20.1v-36.8h37v36.8h29V102h25.9v71.6h9.4V98h37.9v75.6h43.3v-53.8h44.2v54.4h4.5v-29.4
		h59.3v28.8h119.6v-22.1h37.9v22.8h63.4v-86h29.9v86h12V97.1h22.3v76.5h65.6V88.3h27.7v85.3h20.1V78.3h29v95.3h5.8v-43.1h35.3v43.1
		h29.9V80.1h30.3v94.2h33.5v-54.9h19.2v54.2h110.7v-47.3h46v47.3h97.7V69.8h22.3v103.7h6.2V66.3h82.1v107.3h25.4V61.4h37v112.9h38.8
		V72.5h14.3v101.1h108V77.4h36.1v96.2h23.2V68.5h45.5v105.7h32.1V78.5h44.2v95h69.9V81.9h32.1v92.4h82V58.8h52.5v114.8h14.4V66.5
		h19.4v107.8h201.5V50.1h31.5v123.5h6V55.1h145.9v119.1h12.7V47.1h84v126.5h10.4V47.1h20.7v126.5H7192V37.1h21.4v136.5h14.1V57.5
		h63.2v116.1h34.1V33h101.7v140.6h70.9V69.5h32.1v104.1h6v-94h29.4v94.7h36.8V35.4h34.1v138.9h49.9V31h35.1v142.6h9V37.1h21.8v137.2
		h83V22.3h44.5v151.9h47.9V19.3h30.8v154.3h70.6V14h55.9v160.3h22.8c0,0-3-159,0-159h15.1v158.3h33.1V37.4h22.1v136.2h6.7
		L947.4,172.6z"/>
	<rect y="172.7" class="st8" width="8191.9" height="10"/>
	<path class="st9" d="M0,172.7h909.4v-2.9h46.1v2.9h27.7v-15.8h32.1v15.8h96.2v-18.3h26.3v18.3h7.1V153h21.4v19.6h92.4v-26.1h53.5
		v26.1h64.3V139h41.9v33.7h98.7v-44.8h41.9v44.8h32.3v-48.9h44.1v48.9h111.2v-60.2h26.8v60.2h34.1v-60.2h11.3v60.2h65.9v-62.2h85.2
		v62.2h49.7v-62.2h47.7v62.2h52.7v-63.3h47.5v63.3h18.7v-64.2h36.1v64.2H2327v-65.9h53.2v65.9h99.2v-67.8h60.2v67.8h42.8v-69h13v69
		h59.9v-69.9h53.9v69.9h21.4v-70.8h36.5v70.8h102.1v-70.8h26.4v70.8h30.1v-70.8H3047v70.8h88.3v-70.8h126.5v70.8h95.7v-70.8h62.2
		v70.8h36.8v-70.8h99.1v70.8h14.7v-70.8h26.1v70.8h87v-70.8h170v70.8h159.3V98H4144v74.7h139.7V95.2h118.5v77.5h14.3V93.9h40.2v78.8
		h11.6V93.9h47.7v78.8h56.2V92.4h64.3v80.3h69.8V87.3h73.6v85.4h16.7V84.1h36.1v88.6h93.7V79.9h46.2v92.8h56.9V76.5h46.2v96.2h107.1
		V71.4h40.2v101.3h34.6v-104h49.5v104h15.2v-106h74.1v106h70V62h97.4v110.7h46.2V58.8h65.3v113.8h56.5c0.7,0,0-116.5,0-116.5h44.2
		v116.5h29.4V54.5h39.5v118.1h14.1V53.4h23.4v119.3H6002V50.2h54.9v122.5h54.2V47.8h37.5v124.9h33.5V46.2h97.7v126.4h65.9V42.4
		h102.7v130.1h25.4V42.4h77.6v130.3h53.2V36.8h131.5v135.9h39.2V33.1h47.2v139.5h39.2V31.2h96.7v141.5h4.9V28.9h95.5v143.8h11.6
		V26.6h132.1v146.1h37V22.7h90.4v149.9h20.1V20.5h28.8v152.2h33.5V19h50.2v153.7h77V16.2h58.2v156.4h25.4V14.4h51.5v158.3h69.6v-161
		h81v161h31.5V9.2h62.2v163.4h48.9V6.8h79v165.9h22.8V2h48.8v170.7h7.4V2h33.5v170.7h6.4V2h26.4v170.7h-26.4"/>
	
		<image style="display:inline;overflow:visible;" width="338" height="338" xlink:href="7B07FAE5.jpg"  transform="matrix(1 0 0 1 1279.0125 468.2365)">
	</image>
	
		<image style="display:inline;overflow:visible;" width="725" height="430" xlink:href="7B07FAE4.jpg"  transform="matrix(1 0 0 1 1317.927 277.0447)">
	</image>
	
		<image style="display:inline;overflow:visible;" width="1024" height="1024" xlink:href="7B07FAEB.jpg"  transform="matrix(1 0 0 1 2711.9109 390.1985)">
	</image>
</g>
<g id="Layer_2" class="st5">
	
		<linearGradient id="SVGID_1_" gradientUnits="userSpaceOnUse" x1="-1934.8779" y1="72.377" x2="10293.1221" y2="72.377" gradientTransform="matrix(0.6693 0 0 -0.6693 1295.0162 140.7977)">
		<stop  offset="0" style="stop-color:#4B494B;stop-opacity:0.2"/>
		<stop  offset="1" style="stop-color:#060305"/>
	</linearGradient>
	<polygon class="st10" points="7274.9,182.7 6365.5,182.7 5456.1,182.7 4546.8,182.7 3637.4,182.7 2728.1,182.7 1818.7,182.7 
		909.4,182.7 0,182.7 0,172.7 909.4,172.7 1818.7,113.1 2728.1,101.8 3637.4,101.8 4546.8,92.6 5456.1,62.2 6366.5,42.2 
		7274.9,22.1 8184.2,2 8184.2,182.7 	"/>
</g>
</svg>
