<svg xmlns="http://www.w3.org/2000/svg" xmlns:xlink="http://www.w3.org/1999/xlink" viewBox="0 0 208.17 76.05"><defs><style>.cls-1{fill:#4a4a49;}.cls-2{fill:#38242e;}.cls-3,.cls-5{fill:#5a3a49;}.cls-14,.cls-15,.cls-4{fill:#333;}.cls-14,.cls-5{opacity:0.1;}.cls-6{fill:#f2dfde;}.cls-7{fill:#e93534;}.cls-16,.cls-17,.cls-18,.cls-19,.cls-29,.cls-8{fill:none;}.cls-8{stroke:#40403f;stroke-width:2px;}.cls-16,.cls-17,.cls-18,.cls-19,.cls-8{stroke-miterlimit:10;}.cls-9{fill:#ddd;}.cls-10{fill:#2b2b2b;}.cls-11{fill:#4f4f4f;}.cls-12{fill:#e8e8e8;}.cls-13{fill:#ea9a31;}.cls-15{opacity:0.2;}.cls-16{stroke:#49303c;}.cls-17{stroke:#3d2833;}.cls-18{stroke:#3a3a3a;stroke-width:0.5px;}.cls-19{stroke:#262626;stroke-width:1.5px;}.cls-20{fill:#434343;}.cls-21{opacity:0.15;}.cls-22,.cls-23,.cls-24{opacity:0.8;}.cls-22{fill:url(#linear-gradient);}.cls-23{fill:url(#linear-gradient-2);}.cls-24{fill:url(#linear-gradient-3);}.cls-25{fill:#3e3e3d;}.cls-26{fill:#21151b;}.cls-27{fill:#606161;}.cls-28{fill:#f5f0ec;}.cls-30{fill:#e2dedc;}</style><linearGradient id="linear-gradient" x1="98.58" y1="49.5" x2="98.58" y2="65.31" gradientUnits="userSpaceOnUse"><stop offset="0" stop-color="#4b4b4a" stop-opacity="0"/><stop offset="1"/></linearGradient><linearGradient id="linear-gradient-2" x1="7.67" y1="48.88" x2="7.67" y2="64.21" xlink:href="#linear-gradient"/><linearGradient id="linear-gradient-3" x1="194.03" y1="51.89" x2="194.03" y2="62.38" xlink:href="#linear-gradient"/></defs><title>dodge</title><g id="Layer_2" data-name="Layer 2"><g id="Layer_2-2" data-name="Layer 2"><g id="caravan"><path class="cls-1" d="M174.3,2.2l0,.93,6.09.11a19.56,19.56,0,0,0-4.13-1.68q-.58-.16-1.14-.28c-13-.21-26-.73-39-.94S110.22.22,97.29,0a11.41,11.41,0,0,0-3.37.54,16.09,16.09,0,0,0-2.13,1.26l6,0,0-1.07,35.54.69,0,1,5.39.1,0-1Z"/><path class="cls-2" d="M188.55,58.61c-2.05,6.14-22.71,5.19-52,3.84-16-.74-13.71-1.44-29.54-2.07-25.09-1-37.72-1.49-54.05.89a130.64,130.64,0,0,1-16.84,1.48C23.53,63,14.33,63.24,11,58c-2.9-4.57-.84-12.65,3.54-17.43,8.75-9.55,25.27-4.37,44.9-2.36,52.89,5.41,67.24-18.44,101.32-4.14C176.52,40.7,190.46,52.92,188.55,58.61Z"/><path class="cls-1" d="M45.82,49.5a12.88,12.88,0,0,1,1,2c.53,1.3,1.17,4.94,2.44,12.24l.28,1.61L52.33,65l93.21.33a30.11,30.11,0,0,1,1.66-7.64,25.72,25.72,0,0,1,4.14-7.79L47,49.53Z"/><path class="cls-1" d="M.49,51.14c.51,1.11,1.08,1.29,3.32,4a2.25,2.25,0,0,1,.72,1.44c0,.78-.68,1.12-.78,2a2.38,2.38,0,0,0,.39,1.48,15.81,15.81,0,0,0,6.54,2.33,15.32,15.32,0,0,0,3,.06c0-2.2.16-4,.28-5.37a39.45,39.45,0,0,1,1.22-7.81l.17-.61L0,48.31A5.6,5.6,0,0,0,.49,51.14Z"/><path class="cls-1" d="M203,51.52a4.2,4.2,0,0,1-.28-.66c.21-.46.45-1,.7-1.65l-23.51.61a9.29,9.29,0,0,1,2.54,4.75c.43,5.22.06,6.48.06,6.48-.15.5-.57,1.78-.06,2.22.32.27.88.11,1.05.06,1.51-.43,0-.29,12.18-.66,2.85-.09,4.56-.09,6.7-1.05,3.5-1.57,6.38-4.92,5.7-6.54C207.47,53.64,204.3,54.06,203,51.52Z"/><polygon class="cls-3" points="143.27 28.41 144.48 28.35 143.27 28.38 143.27 28.41"/><path class="cls-3" d="M205.35,31.53A33.28,33.28,0,0,0,199.65,18c-3.81-5.27-5.21-3.69-9.08-9.19-1.08-1.53-3-4.58-6.42-5.32a7.71,7.71,0,0,0-1.5-.17c-8-.37-15.64-1.23-23.48-1.27-25.65-.14-38.48-.21-41.32-.33-3-.13-11.77,0-29.3.17l-1,0a37,37,0,0,0-3.71.36C74.76,3.65,57.09,14.09,57.09,14.09c-3.1,1.83-6.37,3.4-9.3,5.48,0,0-5.92,4.14-10.36,5.37-1.3.36-1.47.3-3.82.78a97.43,97.43,0,0,0-11.85,3.21C14.92,31.21,10.81,33.39,8,35.52c-.24.18-3.39,2.63-3.54,4.71-.07.92-.21,1.84-.22,2.77,0,.59,0,.76-.11,1-.48.86-1.75.33-2.82,1.11a4.1,4.1,0,0,0-1.27,3c0,.06,0,.14,0,.22l15.31.33a18.52,18.52,0,0,1,9.8-6.81,19.48,19.48,0,0,1,13.13,1.27,18.37,18.37,0,0,1,7.56,6.39l1.17,0,104.35.35c.13-.16.27-.3.4-.46,6.91-8.59,17.58-9.19,24.15-4.28a17,17,0,0,1,4,4.69l23.51-.61A33,33,0,0,0,205.35,31.53Zm-11.24-5.81c-.11.31-.64,1.74-1.76,2l-46.1.5h0l-1.78.09,3.71-.08-3.71.08-1.21.06h-1.59l-43.44.37H46.84V26.44C53.39,21.19,59.17,17,63.75,13.89c5.41-3.7,9-5.85,13.88-7.48a44.48,44.48,0,0,1,8.12-1.89H99l42.28.14h4.64a176.93,176.93,0,0,1,20.9.4c4,.32,13,1.16,18.32,5.16a28.77,28.77,0,0,1,3,2.66,33.36,33.36,0,0,1,4.7,6.93C194.15,22.41,194.67,24.22,194.11,25.72Z"/><path class="cls-4" d="M145.87,4.67h-3l.42,23.71,1.21,0,1.78-.09c-.13-7.7-.26-15.89-.38-23.59Z"/><polygon class="cls-4" points="95.88 4.52 94.99 28.78 98.24 28.78 98.95 4.52 95.88 4.52"/><path class="cls-4" d="M194.79,22c-2.07-4.32-3.11-6.48-4.79-8.38a26.85,26.85,0,0,0-10.71-7.18c-4-1.57-7.61-1.83-14.6-2.27-3.75-.24-8.95-.43-15.2-.24L95.88,3.86c-2.66-.12-6.08,0-10.06.14-2,.26-4.44.8-4.61.84,0,0-2.08.47-3.93,1C73.49,7,69.73,9.48,66.88,11.16c-14,8.23-17.25,12.44-22.22,16.07-.38.28-1.3,1-1.18,1.54s1.66.91,3.26.95H95c22.42-.11,38.65-.31,49.59-.48L159.3,29c21.62-.37,29.53-1.23,32.08-.6a2.61,2.61,0,0,0,1.32,0c1.51-.41,2.58-2.34,2.63-4.07A5,5,0,0,0,194.79,22ZM95,28.78H46.84V26.44C53.39,21.19,59.17,17,63.75,13.89c5.41-3.7,9-5.85,13.88-7.48a44.48,44.48,0,0,1,8.12-1.89H95.88Zm46.69-.37-43.44.37L99,4.52l42.28.14h1.62l.42,23.71Zm52.43-2.69c-.11.31-.64,1.74-1.76,2l-46.1.5h0c-.13-7.7-.26-15.89-.38-23.59h0a176.93,176.93,0,0,1,20.9.4c4,.32,13,1.16,18.32,5.16a28.77,28.77,0,0,1,3,2.66,33.36,33.36,0,0,1,4.7,6.93C194.15,22.41,194.67,24.22,194.11,25.72Z"/><path class="cls-5" d="M143.27,28.41h0v0l-1.59,0h1.59Z"/><path class="cls-6" d="M202.84,43.52c-.58.33-.51,1.52-.37,2.45a3.36,3.36,0,0,0,1.81-.15c.66-.32,1-1.1,1.17-2.26-.68,0-1.25,0-1.69-.08S203,43.4,202.84,43.52Z"/><path class="cls-7" d="M205.79,37.35c0-.8,0-1.51,0-1.51,0-.49,0-1.14-.08-1.46a21.1,21.1,0,0,0-3,3.83c-1.34,2.38-2.88,6.34-1.69,7.33a2.32,2.32,0,0,0,1.06.35l.44.08c-.15-.93-.21-2.12.37-2.45.17-.1.34-.07.92,0,.74,0,1.33.07,1.69.08C205.73,40.58,205.77,38.32,205.79,37.35Z"/><line class="cls-8" x1="0.02" y1="48.31" x2="15.34" y2="48.64"/><line class="cls-8" x1="179.89" y1="49.83" x2="203.4" y2="49.21"/><rect class="cls-4" x="82.5" y="31.76" width="12.25" height="4.42" rx="2.21" ry="2.21"/><circle class="cls-9" cx="92.57" cy="33.97" r="0.68"/><ellipse class="cls-10" cx="87.6" cy="33.97" rx="3.25" ry="1.54"/><rect class="cls-11" x="84.43" y="33.45" width="6.28" height="1.03"/><rect class="cls-4" x="98.58" y="31.76" width="12.25" height="4.42" rx="2.21" ry="2.21"/><ellipse class="cls-10" cx="103.68" cy="33.97" rx="3.25" ry="1.54"/><rect class="cls-11" x="100.51" y="33.45" width="6.28" height="1.03"/><path class="cls-12" d="M8.45,42.31a2.66,2.66,0,0,1,.87-2,2.88,2.88,0,0,1,1-.57c-3.32-1.2-3.3-1.63-4.06-1.44-1.59.4-2.95,2.58-2.15,4.06.69,1.29,2.67,1.44,3.41,1.5a7.36,7.36,0,0,0,1.18,0A3.29,3.29,0,0,1,8.45,42.31Z"/><path class="cls-13" d="M12.06,40.78a2.25,2.25,0,0,0-1.38-.91l-.31-.11a2.88,2.88,0,0,0-1,.57,2.66,2.66,0,0,0-.87,2,3.29,3.29,0,0,0,.3,1.57,4,4,0,0,0,3.13-1.49A1.77,1.77,0,0,0,12.06,40.78Z"/><path class="cls-14" d="M85.76,4.52a44.48,44.48,0,0,0-8.12,1.89C72.74,8,69.17,10.2,63.75,13.89,59.17,17,53.39,21.19,46.84,26.44v2.34H95l.89-24.26H85.76Z"/><polygon class="cls-15" points="142.85 4.67 142.81 4.67 142.81 4.67 142.81 4.67 141.23 4.66 141.23 4.66 141.23 4.66 98.95 4.52 98.24 28.78 141.68 28.41 143.27 28.38 142.85 4.67"/><path class="cls-15" d="M192.79,19.82a33.36,33.36,0,0,0-4.7-6.93,28.77,28.77,0,0,0-3-2.66c-5.33-4-14.29-4.85-18.32-5.16a176.93,176.93,0,0,0-20.9-.4h0c.13,7.7.26,15.89.38,23.59l1.22-.06-1.22.06h0l46.1-.5c1.12-.3,1.65-1.73,1.76-2C194.67,24.22,194.15,22.41,192.79,19.82Z"/><polygon class="cls-4" points="50.97 22.61 50.97 29.46 45.9 29.11 44.82 27.81 50.97 22.61"/><path class="cls-16" d="M155.18,34.16a4.33,4.33,0,0,0-2.91,1.77,3.48,3.48,0,0,0-.22,2.94,3.73,3.73,0,0,0,3.05,2.5A3.59,3.59,0,0,0,157.71,35,4,4,0,0,0,155.18,34.16Z"/><path class="cls-17" d="M46.9,47c.18.41.39.84.63,1.29s.47.83.7,1.2L97,49.68q-.09-10,0-20.23.12-13.41.54-26.33H86.92c-.45,0-1.2.13-2.12.27-2.63.4-10.58,1.85-24.72,11-1.64,1.07-4.26,2.93-9.46,6.73a8.84,8.84,0,0,0-1.23,1c-1.92,2-2.72,9.14-2.72,9.14C46,37.27,46,36.9,46,37.21A39.29,39.29,0,0,0,46.9,47Z"/><path class="cls-18" d="M48.28,49.51A25.79,25.79,0,0,1,51,55.4,37.49,37.49,0,0,1,52.76,64H95.92L97,50.19c0-.17,0-.34,0-.51Z"/><path class="cls-17" d="M144.46,36.55l.18-7.3-.11-26.12H97.35L97,49.68l41.35.15A104.16,104.16,0,0,1,144.46,36.55Z"/><path class="cls-18" d="M97,49.68h0L96,64h38.19a104.12,104.12,0,0,1,4.07-13.8l.14-.36Z"/><line class="cls-8" x1="45.82" y1="49.5" x2="151.34" y2="49.88"/><line class="cls-19" x1="97.43" y1="3.86" x2="97.07" y2="29.72"/><line class="cls-19" x1="144.53" y1="3.93" x2="144.64" y2="29.25"/><polyline class="cls-19" points="48.18 24.42 48 24.93 47.69 25.97 47.47 26.83 47.24 27.85 47.08 28.7 46.95 29.46 46.9 29.73"/><path class="cls-20" d="M52.51,20.27c2.15.74,2,7.55.36,8.92-.68.57-.57.84-1.68.81-2.54-.08-2.34-.71-2.75-.93-1.23-.64-1.52-3-1-4.73a5.86,5.86,0,0,1,2.69-3.23C51.09,20.5,51.84,20,52.51,20.27Z"/><path class="cls-21" d="M205.35,31.53A33.28,33.28,0,0,0,199.65,18c-3.81-5.27-5.21-3.69-9.08-9.19-1.08-1.53-3-4.58-6.42-5.32a7.71,7.71,0,0,0-1.5-.17c-8-.37-15.64-1.23-23.48-1.27-25.65-.14-38.48-.21-41.32-.33-3-.13-11.77,0-29.3.17l-1,0a37,37,0,0,0-3.71.36C74.76,3.65,57.09,14.09,57.09,14.09c-3.1,1.83-6.37,3.4-9.3,5.48,0,0-5.92,4.14-10.36,5.37-1.3.36-1.47.3-3.82.78a97.43,97.43,0,0,0-11.85,3.21C14.92,31.21,10.81,33.39,8,35.52c-.24.18-3.39,2.63-3.54,4.71-.07.92-.21,1.84-.22,2.77,0,.59,0,.76-.11,1-.48.86-1.75.33-2.82,1.11a4.1,4.1,0,0,0-1.27,3c0,.06,0,.14,0,.22l15.31.33a18.52,18.52,0,0,1,9.8-6.81,19.48,19.48,0,0,1,13.13,1.27,18.37,18.37,0,0,1,7.56,6.39l1.17,0,104.35.35c.13-.16.27-.3.4-.46,6.91-8.59,17.58-9.19,24.15-4.28a17,17,0,0,1,4,4.69l23.51-.61A33,33,0,0,0,205.35,31.53ZM101.76,28.78H98.24m49.95-.52-1.93,0M146,4.66"/><path class="cls-22" d="M45.82,49.5a12.88,12.88,0,0,1,1,2c.53,1.3,1.17,4.94,2.44,12.24l.28,1.61L52.33,65l93.21.33a30.11,30.11,0,0,1,1.66-7.64,25.72,25.72,0,0,1,4.14-7.79L47,49.53Z"/><path class="cls-23" d="M.49,51.14c.51,1.11,1.08,1.29,3.32,4a2.25,2.25,0,0,1,.72,1.44c0,.78-.68,1.12-.78,2a2.38,2.38,0,0,0,.39,1.48,15.81,15.81,0,0,0,6.54,2.33,15.32,15.32,0,0,0,3,.06c0-2.2.16-4,.28-5.37a39.45,39.45,0,0,1,1.22-7.81l.17-.61L0,48.31A5.6,5.6,0,0,0,.49,51.14Z"/><path class="cls-24" d="M203,51.52a4.2,4.2,0,0,1-.28-.66c.21-.46.45-1,.7-1.65l-23.51.61a9.29,9.29,0,0,1,2.54,4.75c.43,5.22.06,6.48.06,6.48-.15.5-.57,1.78-.06,2.22.32.27.88.11,1.05.06,1.51-.43,0-.29,12.18-.66,2.85-.09,4.56-.09,6.7-1.05,3.5-1.57,6.38-4.92,5.7-6.54C207.47,53.64,204.3,54.06,203,51.52Z"/><circle class="cls-25" cx="30.97" cy="60.41" r="15.64"/><path class="cls-26" d="M31,50.19A10.22,10.22,0,1,0,41.19,60.41,10.22,10.22,0,0,0,31,50.19Z"/><path class="cls-27" d="M31,52.84a7.57,7.57,0,1,0,7.57,7.57A7.57,7.57,0,0,0,31,52.84Z"/><path class="cls-28" d="M31,50.19A10.22,10.22,0,1,0,41.19,60.41,10.22,10.22,0,0,0,31,50.19Zm0,19.27a9,9,0,1,1,9-9A9,9,0,0,1,31,69.46Z"/><circle class="cls-28" cx="30.97" cy="60.41" r="3.65" transform="translate(-33.65 39.6) rotate(-45)"/><rect class="cls-28" x="33.33" y="53.09" width="3.76" height="6.16" transform="translate(50.03 -8.45) rotate(45)"/><rect class="cls-28" x="29.8" y="51.21" width="2.35" height="6.69"/><rect class="cls-28" x="35.63" y="57.1" width="2.35" height="6.64" transform="translate(97.22 23.61) rotate(90)"/><rect class="cls-28" x="29.8" y="62.93" width="2.35" height="6.72" transform="translate(61.94 132.57) rotate(180)"/><rect class="cls-28" x="23.85" y="56.98" width="2.35" height="6.87" transform="translate(-35.39 85.44) rotate(-90)"/><rect class="cls-28" x="33.33" y="61.57" width="3.76" height="6.16" transform="translate(105.83 85.48) rotate(135)"/><rect class="cls-28" x="24.85" y="61.57" width="3.76" height="6.16" transform="translate(-0.09 129.28) rotate(-135)"/><rect class="cls-28" x="24.85" y="53.09" width="3.76" height="6.16" transform="translate(-31.89 35.35) rotate(-45)"/><line class="cls-29" x1="30.97" y1="56.76" x2="30.97" y2="60.41"/><circle class="cls-30" cx="30.97" cy="58.1" r="0.71"/><circle class="cls-30" cx="28.77" cy="59.7" r="0.71" transform="translate(-36.9 68.62) rotate(-72)"/><circle class="cls-30" cx="29.61" cy="62.28" r="0.71" transform="translate(-38.18 49.63) rotate(-54)"/><circle class="cls-30" cx="32.33" cy="62.28" r="0.71" transform="translate(-30.43 30.9) rotate(-36)"/><circle class="cls-30" cx="33.17" cy="59.7" r="0.71" transform="translate(-16.83 13.17) rotate(-18)"/><circle class="cls-25" cx="165.65" cy="60.41" r="15.64"/><path class="cls-26" d="M165.66,50.19a10.22,10.22,0,1,0,10.22,10.22A10.22,10.22,0,0,0,165.66,50.19Z"/><path class="cls-27" d="M165.66,52.84a7.57,7.57,0,1,0,7.57,7.57A7.57,7.57,0,0,0,165.66,52.84Z"/><path class="cls-28" d="M165.65,50.19a10.22,10.22,0,1,0,10.22,10.22A10.22,10.22,0,0,0,165.65,50.19Zm0,19.27a9,9,0,1,1,9-9A9,9,0,0,1,165.65,69.46Z"/><circle class="cls-28" cx="165.65" cy="60.41" r="3.65" transform="translate(5.8 134.83) rotate(-45)"/><rect class="cls-28" x="168.02" y="53.09" width="3.76" height="6.16" transform="translate(89.48 -103.68) rotate(45)"/><rect class="cls-28" x="164.48" y="51.21" width="2.35" height="6.69"/><rect class="cls-28" x="170.31" y="57.1" width="2.35" height="6.64" transform="translate(231.9 -111.07) rotate(90)"/><rect class="cls-28" x="164.48" y="62.93" width="2.35" height="6.72" transform="translate(331.31 132.57) rotate(180)"/><rect class="cls-28" x="158.53" y="56.98" width="2.35" height="6.87" transform="translate(99.29 220.12) rotate(-90)"/><rect class="cls-28" x="168.02" y="61.57" width="3.76" height="6.16" transform="translate(335.75 -9.76) rotate(135)"/><rect class="cls-28" x="159.53" y="61.57" width="3.76" height="6.16" transform="translate(229.83 224.51) rotate(-135)"/><rect class="cls-28" x="159.53" y="53.09" width="3.76" height="6.16" transform="translate(7.56 130.59) rotate(-45)"/><line class="cls-29" x1="165.65" y1="56.76" x2="165.65" y2="60.41"/><circle class="cls-30" cx="165.65" cy="58.1" r="0.71"/><circle class="cls-30" cx="163.46" cy="59.7" r="0.71" transform="translate(56.17 196.71) rotate(-72)"/><circle class="cls-30" cx="164.3" cy="62.28" r="0.71" transform="translate(17.34 158.59) rotate(-54)"/><circle class="cls-30" cx="167.01" cy="62.28" r="0.71" transform="translate(-4.71 110.06) rotate(-36)"/><circle class="cls-30" cx="167.85" cy="59.7" r="0.71" transform="translate(-10.23 54.79) rotate(-18)"/></g></g></g></svg>