<?xml version="1.0" encoding="utf-8"?>
<!-- Generator: Adobe Illustrator 22.0.1, SVG Export Plug-In . SVG Version: 6.00 Build 0)  -->
<svg version="1.1" id="Layer_1" xmlns="http://www.w3.org/2000/svg" xmlns:xlink="http://www.w3.org/1999/xlink" x="0px" y="0px"
	 viewBox="0 0 42.4 20" style="enable-background:new 0 0 42.4 20;" xml:space="preserve">
<style type="text/css">
	.st0{fill:#E49866;}
	.st1{fill:#DDCFAA;}
	.st2{fill:#F0DFB4;}
	.st3{fill:#D5C395;}
</style>
<title>eggs</title>
<g id="Layer_2_1_">
	<g id="Layer_2-2">
		<ellipse class="st0" cx="7.1" cy="8.1" rx="6.1" ry="8.1"/>
		<ellipse class="st0" cx="21.2" cy="8.1" rx="6.1" ry="8.1"/>
		<ellipse class="st0" cx="35.3" cy="8.1" rx="6.1" ry="8.1"/>
		<polygon class="st1" points="9,9.3 14.1,9.3 10.2,20 4.1,20 0,9.3 5.1,9.3 		"/>
		<polygon class="st1" points="23.2,9.3 28.3,9.3 24.3,20 18.2,20 14.1,9.3 19.2,9.3 		"/>
		<polygon class="st1" points="37.3,9.3 42.4,9.3 38.4,20 32.3,20 28.3,9.3 33.3,9.3 		"/>
		<rect y="9.3" class="st2" width="42.4" height="2.3"/>
		<rect x="5.8" y="11.6" class="st3" width="2.4" height="8.5"/>
		<rect x="20" y="11.6" class="st3" width="2.4" height="8.5"/>
		<rect x="34.2" y="11.6" class="st3" width="2.4" height="8.5"/>
	</g>
</g>
</svg>
