<svg xmlns="http://www.w3.org/2000/svg" xmlns:xlink="http://www.w3.org/1999/xlink" viewBox="0 0 165.12 157.92">
  <defs>
    <style>
      .cls-1 { isolation: isolate; } .cls-2 { opacity: 0.5; mix-blend-mode: multiply; } .cls-15, .cls-3 { fill: #fff; } .cls-13, .cls-4 { font-size: 13.98px; fill: #231f20; } .cls-4 { font-family: SourceSansPro-Bold, Source Sans Pro; } .cls-15, .cls-4, .cls-7 { font-weight: 700; } .cls-5 { fill: #fefce4; } .cls-5, .cls-8 { stroke: #e6e7e8; stroke-miterlimit: 10; } .cls-6, .cls-8 { fill: #00598b; } .cls-7 { font-size: 5.29px; fill: #fdfbe6; } .cls-15, .cls-7 { font-family: BerlinSansFBDemi-Bold, Berlin Sans FB Demi; } .cls-9 { fill: #de9a70; } .cls-10 { fill: #e5dfd3; } .cls-11 { fill: #eee8de; } .cls-12 { fill: #d4cfc5; opacity: 0.3; } .cls-13 { font-family: SourceSansPro-Regular, Source Sans Pro; } .cls-14 { fill: #376195; } .cls-15 { font-size: 16.24px; }
    </style>
  </defs>
  <g class="cls-1">
    <g id="Layer_2" data-name="Layer 2">
      <g id="Layer_2-2" data-name="Layer 2">
        <g id="foodPanel1984">
          <image class="cls-2" width="688" height="658" transform="scale(.24)" xlink:href="FoodPanel1.png"/>
          <path class="cls-3" d="M10.1 10.09h134.93v127.72H10.1z"/>
          <g id="Mllk">
            <text class="cls-4" transform="translate(30.02 95.16)">
              Milk
            </text>
            <path class="cls-5" d="M32.37 35.25h21.46v39.53H32.37z"/>
            <path class="cls-6" d="M32.37 69.64h21.46v2.42H32.37zM32.37 66.73h21.46v2.42H32.37zM32.37 37.67h21.46v8.23H32.37z"/>
            <text class="cls-7" transform="translate(36.96 43.46)">
              MILK
            </text>
            <path class="cls-5" d="M32.37 30.29h21.46v4.96H32.37zM32.37 28.45h21.46v1.84H32.37z"/>
            <path class="cls-8" d="M45.61 32v1.3c0 .64-1.12 1.17-2.51 1.17s-2.51-.52-2.51-1.17V32"/>
            <ellipse class="cls-8" cx="43.1" cy="32.03" rx="2.51" ry="1.17"/>
          </g>
          <g id="Eggs">
            <text class="cls-4" transform="translate(87.19 95.16)">
              Eggs
            </text>
            <ellipse class="cls-9" cx="87.44" cy="62.66" rx="6.14" ry="8.15"/>
            <ellipse class="cls-9" cx="101.57" cy="62.66" rx="6.14" ry="8.15"/>
            <ellipse class="cls-9" cx="115.69" cy="62.66" rx="6.14" ry="8.15"/>
            <path class="cls-10" d="M89.42 63.78h5.08l-3.95 10.77h-6.09l-4.08-10.77h9.04zM103.54 63.78h5.09l-3.95 10.77h-6.09L94.5 63.78h9.04zM117.67 63.78h5.08l-3.94 10.77h-6.1l-4.08-10.77h9.04z"/>
            <path class="cls-11" d="M80.38 63.78h42.38v2.3H80.38z"/>
            <path class="cls-12" d="M86.18 66.08h2.43v8.48h-2.43zM100.35 66.08h2.43v8.48h-2.43zM114.53 66.08h2.43v8.48h-2.43z"/>
          </g>
          <text class="cls-13" transform="translate(27.46 117.15)">
            $1.40
          </text>
          <text class="cls-13" transform="translate(85.93 117.15)">
            $0.94
          </text>
        </g>
        <g id="FoodPanelInfo1984">
          <circle class="cls-14" cx="132.15" cy="22.97" r="7.85"/>
          <text class="cls-15" transform="translate(129.92 28.53)">
            i
          </text>
        </g>
      </g>
    </g>
  </g>
</svg>
