<svg xmlns="http://www.w3.org/2000/svg" xmlns:xlink="http://www.w3.org/1999/xlink" viewBox="0 0 183.73 75.65"><defs><style>.cls-1{fill:#606161;opacity:0.38;}.cls-2{fill:#bb2034;}.cls-3{fill:#cfcfce;}.cls-4{fill:#721820;}.cls-5{fill:#bd2025;}.cls-6{fill:#b72032;}.cls-7{fill:#ad2037;}.cls-8{fill:#878787;}.cls-20,.cls-8{opacity:0.1;}.cls-9{fill:#40403f;}.cls-10{fill:#df1f2a;}.cls-11{fill:#d8d6d6;}.cls-12{fill:#4c4c4d;}.cls-13{fill:#ead82e;}.cls-14{fill:#3a3939;}.cls-15,.cls-17,.cls-18,.cls-19{fill:none;stroke-miterlimit:10;stroke-width:0.5px;}.cls-15{stroke:#40403f;}.cls-16{fill:#aa2239;}.cls-17{stroke:#ad2037;}.cls-18{stroke:#353535;}.cls-19{stroke:#bf2334;}.cls-20{fill:url(#linear-gradient);}.cls-21{opacity:0.67;fill:url(#linear-gradient-2);}.cls-22{fill:#151515;}.cls-23{fill:#451319;}.cls-24{fill:#adb2b5;}.cls-25{fill:#d0d9e2;}.cls-26{fill:#979a9b;}</style><linearGradient id="linear-gradient" x1="91.27" y1="12.97" x2="91.27" y2="55.77" gradientUnits="userSpaceOnUse"><stop offset="0" stop-color="#fff"/><stop offset="0.57" stop-opacity="0"/></linearGradient><linearGradient id="linear-gradient-2" x1="91.27" y1="53.27" x2="91.27" y2="63.36" gradientUnits="userSpaceOnUse"><stop offset="0.2" stop-color="#b72032" stop-opacity="0"/><stop offset="1" stop-color="#770717"/></linearGradient></defs><title>ford</title><g id="Layer_2" data-name="Layer 2"><g id="Layer_2-2" data-name="Layer 2"><g id="focus"><path class="cls-1" d="M105.76,19a4.77,4.77,0,0,1,2.1,1.77c1.32,1.82,2.13,4.91.89,6.09-.21.2-.47.33-3.65.44-2.88.1-3.12,0-3.32-.11-2-1.21-2.18-6.57.44-8.08A4.23,4.23,0,0,1,105.76,19Z"/><path class="cls-1" d="M107.11,28.4a3.76,3.76,0,0,1,1,1c.59.84,1,2.25.54,3.11-.16.28-.68.95-6.85.58-3.09-.18-3.53-.38-3.69-.75-.48-1,1.35-3.15,3.32-4.07A6.07,6.07,0,0,1,107.11,28.4Z"/><path class="cls-1" d="M71.7,36.14a23.18,23.18,0,0,1-2.76-5.56c-.06-.26-.69-2.95-.17-3.16.75-.3,3.33,4.61,4.76,7.92.68,1.57,1.57,3.61,1.22,3.82S72.87,37.88,71.7,36.14Z"/><ellipse class="cls-2" cx="95.95" cy="36.88" rx="2.75" ry="2.24"/><polygon class="cls-3" points="176.53 59.02 183.74 59.02 182.79 61.84 176.53 61.84 176.53 59.02"/><path class="cls-4" d="M24.17,41.13c13.35-2,22.35,1.94,32.44,4.15,8.22,1.81,18.8,1.14,40-.2,23.36-1.48,35-2.21,41.15-3.17,7-1.09,14.87-2.62,23.15,1.19,2.16,1,10.35,4.76,11.08,11.67a10.56,10.56,0,0,1-1.19,5.93c-4,7.15-19.67,5.25-42.33,3.76-11.31-.74-44.78-2.95-63.9-1.19-1.55.14-6.23.61-12.66.79-7.66.22-8.93-.22-19-.4-14.71-.25-17,.6-19.39-1.78-3.55-3.5-4-10.55-1-15C14.66,43.59,18.4,42,24.17,41.13Z"/><polygon class="cls-5" points="48.89 29.91 48.89 29.91 48.89 29.91 48.89 29.91"/><path class="cls-6" d="M181.81,48.23,176.11,46l0-.28L176,33.63l0-.54-.11-.28,0,0a73.41,73.41,0,0,0-6.68-7.2c-7.27-6.78-9.9-8.72-11.24-9.68-.66-.48-1.22-.86-1.59-1.11-6.52-1.06-12.4-1.8-17.47-2.34-8-.84-14.51-1.2-18.29-1.37-7.2-.32-12.29-.29-16.36-.26-9.05.07-12.09.44-15,1a63.58,63.58,0,0,0-9,2.6c-.6.22-1.09.4-1.45.54l1.15.09c.57-.06.73,0,.72.11-.28,1.33-12.18,6.34-27.73,14.89a21.56,21.56,0,0,1-2.66,1.16l-1.77-.83-.05-.27L35.79,31.64C21.6,34.54,11.47,37.81,9,39.58c-1.48,1.05-3,2.1-3.23,3.6a12.19,12.19,0,0,1-.81,2.64,3.6,3.6,0,0,1-.49.81,10.59,10.59,0,0,1-3.52,2.6c-.36.18-.67.32-.89.41v.52c.2,2.53,1.12,11.41,5.9,13.24a21.35,21.35,0,0,0,4.19.82,50.2,50.2,0,0,0,7,.48V63.8a21.88,21.88,0,0,1,1.63-8.38,15.77,15.77,0,0,1,4.67-6.9,15,15,0,0,1,8.61-3.12,16.92,16.92,0,0,1,8,1.34,16.61,16.61,0,0,1,7.34,6.6,21.76,21.76,0,0,1,2.82,9.74,28.81,28.81,0,0,1,.15,3.05H136a18.37,18.37,0,0,1,1.15-8.31,18.17,18.17,0,0,1,5.6-7.64,16.54,16.54,0,0,1,10.91-3.78A16,16,0,0,1,168.76,64a15.52,15.52,0,0,0,6.86-1.67c4.13-2.1,6.16-5.42,6.38-6.27C183.14,51.59,182,49.49,181.81,48.23ZM99.93,32.13l-.3.3-3.66.2L57.31,33.79l-2.81,0a10.59,10.59,0,0,1,.81-.94,12.39,12.39,0,0,1,1.29-1.13A114.47,114.47,0,0,1,79,18.38a62.06,62.06,0,0,1,9.27-3.09c1.95-.47,3.55-.76,4.53-.91a57.8,57.8,0,0,1,11.08-.69ZM137.6,30.5l-1.3.13-2.68.26H133l-.29,0-1.8.1-.58,0-.62,0-.65,0-1,.06-.71,0-1.46.08-1.47.08-.72,0-.36,0-.7,0-1,.06-.63,0-2.1.12-.39,0-.84,0-10.53.52,1.48-18,0-.44h.71l23.59,1.47.89.07,3.78,5.24Zm22.05-4.73a1.63,1.63,0,0,1-.16.47,1.14,1.14,0,0,1-.3.36l-.09.06a1.07,1.07,0,0,1-.25.11l-.13,0h-.09L157,27l-3.66.48-.74.1-1,.14-1.1.16L150,28l-.39.07-.33.06-.14,0-.24.05-.26.07-.1,0-.32.09-.2,0h-.32a1.12,1.12,0,0,1-.32-.07.89.89,0,0,1-.2-.1l-.07-.06-.06-.06,0-.06,0,0-.29-.43-.56-.87-.34-.54-.36-.59-1-1.64-.4-.69c-.67-1.16-1.33-2.33-1.82-3.3-.2-.39-.37-.74-.51-1a.36.36,0,0,1,0-.3l0,0,.07-.08.07-.07,0,0,.06,0,0,0h0a1.08,1.08,0,0,1,.93-.1l.15,0,.28.1.38.15.19.08.07,0,1.8.64,1.78.63,3.5,1.23L156.3,23l1.75.61a4.13,4.13,0,0,1,.66.29l.11.07.11.07.11.08.21.19.09.11a1.48,1.48,0,0,1,.22.38A1.85,1.85,0,0,1,159.65,25.77Z"/><path class="cls-5" d="M159.2,26.6l-.09.06.09-.06a1.14,1.14,0,0,0,.3-.36A1.14,1.14,0,0,1,159.2,26.6Z"/><path class="cls-5" d="M150.49,27.92,150,28Z"/><path class="cls-5" d="M147.14,28.21l.07.06a.89.89,0,0,0,.2.1.89.89,0,0,1-.2-.1Z"/><path class="cls-5" d="M141.72,18.65a.36.36,0,0,0,0,.3c.14.3.31.66.51,1-.2-.39-.37-.74-.51-1A.36.36,0,0,1,141.72,18.65Z"/><path class="cls-5" d="M147,28.1l0,.06.06.06-.06-.06Z"/><path class="cls-5" d="M149.16,28.15l-.24.05Z"/><path class="cls-5" d="M145.8,26.22l-.36-.59Z"/><path class="cls-5" d="M147.84,28.44H148l.2,0-.2,0Z"/><path class="cls-5" d="M149.64,28.06l-.33.06Z"/><path class="cls-5" d="M146.14,26.75l-.34-.54Z"/><path class="cls-5" d="M141.74,18.61l.07-.08Z"/><path class="cls-5" d="M148.56,28.3l.1,0,.26-.07-.26.07Z"/><path class="cls-5" d="M133,30.92l-.29,0Z"/><path class="cls-5" d="M129.7,31.11l-.65,0Z"/><path class="cls-5" d="M130.89,31l-.58,0Z"/><path class="cls-5" d="M133.21,30.91h0Z"/><path class="cls-5" d="M118.86,31.71l-.39,0Z"/><path class="cls-5" d="M121.59,31.56l-.63,0Z"/><path class="cls-5" d="M137.6,20.68V30.5l-1.3.13,1.3-.13V20.68l-3.78-5.24Z"/><path class="cls-5" d="M123.29,31.46l-.7,0Z"/><path class="cls-5" d="M128,31.2l-.71,0Z"/><path class="cls-5" d="M127.3,31.24l-1.46.08Z"/><path class="cls-5" d="M124.37,31.4l-.72,0Z"/><path class="cls-5" d="M78.5,15.09l-1,.39,1.27-.5Z"/><polygon class="cls-7" points="59.01 50.97 62.05 53.27 102.26 52.53 102.26 49.71 59.01 50.97"/><polygon class="cls-7" points="104.86 52.53 105.37 49.71 131.56 49.26 128.37 52.08 104.86 52.53"/><path class="cls-8" d="M80.65,15.17c0-.07-.15-.17-.72-.11L78.78,15l-5,2-5.21,2.63-3,1.67L60.86,23.7,54.62,27l-5.73,2.94-.45.21.05.27,1.77.83a21.56,21.56,0,0,0,2.66-1.16C68.47,21.51,80.38,16.5,80.65,15.17Z"/><path class="cls-9" d="M160.48,22.07c-13.63-5.08-21.51-6.59-24-7-.95-.17-1.65-.29-1.94-.33-6.77-.91-11.49-1.14-19.61-1.53-6.65-.32-10.48-.19-12.83-.1-4.31.17-8.54.16-13.7,1.52a57.22,57.22,0,0,0-10,3.38,92.76,92.76,0,0,0-12,6.46c-7,4.65-8.67,6-10.18,7.18a10.47,10.47,0,0,0-2,1.81l-.44.69h1c14.18-.13,32.77-.41,52.72-1,4.51-.13,13.85-.4,25.63-1.38,7.78-.65,14.51-1.43,21.2-2.44,2.86-.43,5.26-.83,7-1.13l8.3-2.53C165.91,24.13,162.8,22.93,160.48,22.07ZM99.93,32.13l-.3.3-3.66.2L57.31,33.79l-2.81,0a10.59,10.59,0,0,1,.81-.94,12.39,12.39,0,0,1,1.29-1.13A114.47,114.47,0,0,1,79,18.38a62.06,62.06,0,0,1,9.27-3.09c1.95-.47,3.55-.76,4.53-.91a57.8,57.8,0,0,1,11.08-.69ZM137.6,30.5s-4.08.41-4.19.41l-15.78.88-10.53.52,1.48-18,0-.44h.71l23.59,1.47.89.07,3.78,5.24Zm22.05-4.73a1.36,1.36,0,0,1-.45.83,1,1,0,0,1-.34.18,1.24,1.24,0,0,1-.22,0c-3.1.4-5.42.71-7.05.94a24.33,24.33,0,0,0-2.93.51,3,3,0,0,1-.61.16,1.19,1.19,0,0,1-.83-.16l-.14-.12L147,28c-.41-.57-1.45-2.23-2.53-4.06s-2.19-3.81-2.73-5a.38.38,0,0,1,.09-.44.78.78,0,0,1,.21-.16,1.2,1.2,0,0,1,1.07-.06c.39.11.75.3.93.36l7.08,2.49L158,23.6a3.86,3.86,0,0,1,.77.35,1.77,1.77,0,0,1,.75.83A1.85,1.85,0,0,1,159.65,25.77Z"/><path class="cls-8" d="M92.76,14.37c-1,.16-2.58.44-4.53.91A62.06,62.06,0,0,0,79,18.38,114.47,114.47,0,0,0,56.6,31.67a12.39,12.39,0,0,0-1.29,1.13,10.59,10.59,0,0,0-.81.94l2.81,0L96,32.62l3.66-.2.3-.3,3.91-18.45A57.8,57.8,0,0,0,92.76,14.37Z"/><path class="cls-8" d="M107.1,32.3l1.48-18,0-.44h.71l23.59,1.47.89.07,3.78,5.24V30.5s-4.08.41-4.19.41l-15.78.88Z"/><path class="cls-8" d="M141.72,19c.54,1.22,1.66,3.21,2.73,5S146.58,27.48,147,28l.09.11.14.12a1.19,1.19,0,0,0,.83.16,3,3,0,0,0,.61-.16,24.33,24.33,0,0,1,2.93-.51c1.63-.23,4-.53,7.05-.94a1.24,1.24,0,0,0,.22,0,1,1,0,0,0,.34-.18,1.36,1.36,0,0,0,.45-.83,1.85,1.85,0,0,0-.08-1,1.77,1.77,0,0,0-.75-.83,3.86,3.86,0,0,0-.77-.35l-6.95-2.44L144,18.66c-.18-.06-.54-.25-.93-.36a1.2,1.2,0,0,0-1.07.06.78.78,0,0,0-.21.16A.38.38,0,0,0,141.72,19Z"/><path class="cls-10" d="M165.13,22.06l-6.71-5.82a17,17,0,0,0-5.63,1.16,19.92,19.92,0,0,0-2.31,1.22l2.25.72,6.41,2.23,4.77,1.84a2.76,2.76,0,0,1,.49-.78A2.81,2.81,0,0,1,165.13,22.06Z"/><path class="cls-11" d="M169,25.43l-3.88-3.37a2.81,2.81,0,0,0-.71.56,2.76,2.76,0,0,0-.49.78l2.72,1Z"/><polygon class="cls-9" points="63.16 33.79 63.16 26.83 55.74 32.24 54.64 33.41 54.19 33.79 63.16 33.79"/><path class="cls-12" d="M64.6,31.14c.17,1.26.28,2.16-.3,2.84a3.06,3.06,0,0,1-2,.93h-.14a3.62,3.62,0,0,1-2.91-1.55,3.39,3.39,0,0,1-.54-2.5,4,4,0,0,1,2.37-2.53c.8-.44,1.43-.78,2.06-.56C64.21,28.14,64.43,29.82,64.6,31.14Z"/><path class="cls-13" d="M10.24,49.77h5.85a2.19,2.19,0,0,1-.06.79,3,3,0,0,1-1.87,1.81h-5Z"/><path class="cls-3" d="M.84,55.08,1.4,55a10.5,10.5,0,0,1,1.55-.12c.76,0,1.15.06,1.47.44A3,3,0,0,1,5,58c-.22.67-.79.81-1.63.91a4.45,4.45,0,0,1-1.28,0H2L1.68,58Z"/><path class="cls-14" d="M3.25,58.52c.23.15.82,0,1.15-.43a1.07,1.07,0,0,0,.18-.32,2.06,2.06,0,0,0-.45-2.17,1.71,1.71,0,0,0-1.2-.36.54.54,0,0,0-.36.12c-.15.15-.14.39-.08.79a8.25,8.25,0,0,0,.49,2l.06.11A.88.88,0,0,0,3.25,58.52Z"/><polygon class="cls-3" points="5.05 57.6 3.3 57.6 2.99 57.14 4.69 57.14 5.05 57.6"/><polygon class="cls-3" points="4.98 56.73 3.22 56.73 2.92 56.27 4.62 56.27 4.98 56.73"/><path class="cls-9" d="M80.65,14.67a101.51,101.51,0,0,1,9.6-7.94A100.31,100.31,0,0,1,100.75,0L95.61,3.52c-1.7,1.19-3.4,2.37-5.06,3.61C87.18,9.55,83.93,12.12,80.65,14.67Z"/><path class="cls-9" d="M80.76,14.78a.67.67,0,0,1-.43.11c-.06,0-.18,0-.19-.08s.26-.28.54-.31c.13,0,.33,0,.35.06S80.83,14.74,80.76,14.78Z"/><path class="cls-9" d="M78,13.24"/><polyline class="cls-15" points="150.49 18.61 151.74 17.89 152.95 17.33 154.09 16.94 155.44 16.6 156.66 16.38 157.81 16.26 158.43 16.23"/><ellipse class="cls-16" cx="93.51" cy="37.04" rx="3.2" ry="2.73"/><path class="cls-9" d="M100.73,36.72a1.48,1.48,0,0,1-.4,1.19,4.2,4.2,0,0,1-3.64.14v-.34H89.5l-.29-.13a.8.8,0,0,1,0-.72c.27-.58,1.12-.66,2.19-.75l.31,0h5v-.36l.11-.08.34-.12.26-.06.41,0,.22,0C99.2,35.39,100.59,35.88,100.73,36.72Z"/><ellipse class="cls-16" cx="138.57" cy="35.18" rx="3.2" ry="2.73" transform="translate(-3.01 15.34) rotate(-6.27)"/><path class="cls-9" d="M145.72,34.08a1.48,1.48,0,0,1-.26,1.23,4.2,4.2,0,0,1-3.6.54l0-.33-7.16.79-.3-.1a.8.8,0,0,1-.08-.72c.2-.6,1-.78,2.09-1l.3-.05.78-.1,4.18-.46,0-.35.1-.09.33-.16.25-.09.4-.07.22,0C144.05,32.92,145.49,33.26,145.72,34.08Z"/><path class="cls-17" d="M106,12.86l.07-.74a55.67,55.67,0,0,0-11.69.45c-.57.08-1.21.17-1.91.29"/><path class="cls-17" d="M52.85,33.15a9.38,9.38,0,0,0-1,3.43,78.48,78.48,0,0,0,.41,19c.37,2.29,1,5.46,1.89,9.24l50.44-.08c-1.35-12-1.9-20.11-1.82-26.34,0-1.39.16-3.19.38-5.2"/><path class="cls-17" d="M92.51,12.86a64.33,64.33,0,0,0-6.86,1.52C80,15.94,76.7,18,70.42,21.3a153.47,153.47,0,0,0-13.81,8.06A10,10,0,0,0,53,32.89l-.15.27"/><path class="cls-18" d="M103.15,33.15c.64-5.85,1.94-13.56,2.73-18.7l.16-1.6"/><path class="cls-19" d="M138.18,15.41l-.41-.84a148.87,148.87,0,0,0-19.66-2.2q-1.51-.07-3-.1l-9-.09L106,13"/><path class="cls-19" d="M124.44,13.73"/><line class="cls-18" x1="145.66" y1="30.51" x2="138.18" y2="15.41"/><polyline class="cls-18" points="105.99 13.02 103.88 27.5 103.17 33.3"/><path class="cls-17" d="M103.17,33.3,103,35.08l-.2,4.1.06,4,1.77,21.62,29-.15c.13-7.7,2.33-11.09,4.48-12.73a44.48,44.48,0,0,0,7.81-6.53,9.2,9.2,0,0,0,1.22-1.61c1.91-3.25,1.12-6.89.89-8a12,12,0,0,0-1-2.82,11.3,11.3,0,0,0-.89-1.46l-.48-1"/><path class="cls-17" d="M120,63.72A36,36,0,0,1,133,48.39a35.54,35.54,0,0,1,5.54-2.82c3.86-1.62,10.72-4.56,19.15-3.49a23,23,0,0,1,12.13,4.36"/><path class="cls-17" d="M176.11,46l-3.57.23q-7.12.45-14.24,1h-.18"/><line class="cls-17" x1="10.24" y1="49.77" y2="49.77"/><line class="cls-17" x1="9.13" y1="52.37" x2="0.27" y2="52.37"/><path class="cls-17" d="M16.09,49.77a18.08,18.08,0,0,1,3.14-4,19,19,0,0,1,7.17-4.21C32.7,39.35,38.66,40.53,41,41c10.59,2.17,17.24,8.78,20.67,12.21.62.62-.34-.37,0,0"/><path class="cls-20" d="M181.81,48.23,176.11,46l0-.28L176,33.63l0-.54-.11-.28,0,0a73.41,73.41,0,0,0-6.68-7.2c-7.27-6.78-9.9-8.72-11.24-9.68-.66-.48-1.22-.86-1.59-1.11-6.52-1.06-12.4-1.8-17.47-2.34-8-.84-14.51-1.2-18.29-1.37-7.2-.32-12.29-.29-16.36-.26-9.05.07-12.09.44-15,1a63.58,63.58,0,0,0-9,2.6c-.6.22-1.09.4-1.45.54l1.15.09c.57-.06.73,0,.72.11-.28,1.33-12.18,6.34-27.73,14.89a21.56,21.56,0,0,1-2.66,1.16l-1.77-.83-.05-.27L35.79,31.64C21.6,34.54,11.47,37.81,9,39.58c-1.48,1.05-3,2.1-3.23,3.6a12.19,12.19,0,0,1-.81,2.64,3.6,3.6,0,0,1-.49.81,10.59,10.59,0,0,1-3.52,2.6c-.36.18-.67.32-.89.41v.52c.2,2.53,1.12,11.41,5.9,13.24a21.35,21.35,0,0,0,4.19.82,50.2,50.2,0,0,0,7,.48V63.8a21.88,21.88,0,0,1,1.63-8.38,15.77,15.77,0,0,1,4.67-6.9,15,15,0,0,1,8.61-3.12,16.92,16.92,0,0,1,8,1.34,16.61,16.61,0,0,1,7.34,6.6,21.76,21.76,0,0,1,2.82,9.74,28.81,28.81,0,0,1,.15,3.05H136a18.37,18.37,0,0,1,1.15-8.31,18.17,18.17,0,0,1,5.6-7.64,16.54,16.54,0,0,1,10.91-3.78A16,16,0,0,1,168.76,64a15.52,15.52,0,0,0,6.86-1.67c4.13-2.1,6.16-5.42,6.38-6.27C183.14,51.59,182,49.49,181.81,48.23ZM99.93,32.13l-.3.3-3.66.2L57.31,33.79l-2.81,0a10.59,10.59,0,0,1,.81-.94,12.39,12.39,0,0,1,1.29-1.13A114.47,114.47,0,0,1,79,18.38a62.06,62.06,0,0,1,9.27-3.09c1.95-.47,3.55-.76,4.53-.91a57.8,57.8,0,0,1,11.08-.69ZM137.6,30.5l-1.3.13-2.68.26H133l-.29,0-1.8.1-.58,0-.62,0-.65,0-1,.06-.71,0-1.46.08-1.47.08-.72,0-.36,0-.7,0-1,.06-.63,0-2.1.12-.39,0-.84,0-10.53.52,1.48-18,0-.44h.71l23.59,1.47.89.07,3.78,5.24Zm22.05-4.73a1.63,1.63,0,0,1-.16.47,1.14,1.14,0,0,1-.3.36l-.09.06a1.07,1.07,0,0,1-.25.11l-.13,0h-.09L157,27l-3.66.48-.74.1-1,.14-1.1.16L150,28l-.39.07-.33.06-.14,0-.24.05-.26.07-.1,0-.32.09-.2,0h-.32a1.12,1.12,0,0,1-.32-.07.89.89,0,0,1-.2-.1l-.07-.06-.06-.06,0-.06,0,0-.29-.43-.56-.87-.34-.54-.36-.59-1-1.64-.4-.69c-.67-1.16-1.33-2.33-1.82-3.3-.2-.39-.37-.74-.51-1a.36.36,0,0,1,0-.3l0,0,.07-.08.07-.07,0,0,.06,0,0,0h0a1.08,1.08,0,0,1,.93-.1l.15,0,.28.1.38.15.19.08.07,0,1.8.64,1.78.63,3.5,1.23L156.3,23l1.75.61a4.13,4.13,0,0,1,.66.29l.11.07.11.07.11.08.21.19.09.11a1.48,1.48,0,0,1,.22.38A1.85,1.85,0,0,1,159.65,25.77Z"/><path class="cls-21" d="M181.81,48.23,176.11,46l0-.28L176,33.63l0-.54-.11-.28,0,0a73.41,73.41,0,0,0-6.68-7.2c-7.27-6.78-9.9-8.72-11.24-9.68-.66-.48-1.22-.86-1.59-1.11-6.52-1.06-12.4-1.8-17.47-2.34-8-.84-14.51-1.2-18.29-1.37-7.2-.32-12.29-.29-16.36-.26-9.05.07-12.09.44-15,1a63.58,63.58,0,0,0-9,2.6c-.6.22-1.09.4-1.45.54l1.15.09c.57-.06.73,0,.72.11-.28,1.33-12.18,6.34-27.73,14.89a21.56,21.56,0,0,1-2.66,1.16l-1.77-.83-.05-.27L35.79,31.64C21.6,34.54,11.47,37.81,9,39.58c-1.48,1.05-3,2.1-3.23,3.6a12.19,12.19,0,0,1-.81,2.64,3.6,3.6,0,0,1-.49.81,10.59,10.59,0,0,1-3.52,2.6c-.36.18-.67.32-.89.41v.52c.2,2.53,1.12,11.41,5.9,13.24a21.35,21.35,0,0,0,4.19.82,50.2,50.2,0,0,0,7,.48V63.8a21.88,21.88,0,0,1,1.63-8.38,15.77,15.77,0,0,1,4.67-6.9,15,15,0,0,1,8.61-3.12,16.92,16.92,0,0,1,8,1.34,16.61,16.61,0,0,1,7.34,6.6,21.76,21.76,0,0,1,2.82,9.74,28.81,28.81,0,0,1,.15,3.05H136a18.37,18.37,0,0,1,1.15-8.31,18.17,18.17,0,0,1,5.6-7.64,16.54,16.54,0,0,1,10.91-3.78A16,16,0,0,1,168.76,64a15.52,15.52,0,0,0,6.86-1.67c4.13-2.1,6.16-5.42,6.38-6.27C183.14,51.59,182,49.49,181.81,48.23ZM99.93,32.13l-.3.3-3.66.2L57.31,33.79l-2.81,0a10.59,10.59,0,0,1,.81-.94,12.39,12.39,0,0,1,1.29-1.13A114.47,114.47,0,0,1,79,18.38a62.06,62.06,0,0,1,9.27-3.09c1.95-.47,3.55-.76,4.53-.91a57.8,57.8,0,0,1,11.08-.69ZM137.6,30.5l-1.3.13-2.68.26H133l-.29,0-1.8.1-.58,0-.62,0-.65,0-1,.06-.71,0-1.46.08-1.47.08-.72,0-.36,0-.7,0-1,.06-.63,0-2.1.12-.39,0-.84,0-10.53.52,1.48-18,0-.44h.71l23.59,1.47.89.07,3.78,5.24Zm22.05-4.73a1.63,1.63,0,0,1-.16.47,1.14,1.14,0,0,1-.3.36l-.09.06a1.07,1.07,0,0,1-.25.11l-.13,0h-.09L157,27l-3.66.48-.74.1-1,.14-1.1.16L150,28l-.39.07-.33.06-.14,0-.24.05-.26.07-.1,0-.32.09-.2,0h-.32a1.12,1.12,0,0,1-.32-.07.89.89,0,0,1-.2-.1l-.07-.06-.06-.06,0-.06,0,0-.29-.43-.56-.87-.34-.54-.36-.59-1-1.64-.4-.69c-.67-1.16-1.33-2.33-1.82-3.3-.2-.39-.37-.74-.51-1a.36.36,0,0,1,0-.3l0,0,.07-.08.07-.07,0,0,.06,0,0,0h0a1.08,1.08,0,0,1,.93-.1l.15,0,.28.1.38.15.19.08.07,0,1.8.64,1.78.63,3.5,1.23L156.3,23l1.75.61a4.13,4.13,0,0,1,.66.29l.11.07.11.07.11.08.21.19.09.11a1.48,1.48,0,0,1,.22.38A1.85,1.85,0,0,1,159.65,25.77Z"/><circle class="cls-22" cx="34.07" cy="61.84" r="13.81"/><circle class="cls-23" cx="34.07" cy="61.84" r="8.3"/><circle class="cls-24" cx="34.07" cy="61.84" r="4.94"/><path class="cls-25" d="M34.07,52.08a9.77,9.77,0,1,0,9.77,9.77A9.77,9.77,0,0,0,34.07,52.08ZM26.59,62.69c0-.11-.07-.29-.1-.51a7,7,0,0,1,1.65-5.07l.38-.36,3,3.15-.65,2Zm6,6.53c-.11,0-.3,0-.52-.07A7,7,0,0,1,27.74,66l-.22-.47,3.92-1.87,1.69,1.23ZM33,58.81,31,55c.1-.06.26-.15.46-.25a7,7,0,0,1,5.33,0l.46.25-2.08,3.82ZM40.4,66a7,7,0,0,1-4.31,3.13l-.52.07L35,64.91l1.69-1.23,3.92,1.87C40.58,65.66,40.51,65.83,40.4,66ZM37.28,61.9l-.65-2,3-3.15c.09.08.22.2.38.36a7,7,0,0,1,1.65,5.07l-.1.51Z"/><circle class="cls-26" cx="32.88" cy="60.13" r="0.54"/><circle class="cls-26" cx="32.08" cy="62.45" r="0.54" transform="translate(-37.23 73.66) rotate(-72)"/><circle class="cls-26" cx="34.03" cy="63.93" r="0.54" transform="translate(-37.69 53.88) rotate(-54)"/><circle class="cls-26" cx="36.04" cy="62.52" r="0.54" transform="translate(-29.87 33.13) rotate(-36)"/><circle class="cls-26" cx="35.33" cy="60.18" r="0.54" transform="translate(-16.87 13.86) rotate(-18)"/><circle class="cls-22" cx="152.38" cy="61.84" r="13.81"/><circle class="cls-23" cx="152.38" cy="61.84" r="8.3"/><circle class="cls-24" cx="152.38" cy="61.84" r="4.94"/><path class="cls-25" d="M152.38,52.08a9.77,9.77,0,1,0,9.77,9.77A9.77,9.77,0,0,0,152.38,52.08ZM144.9,62.69c0-.11-.07-.29-.1-.51a7,7,0,0,1,1.65-5.07l.38-.36,3,3.15-.65,2Zm6,6.53c-.11,0-.3,0-.52-.07A7,7,0,0,1,146,66l-.22-.47,3.92-1.87,1.69,1.23Zm.46-10.42L149.26,55c.1-.06.26-.15.46-.25a7,7,0,0,1,5.33,0l.46.25-2.08,3.82ZM158.71,66a7,7,0,0,1-4.31,3.13l-.52.07-.57-4.31L155,63.68l3.92,1.87C158.89,65.66,158.82,65.83,158.71,66Zm-3.12-4.13-.65-2,3-3.15c.09.08.22.2.38.36A7,7,0,0,1,160,62.18l-.1.51Z"/><circle class="cls-26" cx="151.19" cy="60.13" r="0.54"/><circle class="cls-26" cx="150.39" cy="62.45" r="0.54" transform="translate(44.52 186.18) rotate(-72)"/><circle class="cls-26" cx="152.34" cy="63.93" r="0.54" transform="translate(11.08 149.6) rotate(-54)"/><circle class="cls-26" cx="154.35" cy="62.52" r="0.54" transform="translate(-7.27 102.67) rotate(-36)"/><circle class="cls-26" cx="153.64" cy="60.18" r="0.54" transform="translate(-11.08 50.42) rotate(-18)"/></g></g></g></svg>