<svg xmlns="http://www.w3.org/2000/svg" xmlns:xlink="http://www.w3.org/1999/xlink" viewBox="0 0 189.92 59.72"><defs><style>.cls-1{fill:#606161;opacity:0.41;}.cls-2{fill:#727373;}.cls-3{fill:#cacacb;}.cls-4,.cls-6{fill:#a5a4a9;}.cls-5{fill:#161616;}.cls-6{opacity:0.1;}.cls-7{fill:#f0efef;}.cls-8{fill:#d8d8d8;}.cls-9{fill:#a11c32;}.cls-10{fill:#3d3d3d;}.cls-11,.cls-13,.cls-19,.cls-22,.cls-23,.cls-29{fill:none;}.cls-11{stroke:#89888c;}.cls-11,.cls-13,.cls-19,.cls-22,.cls-23{stroke-miterlimit:10;}.cls-12{fill:#3a3a3a;}.cls-13{stroke:#8e1831;}.cls-14{fill:#e0e0e0;}.cls-15{fill:#565555;}.cls-16{fill:#4f4f4f;}.cls-17{fill:#6b6b6b;}.cls-18{fill:#434343;}.cls-19{stroke:#565555;stroke-width:0.25px;}.cls-20{fill:#ec8323;}.cls-21{fill:#89888c;}.cls-22{stroke:#2d2d2d;}.cls-23{stroke:#cfcfce;}.cls-24{fill:#bcbbbf;}.cls-25{opacity:0.54;fill:url(#radial-gradient);}.cls-26{fill:#565656;}.cls-27{fill:#cfcfce;}.cls-28{fill:#f1efef;}</style><radialGradient id="radial-gradient" cx="183.18" cy="39.44" r="5.17" gradientUnits="userSpaceOnUse"><stop offset="0" stop-color="#605f61"/><stop offset="1" stop-color="#a4a3a9"/></radialGradient></defs><title>honda</title><g id="Layer_2" data-name="Layer 2"><g id="Layer_2-2" data-name="Layer 2"><g id="civic"><path class="cls-1" d="M98.51,17c-.87-1.11-.14-2.13.27-6.08A2.11,2.11,0,0,1,99,9.76c.73-1,3-.92,4.14,0,2.1,1.65,1.72,6.83-.87,8A3.41,3.41,0,0,1,98.51,17Z"/><path class="cls-1" d="M133.09,15.23c-.73-.93-.12-1.78.22-5.08a1.77,1.77,0,0,1,.22-1c.61-.8,2.48-.77,3.46,0,1.76,1.38,1.44,5.71-.73,6.7A2.85,2.85,0,0,1,133.09,15.23Z"/><ellipse class="cls-1" cx="73.59" cy="17.17" rx="1.1" ry="4.31" transform="translate(-1.62 24.54) rotate(-18.73)"/><path class="cls-2" d="M167,24.53a45,45,0,0,0-10.27-3.95c-16.1-3.87-28.07,2.24-46.92,5.69-11.16,2-26.71,4.88-45.81,1.9-9.25-1.45-19.12-4.22-32.54-1.42C21.64,28.79,18,32.16,16,35.11,12.16,40.85,11.87,49.25,13.62,50l14.06-.47c2.68,1.08,4.2.91,27.17.79,25.91-.14,51.81-.66,77.72-.79C146.37,49.42,160,46,173.81,46c4.58,0,9.57.16,10.74-2.37C186.51,39.41,176.83,29.72,167,24.53Z"/><path class="cls-3" d="M182.42,18.88c-.75,1.53.27,3.46.74,4.35a9.82,9.82,0,0,0,3.39,3.61c0-.17.06-.31.07-.43.2-1.39.06-2.76-1.42-7.82a2.3,2.3,0,0,1-.33-1.1c0-.39.23-.54.48-1a5.44,5.44,0,0,0-2.09,1.27A4.25,4.25,0,0,0,182.42,18.88Z"/><path class="cls-4" d="M189.13,31.32a4.42,4.42,0,0,0-1.42-2.84,3.39,3.39,0,0,0-1.42-.63,9,9,0,0,0,.26-1,9.82,9.82,0,0,1-3.39-3.61c-.47-.89-1.49-2.81-.74-4.35a4.25,4.25,0,0,1,.84-1.09,5.44,5.44,0,0,1,2.09-1.27,4.24,4.24,0,0,0,.22-.46c.2-.49.39-1,.18-1.34a1,1,0,0,0-.49-.39c-.36-.15-.64-.07-1.64.14a7.47,7.47,0,0,1-1.46.24,4.62,4.62,0,0,1-1-.1,23.54,23.54,0,0,1-2.92-.67c-1.66-.55-3.34-.73-7.5-1.78-1.71-.43-3.27-.86-4.76-1.3h0l-1.64-.28-2-.53-2.49-.68-6.43-1.73-6-1.67L142,4.46l.75-.26,1.06-.36h0c-1.19-.4-1.22-.54-1.64-.55a.61.61,0,0,1-.45-.16c-.11-.13-.13-.35,0-.75.26-1,.77-1.33.63-1.6s-.46-.18-.63-.18c-2.12.06-3.18.1-3.63.18a11.33,11.33,0,0,0-2.55.63,3.45,3.45,0,0,1-.69.24,3.55,3.55,0,0,1-1,.08c-1.71-.1-5-.63-5-.63L127.32.87a52.93,52.93,0,0,0-6.54-.51C112.53.1,113.21,0,109.93,0c-1.21,0-5,0-10,.28-2.77.15-5.61.31-9.36.75A57.27,57.27,0,0,0,81,2.63c-.8.22-1.52.45-2.26.71l1.06.25,1.24.29.31.09-.24.1.24.07c-1,.41-2.36,1-3.89,1.64C76.83,6.08,74.77,7,72,8.43c-1.42.74-3.66,1.9-6.44,3.6-2,1.24-4.11,2.44-6.13,3.7a16.65,16.65,0,0,1-1.88,1,13.75,13.75,0,0,1-1.76.7,13.2,13.2,0,0,1-3.24.55c-.45,0-.87,0-1.23,0A14.78,14.78,0,0,1,49.64,18l-.76-.1-.07,0-1.22.77-1.11.08c-.38,0-3.73.28-7.15.63-3.06.32-6.26.65-10.49,1.34-3.56.58-5.92,1.11-10.52,2.13a46.81,46.81,0,0,0-6.89,1.88,30.86,30.86,0,0,0-5.67,2.74,27.34,27.34,0,0,0-4.3,3.38q0,.56.08,1.15a23.56,23.56,0,0,0,.53,3.24c-.22.13-.53.33-.89.59a3.31,3.31,0,0,0-.77.67A2.13,2.13,0,0,0,0,37.64c-.07.91,0,5.13.12,10.9a1.34,1.34,0,0,0,.16.57A1.47,1.47,0,0,0,1,49.7a18.76,18.76,0,0,0,5.79,1.52c4.88.43,6,.49,7.54.51.95,0,1.73,0,2.27,0h.08c0-.32-.06-.78-.08-1.33A24.89,24.89,0,0,1,17,43.17a16.29,16.29,0,0,1,3-6,16.88,16.88,0,0,1,5.39-4.38,18.09,18.09,0,0,1,10.11-1.86,17.48,17.48,0,0,1,12,7,17.8,17.8,0,0,1,2.69,5.86,24.58,24.58,0,0,1,.89,6.1c0,.64,0,1.18,0,1.56l.67.63,81.49-.53.18-2.49c0-.49,0-1.19,0-2a19.59,19.59,0,0,1,1.6-7.39,15.21,15.21,0,0,1,3.63-5.17,15.8,15.8,0,0,1,8.77-3.83,16.59,16.59,0,0,1,14.85,5.09c.76.81,3.69,3.95,4,7.39,0,.27.12,1.55.32,4.11l.12,1.58a74.64,74.64,0,0,0,16.9-2.65c1.8-.5,3.5-1,5.12-1.62l.09-.11a27.7,27.7,0,0,0,1-7.27A26.4,26.4,0,0,0,189.13,31.32ZM99.52,17.95l-6.08.34L76.18,19.43l-7.86.47V13.07a65.81,65.81,0,0,1,6.36-3.59,53.32,53.32,0,0,1,10-3.95,58.18,58.18,0,0,1,12.8-1.82c2.54-.16,4.67-.17,6.2-.16Zm36.37-1.87-5.69.32-17.65.95-4.9.36,1.66-14.14c4.2.23,8.06.54,11.53.87a55.15,55.15,0,0,1,12.8,2.33l.71.24,1.94,3.48.2.32Zm15.34-2.73c-.4.15-1,.36-1.68.57a32.15,32.15,0,0,1-3.83.83c-.78.14-1.81.3-3,.47l-4.78-7.44,4.27,1.17,7.21,2.71,2,1.48.22.1Z"/><path class="cls-4" d="M77.49,5.78C79,5.1,80.34,4.55,81.37,4.14l-.24-.07c-1,.4-2.25.92-3.67,1.56-.66.3-2.73,1.24-5.5,2.68-1.43.75-3.68,1.93-6.48,3.64-2.05,1.26-4.13,2.47-6.17,3.75a16.72,16.72,0,0,1-1.89,1,13.78,13.78,0,0,1-1.77.7,13.2,13.2,0,0,1-3.26.55c-.38,0-.74,0-1.06,0,.37,0,.78,0,1.23,0a13.2,13.2,0,0,0,3.24-.55,13.75,13.75,0,0,0,1.76-.7,16.65,16.65,0,0,0,1.88-1c2-1.27,4.09-2.46,6.13-3.7,2.78-1.69,5-2.86,6.44-3.6C74.77,7,76.83,6.08,77.49,5.78Z"/><circle class="cls-5" cx="33.34" cy="45.98" r="13.73"/><path class="cls-6" d="M77.46,5.63C79,4.94,80.33,4.39,81.37,4l-.31-.09-1.24-.29-1.26-.29L72.78,5.55l-5,2.27-5.14,2.56-8,4.16L51.93,16l-2.24,1.28-.86.6.81.11a15.59,15.59,0,0,0,2.76,0,13.2,13.2,0,0,0,3.26-.55,13.78,13.78,0,0,0,1.77-.7,16.72,16.72,0,0,0,1.89-1c2-1.28,4.12-2.49,6.17-3.75,2.8-1.71,5-2.89,6.48-3.64C74.73,6.87,76.8,5.93,77.46,5.63Z"/><path class="cls-6" d="M97.47,3.71a58.18,58.18,0,0,0-12.8,1.82,53.32,53.32,0,0,0-10,3.95,65.81,65.81,0,0,0-6.36,3.59V19.9l7.86-.47,17.26-1.15,6.08-.34,4.15-14.39C102.14,3.54,100,3.56,97.47,3.71Z"/><path class="cls-6" d="M136.29,10.47,134.35,7l-.71-.24a55.15,55.15,0,0,0-12.8-2.33c-3.47-.33-7.33-.64-11.53-.87l-1.66,14.14,4.9-.36,17.65-.95,5.69-.32.59-5.29Z"/><path class="cls-6" d="M149.4,11.65l-7.21-2.71-4.27-1.17,4.78,7.44c1.21-.17,2.24-.34,3-.47a32.15,32.15,0,0,0,3.83-.83c.71-.21,1.28-.42,1.68-.57l.34-.12-.22-.1Z"/><polygon class="cls-6" points="154.31 7.03 149.65 5.57 143.85 3.85 142.79 4.21 142.04 4.46 147.38 5.95 153.38 7.62 159.81 9.35 162.29 10.03 164.33 10.56 165.96 10.85 154.31 7.03"/><path class="cls-7" d="M1.51,33.34l-.3-2.8,2.5-1.7c.6-.09,1.48-.22,2.54-.4,3.15-.54,5-1,6.61-1.37a43.56,43.56,0,0,1,7.31-.87c.32-.05.41,0,.42,0a6,6,0,0,1-2.07.92,4.43,4.43,0,0,1-1.52.2c-1.08,0-4.29.64-12.05,2.62Z"/><path class="cls-8" d="M5.51,33.29A3.47,3.47,0,0,1,5.75,31a3.54,3.54,0,0,1,.9-1.1c.57-.48,1.12-.67,3.11-1.14,1.51-.35,2.65-.64,3.36-.78a19,19,0,0,1,3-.56,13.78,13.78,0,0,1-.77,1.33,10,10,0,0,1-3.21,2.54c-.39.22-1.62.7-4.06,1.65a12.3,12.3,0,0,1-2.27.67l-.18,0Z"/><path class="cls-9" d="M186.76,27a3.42,3.42,0,0,0-.41-.67,4,4,0,0,0-1.24-1,4,4,0,0,0-.77-.34A10.5,10.5,0,0,0,186.76,27Z"/><path class="cls-9" d="M182.42,18.88a2.53,2.53,0,0,0-.18.51l3.1-2.83,0,0a5.44,5.44,0,0,0-2.1,1.28A4.25,4.25,0,0,0,182.42,18.88Z"/><path class="cls-10" d="M184.94,25.19l.72.45-.09-.43a17.36,17.36,0,0,0-1.63-5.31c-.22-.44-.8-.76-1.09-1.07l-.62.56c-.35,1.43.5,3,.92,3.83a9.12,9.12,0,0,0,1.19,1.72l.41.15Z"/><path class="cls-10" d="M182.24,19.39l-1.47,1.34.36.62.25.47.22.44.2.43.17.4.18.35.27.37.26.26.38.3.47.27.36.15.43.14,0,0a9.12,9.12,0,0,1-1.19-1.72C182.74,22.43,181.88,20.82,182.24,19.39Z"/><polyline class="cls-11" points="175.68 24.74 172.53 26.84 163.5 32.42 160.56 34.16"/><path class="cls-9" d="M184.35,24.95a4.14,4.14,0,0,1-1.29-.57,3,3,0,0,1-.79-.74,2.8,2.8,0,0,1-.35-.66,15.81,15.81,0,0,0-1.15-2.24l1.47-1.34a2.53,2.53,0,0,1,.18-.51,4.25,4.25,0,0,1,.84-1.09,5.44,5.44,0,0,1,2.1-1.28l.3-.66a5.1,5.1,0,0,0-1.36-.64,7.48,7.48,0,0,0-2.18-.33c-1,0-2.16.42-6.2,2l-3.39,1.5-2.33,1.11-.16.16V20c1.7,1.61,3.11,2.93,4.16,3.95a8.26,8.26,0,0,0,2.2,1.61,8,8,0,0,0,1.25.49c2.29.69,8.15,1.8,8.67,1.9l.76.16a3.76,3.76,0,0,0-.32-1.1A10.5,10.5,0,0,1,184.35,24.95Z"/><polygon class="cls-12" points="99.52 17.95 107.66 17.69 109.31 3.56 103.67 3.56 99.52 17.95"/><polygon class="cls-12" points="134.35 6.99 137.93 7.78 142.71 15.22 140.77 15.53 137.93 15.88 135.89 16.07 136.49 10.78 134.35 6.99"/><polygon class="cls-12" points="68.32 13.07 58.64 20.22 68.32 19.91 68.32 13.07"/><polygon class="cls-12" points="68.32 19.91 99.52 17.95 99.74 17.17 68.32 19.15 68.32 19.91"/><path class="cls-12" d="M107.66,17.69,118.43,17l6.41-.34,3.86-.21,4.81-.26,2.39-.13,2.64-.27,3-.39-.35-.89-4.69.92-3.68.13c-4,.16-9.56.38-16.4.83-1.76.12-4.19.29-7.11.53l-1.59.1Z"/><path class="cls-13" d="M187.08,28.07l-.1-.49-.14-.42-.31-.6-.45-.56-.63-.5-.7-.41-.36-.1-.7-.28-.64-.35-.79-.74-.67-1.37L180.92,21l-.13-.68-.43-.6c-.82-1.14-1.75-2.41-2.56-3.55"/><path class="cls-11" d="M171.72,12.47l2,1.2a9.36,9.36,0,0,1,2,.85,9.84,9.84,0,0,1,2.07,1.66"/><path class="cls-14" d="M142.71,15.22l7.6-1.12,3.87-.67a3,3,0,0,0,1.1-.2c.09,0,.82-.36.83-.67,0-.66-3.18-1.29-3.77-1.4-4.33-.86-8.5-2.34-12.76-3.51C133.91,6.1,133.62,6,129.8,5a67.79,67.79,0,0,0-11.07-1.6A129,129,0,0,0,101.4,3,73.71,73.71,0,0,0,90,3.91,57.07,57.07,0,0,0,79.66,6.66a60.33,60.33,0,0,0-8.82,4.26,22.09,22.09,0,0,0-2,1.41l-.78.9h0l2.4-1.5,3.4-1.86,2.74-1.34L79.8,7.16l3.72-1.3L87,5l3.8-.67,3.36-.35L99,3.63l4.64-.08h5.65l8.3.58,5.18.49,4.47.59,4.05.85,1.54.45,2.13.62,1.6.35L138,7.8l3,.81,3.3,1.11,2.4.9,2.42.91.83.5,1.66,1.19-.56.2-1.55.52-1.15.3-1.11.23Z"/><polygon class="cls-15" points="3.84 43.42 5.42 47.63 9.69 47.63 10.83 46.91 10.83 45.03 9.86 42.49 8.02 40.85 5.42 41.02 3.51 42.39 3.84 43.42"/><path class="cls-16" d="M3.86,43.17A4.17,4.17,0,0,1,8.15,42c1.85.7,2.37,3,2.53,3.69a6.16,6.16,0,0,1,.15,1.23l.39-.41,1.37-1.34A17.42,17.42,0,0,0,10,40.59l-.3-.37L9.19,40a17.41,17.41,0,0,0-1.84.1,11.77,11.77,0,0,0-3.67,1c-.77.35-1.21.67-1.27,1.07,0,.16,0,.58,0,.87s0,.33,0,.43H3.84Z"/><ellipse class="cls-17" cx="8.08" cy="44.78" rx="1.32" ry="1.73"/><ellipse class="cls-8" cx="7.76" cy="44.78" rx="1.13" ry="1.73"/><path class="cls-18" d="M5.8,42.64a1.43,1.43,0,0,0-.61.08,1.81,1.81,0,0,0-.73.45,3.16,3.16,0,0,0-.28.27l1.38,3.64h.88l-.51-4.43Z"/><line class="cls-19" x1="5.44" y1="42.66" x2="4.32" y2="43.78"/><line class="cls-19" x1="6.01" y1="43.34" x2="4.66" y2="44.69"/><line class="cls-19" x1="6.12" y1="44.32" x2="4.95" y2="45.49"/><line class="cls-19" x1="6.34" y1="46.17" x2="5.52" y2="46.99"/><line class="cls-19" x1="4.58" y1="43.07" x2="6.15" y2="44.64"/><line class="cls-19" x1="4.38" y1="43.97" x2="6.29" y2="45.88"/><line class="cls-19" x1="5.03" y1="45.68" x2="6.43" y2="47.09"/><line class="cls-19" x1="5.34" y1="46.56" x2="5.83" y2="47.06"/><line class="cls-19" x1="5.39" y1="42.67" x2="5.99" y2="43.27"/><line class="cls-19" x1="6.22" y1="45.13" x2="5.21" y2="46.13"/><polygon class="cls-20" points="24.77 33.11 23.01 34.31 18.55 34.31 17.23 32.98 24.77 33.11"/><polyline class="cls-11" points="14.14 29.91 18.55 34.31 23.01 34.31"/><line class="cls-11" x1="17.23" y1="32.98" x2="24.77" y2="33.11"/><path class="cls-21" d="M61.53,16.06A2.24,2.24,0,0,1,63,15.18c4.37-.31,6.17-.51,6.81-.65a1.19,1.19,0,0,1,.4,0c.78.09,1.32.95,1.65,1.65v2.33a3.25,3.25,0,0,1-.5.93,3,3,0,0,1-1.25,1,2.94,2.94,0,0,1-1.68.15l-6.31.2a1.32,1.32,0,0,1-.45-.13,1.65,1.65,0,0,1-.6-.58,3.34,3.34,0,0,1,.08-2.6Z"/><polyline class="cls-22" points="104.04 17.81 105.19 11.73 106.26 5.29 106.52 3.56"/><path class="cls-11" d="M104,17.81a39.17,39.17,0,0,0-1.42,5.35,41.44,41.44,0,0,0-.63,7.78,48.12,48.12,0,0,0,.27,7.45,60.52,60.52,0,0,1,.9,8.95c0,.28,0,.52,0,.67l-32.22.77L56.32,49a1.85,1.85,0,0,1-1.25-.75,1.68,1.68,0,0,1-.27-.71c-2-8.14-2.44-14.6-2.1-17.7a26.85,26.85,0,0,1,1.24-5.54,22.23,22.23,0,0,1,1.14-2.6,20.6,20.6,0,0,1,1.67-1.75,21.28,21.28,0,0,1,3.44-2.59c4.8-3,4.86-3.51,9.48-6.18,1.53-.88,3.13-1.81,5.41-2.91a53.1,53.1,0,0,1,8.31-3.34,52,52,0,0,1,8.08-1.57,109,109,0,0,1,13.82-.9h1.44l-.12.47"/><polyline class="cls-23" points="106.52 3.56 106.56 3.29 106.61 2.89"/><path class="cls-11" d="M103.15,48l9.62-.27c2.23,0,4.08,0,5.41,0,4.39-.09,5.45-.34,6.31-.65a12.08,12.08,0,0,0,4.11-2.65c3.23-2.88,5.06-5.44,9.52-11.57A72.84,72.84,0,0,0,142.87,26a40.64,40.64,0,0,0,2.92-6.48l-1.7-2.14L136.81,6.26l-4-.75c-4.81-.94-8.23-1.7-9-1.85-3.16-.68-8.08-1.4-16.64-1.24h-.52"/><ellipse class="cls-21" cx="95.14" cy="24.66" rx="3.09" ry="2.6" transform="translate(-1.28 5.61) rotate(-3.35)"/><path class="cls-24" d="M89,24.07l12.42-.78a1.08,1.08,0,0,1,0,.48c-.05.22-.23.61-1.15,1a7.35,7.35,0,0,1-3.09.58l-5.38.37H90.28l-.38-.32a7,7,0,0,1-1.09-1.22Z"/><ellipse class="cls-21" cx="137.93" cy="20.85" rx="3.09" ry="2.6" transform="translate(-0.98 8.1) rotate(-3.35)"/><path class="cls-24" d="M131.8,20.27l12.42-.78a1.08,1.08,0,0,1,0,.48c-.05.22-.23.61-1.15,1a7.35,7.35,0,0,1-3.09.58l-5.38.37h-1.54l-.38-.32a7,7,0,0,1-1.09-1.22Z"/><path class="cls-25" d="M176.69,41.2c.34-.65.78-1.46,1.3-2.4a3.75,3.75,0,0,1,1.15-1.5,2.93,2.93,0,0,1,1.5-.45c1.35-.09,3.62-.3,6.56-.55a2.38,2.38,0,0,1,.8.28,2.57,2.57,0,0,1,1.1,1.35,15,15,0,0,1-.72,4.54l-.25.38a10.06,10.06,0,0,1-1,.4,12.21,12.21,0,0,1-3.22.6c-.88.08-2,.15-3.36.14l-3.92-2.54Z"/><path class="cls-16" d="M178.51,42.47c1.3,0,2.41-.12,3.31-.2,2.11-.19,1.9-.28,3.19-.38a1.48,1.48,0,0,0,.3-.05c.78-.22,1.17-1.06,1.45-1.67l1.44-3.07-.75-.75-1.07,0-3.47.3-2.39.18-.48.07-.7.27-.67.55-.37.54-1.6,2.92v.25l1.57,1Z"/><path class="cls-10" d="M179.94,37.32a1.87,1.87,0,0,0-.33.08l-.42,3.8.55,0a18.77,18.77,0,0,0,3.23-.3,3,3,0,0,0,1.18-.35c.78-.51,1.07-1.51,1.45-2.7.08-.25.15-.49.2-.73C182.82,37.14,180.6,37.22,179.94,37.32Z"/><path class="cls-9" d="M179.16,37.7a1,1,0,0,0-.2.55c-.06.61-.16,1.63-.28,2.93l.5,0,.42-3.8A1,1,0,0,0,179.16,37.7Z"/><path class="cls-26" d="M178.62,39l3.84-.28c1.42-.11,2.43-.19,3.91-.27l1.49-.07a.36.36,0,0,1,.3.09c.11.15,0,.43-.2.58a.73.73,0,0,1-.53.16l-4.65.38-3.17.19h-1Z"/><circle class="cls-2" cx="33.34" cy="45.98" r="9.87"/><circle class="cls-27" cx="33.34" cy="45.98" r="6.38"/><path class="cls-28" d="M33.34,36.11A9.87,9.87,0,1,0,43.21,46,9.87,9.87,0,0,0,33.34,36.11Zm0,19.05A9.18,9.18,0,1,1,42.52,46,9.18,9.18,0,0,1,33.34,55.16Z"/><polygon class="cls-26" points="32.68 43.87 32.34 36.59 32.84 36.59 32.97 43.66 32.68 43.87"/><polygon class="cls-26" points="30.95 45.95 23.92 44.02 24.08 43.55 30.85 45.61 30.95 45.95"/><polygon class="cls-26" points="32.4 48.23 28.4 54.32 27.99 54.03 32.05 48.22 32.4 48.23"/><polygon class="cls-26" points="35.02 47.56 39.58 53.25 39.17 53.54 34.9 47.9 35.02 47.56"/><polygon class="cls-26" points="35.19 44.87 42.01 42.29 42.16 42.76 35.47 45.08 35.19 44.87"/><path class="cls-28" d="M38.19,38.2a8.06,8.06,0,0,0-1.95,2c-.68,1.21-.41,1.88-1.17,2.74s-2.13,1.65-2.47,1.34.23-.74.6-2.14c.54-2,.08-2.86.83-4.41a5.83,5.83,0,0,1,.7-1.1Z"/><path class="cls-28" d="M27.27,39a8.06,8.06,0,0,0,1.26,2.45c.94,1,1.66,1,2.24,2s.91,2.54.51,2.76-.64-.45-1.85-1.23c-1.75-1.13-2.69-1-3.93-2.16a5.83,5.83,0,0,1-.83-1Z"/><path class="cls-28" d="M24.62,49.57a8.06,8.06,0,0,0,2.72-.44c1.26-.58,1.44-1.28,2.55-1.53s2.69-.08,2.78.37-.62.47-1.74,1.38c-1.62,1.31-1.74,2.27-3.27,3.08a5.83,5.83,0,0,1-1.22.48Z"/><path class="cls-28" d="M33.89,55.38a8.06,8.06,0,0,0,.43-2.72c-.16-1.38-.77-1.76-.66-2.9s.76-2.58,1.21-2.53.25.74.77,2.08c.75,1.94,1.62,2.36,1.92,4.06a5.83,5.83,0,0,1,.08,1.3Z"/><path class="cls-28" d="M42.28,48.35a8.06,8.06,0,0,0-2.46-1.25c-1.36-.28-1.92.19-3-.27s-2.22-1.52-2-1.94.78,0,2.22-.09c2.08-.11,2.74-.81,4.45-.57a5.83,5.83,0,0,1,1.26.33Z"/><line class="cls-29" x1="33.34" y1="41.23" x2="33.34" y2="50.74"/><circle class="cls-26" cx="33.34" cy="45.98" r="2.52"/><circle class="cls-5" cx="150.22" cy="45.98" r="13.73"/><circle class="cls-2" cx="150.22" cy="45.98" r="9.87"/><circle class="cls-27" cx="150.22" cy="45.98" r="6.38"/><path class="cls-28" d="M150.22,36.11A9.87,9.87,0,1,0,160.09,46,9.87,9.87,0,0,0,150.22,36.11Zm0,19.05A9.18,9.18,0,1,1,159.4,46,9.18,9.18,0,0,1,150.22,55.16Z"/><polygon class="cls-26" points="149.56 43.87 149.22 36.59 149.72 36.59 149.85 43.66 149.56 43.87"/><polygon class="cls-26" points="147.83 45.95 140.8 44.02 140.96 43.55 147.73 45.61 147.83 45.95"/><polygon class="cls-26" points="149.28 48.23 145.28 54.32 144.87 54.03 148.93 48.22 149.28 48.23"/><polygon class="cls-26" points="151.9 47.56 156.46 53.25 156.05 53.54 151.78 47.9 151.9 47.56"/><polygon class="cls-26" points="152.07 44.87 158.89 42.29 159.04 42.76 152.35 45.08 152.07 44.87"/><path class="cls-28" d="M155.07,38.2a8.06,8.06,0,0,0-1.95,2c-.68,1.21-.41,1.88-1.17,2.74s-2.13,1.65-2.47,1.34.23-.74.6-2.14c.54-2,.08-2.86.83-4.41a5.83,5.83,0,0,1,.7-1.1Z"/><path class="cls-28" d="M144.15,39a8.06,8.06,0,0,0,1.26,2.45c.94,1,1.66,1,2.24,2s.91,2.54.51,2.76-.64-.45-1.85-1.23c-1.75-1.13-2.69-1-3.93-2.16a5.83,5.83,0,0,1-.83-1Z"/><path class="cls-28" d="M141.5,49.57a8.06,8.06,0,0,0,2.72-.44c1.26-.58,1.44-1.28,2.55-1.53s2.69-.08,2.78.37-.62.47-1.74,1.38c-1.62,1.31-1.74,2.27-3.27,3.08a5.83,5.83,0,0,1-1.22.48Z"/><path class="cls-28" d="M150.77,55.38a8.06,8.06,0,0,0,.43-2.72c-.16-1.38-.77-1.76-.66-2.9s.76-2.58,1.21-2.53.25.74.77,2.08c.75,1.94,1.62,2.36,1.92,4.06a5.83,5.83,0,0,1,.08,1.3Z"/><path class="cls-28" d="M159.16,48.35a8.06,8.06,0,0,0-2.46-1.25c-1.36-.28-1.92.19-3-.27s-2.22-1.52-2-1.94.78,0,2.22-.09c2.08-.11,2.74-.81,4.45-.57a5.83,5.83,0,0,1,1.26.33Z"/><line class="cls-29" x1="150.22" y1="41.23" x2="150.22" y2="50.74"/><circle class="cls-26" cx="150.22" cy="45.98" r="2.52"/></g></g></g></svg>