<?xml version="1.0" encoding="utf-8"?>
<!-- Generator: Adobe Illustrator 22.0.1, SVG Export Plug-In . SVG Version: 6.00 Build 0)  -->
<svg version="1.1" id="Layer_1" xmlns="http://www.w3.org/2000/svg" xmlns:xlink="http://www.w3.org/1999/xlink" x="0px" y="0px"
	 viewBox="0 0 415.4 223.9" style="enable-background:new 0 0 415.4 223.9;" xml:space="preserve">
<style type="text/css">
	.st0{fill:#CBCFD2;stroke:#BEC3C7;stroke-miterlimit:10;}
	.st1{fill:#ECF0F1;}
	.st2{fill:#662722;}
	.st3{fill:#79302A;}
	.st4{fill:none;stroke:#DCDBDB;stroke-width:0.5;stroke-miterlimit:10;}
	.st5{fill:#C7DBF3;}
	.st6{fill:url(#SVGID_1_);}
	.st7{fill:url(#SVGID_2_);}
	.st8{fill:url(#SVGID_3_);}
	.st9{fill:url(#SVGID_4_);}
	.st10{fill:none;stroke:#BFBFAF;stroke-width:0.25;stroke-miterlimit:10;}
	.st11{fill:#D4D4D4;}
	.st12{fill:none;}
	.st13{fill:#7E8C8D;}
	.st14{fill:url(#SVGID_5_);}
	.st15{fill:url(#SVGID_6_);}
	.st16{opacity:0.1;fill:#B1B4B5;}
</style>
<title>house1984</title>
<rect x="240.9" y="186.4" class="st0" width="44.9" height="6.4"/>
<rect x="240.9" y="179.2" class="st0" width="44.9" height="7.2"/>
<rect x="240.9" y="172" class="st0" width="44.9" height="7.2"/>
<rect x="240.9" y="164.8" class="st0" width="44.9" height="7.2"/>
<rect x="240.9" y="157.6" class="st0" width="44.9" height="7.2"/>
<rect x="240.9" y="150.4" class="st0" width="44.9" height="7.2"/>
<rect x="240.9" y="143.2" class="st0" width="44.9" height="7.2"/>
<rect x="240.9" y="136" class="st0" width="44.9" height="7.2"/>
<rect x="240.9" y="128.8" class="st0" width="44.9" height="7.2"/>
<polygon class="st1" points="248.8,145.6 240.9,145.6 240.9,141.1 285.7,141.1 285.7,145.6 274.8,145.6 274.8,192.9 248.8,192.9 "/>
<path class="st2" d="M414.7,121.2l-79-79h-267L52.3,81.1l-52,52H245l-4.1-11.8L414.7,121.2z M197,61.9h-26.1v-1.4H197V61.9z"/>
<rect x="170.9" y="60.4" class="st3" width="26.1" height="1.4"/>
<rect x="15.4" y="219.6" class="st0" width="221.4" height="3.8"/>
<polyline class="st2" points="166.2,33.1 220.9,33.1 207.6,0.1 83,0.1 40.3,33.1 166.2,33.1 "/>
<rect x="15.4" y="144.5" class="st0" width="221.4" height="7.5"/>
<rect x="15.4" y="152" class="st0" width="221.4" height="7.5"/>
<rect x="15.4" y="159.5" class="st0" width="221.4" height="7.5"/>
<rect x="15.4" y="167" class="st0" width="221.4" height="7.5"/>
<rect x="15.4" y="174.5" class="st0" width="221.4" height="7.5"/>
<rect x="15.4" y="182" class="st0" width="221.4" height="7.5"/>
<rect x="15.4" y="189.5" class="st0" width="221.4" height="7.5"/>
<rect x="15.4" y="197" class="st0" width="221.4" height="7.5"/>
<rect x="15.4" y="204.5" class="st0" width="221.4" height="7.5"/>
<rect x="15.4" y="212.1" class="st0" width="221.4" height="7.5"/>
<rect x="53.3" y="42.2" class="st0" width="158.4" height="6"/>
<rect x="53.3" y="48.3" class="st0" width="158.4" height="6"/>
<rect x="53.3" y="54.4" class="st0" width="158.4" height="6"/>
<polygon class="st0" points="197,60.4 211.8,60.4 211.8,66.5 53.3,66.5 53.3,60.4 170.9,60.4 "/>
<rect x="53.3" y="66.5" class="st0" width="158.4" height="6"/>
<rect x="53.3" y="72.6" class="st0" width="158.4" height="6"/>
<rect x="53.3" y="78.7" class="st0" width="158.4" height="6"/>
<rect x="47.8" y="159.5" class="st1" width="156.6" height="63.9"/>
<rect x="252.2" y="145.6" class="st3" width="19.6" height="47.3"/>
<rect x="236.8" y="144.5" class="st1" width="4.1" height="78.8"/>
<rect x="12.7" y="144.5" class="st1" width="2.8" height="78.8"/>
<polygon class="st1" points="40.3,37.7 40.3,33.1 220.9,33.1 220.9,37.7 218.7,37.7 218.7,42.2 41.6,42.2 41.6,37.7 "/>
<line class="st4" x1="41.6" y1="37.7" x2="218.7" y2="37.7"/>
<path class="st1" d="M92.9,48.2v30.3h25.4V48.2H92.9z M117.3,62H94v-1.3h23.3L117.3,62z"/>
<rect x="94" y="62" class="st5" width="23.3" height="15.4"/>
<rect x="94" y="49.5" class="st5" width="23.3" height="11.2"/>
<rect x="59.7" y="48.2" class="st3" width="7.8" height="30.3"/>
<rect x="118.3" y="48.2" class="st3" width="7.8" height="30.3"/>
<rect x="94" y="60.7" class="st1" width="23.3" height="1.3"/>
<path class="st1" d="M67.6,48.2v30.3h25.4V48.2H67.6z M91.9,62H68.6v-1.3h23.3V62z"/>
<rect x="68.6" y="62" class="st5" width="23.3" height="15.4"/>
<rect x="68.6" y="49.5" class="st5" width="23.3" height="11.2"/>
<rect x="68.6" y="60.7" class="st1" width="23.3" height="1.3"/>
<path class="st1" d="M172.4,48.2v30.3h25.4V48.2H172.4z M196.8,62h-23.3v-1.3h23.3V62z"/>
<rect x="173.5" y="62" class="st5" width="23.3" height="15.4"/>
<rect x="173.5" y="49.5" class="st5" width="23.3" height="11.2"/>
<rect x="139.2" y="48.2" class="st3" width="7.9" height="30.3"/>
<rect x="197.8" y="48.2" class="st3" width="7.9" height="30.3"/>
<rect x="173.5" y="60.7" class="st1" width="23.3" height="1.3"/>
<path class="st1" d="M147.1,48.2v30.3h25.4V48.2H147.1z M171.4,62h-23.3v-1.3h23.3L171.4,62z"/>
<rect x="148.1" y="62" class="st5" width="23.3" height="15.4"/>
<rect x="148.1" y="49.5" class="st5" width="23.3" height="11.2"/>
<rect x="148.1" y="60.7" class="st1" width="23.3" height="1.3"/>
<linearGradient id="SVGID_1_" gradientUnits="userSpaceOnUse" x1="126.78" y1="72.49" x2="126.78" y2="81.07" gradientTransform="matrix(1 0 0 -1 0 226)">
	<stop  offset="0" style="stop-color:#FFFFFF;stop-opacity:0"/>
	<stop  offset="1" style="stop-color:#000000;stop-opacity:0.4"/>
</linearGradient>
<rect x="12.7" y="144.5" class="st6" width="228.2" height="11.2"/>
<linearGradient id="SVGID_2_" gradientUnits="userSpaceOnUse" x1="132.53" y1="177.81" x2="132.53" y2="183.53" gradientTransform="matrix(1 0 0 -1 0 226)">
	<stop  offset="0" style="stop-color:#FFFFFF;stop-opacity:0"/>
	<stop  offset="1" style="stop-color:#000000;stop-opacity:0.4"/>
</linearGradient>
<rect x="53.3" y="42.2" class="st7" width="158.4" height="7.5"/>
<polygon class="st1" points="290.4,196 290.4,133.1 245,133.1 243.8,129.8 293.8,129.8 293.8,196 "/>
<linearGradient id="SVGID_3_" gradientUnits="userSpaceOnUse" x1="267.095" y1="93.39" x2="267.095" y2="95.95" gradientTransform="matrix(1 0 0 -1 0 226)">
	<stop  offset="0" style="stop-color:#FFFFFF;stop-opacity:0"/>
	<stop  offset="1" style="stop-color:#000000;stop-opacity:0.4"/>
</linearGradient>
<polygon class="st8" points="290.4,133.1 244.2,133.1 243.8,129.7 290.4,129.7 "/>
<polygon class="st0" points="290.4,195.9 285.7,192.9 285.7,186.4 290.4,189.5 "/>
<polygon class="st0" points="290.4,189.8 285.7,186.4 285.7,179.2 290.4,182.6 "/>
<polygon class="st0" points="290.4,182.6 285.7,179.2 285.7,172 290.4,175.4 "/>
<polygon class="st0" points="290.4,175.4 285.7,172 285.7,164.8 290.4,168.2 "/>
<polygon class="st0" points="290.4,168.2 285.7,164.8 285.7,157.6 290.4,161 "/>
<polygon class="st0" points="290.4,161 285.7,157.6 285.7,150.4 290.4,153.8 "/>
<polygon class="st0" points="290.4,153.8 285.7,150.4 285.7,143.2 290.4,146.6 "/>
<polygon class="st0" points="290.4,146.6 285.7,143.2 285.7,136 290.4,139.3 "/>
<polygon class="st0" points="290.4,139.3 285.7,136 285.7,133.1 290.4,133.1 "/>
<linearGradient id="SVGID_4_" gradientUnits="userSpaceOnUse" x1="265.635" y1="30.81" x2="265.635" y2="32.63" gradientTransform="matrix(1 0 0 -1 0 226)">
	<stop  offset="0" style="stop-color:#D8D9DA"/>
	<stop  offset="0.17" style="stop-color:#D1D2D4"/>
	<stop  offset="0.59" style="stop-color:#C4C6C8"/>
	<stop  offset="1" style="stop-color:#C0C2C4"/>
</linearGradient>
<polygon class="st9" points="240.9,192.9 285.7,192.9 290.4,195.9 240.9,195.9 "/>
<rect x="293.8" y="189.8" class="st0" width="7.4" height="6.1"/>
<rect x="293.8" y="184" class="st0" width="7.4" height="6.1"/>
<rect x="293.8" y="178.1" class="st0" width="7.4" height="6.1"/>
<rect x="293.8" y="172" class="st0" width="7.4" height="6.1"/>
<rect x="293.8" y="166.2" class="st0" width="7.4" height="6.1"/>
<rect x="293.8" y="160.3" class="st0" width="7.4" height="6.1"/>
<rect x="293.8" y="154.2" class="st0" width="7.4" height="6.1"/>
<rect x="293.8" y="148.4" class="st0" width="7.4" height="6.1"/>
<rect x="293.8" y="142.5" class="st0" width="7.4" height="6.1"/>
<rect x="293.8" y="136.4" class="st0" width="7.4" height="6.1"/>
<rect x="293.8" y="130.6" class="st0" width="7.4" height="6.1"/>
<rect x="293.8" y="129.7" class="st0" width="7.4" height="1.1"/>
<line class="st10" x1="323.6" y1="208.3" x2="323.6" y2="129.7"/>
<line class="st10" x1="390" y1="208.3" x2="390" y2="129.7"/>
<polygon class="st0" points="301.2,190.1 323.6,200.6 323.6,208.3 301.2,195.9 "/>
<polygon class="st0" points="301.2,184 323.6,192.5 323.6,200.6 301.2,190.1 "/>
<polygon class="st0" points="323.6,192.5 301.2,183.9 301.2,178.1 323.6,184.8 "/>
<polygon class="st0" points="323.6,184.8 301.2,178.1 301.2,172.3 323.6,177 "/>
<polygon class="st0" points="323.6,177 301.2,172.3 301.2,166.2 323.6,168.9 "/>
<polygon class="st0" points="323.6,168.9 301.2,166.2 301.2,160.3 323.6,161.2 "/>
<polygon class="st0" points="323.6,153.4 301.2,154.5 301.2,148.6 323.6,145.7 "/>
<polygon class="st0" points="323.6,145.7 301.2,148.6 301.2,142.5 323.6,137.6 "/>
<polygon class="st0" points="323.6,137.6 301.2,142.5 301.2,136.7 323.6,129.9 "/>
<polyline class="st0" points="303.7,129.9 301.2,130.8 301.2,129.7 303.7,129.9 "/>
<polyline class="st0" points="301.2,130.8 303.7,129.9 323.6,129.9 301.2,136.7 301.2,130.8 "/>
<polygon class="st0" points="323.6,161.2 301.2,160.3 301.2,154.5 323.6,153.4 "/>
<polygon class="st1" points="303.9,184.8 320.8,191.4 320.8,142.1 303.9,145.7 "/>
<polygon class="st5" points="304.9,182.8 319,187.8 319,144.2 304.9,147.2 "/>
<polygon class="st1" points="304.9,165.3 319,166.4 319,168.4 304.9,166.9 "/>
<polygon class="st0" points="413.6,190 390,200.5 390,208.2 413.6,195.8 "/>
<polygon class="st0" points="413.6,183.9 390,192.4 390,200.5 413.6,190 "/>
<polygon class="st0" points="390,192.4 413.7,183.9 413.7,178 390,184.7 "/>
<polygon class="st0" points="390,184.7 413.6,178.1 413.6,172.2 390,177 "/>
<polygon class="st0" points="390,177 413.6,172.2 413.6,166.1 390,168.9 "/>
<polygon class="st0" points="390,168.9 413.6,166.1 413.6,160.2 390,161.1 "/>
<polygon class="st0" points="390,153.4 413.6,154.4 413.6,148.5 390,145.6 "/>
<polygon class="st0" points="390,145.6 413.6,148.5 413.6,142.4 390,137.5 "/>
<polygon class="st0" points="390,137.5 413.6,142.4 413.6,136.6 390,129.8 "/>
<polyline class="st0" points="411,129.8 413.6,130.8 413.6,129.7 411,129.8 "/>
<polyline class="st0" points="413.6,130.8 411,129.8 390,129.8 413.6,136.6 413.6,130.8 "/>
<polygon class="st0" points="390,161.1 413.6,160.2 413.6,154.4 390,153.4 "/>
<polygon class="st1" points="410.8,184.7 392.9,191.4 392.9,142 410.8,145.6 "/>
<polygon class="st5" points="409.8,182.8 394.9,187.8 394.9,144.1 409.8,147.1 "/>
<polygon class="st1" points="409.8,165.2 394.9,166.4 394.9,168.3 409.8,166.8 "/>
<rect x="323.6" y="200.6" class="st0" width="66.4" height="7.7"/>
<rect x="323.6" y="192.4" class="st0" width="66.4" height="8.1"/>
<rect x="323.6" y="184.8" class="st0" width="66.4" height="7.6"/>
<rect x="323.6" y="177" class="st0" width="66.4" height="7.8"/>
<rect x="323.6" y="168.9" class="st0" width="66.4" height="8.1"/>
<rect x="323.6" y="161.2" class="st0" width="66.4" height="7.8"/>
<rect x="323.6" y="153.4" class="st0" width="66.4" height="7.8"/>
<rect x="323.6" y="145.7" class="st0" width="66.4" height="7.8"/>
<rect x="323.6" y="137.6" class="st0" width="66.4" height="8"/>
<rect x="323.6" y="129.9" class="st0" width="66.4" height="7.7"/>
<rect x="328.5" y="141.6" class="st1" width="56.6" height="50.8"/>
<rect x="358.7" y="144.4" class="st5" width="24.3" height="44.7"/>
<rect x="330.4" y="144.4" class="st5" width="24.3" height="44.7"/>
<rect x="330.4" y="166.2" class="st1" width="52.6" height="2.1"/>
<polygon class="st1" points="415.4,125.5 414,125.5 414,129.7 243.8,129.7 240.9,121.2 414.7,121.2 415.4,121.2 "/>
<line class="st4" x1="414" y1="125.5" x2="242.3" y2="125.5"/>
<rect x="240.9" y="195.9" class="st11" width="49.5" height="2.1"/>
<rect x="29.7" y="164.5" class="st12" width="2.9" height="2.5"/>
<rect x="28.5" y="164.5" class="st12" width="0.9" height="2.5"/>
<rect x="32.9" y="164.5" class="st12" width="0.9" height="2.5"/>
<path class="st1" d="M33.9,163.4c-0.4-0.9-1.1-1.5-2-1.9l-0.8-1.5l-0.9,1.5l0,0c-0.9,0.4-1.6,1-2,1.9c-0.2,0.4-0.4,0.7-0.5,1.1v0.1
	h0.4v2.6l1.8,2.4h0.4v4h1.5v-4h0.4l1.8-2.4v-2.6h0.4v-0.1C34.3,164.1,34.1,163.7,33.9,163.4z M29.3,167.1h-0.9v-2.5h0.9V167.1z
	 M32.5,167.1h-2.9v-2.5h2.9V167.1z M33.7,167.1h-0.9v-2.5h0.9V167.1z"/>
<rect x="29.7" y="164.5" class="st13" width="2.9" height="2.5"/>
<rect x="32.9" y="164.5" class="st13" width="0.9" height="2.5"/>
<rect x="28.5" y="164.5" class="st13" width="0.9" height="2.5"/>
<rect x="219.2" y="164.5" class="st12" width="2.9" height="2.5"/>
<rect x="218" y="164.5" class="st12" width="0.9" height="2.5"/>
<rect x="222.4" y="164.5" class="st12" width="0.9" height="2.5"/>
<path class="st1" d="M223.4,163.4c-0.4-0.9-1.1-1.5-2-1.9l-0.9-1.5l-0.9,1.5l0,0c-0.9,0.4-1.6,1-2,1.9c-0.2,0.4-0.4,0.7-0.5,1.1v0.1
	h0.4v2.6l1.8,2.4h0.4v4h1.5v-4h0.4l1.8-2.4v-2.6h0.4v-0.1C223.7,164.1,223.6,163.7,223.4,163.4z M218.9,167.1H218v-2.5h0.9
	L218.9,167.1z M222,167.1h-2.9v-2.5h2.8L222,167.1z M223.2,167.1h-0.9v-2.5h0.9V167.1z"/>
<rect x="219.2" y="164.5" class="st13" width="2.9" height="2.5"/>
<rect x="222.4" y="164.5" class="st13" width="0.9" height="2.5"/>
<rect x="218" y="164.5" class="st13" width="0.9" height="2.5"/>
<rect x="279.8" y="151.3" class="st12" width="1.8" height="1.6"/>
<rect x="279.1" y="151.3" class="st12" width="0.5" height="1.6"/>
<rect x="281.8" y="151.3" class="st12" width="0.5" height="1.6"/>
<path class="st1" d="M282.4,150.5c-0.2-0.5-0.7-0.9-1.2-1.2l-0.5-0.9l-0.5,0.9l0,0c-0.5,0.2-1,0.6-1.2,1.2c-0.1,0.2-0.2,0.5-0.3,0.7
	l0,0h0.2v1.6l1.1,1.5h0.3v2.4h0.9v-2.4h0.3l1.1-1.5v-1.6h0.2l0,0C282.6,151,282.5,150.8,282.4,150.5z M279.6,152.8h-0.5v-1.6h0.5
	V152.8z M281.6,152.8h-1.8v-1.6h1.8V152.8z M282.3,152.8h-0.5v-1.6h0.5V152.8z"/>
<rect x="279.8" y="151.3" class="st13" width="1.8" height="1.6"/>
<rect x="281.8" y="151.3" class="st13" width="0.6" height="1.6"/>
<rect x="279.1" y="151.3" class="st13" width="0.5" height="1.6"/>
<rect x="242" y="150.6" class="st12" width="1.8" height="1.6"/>
<rect x="241.3" y="150.6" class="st12" width="0.5" height="1.6"/>
<rect x="244" y="150.6" class="st12" width="0.5" height="1.6"/>
<path class="st1" d="M244.6,149.9c-0.2-0.5-0.7-0.9-1.2-1.2l-0.5-0.9l-0.5,0.9l0,0c-0.5,0.2-1,0.6-1.2,1.2c-0.1,0.2-0.2,0.5-0.3,0.7
	l0,0h0.2v1.6l1.1,1.5h0.3v2.4h0.9v-2.4h0.3l1.1-1.5v-1.6h0.2l0,0C244.9,150.4,244.8,150.1,244.6,149.9z M241.8,152.2h-0.5v-1.6h0.5
	V152.2z M243.8,152.2H242v-1.6h1.8L243.8,152.2z M244.6,152.2H244v-1.6h0.5L244.6,152.2z"/>
<rect x="242" y="150.6" class="st13" width="1.8" height="1.6"/>
<rect x="244" y="150.6" class="st13" width="0.6" height="1.6"/>
<rect x="241.3" y="150.6" class="st13" width="0.5" height="1.6"/>
<linearGradient id="SVGID_5_" gradientUnits="userSpaceOnUse" x1="265.635" y1="45.19" x2="265.635" y2="82.46" gradientTransform="matrix(1 0 0 -1 0 226)">
	<stop  offset="0" style="stop-color:#FFFFFF;stop-opacity:0"/>
	<stop  offset="1" style="stop-color:#000000;stop-opacity:0.4"/>
</linearGradient>
<polygon class="st14" points="245,133.1 290.4,133.1 290.4,195.9 240.9,194.2 240.9,149.9 240.9,139.8 245,139.8 "/>
<linearGradient id="SVGID_6_" gradientUnits="userSpaceOnUse" x1="352.04" y1="83.57" x2="352.04" y2="95.99" gradientTransform="matrix(1 0 0 -1 0 226)">
	<stop  offset="0" style="stop-color:#FFFFFF;stop-opacity:0"/>
	<stop  offset="1" style="stop-color:#000000;stop-opacity:0.4"/>
</linearGradient>
<polyline class="st15" points="390,141.3 413.6,146 413.7,129.7 389.9,129.9 323.5,129.9 290.4,129.7 290.4,144.4 301.2,144.4 
	323.5,141.1 389.9,141.1 "/>
<rect x="51.1" y="163.2" class="st16" width="15.3" height="11.7"/>
<rect x="70.3" y="163.2" class="st16" width="15.3" height="11.7"/>
<rect x="89.6" y="163.2" class="st16" width="15.3" height="11.7"/>
<rect x="108.8" y="163.2" class="st16" width="15.3" height="11.7"/>
<rect x="128.1" y="163.2" class="st16" width="15.3" height="11.7"/>
<rect x="147.3" y="163.2" class="st16" width="15.3" height="11.7"/>
<rect x="166.6" y="163.2" class="st16" width="15.3" height="11.7"/>
<rect x="185.8" y="163.2" class="st16" width="15.3" height="11.7"/>
<rect x="51.1" y="178.1" class="st16" width="15.3" height="11.7"/>
<rect x="70.3" y="178.1" class="st16" width="15.3" height="11.7"/>
<rect x="89.6" y="178.1" class="st16" width="15.3" height="11.7"/>
<rect x="108.8" y="178.1" class="st16" width="15.3" height="11.7"/>
<rect x="128.1" y="178.1" class="st16" width="15.3" height="11.7"/>
<rect x="147.3" y="178.1" class="st16" width="15.3" height="11.7"/>
<rect x="166.6" y="178.1" class="st16" width="15.3" height="11.7"/>
<rect x="185.8" y="178.1" class="st16" width="15.3" height="11.7"/>
<rect x="51.1" y="193.3" class="st16" width="15.3" height="11.7"/>
<rect x="70.3" y="193.4" class="st16" width="15.3" height="11.7"/>
<rect x="89.6" y="193.3" class="st16" width="15.3" height="11.7"/>
<rect x="108.8" y="193.4" class="st16" width="15.3" height="11.7"/>
<rect x="128.1" y="193.3" class="st16" width="15.3" height="11.7"/>
<rect x="147.3" y="193.4" class="st16" width="15.3" height="11.7"/>
<rect x="166.6" y="193.3" class="st16" width="15.3" height="11.7"/>
<rect x="185.8" y="193.4" class="st16" width="15.3" height="11.7"/>
<rect x="51.1" y="208.3" class="st16" width="15.3" height="11.7"/>
<rect x="70.3" y="208.3" class="st16" width="15.3" height="11.7"/>
<rect x="89.6" y="208.3" class="st16" width="15.3" height="11.7"/>
<rect x="108.8" y="208.3" class="st16" width="15.3" height="11.7"/>
<rect x="128.1" y="208.3" class="st16" width="15.3" height="11.7"/>
<rect x="147.3" y="208.3" class="st16" width="15.3" height="11.7"/>
<rect x="166.6" y="208.3" class="st16" width="15.3" height="11.7"/>
<rect x="185.8" y="208.3" class="st16" width="15.3" height="11.7"/>
<polygon class="st1" points="0.3,138.8 4.6,138.8 4.6,144.5 240.9,144.5 240.9,139 245,139 245,133.1 0.3,133.1 "/>
<line class="st4" x1="240.9" y1="138.8" x2="4.6" y2="138.8"/>
</svg>
