<svg xmlns="http://www.w3.org/2000/svg" xmlns:xlink="http://www.w3.org/1999/xlink" viewBox="0 0 185.85 63.59"><defs><style>.cls-1{fill:#58595b;opacity:0.4;}.cls-2{fill:#5b5654;}.cls-3,.cls-4{fill:#847a78;}.cls-4{opacity:0.1;}.cls-5{fill:#1f1f1f;}.cls-14,.cls-6,.cls-9{fill:none;}.cls-14,.cls-6{stroke:#6a6261;}.cls-14,.cls-6,.cls-7,.cls-8,.cls-9{stroke-miterlimit:10;stroke-width:0.5px;}.cls-7{fill:#e87d2b;}.cls-7,.cls-8{stroke:#3a3a3a;}.cls-8{fill:#bcbbbb;}.cls-9{stroke:#171717;}.cls-10{fill:#9c2b2a;}.cls-11{fill:#5a5352;}.cls-12{fill:#6a6261;}.cls-13{opacity:0.52;fill:url(#linear-gradient);}.cls-14{opacity:0.48;}.cls-15{fill:#1a1a1a;}.cls-16{fill:#aeadae;}.cls-17{fill:#c9c9c9;}.cls-18{fill:#b3b3b3;}.cls-19{opacity:0.64;fill:url(#linear-gradient-2);}.cls-20{opacity:0.14;fill:url(#linear-gradient-3);}.cls-21{fill:#8e8382;}</style><linearGradient id="linear-gradient" x1="3.63" y1="44.51" x2="8.53" y2="44.51" gradientUnits="userSpaceOnUse"><stop offset="0" stop-color="#fff" stop-opacity="0"/><stop offset="1" stop-color="#6b6262"/></linearGradient><linearGradient id="linear-gradient-2" x1="92.93" y1="33.37" x2="92.93" y2="48.92" gradientUnits="userSpaceOnUse"><stop offset="0" stop-color="#847a78" stop-opacity="0"/><stop offset="1" stop-color="#4a4544"/></linearGradient><linearGradient id="linear-gradient-3" x1="92.93" y1="7.27" x2="92.93" y2="13.25" gradientUnits="userSpaceOnUse"><stop offset="0" stop-color="#a89b98"/><stop offset="1" stop-color="#847a78" stop-opacity="0"/></linearGradient></defs><title>hyundai</title><g id="Layer_2" data-name="Layer 2"><g id="Layer_2-2" data-name="Layer 2"><g id="elantra"><path class="cls-1" d="M97.52,19.36c-.19-1.51.55-2.43,0-4.25-.21-.69-.33-.59-.54-1.27-.09-.26-1.05-3.42.72-4.88a3.86,3.86,0,0,1,4.16-.09c1.08.61,1.56,1.58,2.26,3.34,2,4.92,2.93,7.38,2.17,8.68-1.19,2-4.62,3-6.69,1.81A4.76,4.76,0,0,1,97.52,19.36Z"/><ellipse class="cls-1" cx="138.72" cy="13.33" rx="2.65" ry="3.71"/><ellipse class="cls-1" cx="69.81" cy="20.3" rx="1.2" ry="5.92" transform="translate(-2.65 26.28) rotate(-20.93)"/><path class="cls-2" d="M14.9,54.17c1.23.18,2-.62,4-1.45a21.24,21.24,0,0,1,5.24-1.18c5.85-.88,13.89,0,22.33.5,2.6.14,5.21.18,7.82.27,30.91,1.14,50.95-2.41,74.93-.74,7,.49,10.91,1.18,16.51-.6,6.17-2,9.95-5.53,14.22-3.86,3.15,1.23,3.12,4,5.67,4.46,4.81,1,12.72-7.2,11.69-12.3-.76-3.74-6.59-7-39.42-10.25-56.25-5.51-52.48,2.82-97.64-.6-11.33-.86-26.12-2.49-30.38,4.82-3.09,5.32,0,14.31,1.69,17.6C13,53.72,14.36,54.09,14.9,54.17Z"/><path class="cls-3" d="M62.79,9.25,68.11,7C66.18,7.78,64.4,8.53,62.79,9.25Z"/><path class="cls-3" d="M58.69,11.15l4.09-1.9C61.26,9.93,59.89,10.57,58.69,11.15Z"/><path class="cls-3" d="M68.15,7l3.33-1.23Q69.74,6.39,68.15,7Z"/><path class="cls-3" d="M56.27,12.34l-1.48.73,3.88-1.91Z"/><path class="cls-3" d="M52.41,14.27c-1.28.66-2.23,1.16-3,1.57l5.37-2.77Z"/><path class="cls-3" d="M73.36,5.14l-1.82.62,4-1.3Z"/><path class="cls-3" d="M151.66,8.33l-3-.93L144.5,6.14l4.36,1.32Z"/><path class="cls-3" d="M151.69,8.34l4.09,1.28Z"/><path class="cls-3" d="M143,5.69l-1.14-.35.13,0Z"/><path class="cls-3" d="M162.32,12l2.77,1.06-1.18-.45L159,10.71c-.87-.33-1.73-.63-3.19-1.1l2.52.85Z"/><path class="cls-3" d="M185.82,34a2.88,2.88,0,0,0-.15-1.05,3.84,3.84,0,0,0-1.18-1.51,7.18,7.18,0,0,1-1.57-3.68,19.33,19.33,0,0,1-.3-2.11c-.23-2-.15-2.38-.39-4.91,0-.52-.1-1-.18-1.93-.11-1.32-.14-1.8-.15-2.17,0-.72,0-1.31,0-1.72a2.55,2.55,0,0,0-1.45-1.21,1.87,1.87,0,0,0-.48-.06c-1.83,0-3.61-.52-11.06-.54h-1.05l-2.77,0-.08.15a2.08,2.08,0,0,1-1.31.45,1.71,1.71,0,0,1-.41-.07,10.23,10.23,0,0,1-2.46-.9c-.44-.24-2.72-1-7.28-2.51-2.51-.83-4.62-1.51-10.71-3.46l-5.69-1.81V3.86h0A53.36,53.36,0,0,0,130.49,2c-1.89-.38-3.41-.55-6.36-.87-2.21-.24-5.43-.59-9.67-.81A120.16,120.16,0,0,0,95.27.5a102.08,102.08,0,0,0-11,1.66c-1.06.22-3.95.85-7.79,2l1.44.54-2.26.9c-10.13,4.06-15.19,6.08-17.15,7-4.37,2-6.36,3.07-12.6,5.73l-2.08.87A.64.64,0,0,1,43.4,19a.63.63,0,0,1-.2-.36l.26-.19h0a21.3,21.3,0,0,1-2.53.62,39.34,39.34,0,0,1-5.38.48c-1.81.11-3.79.55-8.54,1.72-3.32.82-5,1.23-6.39,1.66A47.59,47.59,0,0,0,12,26.23a21.77,21.77,0,0,0-6.54,4.49,24.49,24.49,0,0,0-2.92,3.92c-.39.6-.93,1.77-2,4.09a3.77,3.77,0,0,0-.41,1.85,3.36,3.36,0,0,0,.14.77l.93.9a9.36,9.36,0,0,0-1,2.38,11.16,11.16,0,0,0-.18,3.8,3.51,3.51,0,0,0,.5,2,2.81,2.81,0,0,0,1.18.9,40.3,40.3,0,0,0,8.18,2.58c.69.13,1.72.31,3,.5h2.85a13.73,13.73,0,0,1-.86-6,14,14,0,0,1,.9-3.89,17.42,17.42,0,0,1,9.13-9.67A16.19,16.19,0,0,1,45.36,41.1,14.82,14.82,0,0,1,48,47.61a22.47,22.47,0,0,1-.09,5.06c-.09.73-.19,1.34-.27,1.76l0,.25a45.21,45.21,0,0,1,5.45-.61l.7,0L133.57,54a16,16,0,0,1,.15-9.49,16.21,16.21,0,0,1,2.68-4.79,16.94,16.94,0,0,1,6.54-4.94,15.81,15.81,0,0,1,16.36,2,17.19,17.19,0,0,1,2.62,2.47,13,13,0,0,1,2.86,4.7,16.44,16.44,0,0,1,.39,6.39c0,.65-.1,1.18-.15,1.54l0,.81,3.83-.51,5.3-.87,5.64-1.08A8.72,8.72,0,0,0,181,49.5a10.59,10.59,0,0,0,3.5-4.76,17.5,17.5,0,0,0,1.21-4.49C186,38,185.73,37.81,185.82,34ZM97.37,19.27l-19,1L64.5,20.9,61,21l-.21-5.91.39-.15c4.17-2,7.81-3.45,10.67-4.52A83.93,83.93,0,0,1,82.7,7a71.46,71.46,0,0,1,7.8-1.42,48.15,48.15,0,0,1,9.13-.39c.62,0,1.13.09,1.48.12Zm42.82-6A51.61,51.61,0,0,1,127,17.31a96.77,96.77,0,0,1-11.42,1.05c-4.46.27-8.16.37-10.76.42l-.3-.06c.93-8.26,1.32-11.89,1.33-12.14,0,0,0,0,0-.09a2.37,2.37,0,0,1,.15-.72.6.6,0,0,1,.21-.42c1.48-1,10.28,0,10.28,0,4.17.64,3.2.44,5.64.84,3.81.62,6.69,1.19,8.92,1.63s4.73,1,7.8,1.63l2.32,3.31Z"/><path class="cls-3" d="M137.76,4.05l-.07,0,.06,0Z"/><path class="cls-3" d="M143,5.69l1.48.45Z"/><path class="cls-3" d="M137.17,3.86l.53.17Z"/><path class="cls-3" d="M141.88,5.35l-4.12-1.29,1.32.42Z"/><path class="cls-3" d="M151.68,8.34h0Z"/><polygon class="cls-3" points="155.78 9.61 155.78 9.61 155.78 9.62 155.78 9.61"/><path class="cls-4" d="M137.15,4.92l5.69,1.81c6.09,1.94,8.2,2.63,10.71,3.46,4.56,1.51,6.84,2.27,7.28,2.51a10.23,10.23,0,0,0,2.46.9,1.71,1.71,0,0,0,.41.07,2.08,2.08,0,0,0,1.31-.45l.08-.15L162.32,12l-4-1.54-2.52-.85h0l-4.09-1.28h0l-2.8-.86L144.5,6.14,143,5.69l-1-.31-.13,0-2.8-.87-1.32-.42h0l-.06,0-.53-.17h0Z"/><path class="cls-3" d="M75.55,4.44l.91-.28Z"/><polygon class="cls-3" points="46.12 17.48 46.12 17.48 46.12 17.48 46.12 17.48"/><path class="cls-3" d="M58.69,11.16h0Z"/><polygon class="cls-3" points="54.79 13.07 54.79 13.07 54.79 13.07 54.79 13.07"/><path class="cls-3" d="M46.12,17.48l-2.66,1c.82-.25,1.51-.52,2.09-.74Z"/><path class="cls-3" d="M49.42,15.84l-3.3,1.63a34.27,34.27,0,0,0,3.3-1.63Z"/><path class="cls-3" d="M68.12,7h0Z"/><path class="cls-3" d="M71.51,5.77h0l.06,0Z"/><path class="cls-3" d="M76.5,4.15h0Z"/><path class="cls-3" d="M62.79,9.25h0Z"/><path class="cls-3" d="M75.5,4.45h0l.06,0Z"/><path class="cls-5" d="M119.86,4.4a126.73,126.73,0,0,0-23.78-.5A89.92,89.92,0,0,0,83.15,5.67,83.64,83.64,0,0,0,72.57,8.83a137.65,137.65,0,0,0-16.72,7.41c-1.69.86-3.09,1.6-4.07,2.12l-7.1,3.93-.06.08,1.47,0c11.31-.59,20.46-1.09,26.7-1.45C91.93,19.82,92,19.72,98.94,19.45c2.74-.11,7.77-.29,14.71-.72,7.84-.49,11.83-.75,15.25-1.51a81.51,81.51,0,0,0,14.85-5l1.29-.59.45-.36v-.72a95.58,95.58,0,0,0-9.94-3.3A99.91,99.91,0,0,0,119.86,4.4ZM97.37,19.27l-19,1L64.5,20.9,61,21l-.21-5.91.39-.15c4.17-2,7.81-3.45,10.67-4.52A83.93,83.93,0,0,1,82.7,7a71.46,71.46,0,0,1,7.8-1.42,48.15,48.15,0,0,1,9.13-.39c.62,0,1.13.09,1.48.12Zm43.76-6.48-.93.45A51.61,51.61,0,0,1,127,17.31a96.77,96.77,0,0,1-11.42,1.05c-4.46.27-8.16.37-10.76.42l-.3-.06c.93-8.26,1.32-11.89,1.33-12.14,0,0,0,0,0-.09a2.37,2.37,0,0,1,.15-.72.6.6,0,0,1,.21-.42c1.48-1,10.28,0,10.28,0,4.17.64,3.2.44,5.64.84,3.81.62,6.69,1.19,8.92,1.63s4.73,1,7.8,1.63Z"/><path class="cls-4" d="M99.64,5.17a48.15,48.15,0,0,0-9.13.39A71.46,71.46,0,0,0,82.7,7a83.93,83.93,0,0,0-10.88,3.5C69,11.55,65.32,13,61.15,15l-.39.15L61,21l3.53-.15,13.83-.66,19-1,3.74-14C100.76,5.25,100.25,5.21,99.64,5.17Z"/><path class="cls-4" d="M131,7.85c-2.23-.44-5.11-1-8.92-1.63-2.44-.4-1.46-.2-5.64-.84,0,0-8.8-1-10.28,0a.6.6,0,0,0-.21.42,2.37,2.37,0,0,0-.15.72c0,.05,0,.09,0,.09,0,.26-.39,3.88-1.33,12.14l.3.06c2.6,0,6.3-.15,10.76-.42A96.77,96.77,0,0,0,127,17.31a51.61,51.61,0,0,0,13.23-4.07l.93-.45-2.32-3.31C135.74,8.8,133.09,8.26,131,7.85Z"/><path class="cls-4" d="M77.94,4.69,76.5,4.15l-1,.3-4,1.32L68.12,7,62.79,9.25l-4.1,1.91-3.89,1.92-5.37,2.77-3.3,1.63-2.67,1-.26.19a.63.63,0,0,0,.2.36.64.64,0,0,0,.46.15l2.08-.87c6.24-2.65,8.23-3.77,12.6-5.73,2-.88,7-2.91,17.15-7Z"/><line class="cls-6" x1="4.63" y1="31.68" x2="5.7" y2="31.68"/><path class="cls-6" d="M14.78,32.27l2.83,1.22c1.8.78,3.67,1.62,5.47,2.39"/><path class="cls-7" d="M26.22,25.74c-.81,0-1.92,0-3.23.11l-1,.08A7.27,7.27,0,0,0,20.46,27a7.86,7.86,0,0,0-1.58,2,8.07,8.07,0,0,0-.67,1.54c.5-.27,1-.53,1.5-.79,1.78-.91,3.13-1.46,5.09-2.26,1.15-.47,2.68-1.07,4.52-1.72Z"/><path class="cls-8" d="M20.46,27A7.27,7.27,0,0,1,22,25.93a46.24,46.24,0,0,0-5.55.83,36.53,36.53,0,0,0-5,1.4,16,16,0,0,0-4.84,2.49,13.21,13.21,0,0,0-1.36,1.24l-.14.23.61,3H10a16.11,16.11,0,0,0,2.55-1A32.11,32.11,0,0,0,16,31.81c.8-.53,1.5-.94,2.18-1.31A8.07,8.07,0,0,1,18.88,29,7.86,7.86,0,0,1,20.46,27Z"/><path class="cls-9" d="M100.92,19.38c.81-5.39,1.71-10.24,2.8-15.25l.09-.56"/><path class="cls-6" d="M51.53,22.06c-.48,3.37-1,6.09-1.11,6.73-.92,5-.29,11-.06,13.12a57.19,57.19,0,0,0,1.28,7.47,2.42,2.42,0,0,0,.41.95,2.53,2.53,0,0,0,1,.81l47-1V47.93q-.12-1.05-.23-2.12c-.77-8.12,0-19.31,1-26.43"/><line class="cls-9" x1="52.71" y1="17.87" x2="51.53" y2="22.06"/><polyline class="cls-9" points="141.91 13.06 139.02 8.76 138.54 8.09"/><path class="cls-6" d="M100.1,50.1h2.43c8.28-.21,13.71-.31,15.76-.27a34,34,0,0,0,4.31-.18,9,9,0,0,0,1.57-.21,7.38,7.38,0,0,0,3.47-2.17A72.49,72.49,0,0,0,132.87,41c1.29-1.71.57-.61,5.33-6.39,5.12-6.22,3.63-4.68,5-6.24C144.44,27,145,25.92,146,24.67a4.87,4.87,0,0,0,1-1.87,4.64,4.64,0,0,0-.42-3.07l-4.68-6.67"/><line class="cls-6" x1="167.74" y1="14.45" x2="171.42" y2="18.37"/><path class="cls-6" d="M172.92,23.43a5.55,5.55,0,0,1-1.13,4.75c-1.85,2.43-1.31,2.64-4.11,6.51a62.74,62.74,0,0,1-4.61,5.65l-.17.21"/><path class="cls-10" d="M182.23,20.27l-1.08-.77a9.46,9.46,0,0,0-.86-.5c-2-1-3.84-1-6.83-.95-1.47,0-5.74.15-9.9.63a9.36,9.36,0,0,0-2.8.72,9.07,9.07,0,0,0-2.12,1.31v.7c.51,0,1.21,0,2.06,0a34.18,34.18,0,0,1,7.8,1.2,28.31,28.31,0,0,1,6.94,2.4,5.21,5.21,0,0,0,1.7.72,9.93,9.93,0,0,0,2.4.09,6.64,6.64,0,0,0,1.47-.07,3,3,0,0,0,1.45-1.06l.14-.27Z"/><ellipse class="cls-6" cx="153.64" cy="25.07" rx="3.25" ry="3.42"/><ellipse class="cls-11" cx="92.79" cy="26.13" rx="2.38" ry="2.22" transform="translate(8.7 73.27) rotate(-45)"/><ellipse class="cls-11" cx="138.94" cy="21.65" rx="2.38" ry="2.22" transform="translate(25.38 104.59) rotate(-45)"/><path class="cls-12" d="M87.76,27.09l9-.31,1-.38a1.11,1.11,0,0,0,.6-.44c.1-.25-.2-.69-.81-1l-9.36.7a1.1,1.1,0,0,0-.45.2A1.42,1.42,0,0,0,87.29,27Z"/><path class="cls-12" d="M133.86,22.5l9-.31,1-.38a1.11,1.11,0,0,0,.6-.44c.1-.25-.2-.69-.81-1l-9.36.7a1.1,1.1,0,0,0-.45.2,1.42,1.42,0,0,0-.47,1.19Z"/><path class="cls-12" d="M136.49.78c-.09-.27-.79-.25-.9-.25A3.45,3.45,0,0,0,134,1.1c-1.58.85-1.53.85-1.7.9-1.18.42-2.07.09-2.1.25s1.27.38,3.48,1.24c.7.27,1.2.5,1.47.27.42-.36-.07-1,.38-2l.95-.84Z"/><path class="cls-13" d="M3.14,41.48h7.07q-.52.78-1,1.64a41.57,41.57,0,0,0-2,3.86,11,11,0,0,1-1.31.35,11.15,11.15,0,0,1-3,.18Z"/><polyline class="cls-14" points="3.14 41.48 10.21 41.48 9.55 42.51 8.63 44.04 8.01 45.18 7.12 46.98 6.87 47.06 6.23 47.23 5.09 47.45 4.07 47.54 3.14 47.54 2.78 47.51"/><path class="cls-15" d="M31.77,46.83a.48.48,0,0,0,.26-.32l.21-3.75H29.39l1.76,3.71A.53.53,0,0,0,31.77,46.83Z"/><path class="cls-15" d="M27.15,43.34a5,5,0,0,0-.57.35,5.18,5.18,0,0,0-1.38,1.5l0,.12a3.8,3.8,0,0,0,1.23,1.4,7.4,7.4,0,0,0,2.15,1.39,1.28,1.28,0,0,0,1.15,0,1,1,0,0,0,.33-.78,9,9,0,0,1-.69-.61A9.46,9.46,0,0,1,27.15,43.34Z"/><path class="cls-15" d="M37.64,44.5a5,5,0,0,0-.51-.43,5.18,5.18,0,0,0-1.86-.85h-.12a3.8,3.8,0,0,0-1,1.6,7.4,7.4,0,0,0-.65,2.48c0,.41,0,.86.35,1.09a1,1,0,0,0,.85.07,9,9,0,0,1,.36-.85A9.46,9.46,0,0,1,37.64,44.5Z"/><path class="cls-15" d="M31.64,35.34A14.13,14.13,0,1,0,45.76,49.46,14.13,14.13,0,0,0,31.64,35.34Zm7.75,10.85.42,1.3-3.63,1a.48.48,0,0,1-.38-.15.53.53,0,0,1,.15-.7l3-2.82Zm-8.47-5.1h1.37l-.21,3.75a.48.48,0,0,1-.26.32.53.53,0,0,1-.62-.36l-1.76-3.71Zm-7.47,6.48.42-1.3,3.5,1.36a.48.48,0,0,1,.22.34.53.53,0,0,1-.53.48L23,49Zm.67,6.2L24,53.7a5.18,5.18,0,0,1-1-1.78,5,5,0,0,1-.16-.65,9.46,9.46,0,0,0,3.88-1.05,9,9,0,0,0,.79-.47,1,1,0,0,1,.64.56c.13.38-.12.75-.35,1.09a7.4,7.4,0,0,1-2,1.62A3.8,3.8,0,0,1,24.11,53.76Zm5.14-.26-.75,4-1.19-.87-1.11-.81L28.57,53a.48.48,0,0,1,.39-.11A.53.53,0,0,1,29.25,53.5Zm.51-7.08a1.28,1.28,0,0,1-1.15,0A7.4,7.4,0,0,1,26.45,45a3.8,3.8,0,0,1-1.23-1.4l0-.12A5.18,5.18,0,0,1,26.63,42a5,5,0,0,1,.57-.35A9.46,9.46,0,0,0,29.39,45a9,9,0,0,0,.69.61A1,1,0,0,1,29.75,46.42ZM33.4,57.95l-.09.08a5.18,5.18,0,0,1-2,.41,5,5,0,0,1-.67,0,9.46,9.46,0,0,0,.2-4,9,9,0,0,0-.2-.9,1,1,0,0,1,.73-.44c.4,0,.68.35.93.67a7.4,7.4,0,0,1,.93,2.39A3.8,3.8,0,0,1,33.4,57.95Zm.2-12.31a7.4,7.4,0,0,1,.65-2.48,3.8,3.8,0,0,1,1-1.6h.12a5.18,5.18,0,0,1,1.86.85,5,5,0,0,1,.51.43A9.46,9.46,0,0,0,35.16,46a9,9,0,0,0-.36.85,1,1,0,0,1-.85-.07C33.62,46.5,33.61,46,33.6,45.64Zm3.55,10.18L36,56.62l-2-3.16a.48.48,0,0,1,0-.41.53.53,0,0,1,.71-.07l3.6,2Zm2.92-3.27a5,5,0,0,1-.25.62,9.46,9.46,0,0,0-3.76-1.43,9,9,0,0,0-.92-.09,1,1,0,0,1-.19-.83c.12-.38.54-.54.93-.67A7.4,7.4,0,0,1,38.44,50a3.8,3.8,0,0,1,1.82.41l.05.11A5.18,5.18,0,0,1,40.07,52.54Z"/><path class="cls-15" d="M27.33,47.62l-3.5-1.36-.42,1.3L22.94,49,27,48.44a.53.53,0,0,0,.53-.48A.48.48,0,0,0,27.33,47.62Z"/><path class="cls-15" d="M27.76,51.4c.23-.34.48-.71.35-1.09a1,1,0,0,0-.64-.56,9,9,0,0,1-.79.47,9.46,9.46,0,0,1-3.88,1.05,5,5,0,0,0,.16.65,5.18,5.18,0,0,0,1,1.78l.11.06A3.8,3.8,0,0,0,25.78,53,7.4,7.4,0,0,0,27.76,51.4Z"/><path class="cls-15" d="M28.92,52.85a.48.48,0,0,0-.39.11l-2.38,2.91,1.11.81,1.19.87.75-4A.53.53,0,0,0,28.92,52.85Z"/><path class="cls-15" d="M32.26,53.71c-.25-.33-.53-.68-.93-.67a1,1,0,0,0-.73.44,9,9,0,0,1,.2.9,9.46,9.46,0,0,1-.2,4,5,5,0,0,0,.67,0,5.18,5.18,0,0,0,2-.41l.09-.08a3.8,3.8,0,0,0-.17-1.85A7.4,7.4,0,0,0,32.26,53.71Z"/><path class="cls-15" d="M34,53.06a.48.48,0,0,0,0,.41l2,3.16,1.11-.81,1.19-.87-3.6-2A.53.53,0,0,0,34,53.06Z"/><path class="cls-15" d="M40.26,50.52l-.05-.11A3.8,3.8,0,0,0,38.39,50a7.4,7.4,0,0,0-2.56.15c-.39.14-.81.29-.93.67a1,1,0,0,0,.19.83,9,9,0,0,1,.92.09,9.46,9.46,0,0,1,3.76,1.43,5,5,0,0,0,.25-.62A5.18,5.18,0,0,0,40.26,50.52Z"/><path class="cls-15" d="M38.88,44.78l-3,2.82a.53.53,0,0,0-.15.7.48.48,0,0,0,.38.15l3.63-1-.42-1.3Z"/><circle class="cls-2" cx="31.64" cy="49.46" r="10.01"/><circle class="cls-16" cx="31.64" cy="49.46" r="6.96"/><path class="cls-17" d="M31.64,39.5a10,10,0,1,0,10,10A10,10,0,0,0,31.64,39.5Zm7.29,5.28.46,1.4.42,1.3-3.63,1a.48.48,0,0,1-.38-.15.53.53,0,0,1,.15-.7Zm-8-3.7h1.37l-.21,3.75a.48.48,0,0,1-.26.32.53.53,0,0,1-.62-.36l-1.76-3.71Zm-7.47,6.48.42-1.3,3.5,1.36a.48.48,0,0,1,.22.34.53.53,0,0,1-.53.48L23,49Zm.67,6.2L24,53.7a5.18,5.18,0,0,1-1-1.78,5,5,0,0,1-.16-.65,9.46,9.46,0,0,0,3.88-1.05,9,9,0,0,0,.79-.47,1,1,0,0,1,.64.56c.13.38-.12.75-.35,1.09a7.4,7.4,0,0,1-2,1.62A3.8,3.8,0,0,1,24.11,53.76Zm5.14-.26-.75,4-1.19-.87-1.11-.81L28.57,53a.48.48,0,0,1,.39-.11A.53.53,0,0,1,29.25,53.5Zm.51-7.08a1.28,1.28,0,0,1-1.15,0A7.4,7.4,0,0,1,26.45,45a3.8,3.8,0,0,1-1.23-1.4l0-.12A5.18,5.18,0,0,1,26.63,42a5,5,0,0,1,.57-.35A9.46,9.46,0,0,0,29.39,45a9,9,0,0,0,.69.61A1,1,0,0,1,29.75,46.42ZM33.4,57.95l-.09.08a5.18,5.18,0,0,1-2,.41,5,5,0,0,1-.67,0,9.46,9.46,0,0,0,.2-4,9,9,0,0,0-.2-.9,1,1,0,0,1,.73-.44c.4,0,.68.35.93.67a7.4,7.4,0,0,1,.93,2.39A3.8,3.8,0,0,1,33.4,57.95Zm.2-12.31a7.4,7.4,0,0,1,.65-2.48,3.8,3.8,0,0,1,1-1.6h.12a5.18,5.18,0,0,1,1.86.85,5,5,0,0,1,.51.43A9.46,9.46,0,0,0,35.16,46a9,9,0,0,0-.36.85,1,1,0,0,1-.85-.07C33.62,46.5,33.61,46,33.6,45.64Zm3.55,10.18L36,56.62l-2-3.16a.48.48,0,0,1,0-.41.53.53,0,0,1,.71-.07l3.6,2Zm2.67-2.65a9.46,9.46,0,0,0-3.76-1.43,9,9,0,0,0-.92-.09,1,1,0,0,1-.19-.83c.12-.38.54-.54.93-.67A7.4,7.4,0,0,1,38.44,50a3.8,3.8,0,0,1,1.82.41l.05.11a5.18,5.18,0,0,1-.23,2A5,5,0,0,1,39.82,53.16Z"/><circle class="cls-18" cx="30.41" cy="47.68" r="0.63"/><circle class="cls-18" cx="29.53" cy="50.04" r="0.63" transform="translate(-27.18 62.66) rotate(-72)"/><circle class="cls-18" cx="31.5" cy="51.6" r="0.63" transform="translate(-28.76 46.76) rotate(-54)"/><circle class="cls-18" cx="33.6" cy="50.21" r="0.63" transform="translate(-23.1 29.34) rotate(-36)"/><circle class="cls-18" cx="32.93" cy="47.78" r="0.63" transform="translate(-13.15 12.51) rotate(-18)"/><path class="cls-15" d="M149.28,35.34a14.13,14.13,0,1,0,14.13,14.13A14.13,14.13,0,0,0,149.28,35.34ZM157,46.18l.42,1.3-3.63,1a.48.48,0,0,1-.38-.15.53.53,0,0,1,.15-.7l3-2.82Zm-8.47-5.1h1.37l-.21,3.75a.48.48,0,0,1-.26.32.53.53,0,0,1-.62-.36l-1.76-3.71Zm-7.47,6.48.42-1.3,3.5,1.36a.48.48,0,0,1,.22.34.53.53,0,0,1-.53.48l-4.07.53Zm.67,6.2-.11-.06a5.18,5.18,0,0,1-1-1.78,5,5,0,0,1-.16-.65,9.46,9.46,0,0,0,3.88-1.05,9,9,0,0,0,.79-.47,1,1,0,0,1,.64.56c.13.38-.12.75-.35,1.09a7.4,7.4,0,0,1-2,1.62A3.8,3.8,0,0,1,141.76,53.76Zm5.14-.26-.75,4-1.19-.87-1.11-.81L146.21,53a.48.48,0,0,1,.39-.11A.53.53,0,0,1,146.89,53.5Zm.51-7.08a1.28,1.28,0,0,1-1.15,0A7.4,7.4,0,0,1,144.1,45a3.8,3.8,0,0,1-1.23-1.4l0-.12a5.18,5.18,0,0,1,1.38-1.5,5,5,0,0,1,.57-.35A9.46,9.46,0,0,0,147,45a9,9,0,0,0,.69.61A1,1,0,0,1,147.4,46.42ZM151,57.95,151,58a5.18,5.18,0,0,1-2,.41,5,5,0,0,1-.67,0,9.46,9.46,0,0,0,.2-4,9,9,0,0,0-.2-.9A1,1,0,0,1,149,53c.4,0,.68.35.93.67a7.4,7.4,0,0,1,.93,2.39A3.8,3.8,0,0,1,151,57.95Zm.2-12.31a7.4,7.4,0,0,1,.65-2.48,3.8,3.8,0,0,1,1-1.6H153a5.18,5.18,0,0,1,1.86.85,5,5,0,0,1,.51.43A9.46,9.46,0,0,0,152.81,46a9,9,0,0,0-.36.85,1,1,0,0,1-.85-.07C151.27,46.5,151.25,46,151.24,45.64Zm3.55,10.18-1.11.81-2-3.16a.48.48,0,0,1,0-.41.53.53,0,0,1,.71-.07l3.6,2Zm2.92-3.27a5,5,0,0,1-.25.62,9.46,9.46,0,0,0-3.76-1.43,9,9,0,0,0-.92-.09,1,1,0,0,1-.19-.83c.12-.38.54-.54.93-.67a7.4,7.4,0,0,1,2.56-.15,3.8,3.8,0,0,1,1.82.41l.05.11A5.18,5.18,0,0,1,157.72,52.54Z"/><path class="cls-15" d="M145,47.62l-3.5-1.36-.42,1.3-.46,1.4,4.07-.53a.53.53,0,0,0,.53-.48A.48.48,0,0,0,145,47.62Z"/><path class="cls-15" d="M145.41,51.4c.23-.34.48-.71.35-1.09a1,1,0,0,0-.64-.56,9,9,0,0,1-.79.47,9.46,9.46,0,0,1-3.88,1.05,5,5,0,0,0,.16.65,5.18,5.18,0,0,0,1,1.78l.11.06a3.8,3.8,0,0,0,1.71-.74A7.4,7.4,0,0,0,145.41,51.4Z"/><path class="cls-15" d="M146.56,52.85a.48.48,0,0,0-.39.11l-2.38,2.91,1.11.81,1.19.87.75-4A.53.53,0,0,0,146.56,52.85Z"/><path class="cls-15" d="M149.9,53.71c-.25-.33-.53-.68-.93-.67a1,1,0,0,0-.73.44,9,9,0,0,1,.2.9,9.46,9.46,0,0,1-.2,4,5,5,0,0,0,.67,0,5.18,5.18,0,0,0,2-.41l.09-.08a3.8,3.8,0,0,0-.17-1.85A7.4,7.4,0,0,0,149.9,53.71Z"/><path class="cls-15" d="M151.63,53.06a.48.48,0,0,0,0,.41l2,3.16,1.11-.81,1.19-.87-3.6-2A.53.53,0,0,0,151.63,53.06Z"/><path class="cls-15" d="M157.91,50.52l-.05-.11A3.8,3.8,0,0,0,156,50a7.4,7.4,0,0,0-2.56.15c-.39.14-.81.29-.93.67a1,1,0,0,0,.19.83,9,9,0,0,1,.92.09,9.46,9.46,0,0,1,3.76,1.43,5,5,0,0,0,.25-.62A5.18,5.18,0,0,0,157.91,50.52Z"/><path class="cls-15" d="M156.53,44.78l-3,2.82a.53.53,0,0,0-.15.7.48.48,0,0,0,.38.15l3.63-1-.42-1.3Z"/><circle class="cls-2" cx="149.28" cy="49.46" r="10.01"/><circle class="cls-16" cx="149.28" cy="49.46" r="6.96"/><path class="cls-17" d="M149.28,39.5a10,10,0,1,0,10,10A10,10,0,0,0,149.28,39.5Zm7.29,5.28.46,1.4.42,1.3-3.63,1a.48.48,0,0,1-.38-.15.53.53,0,0,1,.15-.7Zm-8-3.7h1.37l-.21,3.75a.48.48,0,0,1-.26.32.53.53,0,0,1-.62-.36l-1.76-3.71Zm-7.47,6.48.42-1.3,3.5,1.36a.48.48,0,0,1,.22.34.53.53,0,0,1-.53.48l-4.07.53Zm.67,6.2-.11-.06a5.18,5.18,0,0,1-1-1.78,5,5,0,0,1-.16-.65,9.46,9.46,0,0,0,3.88-1.05,9,9,0,0,0,.79-.47,1,1,0,0,1,.64.56c.13.38-.12.75-.35,1.09a7.4,7.4,0,0,1-2,1.62A3.8,3.8,0,0,1,141.76,53.76Zm5.14-.26-.75,4-1.19-.87-1.11-.81L146.21,53a.48.48,0,0,1,.39-.11A.53.53,0,0,1,146.89,53.5Zm.51-7.08a1.28,1.28,0,0,1-1.15,0A7.4,7.4,0,0,1,144.1,45a3.8,3.8,0,0,1-1.23-1.4l0-.12a5.18,5.18,0,0,1,1.38-1.5,5,5,0,0,1,.57-.35A9.46,9.46,0,0,0,147,45a9,9,0,0,0,.69.61A1,1,0,0,1,147.4,46.42ZM151,57.95,151,58a5.18,5.18,0,0,1-2,.41,5,5,0,0,1-.67,0,9.46,9.46,0,0,0,.2-4,9,9,0,0,0-.2-.9A1,1,0,0,1,149,53c.4,0,.68.35.93.67a7.4,7.4,0,0,1,.93,2.39A3.8,3.8,0,0,1,151,57.95Zm.2-12.31a7.4,7.4,0,0,1,.65-2.48,3.8,3.8,0,0,1,1-1.6H153a5.18,5.18,0,0,1,1.86.85,5,5,0,0,1,.51.43A9.46,9.46,0,0,0,152.81,46a9,9,0,0,0-.36.85,1,1,0,0,1-.85-.07C151.27,46.5,151.25,46,151.24,45.64Zm3.55,10.18-1.11.81-2-3.16a.48.48,0,0,1,0-.41.53.53,0,0,1,.71-.07l3.6,2Zm2.67-2.65a9.46,9.46,0,0,0-3.76-1.43,9,9,0,0,0-.92-.09,1,1,0,0,1-.19-.83c.12-.38.54-.54.93-.67a7.4,7.4,0,0,1,2.56-.15,3.8,3.8,0,0,1,1.82.41l.05.11a5.18,5.18,0,0,1-.23,2A5,5,0,0,1,157.47,53.16Z"/><circle class="cls-18" cx="148.06" cy="47.68" r="0.63"/><circle class="cls-18" cx="147.18" cy="50.04" r="0.63" transform="matrix(0.31, -0.95, 0.95, 0.31, 54.11, 174.55)"/><circle class="cls-18" cx="149.15" cy="51.6" r="0.63" transform="translate(19.73 141.94) rotate(-54)"/><circle class="cls-18" cx="151.25" cy="50.21" r="0.63" transform="translate(-0.63 98.49) rotate(-36)"/><circle class="cls-18" cx="150.57" cy="47.78" r="0.63" transform="translate(-7.4 48.87) rotate(-18)"/><path class="cls-19" d="M185.82,34a2.88,2.88,0,0,0-.15-1.05,3.84,3.84,0,0,0-1.18-1.51,7.18,7.18,0,0,1-1.57-3.68,19.33,19.33,0,0,1-.3-2.11c-.23-2-.15-2.38-.39-4.91,0-.52-.1-1-.18-1.93-.11-1.32-.14-1.8-.15-2.17,0-.72,0-1.31,0-1.72a2.55,2.55,0,0,0-1.45-1.21,1.87,1.87,0,0,0-.48-.06c-1.83,0-3.61-.52-11.06-.54h-1.05l-2.77,0-.08.15a2.08,2.08,0,0,1-1.31.45,1.71,1.71,0,0,1-.41-.07,10.23,10.23,0,0,1-2.46-.9c-.44-.24-2.72-1-7.28-2.51-2.51-.83-4.62-1.51-10.71-3.46l-5.69-1.81V3.86h0A53.36,53.36,0,0,0,130.49,2c-1.89-.38-3.41-.55-6.36-.87-2.21-.24-5.43-.59-9.67-.81A120.16,120.16,0,0,0,95.27.5a102.08,102.08,0,0,0-11,1.66c-1.06.22-3.95.85-7.79,2l1.44.54-2.26.9c-10.13,4.06-15.19,6.08-17.15,7-4.37,2-6.36,3.07-12.6,5.73l-2.08.87A.64.64,0,0,1,43.4,19a.63.63,0,0,1-.2-.36l.26-.19h0a21.3,21.3,0,0,1-2.53.62,39.34,39.34,0,0,1-5.38.48c-1.81.11-3.79.55-8.54,1.72-3.32.82-5,1.23-6.39,1.66A47.59,47.59,0,0,0,12,26.23a21.77,21.77,0,0,0-6.54,4.49,24.49,24.49,0,0,0-2.92,3.92c-.39.6-.93,1.77-2,4.09a3.77,3.77,0,0,0-.41,1.85,3.36,3.36,0,0,0,.14.77l.93.9a9.36,9.36,0,0,0-1,2.38,11.16,11.16,0,0,0-.18,3.8,3.51,3.51,0,0,0,.5,2,2.81,2.81,0,0,0,1.18.9,40.3,40.3,0,0,0,8.18,2.58c.69.13,1.72.31,3,.5h2.85a13.73,13.73,0,0,1-.86-6,14,14,0,0,1,.9-3.89,17.42,17.42,0,0,1,9.13-9.67A16.19,16.19,0,0,1,45.36,41.1,14.82,14.82,0,0,1,48,47.61a22.47,22.47,0,0,1-.09,5.06c-.09.73-.19,1.34-.27,1.76l0,.25a45.21,45.21,0,0,1,5.45-.61l.7,0L133.57,54a16,16,0,0,1,.15-9.49,16.21,16.21,0,0,1,2.68-4.79,16.94,16.94,0,0,1,6.54-4.94,15.81,15.81,0,0,1,16.36,2,17.19,17.19,0,0,1,2.62,2.47,13,13,0,0,1,2.86,4.7,16.44,16.44,0,0,1,.39,6.39c0,.65-.1,1.18-.15,1.54l0,.81,3.83-.51,5.3-.87,5.64-1.08A8.72,8.72,0,0,0,181,49.5a10.59,10.59,0,0,0,3.5-4.76,17.5,17.5,0,0,0,1.21-4.49C186,38,185.73,37.81,185.82,34ZM97.37,19.27l-19,1L64.5,20.9,61,21l-.21-5.91.39-.15c4.17-2,7.81-3.45,10.67-4.52A83.93,83.93,0,0,1,82.7,7a71.46,71.46,0,0,1,7.8-1.42,48.15,48.15,0,0,1,9.13-.39c.62,0,1.13.09,1.48.12Zm42.82-6A51.61,51.61,0,0,1,127,17.31a96.77,96.77,0,0,1-11.42,1.05c-4.46.27-8.16.37-10.76.42l-.3-.06c.93-8.26,1.32-11.89,1.33-12.14,0,0,0,0,0-.09a2.37,2.37,0,0,1,.15-.72.6.6,0,0,1,.21-.42c1.48-1,10.28,0,10.28,0,4.17.64,3.2.44,5.64.84,3.81.62,6.69,1.19,8.92,1.63s4.73,1,7.8,1.63l2.32,3.31Z"/><path class="cls-20" d="M185.82,34a2.88,2.88,0,0,0-.15-1.05,3.84,3.84,0,0,0-1.18-1.51,7.18,7.18,0,0,1-1.57-3.68,19.33,19.33,0,0,1-.3-2.11c-.23-2-.15-2.38-.39-4.91,0-.52-.1-1-.18-1.93-.11-1.32-.14-1.8-.15-2.17,0-.72,0-1.31,0-1.72a2.55,2.55,0,0,0-1.45-1.21,1.87,1.87,0,0,0-.48-.06c-1.83,0-3.61-.52-11.06-.54h-1.05l-2.77,0-.08.15a2.08,2.08,0,0,1-1.31.45,1.71,1.71,0,0,1-.41-.07,10.23,10.23,0,0,1-2.46-.9c-.44-.24-2.72-1-7.28-2.51-2.51-.83-4.62-1.51-10.71-3.46l-5.69-1.81V3.86h0A53.36,53.36,0,0,0,130.49,2c-1.89-.38-3.41-.55-6.36-.87-2.21-.24-5.43-.59-9.67-.81A120.16,120.16,0,0,0,95.27.5a102.08,102.08,0,0,0-11,1.66c-1.06.22-3.95.85-7.79,2l1.44.54-2.26.9c-10.13,4.06-15.19,6.08-17.15,7-4.37,2-6.36,3.07-12.6,5.73l-2.08.87A.64.64,0,0,1,43.4,19a.63.63,0,0,1-.2-.36l.26-.19h0a21.3,21.3,0,0,1-2.53.62,39.34,39.34,0,0,1-5.38.48c-1.81.11-3.79.55-8.54,1.72-3.32.82-5,1.23-6.39,1.66A47.59,47.59,0,0,0,12,26.23a21.77,21.77,0,0,0-6.54,4.49,24.49,24.49,0,0,0-2.92,3.92c-.39.6-.93,1.77-2,4.09a3.77,3.77,0,0,0-.41,1.85,3.36,3.36,0,0,0,.14.77l.93.9a9.36,9.36,0,0,0-1,2.38,11.16,11.16,0,0,0-.18,3.8,3.51,3.51,0,0,0,.5,2,2.81,2.81,0,0,0,1.18.9,40.3,40.3,0,0,0,8.18,2.58c.69.13,1.72.31,3,.5h2.85a13.73,13.73,0,0,1-.86-6,14,14,0,0,1,.9-3.89,17.42,17.42,0,0,1,9.13-9.67A16.19,16.19,0,0,1,45.36,41.1,14.82,14.82,0,0,1,48,47.61a22.47,22.47,0,0,1-.09,5.06c-.09.73-.19,1.34-.27,1.76l0,.25a45.21,45.21,0,0,1,5.45-.61l.7,0L133.57,54a16,16,0,0,1,.15-9.49,16.21,16.21,0,0,1,2.68-4.79,16.94,16.94,0,0,1,6.54-4.94,15.81,15.81,0,0,1,16.36,2,17.19,17.19,0,0,1,2.62,2.47,13,13,0,0,1,2.86,4.7,16.44,16.44,0,0,1,.39,6.39c0,.65-.1,1.18-.15,1.54l0,.81,3.83-.51,5.3-.87,5.64-1.08A8.72,8.72,0,0,0,181,49.5a10.59,10.59,0,0,0,3.5-4.76,17.5,17.5,0,0,0,1.21-4.49C186,38,185.73,37.81,185.82,34ZM97.37,19.27l-19,1L64.5,20.9,61,21l-.21-5.91.39-.15c4.17-2,7.81-3.45,10.67-4.52A83.93,83.93,0,0,1,82.7,7a71.46,71.46,0,0,1,7.8-1.42,48.15,48.15,0,0,1,9.13-.39c.62,0,1.13.09,1.48.12Zm42.82-6A51.61,51.61,0,0,1,127,17.31a96.77,96.77,0,0,1-11.42,1.05c-4.46.27-8.16.37-10.76.42l-.3-.06c.93-8.26,1.32-11.89,1.33-12.14,0,0,0,0,0-.09a2.37,2.37,0,0,1,.15-.72.6.6,0,0,1,.21-.42c1.48-1,10.28,0,10.28,0,4.17.64,3.2.44,5.64.84,3.81.62,6.69,1.19,8.92,1.63s4.73,1,7.8,1.63l2.32,3.31Z"/><path class="cls-21" d="M55,20.27l.3-.84a10.79,10.79,0,0,1,2.32-3,5,5,0,0,1,1.42-.93,3,3,0,0,1,2.2-.24,2.41,2.41,0,0,1,1,.72v4.85a5.42,5.42,0,0,1-1,.45c-2.74.92-5.43-.64-6.27-1.18"/></g></g></g></svg>