<svg xmlns="http://www.w3.org/2000/svg" xmlns:xlink="http://www.w3.org/1999/xlink" viewBox="0 0 228.51 64.57"><defs><style>.cls-1,.cls-22,.cls-3{fill:#5f6061;}.cls-1{opacity:0.33;}.cls-2,.cls-4{fill:#c6c5c5;}.cls-2{opacity:0.23;}.cls-5{fill:#e2e2e2;}.cls-6{fill:url(#linear-gradient);}.cls-7{fill:#2c2c2d;}.cls-8{fill:#ededed;}.cls-9{fill:#c44f27;}.cls-10{fill:#181914;}.cls-11,.cls-12,.cls-13,.cls-16,.cls-18{fill:none;}.cls-11{stroke:#89898c;}.cls-11,.cls-12,.cls-13,.cls-16,.cls-18,.cls-22{stroke-miterlimit:10;}.cls-11,.cls-22{stroke-width:0.25px;}.cls-12{stroke:#b3b3b3;stroke-width:0;}.cls-13,.cls-16{stroke:#e2e2e2;}.cls-13{stroke-width:0.5px;}.cls-14{fill:#a11e21;}.cls-15{fill:#bcc0c3;}.cls-17{fill:#fff;}.cls-18{stroke:#282828;}.cls-19{fill:#89898c;}.cls-20{fill:#515251;}.cls-21{fill:#5b5b5b;}.cls-22{stroke:#58595b;}.cls-23{fill:url(#linear-gradient-2);}.cls-24{fill:#353535;}</style><linearGradient id="linear-gradient" x1="114.26" y1="4.68" x2="114.26" y2="45.24" gradientUnits="userSpaceOnUse"><stop offset="0.43" stop-color="#bebebe"/><stop offset="0.58" stop-color="#97979b"/></linearGradient><linearGradient id="linear-gradient-2" x1="114.26" y1="39.09" x2="114.26" y2="50.93" gradientUnits="userSpaceOnUse"><stop offset="0" stop-color="#bebebe" stop-opacity="0"/><stop offset="0.85" stop-color="#757578"/></linearGradient></defs><title>lincoln</title><g id="Layer_2" data-name="Layer 2"><g id="Layer_2-2" data-name="Layer 2"><g id="lincoln"><ellipse class="cls-1" cx="115.39" cy="16.24" rx="3.87" ry="6.43"/><path class="cls-2" d="M173.87,5.1c-1.08-.53-3.25-2-3.82-2.19l-4.63,1.62,13.91,18.15c6.33-2.45,9.27-3.24,10.11-3.53L190,19l.28-.2.28-.35,0-.43-.24-.3C185.43,11.1,173.87,5.1,173.87,5.1Z"/><path class="cls-3" d="M185.65,28.65c-11.69-5.26-24.21.28-27.08,1.55-8.21,3.63-8.4,6.9-16.56,10.83-6,2.91-10.89,3.52-23.67,4.49-42.21,3.21-46.81,1-49.83-2.17-4.58-4.79-3.18-9.28-9.28-13.15-5.16-3.28-11-3.12-17.79-2.94-6.41.17-11,.29-15.94,3.09C18.68,34.25,12.85,42.42,15,46.6c1.21,2.38,4.68,2.82,9.9,3.4,8.56,1,12.43-.6,20.7-1.09,8-.47,7.88.8,20.15,1.09,8.89.21,14.79-.32,19.65-.62,27.42-1.67,33.6,3.39,63.6,1.7,16-.9,14.77-2.36,23.67-1.86,9.43.53,17.34,2.55,22.13-2.17A8.51,8.51,0,0,0,197.41,42C197.95,36.05,190.43,30.8,185.65,28.65ZM62.57,48.92h0Z"/><path class="cls-4" d="M68.72,17.47l0,0h0Z"/><polygon class="cls-4" points="75.86 12.61 75.86 12.61 75.86 12.61 75.86 12.61"/><path class="cls-4" d="M71.69,15.47h0Z"/><path class="cls-4" d="M189.64,17.22h0Z"/><polygon class="cls-4" points="189.03 16.93 189.03 16.93 189.03 16.93 189.03 16.93"/><path class="cls-5" d="M64.5,51.92l.52.57h88.46c.09-.91.24-2.13.52-3.56H64A26.75,26.75,0,0,1,64.5,51.92Z"/><path class="cls-6" d="M228.26,40.1a3,3,0,0,0-.57-1.5,2.65,2.65,0,0,0-.62-.57c-1.09-.75-2.66-1.6-3.15-1.86l-1.44-.93c0-2.22.05-5,0-8.2a11.4,11.4,0,0,0-.93-5.11,3.46,3.46,0,0,0-1.7-2.48c-6.86-2.76-29-2-29.35-2.06l-.24,0-.12,0,0,.24a6.4,6.4,0,0,1-1.42.85l-.2.09a7.12,7.12,0,0,1-4.13.19c-1.41-.46-2-1.62-3-3.07a65.47,65.47,0,0,0-11-11.12A1.47,1.47,0,0,1,170,4a1.55,1.55,0,0,1-.08-.88l.08-.2-.83-.34a26.48,26.48,0,0,0-8-1.75c-9-.63-18.67-.72-18.67-.72C133.94,0,131,0,126.55,0c-3.48,0-6.21.11-7.23.14-2.87.08-5.27.18-7.63.27-.55,0-5.32.23-11.5.93a28.94,28.94,0,0,0-7,1.34,15.84,15.84,0,0,0-3.36,1.65h1L83.89,9,73.78,16a35.73,35.73,0,0,0-4.56,3.61,1.27,1.27,0,0,1-.59.4A1.85,1.85,0,0,1,67,19.48a2.11,2.11,0,0,1-.43-.6h0a1.93,1.93,0,0,1-.34.18l-7.12.36c-1.18.06-2.86.15-4.89.3-.7.05-1.82.14-3.18.26-2.89.26-5,.53-5.45.58,0,0-27.41,3.29-35.85,6.4a5.94,5.94,0,0,0-2.58,1.7A7.67,7.67,0,0,0,5.75,32,28.86,28.86,0,0,0,5,36.7l-.88.83A8.75,8.75,0,0,1,2.34,38c-.88.16-1,.05-1.34.21-1,.49-1.33,2.62-.67,4.23a8,8,0,0,0,2.58,3.2c.37.27,1.11.74,1,1.24,0,.3-.36.32-.46.62-.27.75,1.07,2.22,2.68,2.68a4,4,0,0,0,1,.15c4.07,0,7,1.06,18.1.83l1.91-.05a25.08,25.08,0,0,1,.21-2.63,23.39,23.39,0,0,1,2.68-8.46,18.12,18.12,0,0,1,2.16-3.13,17.27,17.27,0,0,1,4.23-3.55,17,17,0,0,1,9.44-2.24,17.43,17.43,0,0,1,9.36,3.64,22.65,22.65,0,0,1,7.92,11.48A26.54,26.54,0,0,1,64,48.92h90c.09-.46.19-.94.31-1.44.83-3.55,1.57-6.69,3.87-9.44a15.64,15.64,0,0,1,7.27-4.64,18.5,18.5,0,0,1,19.65,4.44,20.68,20.68,0,0,1,5.62,10.88,20,20,0,0,1,.26,2.06c1.42-.11,3.55-.26,6.14-.41,3.28-.19,4.91-.23,8-.36,12-.5,15.12-1,16.66-1.29,2.36-.43,4.26-.91,5.47-1.24a9.06,9.06,0,0,0,.57-1.08A10.74,10.74,0,0,0,228.26,40.1ZM171.88,20.26l-.24.17-.21.07h-.37c-.54,0-2.33-.15-6.25,0l-2.41.2h-3.82l-37.76.54H71.36a82.68,82.68,0,0,1,10.39-8.36c1.36-.95,3.43-2.2,7.58-4.72A21.73,21.73,0,0,1,94.9,5.44a18.1,18.1,0,0,1,5-.7c4.14-.08,10.55-.25,18.65-.39h44.33c.3.27,1.29,1.84,1.83,2.48,0,0,5.67,7,7.22,12.84L172,20Z"/><polygon class="cls-7" points="118.5 4.36 114.21 21.23 120.82 21.23 123.3 4.36 118.5 4.36"/><path class="cls-7" d="M159.71,4.36h-1.13l3.82,16.32,2.41-.2-.56,0Z"/><path class="cls-4" d="M170,2.9h0l.14.06Z"/><path class="cls-4" d="M188.55,16.58h0Z"/><path class="cls-4" d="M172.28,4h0Z"/><path class="cls-5" d="M17.05,34.88a15.12,15.12,0,0,0-.14-3.68,2.13,2.13,0,0,0-1.07-1.41,1.63,1.63,0,0,0-.36-.18c-.62-.21-1.38,0-3.75.07a10.71,10.71,0,0,1-2.22-.08c-.39-.07-.93-.21-2-.49l-1.06-.28L4.82,36.75l1.82.1c.84,0,1.47.09,1.68.08,3.57-.09,6.18.13,7.79-.64Z"/><path class="cls-8" d="M11.94,30.23a19.69,19.69,0,0,1-2.84,0,17.07,17.07,0,0,1-1.88-.41c-.37-.1-.68-.21-.9-.28L6,30.1l-1,4.31-.11,1.87a57.38,57.38,0,0,0,6.58.15l1.44-.07V30.2Z"/><path class="cls-9" d="M16.15,30.51l-.26-.21c-.28,0-.72-.08-1.26-.1s-1.09,0-1.78,0v6.17c.91-.05,1.79-.13,2.63-.21l1-1v-4Z"/><circle class="cls-10" cx="44.87" cy="48.92" r="15.65"/><path class="cls-2" d="M83.89,9l7-4.66h-1l-.46.18c-4.38,2.33-8.91,5-13.54,8.07Q73.72,14,71.69,15.47l-3,2-2.17,1.4a2.11,2.11,0,0,0,.43.6,1.85,1.85,0,0,0,1.67.56,1.27,1.27,0,0,0,.59-.4A35.73,35.73,0,0,1,73.78,16Z"/><path class="cls-2" d="M99.85,4.75a18.1,18.1,0,0,0-5,.7,21.73,21.73,0,0,0-5.57,2.71c-4.15,2.52-6.23,3.77-7.58,4.72a82.68,82.68,0,0,0-10.39,8.36h42.85L118.5,4.36C110.4,4.5,104,4.67,99.85,4.75Z"/><polygon class="cls-2" points="158.58 4.36 157.83 4.36 155.94 4.36 123.3 4.36 120.82 21.23 158.58 20.68 162.39 20.68 158.58 4.36"/><path class="cls-2" d="M164.73,7.8c-.46-.47-1.9-1.83-2.16-2l-2.44-.08,3.69,13.58c3.7-.12,5.36,0,5.85,0H170l.18-.05.21-.13.07-.23,0-.9C169.06,13.7,164.73,7.8,164.73,7.8Z"/><path class="cls-11" d="M13.49,28.36c17.39-1.16,36-2.13,53.43-3.29h90.91"/><path class="cls-11" d="M10.53,27.59a8.42,8.42,0,0,1,1.35-.34,8.14,8.14,0,0,1,1.32-.11c1,0,24.67-1.4,59.78-3.49H177.16"/><path class="cls-11" d="M16.18,36.17a98.64,98.64,0,0,0,15.09.46c.53,0,.79,0,1.31-.07"/><line class="cls-11" x1="57.33" y1="36.48" x2="159.71" y2="36.48"/><path class="cls-11" d="M183.58,36.48h30.27a5.15,5.15,0,0,0,1.68-.3c.66-.17.79-1.11.67-1.79"/><path class="cls-7" d="M162.83,4.36H123.3l-2.48,16.87,50.53-.58.54-.39.12-.32L171.35,18a42.38,42.38,0,0,0-8.52-13.66Zm6.6,14.82-46.7.66L125,5.74h36.33l1.23,0c1.23,1.75,2.29,3.14,3,4.07a27.06,27.06,0,0,1,3.33,5.8c.59,1.19,1,2.08,1.09,2.36a4.23,4.23,0,0,1,.21.69.27.27,0,0,1,0,.11c0,.15-.2.24-.3.3a2,2,0,0,1-.52.08"/><path class="cls-7" d="M99.35,4.76l-1.19.07-1.79.26-1.47.36L93.3,6l-1.79.87-1.69,1L86.67,9.77,84,11.42l-2,1.27-2.41,1.7L77.43,16l-2,1.64-2.12,1.83-1.9,1.74h42.85L118.5,4.36Zm13.52,14.89H76.2l1.63-1.42,1.82-1.49,1.75-1.34,1.86-1.32,2.06-1.38,1.68-1,2.31-1.35L92,8.78,93.44,8,95,7.27l1.37-.46,1.26-.29,1.53-.21,1-.06,10.3-.2,5.79-.12h.3Z"/><polygon class="cls-7" points="89.22 4.64 90.12 4.64 89.22 5.29 81.93 9.91 76.2 13.93 72.16 16.83 69.11 19.39 68.57 19.76 68.1 19.88 67.26 19.58 66.54 18.88 66.72 19.19 66.97 19.48 67.45 19.84 67.63 19.93 67.87 20.02 68.02 20.05 68.14 20.07 68.23 20.08 68.43 20.08 68.58 20.05 68.89 19.93 69.22 19.64 69.75 19.14 70.78 18.28 73.92 15.94 78.07 13.06 82.35 10.09 86 7.62 88.56 5.92 89.77 5.12 90.91 4.36 89.86 4.36 89.22 4.64"/><path class="cls-7" d="M170.06,2.91l-.11.19-.05.29v.28L170,4l.25.49.63.59L173,6.78l2.79,2.56L178.32,12l1.19,1.43,1.91,2.28,1,1.47.46.62.72.62.48.27.65.23L186,19l1.32-.09.84-.17.74-.29.66-.32.71-.51-.1-.24-.09.2-.34.24-.77.4-1,.37-.65.14-.94.06a3.73,3.73,0,0,1-1.42-.14,5.2,5.2,0,0,1-2.39-1.88c-.64-.75-.64-.92-1.43-2-.21-.28-.5-.66-1.78-2.12-1.56-1.79-2.35-2.68-2.94-3.26-.32-.31,0,0-2.55-2.27-.74-.67-1.41-1.27-2.38-2.11l-1-.89-.22-.4-.07-.39Z"/><path class="cls-11" d="M197.44,24.88a3.7,3.7,0,0,1,1.4,1.46,4.3,4.3,0,0,1,.21,3.39,3.92,3.92,0,0,1-2.23,2.35,3.29,3.29,0,0,1-4.46-2.26,4.27,4.27,0,0,1,.18-3,4.17,4.17,0,0,1,2-2.05,3,3,0,0,1,2.88.15Z"/><path class="cls-12" d="M30.53,39.31"/><polygon class="cls-5" points="0 41.49 0.6 43.23 26.97 43.23 28.83 41.49 0 41.49"/><path class="cls-13" d="M103.68,4.5l13.8-.14,26.72,0,18.64,0,1.5,1.76L166.59,9l1.47,2.34,2,3.6L171.35,18a9.77,9.77,0,0,1,.66,1.92c0,.69-1,.76-1.1.77l-5.22,0-38,.49H71.36l2.51-2.29,3-2.62,3.75-2.79,5.17-3.33,4.07-2.53L93,5.95l2.53-.86,4-.48Z"/><path class="cls-5" d="M222.44,26.23h-5.18l-.17.42a23.38,23.38,0,0,0-1.57,6.79,2.19,2.19,0,0,0,.08.44,2.88,2.88,0,0,0,1.53,1.67h4.39l.93-.46Z"/><path class="cls-14" d="M222.45,26.79v-.14h-.7c-1.67,0-2.42.13-4.06.14h-.21c-.27.78-.47,1.46-.61,2a26.86,26.86,0,0,0-.67,3.25c0,.19,0,.36-.07.53h6.32Z"/><path class="cls-15" d="M216.12,32.56c0,.44-.08.81-.1,1.11a2.46,2.46,0,0,0,1.3,1.45,4.31,4.31,0,0,0,1.06.07c.74,0,1.54,0,2.82,0a2.55,2.55,0,0,0,.37-.06l.87-.44V32.56Z"/><path class="cls-5" d="M154,48.92c.1,0,.41-.87,1.32-5a14.17,14.17,0,0,1,2.05-4.58,14.75,14.75,0,0,1,5.53-4.76A17.33,17.33,0,0,1,167.31,33a20,20,0,0,1,6-.48,17.94,17.94,0,0,1,5.85,1.5,17.6,17.6,0,0,1,3.31,2,20.24,20.24,0,0,1,3.29,3.1,20.67,20.67,0,0,1,3,4.78,27,27,0,0,1,1.36,4c.44,1.52.67,2.91.78,2.89a6.47,6.47,0,0,0-.07-1.61,15.6,15.6,0,0,0-1-3.93A21.86,21.86,0,0,0,188.4,42a25.71,25.71,0,0,0-1.66-2.67,15,15,0,0,0-4.59-4.55,17.54,17.54,0,0,0-3-1.93,14.25,14.25,0,0,0-3.63-1.1,20,20,0,0,0-6.15-.15,18.65,18.65,0,0,0-7.14,2.29,15.13,15.13,0,0,0-4.64,3.84A15.52,15.52,0,0,0,155,42.84C153.93,45.94,153.8,48.89,154,48.92Z"/><path class="cls-5" d="M27.2,51.14c.19,0,.21-2.67,1.19-6.21a20.81,20.81,0,0,1,2.34-5.43,18.29,18.29,0,0,1,4.88-5.19,16.74,16.74,0,0,1,5.79-2.38,17.83,17.83,0,0,1,7.73.28A15.4,15.4,0,0,1,55.2,35.3,17.32,17.32,0,0,1,59.91,40a25.43,25.43,0,0,1,2.44,4.8c.93,2.25,1.41,4.08,1.56,4a6.1,6.1,0,0,0-.24-2,24.41,24.41,0,0,0-3.09-7.15,19.82,19.82,0,0,0-3.07-3.92,19.17,19.17,0,0,0-2.64-2.22,15.35,15.35,0,0,0-5-2.53,16,16,0,0,0-6.31-.68,17.37,17.37,0,0,0-6.2,1.61A16.84,16.84,0,0,0,33.11,35a26.32,26.32,0,0,0-3.49,5,18.9,18.9,0,0,0-2.24,6.72C27.18,49,27,51.14,27.2,51.14Z"/><path class="cls-16" d="M66.51,18.93l.06.11a3.57,3.57,0,0,0,.34.48,1.78,1.78,0,0,0,.63.43,1.63,1.63,0,0,0,.75.19,1.46,1.46,0,0,0,.79-.26l3.84-3,2.34-1.68,4.36-3.07,3.59-2.4,3.39-2.3,3.49-2.32,1.15-.79H89.77"/><polygon class="cls-17" points="90.27 4.12 89.74 4.41 89.47 4.43 89.67 3.92 90.27 4.12"/><polygon class="cls-5" points="228.32 40.55 188.55 40.55 189.64 42.83 228.51 42.83 228.51 42.12 228.45 41.69 228.32 40.55"/><path class="cls-11" d="M69.24,21.35c.69-1.28,1.48-1.69,6.63-5.44,3.37-2.46,2.4-1.81,4.76-3.51C85.37,9,87.79,7.26,90.4,6a36.24,36.24,0,0,1,5.38-2.08L100,3.51l20.81-.27-4.1,25.12,1.78,19.86H74.06c-.43-1.17-1-2.89-1.7-5a83.18,83.18,0,0,1-3.09-13.68C68.66,25.16,68.38,22.92,69.24,21.35Z"/><path class="cls-11" d="M120.82,3.24H162.7a6.42,6.42,0,0,1,1.43.82c4.44,4.8,6.7,9,9.47,16.22.21.55.34,1,.4,1.19V30c-.38,0-1,0-1.7,0-1.73.06-11.39.42-16.76,7.67a18.3,18.3,0,0,0-3.39,10.53H118.5l-1.78-19.86Z"/><line class="cls-18" x1="117.91" y1="21.08" x2="120.61" y2="4.5"/><polygon class="cls-19" points="1.39 44.69 1.77 45.07 10.07 45.07 10.07 44.69 1.39 44.69"/><polygon class="cls-19" points="2.1 45.37 2.49 45.76 10.78 45.76 10.78 45.37 2.1 45.37"/><polygon class="cls-19" points="2.81 46.05 3.2 46.44 11.49 46.44 11.49 46.05 2.81 46.05"/><polygon class="cls-19" points="3.53 46.74 3.91 47.13 12.21 47.13 12.21 46.74 3.53 46.74"/><rect class="cls-20" x="107.63" y="24.28" width="7.79" height="2.67" rx="1.33" ry="1.33"/><path class="cls-21" d="M108.32,24.87a1.14,1.14,0,0,0-.08.41,1.06,1.06,0,0,0,1,1.09h4.51a1.06,1.06,0,0,0,1-1.09,1.14,1.14,0,0,0-.08-.41Z"/><rect class="cls-20" x="157.8" y="24.28" width="7.79" height="2.67" rx="1.33" ry="1.33"/><path class="cls-21" d="M158.49,24.87a1.14,1.14,0,0,0-.08.41,1.06,1.06,0,0,0,1,1.09h4.51a1.06,1.06,0,0,0,1-1.09,1.14,1.14,0,0,0-.08-.41Z"/><path class="cls-16" d="M169.95,2.86a1.83,1.83,0,0,0-.14.31,1.07,1.07,0,0,0,.13.88l.55.75,2.82,2.44,2.2,2,2.21,2.22,2.83,3.32,1.26,1.59a9.05,9.05,0,0,0,1.06,1.42,3.17,3.17,0,0,0,.8.72A3.13,3.13,0,0,0,185,19a6.45,6.45,0,0,0,2.36,0,5.88,5.88,0,0,0,2.25-.78c.2-.1.76-.63.74-.79"/><circle class="cls-10" cx="171.71" cy="48.89" r="15.65"/><polygon class="cls-3" points="78.93 16.61 74.94 19.92 81.57 19.91 81.16 14.93 78.93 16.61"/><path class="cls-22" d="M81.07,21.23a1.83,1.83,0,0,1-.86-.36,2,2,0,0,1-.62-1A6.89,6.89,0,0,1,79.43,16a2.19,2.19,0,0,1,.48-1,2.56,2.56,0,0,1,2-.65,2.52,2.52,0,0,1,1.51.85q.06.43.1.87a25.25,25.25,0,0,1,.06,4.07A3.35,3.35,0,0,1,81.07,21.23Z"/><path class="cls-23" d="M228.26,40.1a3,3,0,0,0-.57-1.5,2.65,2.65,0,0,0-.62-.57c-1.09-.75-2.66-1.6-3.15-1.86l-1.44-.93c0-2.22.05-5,0-8.2a11.4,11.4,0,0,0-.93-5.11,3.46,3.46,0,0,0-1.7-2.48c-6.86-2.76-29-2-29.35-2.06l-.24,0-.12,0,0,.24a6.4,6.4,0,0,1-1.42.85l-.2.09a7.12,7.12,0,0,1-4.13.19c-1.41-.46-2-1.62-3-3.07a65.47,65.47,0,0,0-11-11.12A1.47,1.47,0,0,1,170,4a1.55,1.55,0,0,1-.08-.88l.08-.2-.83-.34a26.48,26.48,0,0,0-8-1.75c-9-.63-18.67-.72-18.67-.72C133.94,0,131,0,126.55,0c-3.48,0-6.21.11-7.23.14-2.87.08-5.27.18-7.63.27-.55,0-5.32.23-11.5.93a28.94,28.94,0,0,0-7,1.34,15.84,15.84,0,0,0-3.36,1.65h1L83.89,9,73.78,16a35.73,35.73,0,0,0-4.56,3.61,1.27,1.27,0,0,1-.59.4A1.85,1.85,0,0,1,67,19.48a2.11,2.11,0,0,1-.43-.6h0a1.93,1.93,0,0,1-.34.18l-7.12.36c-1.18.06-2.86.15-4.89.3-.7.05-1.82.14-3.18.26-2.89.26-5,.53-5.45.58,0,0-27.41,3.29-35.85,6.4a5.94,5.94,0,0,0-2.58,1.7A7.67,7.67,0,0,0,5.75,32,28.86,28.86,0,0,0,5,36.7l-.88.83A8.75,8.75,0,0,1,2.34,38c-.88.16-1,.05-1.34.21-1,.49-1.33,2.62-.67,4.23a8,8,0,0,0,2.58,3.2c.37.27,1.11.74,1,1.24,0,.3-.36.32-.46.62-.27.75,1.07,2.22,2.68,2.68a4,4,0,0,0,1,.15c4.07,0,7,1.06,18.1.83l1.91-.05a25.08,25.08,0,0,1,.21-2.63,23.39,23.39,0,0,1,2.68-8.46,18.12,18.12,0,0,1,2.16-3.13,17.27,17.27,0,0,1,4.23-3.55,17,17,0,0,1,9.44-2.24,17.43,17.43,0,0,1,9.36,3.64,22.65,22.65,0,0,1,7.92,11.48A26.54,26.54,0,0,1,64,48.92h90c.09-.46.19-.94.31-1.44.83-3.55,1.57-6.69,3.87-9.44a15.64,15.64,0,0,1,7.27-4.64,18.5,18.5,0,0,1,19.65,4.44,20.68,20.68,0,0,1,5.62,10.88,20,20,0,0,1,.26,2.06c1.42-.11,3.55-.26,6.14-.41,3.28-.19,4.91-.23,8-.36,12-.5,15.12-1,16.66-1.29,2.36-.43,4.26-.91,5.47-1.24a9.06,9.06,0,0,0,.57-1.08A10.74,10.74,0,0,0,228.26,40.1ZM171.88,20.26l-.24.17-.21.07h-.37c-.54,0-2.33-.15-6.25,0l-2.41.2h-3.82l-37.76.54H71.36a82.68,82.68,0,0,1,10.39-8.36c1.36-.95,3.43-2.2,7.58-4.72A21.73,21.73,0,0,1,94.9,5.44a18.1,18.1,0,0,1,5-.7c4.14-.08,10.55-.25,18.65-.39h44.33c.3.27,1.29,1.84,1.83,2.48,0,0,5.67,7,7.22,12.84L172,20Z"/><circle class="cls-3" cx="44.99" cy="48.72" r="8.69"/><path class="cls-5" d="M45,39.14a9.72,9.72,0,1,0,9.72,9.72A9.72,9.72,0,0,0,45,39.14Zm0,17.95a8.23,8.23,0,1,1,8.23-8.23A8.23,8.23,0,0,1,45,57.08Z"/><polygon class="cls-5" points="42.92 44.76 44.4 39.33 44.72 39.33 44.14 44.76 42.92 44.76"/><polygon class="cls-5" points="47.08 44.76 45.6 39.33 45.28 39.33 45.86 44.76 47.08 44.76"/><polygon class="cls-5" points="46.42 44.51 51.31 41.71 51.53 41.93 47.28 45.36 46.42 44.51"/><polygon class="cls-5" points="49.36 47.44 52.16 42.56 51.93 42.33 48.5 46.59 49.36 47.44"/><polygon class="cls-5" points="49.08 46.8 54.51 48.27 54.51 48.59 49.08 48.01 49.08 46.8"/><polygon class="cls-5" points="49.08 50.95 54.51 49.48 54.51 49.16 49.08 49.74 49.08 50.95"/><polygon class="cls-5" points="49.33 50.3 52.13 55.19 51.9 55.41 48.47 51.16 49.33 50.3"/><polygon class="cls-5" points="46.39 53.24 51.28 56.04 51.51 55.81 47.25 52.38 46.39 53.24"/><polygon class="cls-5" points="47.04 52.95 45.56 58.39 45.24 58.39 45.82 52.95 47.04 52.95"/><polygon class="cls-5" points="42.88 52.95 44.36 58.39 44.68 58.39 44.1 52.95 42.88 52.95"/><polygon class="cls-5" points="43.54 53.21 38.65 56.01 38.43 55.78 42.68 52.35 43.54 53.21"/><polygon class="cls-5" points="40.6 50.27 37.8 55.16 38.03 55.38 41.46 51.13 40.6 50.27"/><polygon class="cls-5" points="40.88 50.91 35.45 49.44 35.45 49.12 40.88 49.7 40.88 50.91"/><polygon class="cls-5" points="40.88 46.76 35.45 48.24 35.45 48.56 40.88 47.97 40.88 46.76"/><polygon class="cls-5" points="40.63 47.42 37.83 42.53 38.06 42.3 41.49 46.56 40.63 47.42"/><polygon class="cls-5" points="43.57 44.48 38.68 41.68 38.45 41.91 42.71 45.34 43.57 44.48"/><polygon class="cls-5" points="41.51 45.87 40.78 40.28 41.08 40.16 42.63 45.4 41.51 45.87"/><polygon class="cls-5" points="45.34 44.27 41.9 39.82 41.6 39.94 44.22 44.74 45.34 44.27"/><polygon class="cls-5" points="44.64 44.29 48.08 39.83 48.37 39.95 45.76 44.75 44.64 44.29"/><polygon class="cls-5" points="48.48 45.87 49.19 40.28 48.89 40.16 47.36 45.41 48.48 45.87"/><polygon class="cls-5" points="47.97 45.39 53.56 44.66 53.68 44.96 48.44 46.51 47.97 45.39"/><polygon class="cls-5" points="49.57 49.22 54.02 45.77 53.9 45.48 49.1 48.1 49.57 49.22"/><polygon class="cls-5" points="49.55 48.52 54.01 51.95 53.89 52.25 49.09 49.64 49.55 48.52"/><polygon class="cls-5" points="47.97 52.36 53.55 53.07 53.67 52.77 48.43 51.24 47.97 52.36"/><polygon class="cls-5" points="48.45 51.85 49.18 57.43 48.88 57.56 47.33 52.31 48.45 51.85"/><polygon class="cls-5" points="44.62 53.44 48.06 57.9 48.36 57.77 45.74 52.98 44.62 53.44"/><polygon class="cls-5" points="45.32 53.43 41.88 57.89 41.59 57.77 44.2 52.97 45.32 53.43"/><polygon class="cls-5" points="41.48 51.84 40.77 57.43 41.07 57.55 42.6 52.31 41.48 51.84"/><polygon class="cls-5" points="41.99 52.33 36.4 53.05 36.28 52.76 41.52 51.21 41.99 52.33"/><polygon class="cls-5" points="40.39 48.49 35.94 51.94 36.06 52.24 40.86 49.61 40.39 48.49"/><polygon class="cls-5" points="40.41 49.2 35.95 45.76 36.07 45.46 40.87 48.08 40.41 49.2"/><polygon class="cls-5" points="41.99 45.36 36.41 44.65 36.28 44.94 41.53 46.48 41.99 45.36"/><polygon class="cls-5" points="43.92 46.64 44.72 43.7 44.89 43.7 44.58 46.64 43.92 46.64"/><polygon class="cls-5" points="46.17 46.64 45.37 43.7 45.2 43.7 45.51 46.64 46.17 46.64"/><polygon class="cls-5" points="45.81 46.5 48.46 44.99 48.58 45.11 46.28 46.97 45.81 46.5"/><polygon class="cls-5" points="47.4 48.09 48.92 45.45 48.8 45.32 46.94 47.63 47.4 48.09"/><polygon class="cls-5" points="47.25 47.74 50.19 48.54 50.19 48.72 47.25 48.4 47.25 47.74"/><polygon class="cls-5" points="47.25 49.99 50.19 49.19 50.19 49.02 47.25 49.34 47.25 49.99"/><polygon class="cls-5" points="47.39 49.64 48.91 52.28 48.78 52.41 46.92 50.1 47.39 49.64"/><polygon class="cls-5" points="45.8 51.23 48.45 52.74 48.57 52.62 46.26 50.76 45.8 51.23"/><polygon class="cls-5" points="46.15 51.08 45.35 54.02 45.18 54.02 45.49 51.08 46.15 51.08"/><polygon class="cls-5" points="43.9 51.08 44.7 54.02 44.87 54.02 44.56 51.08 43.9 51.08"/><polygon class="cls-5" points="44.25 51.21 41.61 52.73 41.49 52.61 43.79 50.75 44.25 51.21"/><polygon class="cls-5" points="42.66 49.62 41.15 52.27 41.27 52.39 43.13 50.09 42.66 49.62"/><polygon class="cls-5" points="42.82 49.97 39.87 49.17 39.87 49 42.82 49.31 42.82 49.97"/><polygon class="cls-5" points="42.82 47.72 39.87 48.52 39.87 48.7 42.82 48.38 42.82 47.72"/><polygon class="cls-5" points="42.68 48.08 41.16 45.43 41.28 45.31 43.14 47.61 42.68 48.08"/><polygon class="cls-5" points="44.27 46.49 41.62 44.97 41.5 45.09 43.8 46.95 44.27 46.49"/><polygon class="cls-5" points="43.15 47.24 42.76 44.21 42.92 44.15 43.76 46.98 43.15 47.24"/><polygon class="cls-5" points="45.23 46.37 43.36 43.96 43.2 44.03 44.62 46.63 45.23 46.37"/><polygon class="cls-5" points="44.85 46.38 46.71 43.97 46.87 44.03 45.46 46.63 44.85 46.38"/><polygon class="cls-5" points="46.93 47.24 47.31 44.22 47.15 44.15 46.32 46.99 46.93 47.24"/><polygon class="cls-5" points="46.65 46.98 49.68 46.59 49.74 46.75 46.91 47.58 46.65 46.98"/><polygon class="cls-5" points="47.52 49.05 49.93 47.19 49.86 47.03 47.27 48.45 47.52 49.05"/><polygon class="cls-5" points="47.51 48.67 49.92 50.53 49.86 50.7 47.26 49.28 47.51 48.67"/><polygon class="cls-5" points="46.65 50.75 49.67 51.14 49.74 50.98 46.9 50.15 46.65 50.75"/><polygon class="cls-5" points="46.91 50.48 47.31 53.5 47.15 53.57 46.31 50.73 46.91 50.48"/><polygon class="cls-5" points="44.84 51.34 46.7 53.75 46.86 53.68 45.44 51.09 44.84 51.34"/><polygon class="cls-5" points="45.22 51.33 43.36 53.75 43.2 53.68 44.61 51.08 45.22 51.33"/><polygon class="cls-5" points="43.14 50.47 42.76 53.5 42.91 53.56 43.75 50.73 43.14 50.47"/><polygon class="cls-5" points="43.41 50.74 40.39 51.13 40.32 50.97 43.16 50.13 43.41 50.74"/><polygon class="cls-5" points="42.55 48.66 40.14 50.53 40.21 50.69 42.8 49.27 42.55 48.66"/><polygon class="cls-5" points="42.56 49.04 40.14 47.18 40.21 47.02 42.81 48.43 42.56 49.04"/><polygon class="cls-5" points="43.42 46.96 40.39 46.58 40.33 46.74 43.17 47.57 43.42 46.96"/><polygon class="cls-5" points="43.37 46.9 43.58 43.86 43.75 43.82 44.01 46.77 43.37 46.9"/><polygon class="cls-5" points="45.57 46.46 44.22 43.73 44.05 43.77 44.93 46.59 45.57 46.46"/><polygon class="cls-5" points="45.2 46.4 47.5 44.39 47.64 44.49 45.74 46.76 45.2 46.4"/><polygon class="cls-5" points="47.07 47.64 48.04 44.75 47.89 44.66 46.52 47.28 47.07 47.64"/><polygon class="cls-5" points="46.85 47.33 49.89 47.54 49.92 47.71 46.98 47.98 46.85 47.33"/><polygon class="cls-5" points="47.29 49.54 50.02 48.18 49.98 48.01 47.16 48.89 47.29 49.54"/><polygon class="cls-5" points="47.35 49.16 49.36 51.46 49.26 51.61 46.99 49.71 47.35 49.16"/><polygon class="cls-5" points="46.1 51.03 49 52 49.09 51.86 46.47 50.49 46.1 51.03"/><polygon class="cls-5" points="46.42 50.81 46.21 53.86 46.04 53.89 45.77 50.94 46.42 50.81"/><polygon class="cls-5" points="44.21 51.25 45.57 53.98 45.74 53.95 44.86 51.13 44.21 51.25"/><polygon class="cls-5" points="44.59 51.32 42.29 53.32 42.14 53.23 44.04 50.95 44.59 51.32"/><polygon class="cls-5" points="42.72 50.07 41.75 52.96 41.89 53.06 43.26 50.44 42.72 50.07"/><polygon class="cls-5" points="42.94 50.38 39.89 50.17 39.86 50 42.81 49.74 42.94 50.38"/><polygon class="cls-5" points="42.5 48.18 39.77 49.53 39.8 49.7 42.62 48.82 42.5 48.18"/><polygon class="cls-5" points="42.43 48.55 40.43 46.25 40.52 46.11 42.8 48.01 42.43 48.55"/><polygon class="cls-5" points="43.68 46.68 40.79 45.71 40.69 45.85 43.31 47.23 43.68 46.68"/><polygon class="cls-5" points="42.73 47.63 41.76 44.75 41.9 44.65 43.28 47.27 42.73 47.63"/><polygon class="cls-5" points="44.6 46.38 42.3 44.38 42.16 44.48 44.05 46.75 44.6 46.38"/><polygon class="cls-5" points="44.23 46.47 45.58 43.73 45.75 43.77 44.87 46.59 44.23 46.47"/><polygon class="cls-5" points="46.44 46.9 46.22 43.86 46.05 43.83 45.79 46.77 46.44 46.9"/><polygon class="cls-5" points="46.11 46.7 49 45.72 49.1 45.87 46.48 47.24 46.11 46.7"/><polygon class="cls-5" points="47.37 48.57 49.37 46.27 49.27 46.12 47 48.02 47.37 48.57"/><polygon class="cls-5" points="47.28 48.19 50.02 49.55 49.98 49.72 47.16 48.84 47.28 48.19"/><polygon class="cls-5" points="46.85 50.4 49.89 50.19 49.92 50.02 46.98 49.76 46.85 50.4"/><polygon class="cls-5" points="47.05 50.08 48.03 52.97 47.88 53.06 46.51 50.45 47.05 50.08"/><polygon class="cls-5" points="45.18 51.33 47.48 53.33 47.63 53.23 45.73 50.97 45.18 51.33"/><polygon class="cls-5" points="45.55 51.25 44.2 53.98 44.03 53.95 44.91 51.12 45.55 51.25"/><polygon class="cls-5" points="43.35 50.81 43.56 53.85 43.73 53.89 43.99 50.94 43.35 50.81"/><polygon class="cls-5" points="43.67 51.02 40.78 51.99 40.69 51.85 43.3 50.47 43.67 51.02"/><polygon class="cls-5" points="42.42 49.15 40.42 51.45 40.52 51.59 42.78 49.69 42.42 49.15"/><polygon class="cls-5" points="42.5 49.52 39.77 48.17 39.8 48 42.63 48.88 42.5 49.52"/><polygon class="cls-5" points="42.94 47.31 39.9 47.53 39.86 47.7 42.81 47.96 42.94 47.31"/><circle class="cls-5" cx="44.98" cy="48.86" r="2.35"/><circle class="cls-24" cx="44.98" cy="48.86" r="1.94"/><circle class="cls-3" cx="171.72" cy="48.75" r="8.69"/><path class="cls-5" d="M171.71,39.17a9.72,9.72,0,1,0,9.72,9.72A9.72,9.72,0,0,0,171.71,39.17Zm0,17.95a8.23,8.23,0,1,1,8.23-8.23A8.23,8.23,0,0,1,171.71,57.12Z"/><polygon class="cls-5" points="169.65 44.8 171.13 39.36 171.44 39.36 170.86 44.8 169.65 44.8"/><polygon class="cls-5" points="173.8 44.8 172.33 39.36 172.01 39.36 172.59 44.8 173.8 44.8"/><polygon class="cls-5" points="173.15 44.54 178.03 41.74 178.26 41.97 174.01 45.4 173.15 44.54"/><polygon class="cls-5" points="176.09 47.48 178.89 42.59 178.66 42.36 175.23 46.62 176.09 47.48"/><polygon class="cls-5" points="175.8 46.83 181.24 48.31 181.24 48.63 175.8 48.05 175.8 46.83"/><polygon class="cls-5" points="175.8 50.99 181.24 49.51 181.24 49.19 175.8 49.77 175.8 50.99"/><polygon class="cls-5" points="176.06 50.33 178.86 55.22 178.63 55.44 175.2 51.19 176.06 50.33"/><polygon class="cls-5" points="173.12 53.27 178.01 56.07 178.23 55.84 173.98 52.41 173.12 53.27"/><polygon class="cls-5" points="173.76 52.99 172.29 58.42 171.97 58.42 172.55 52.99 173.76 52.99"/><polygon class="cls-5" points="169.61 52.99 171.09 58.42 171.41 58.42 170.82 52.99 169.61 52.99"/><polygon class="cls-5" points="170.27 53.24 165.38 56.04 165.15 55.81 169.41 52.38 170.27 53.24"/><polygon class="cls-5" points="167.33 50.3 164.53 55.19 164.76 55.42 168.19 51.16 167.33 50.3"/><polygon class="cls-5" points="167.61 50.95 162.18 49.47 162.18 49.15 167.61 49.73 167.61 50.95"/><polygon class="cls-5" points="167.61 46.79 162.18 48.27 162.18 48.59 167.61 48.01 167.61 46.79"/><polygon class="cls-5" points="167.36 47.45 164.56 42.56 164.78 42.34 168.21 46.59 167.36 47.45"/><polygon class="cls-5" points="170.29 44.51 165.41 41.71 165.18 41.94 169.44 45.37 170.29 44.51"/><polygon class="cls-5" points="168.24 45.9 167.51 40.31 167.81 40.19 169.36 45.43 168.24 45.9"/><polygon class="cls-5" points="172.07 44.3 168.62 39.85 168.33 39.97 170.95 44.77 172.07 44.3"/><polygon class="cls-5" points="171.37 44.32 174.81 39.86 175.1 39.98 172.49 44.78 171.37 44.32"/><polygon class="cls-5" points="175.21 45.9 175.92 40.32 175.62 40.2 174.09 45.44 175.21 45.9"/><polygon class="cls-5" points="174.7 45.42 180.28 44.69 180.41 44.99 175.16 46.54 174.7 45.42"/><polygon class="cls-5" points="176.29 49.25 180.75 45.81 180.62 45.51 175.83 48.13 176.29 49.25"/><polygon class="cls-5" points="176.28 48.55 180.74 51.99 180.62 52.28 175.81 49.67 176.28 48.55"/><polygon class="cls-5" points="174.69 52.39 180.28 53.1 180.4 52.8 175.16 51.27 174.69 52.39"/><polygon class="cls-5" points="175.18 51.88 175.9 57.47 175.61 57.59 174.06 52.35 175.18 51.88"/><polygon class="cls-5" points="171.34 53.48 174.79 57.93 175.09 57.81 172.46 53.01 171.34 53.48"/><polygon class="cls-5" points="172.05 53.46 168.61 57.92 168.31 57.8 170.93 53 172.05 53.46"/><polygon class="cls-5" points="168.21 51.88 167.5 57.46 167.79 57.59 169.33 52.34 168.21 51.88"/><polygon class="cls-5" points="168.72 52.36 163.13 53.09 163.01 52.79 168.25 51.24 168.72 52.36"/><polygon class="cls-5" points="167.12 48.53 162.67 51.98 162.79 52.27 167.59 49.65 167.12 48.53"/><polygon class="cls-5" points="167.14 49.23 162.68 45.79 162.8 45.5 167.6 48.11 167.14 49.23"/><polygon class="cls-5" points="168.72 45.39 163.13 44.68 163.01 44.98 168.26 46.51 168.72 45.39"/><polygon class="cls-5" points="170.65 46.67 171.45 43.73 171.62 43.73 171.3 46.67 170.65 46.67"/><polygon class="cls-5" points="172.9 46.67 172.1 43.73 171.92 43.73 172.24 46.67 172.9 46.67"/><polygon class="cls-5" points="172.54 46.53 175.19 45.02 175.31 45.14 173.01 47 172.54 46.53"/><polygon class="cls-5" points="174.13 48.13 175.65 45.48 175.53 45.36 173.67 47.66 174.13 48.13"/><polygon class="cls-5" points="173.98 47.78 176.92 48.58 176.92 48.75 173.98 48.43 173.98 47.78"/><polygon class="cls-5" points="173.98 50.02 176.92 49.23 176.92 49.05 173.98 49.37 173.98 50.02"/><polygon class="cls-5" points="174.12 49.67 175.63 52.32 175.51 52.44 173.65 50.13 174.12 49.67"/><polygon class="cls-5" points="172.53 51.26 175.17 52.78 175.29 52.65 172.99 50.8 172.53 51.26"/><polygon class="cls-5" points="172.88 51.11 172.08 54.05 171.9 54.05 172.22 51.11 172.88 51.11"/><polygon class="cls-5" points="170.63 51.11 171.43 54.05 171.6 54.05 171.28 51.11 170.63 51.11"/><polygon class="cls-5" points="170.98 51.25 168.34 52.76 168.21 52.64 170.52 50.78 170.98 51.25"/><polygon class="cls-5" points="169.39 49.66 167.88 52.3 168 52.42 169.86 50.12 169.39 49.66"/><polygon class="cls-5" points="169.54 50 166.6 49.2 166.6 49.03 169.54 49.35 169.54 50"/><polygon class="cls-5" points="169.54 47.76 166.6 48.55 166.6 48.73 169.54 48.41 169.54 47.76"/><polygon class="cls-5" points="169.41 48.11 167.89 45.47 168.01 45.34 169.87 47.65 169.41 48.11"/><polygon class="cls-5" points="171 46.52 168.35 45 168.23 45.13 170.53 46.98 171 46.52"/><polygon class="cls-5" points="169.88 47.27 169.49 44.25 169.65 44.18 170.49 47.02 169.88 47.27"/><polygon class="cls-5" points="171.96 46.41 170.09 44 169.93 44.06 171.35 46.66 171.96 46.41"/><polygon class="cls-5" points="171.58 46.42 173.44 44 173.6 44.07 172.19 46.67 171.58 46.42"/><polygon class="cls-5" points="173.66 47.27 174.04 44.25 173.88 44.18 173.05 47.02 173.66 47.27"/><polygon class="cls-5" points="173.38 47.01 176.41 46.62 176.47 46.78 173.63 47.62 173.38 47.01"/><polygon class="cls-5" points="174.25 49.09 176.66 47.22 176.59 47.06 173.99 48.48 174.25 49.09"/><polygon class="cls-5" points="174.24 48.71 176.65 50.57 176.59 50.73 173.99 49.31 174.24 48.71"/><polygon class="cls-5" points="173.38 50.78 176.4 51.17 176.47 51.01 173.63 50.18 173.38 50.78"/><polygon class="cls-5" points="173.64 50.51 174.03 53.53 173.87 53.6 173.03 50.76 173.64 50.51"/><polygon class="cls-5" points="171.56 51.37 173.43 53.78 173.59 53.72 172.17 51.12 171.56 51.37"/><polygon class="cls-5" points="171.94 51.37 170.08 53.78 169.92 53.71 171.34 51.11 171.94 51.37"/><polygon class="cls-5" points="169.87 50.51 169.48 53.53 169.64 53.6 170.47 50.76 169.87 50.51"/><polygon class="cls-5" points="170.14 50.77 167.12 51.16 167.05 51 169.89 50.16 170.14 50.77"/><polygon class="cls-5" points="169.28 48.69 166.87 50.56 166.94 50.72 169.53 49.3 169.28 48.69"/><polygon class="cls-5" points="169.29 49.07 166.87 47.21 166.94 47.05 169.54 48.47 169.29 49.07"/><polygon class="cls-5" points="170.15 46.99 167.12 46.61 167.05 46.77 169.89 47.6 170.15 46.99"/><polygon class="cls-5" points="170.09 46.93 170.3 43.89 170.47 43.86 170.74 46.8 170.09 46.93"/><polygon class="cls-5" points="172.3 46.49 170.94 43.76 170.77 43.8 171.66 46.62 172.3 46.49"/><polygon class="cls-5" points="171.93 46.43 174.22 44.42 174.37 44.52 172.47 46.79 171.93 46.43"/><polygon class="cls-5" points="173.79 47.68 174.77 44.79 174.62 44.69 173.25 47.31 173.79 47.68"/><polygon class="cls-5" points="173.58 47.37 176.62 47.57 176.65 47.74 173.71 48.01 173.58 47.37"/><polygon class="cls-5" points="174.02 49.57 176.75 48.21 176.71 48.04 173.89 48.93 174.02 49.57"/><polygon class="cls-5" points="174.08 49.2 176.09 51.49 175.99 51.64 173.72 49.74 174.08 49.2"/><polygon class="cls-5" points="172.83 51.07 175.72 52.04 175.82 51.89 173.2 50.52 172.83 51.07"/><polygon class="cls-5" points="173.15 50.85 172.94 53.89 172.77 53.92 172.5 50.98 173.15 50.85"/><polygon class="cls-5" points="170.94 51.29 172.3 54.02 172.47 53.98 171.58 51.16 170.94 51.29"/><polygon class="cls-5" points="171.31 51.35 169.01 53.36 168.87 53.26 170.77 50.99 171.31 51.35"/><polygon class="cls-5" points="169.44 50.1 168.47 52.99 168.62 53.09 169.99 50.47 169.44 50.1"/><polygon class="cls-5" points="169.66 50.41 166.62 50.21 166.59 50.04 169.53 49.77 169.66 50.41"/><polygon class="cls-5" points="169.22 48.21 166.49 49.57 166.53 49.74 169.35 48.85 169.22 48.21"/><polygon class="cls-5" points="169.16 48.58 167.15 46.29 167.25 46.14 169.52 48.04 169.16 48.58"/><polygon class="cls-5" points="170.41 46.72 167.52 45.74 167.42 45.89 170.04 47.26 170.41 46.72"/><polygon class="cls-5" points="169.46 47.67 168.49 44.78 168.63 44.68 170.01 47.3 169.46 47.67"/><polygon class="cls-5" points="171.33 46.42 169.03 44.42 168.88 44.51 170.78 46.78 171.33 46.42"/><polygon class="cls-5" points="170.96 46.5 172.31 43.77 172.48 43.8 171.6 46.63 170.96 46.5"/><polygon class="cls-5" points="173.16 46.94 172.95 43.89 172.78 43.86 172.52 46.81 173.16 46.94"/><polygon class="cls-5" points="172.84 46.73 175.73 45.76 175.83 45.9 173.21 47.28 172.84 46.73"/><polygon class="cls-5" points="174.09 48.6 176.09 46.3 176 46.15 173.73 48.05 174.09 48.6"/><polygon class="cls-5" points="174.01 48.23 176.74 49.58 176.71 49.75 173.88 48.87 174.01 48.23"/><polygon class="cls-5" points="173.57 50.43 176.62 50.22 176.65 50.05 173.7 49.79 173.57 50.43"/><polygon class="cls-5" points="173.78 50.11 174.75 53 174.61 53.1 173.23 50.48 173.78 50.11"/><polygon class="cls-5" points="171.91 51.36 174.21 53.36 174.36 53.27 172.46 51 171.91 51.36"/><polygon class="cls-5" points="172.28 51.28 170.93 54.01 170.76 53.98 171.64 51.15 172.28 51.28"/><polygon class="cls-5" points="170.08 50.84 170.29 53.89 170.46 53.92 170.72 50.97 170.08 50.84"/><polygon class="cls-5" points="170.4 51.05 167.51 52.02 167.41 51.88 170.03 50.5 170.4 51.05"/><polygon class="cls-5" points="169.15 49.18 167.15 51.48 167.24 51.63 169.51 49.73 169.15 49.18"/><polygon class="cls-5" points="169.23 49.55 166.5 48.2 166.53 48.03 169.36 48.91 169.23 49.55"/><polygon class="cls-5" points="169.66 47.35 166.62 47.56 166.59 47.73 169.54 47.99 169.66 47.35"/><circle class="cls-5" cx="171.71" cy="48.89" r="2.35"/><circle class="cls-24" cx="171.71" cy="48.89" r="1.94"/></g></g></g></svg>