<svg xmlns="http://www.w3.org/2000/svg" viewBox="0 0 183.8 63.23"><defs><style>.cls-1{fill:#666766;opacity:0.3;}.cls-2{fill:#102749;}.cls-3{fill:#090d11;}.cls-16,.cls-4,.cls-7{fill:#194798;}.cls-5{fill:#e5e5e5;}.cls-6{fill:#ed8a22;}.cls-7{opacity:0.1;}.cls-8{fill:#404140;}.cls-15,.cls-17,.cls-9{fill:#21376b;}.cls-10,.cls-12,.cls-14{fill:none;}.cls-10,.cls-12,.cls-16{stroke:#21376b;}.cls-10,.cls-12,.cls-14,.cls-15,.cls-16{stroke-miterlimit:10;stroke-width:0.5px;}.cls-11{fill:#c4c4c4;}.cls-12{opacity:0.62;}.cls-13{fill:#1b161c;}.cls-14{stroke:#282828;}.cls-15{stroke:#194798;opacity:0.59;}.cls-17{opacity:0.55;}.cls-18{fill:#13110a;}.cls-19{fill:#0c1624;}.cls-20{fill:#b7b7b7;}.cls-21{fill:#ddd;}.cls-22{fill:#bababa;}.cls-23{fill:#1f55a4;}</style></defs><title>mazda</title><g id="Layer_2" data-name="Layer 2"><g id="Layer_2-2" data-name="Layer 2"><g id="_3" data-name="3"><path class="cls-1" d="M99,17.86c-.48-1.73-.18-3.15.42-6,.19-.89.29-1.17.54-1.44,1-1.11,3.56-.92,4.92.18,2.43,2,1.82,7.38-.84,9.37-.18.13-1.86,1.35-3.3.72C99.64,20.2,99.29,18.92,99,17.86Z"/><path class="cls-1" d="M133.15,17.86c-.48-1.73-.18-3.15.42-6,.19-.89.29-1.17.54-1.44,1-1.11,3.56-.92,4.92.18,2.43,2,1.82,7.38-.84,9.37-.18.13-1.86,1.35-3.3.72C133.8,20.2,133.44,18.92,133.15,17.86Z"/><rect class="cls-1" x="67.7" y="18.8" width="8.95" height="1.26" rx="0.63" ry="0.63" transform="translate(67.48 -55.17) rotate(71.33)"/><path class="cls-2" d="M156.64,26.4c-11.54-5.24-19.66.13-38.57,3.48-24.7,4.38-54.58,3-77.13,1.9-6.64-.31-19.09-1.05-26.08,6.64-2.75,3-5.95,8.78-4,12.33,1.54,2.74,5.62,3.17,7.27,3.32,32,2.92,47.73.63,47.73.63,15-2.17,38.91-5.65,64.33-1.42,0,0,14.93,2.48,36.2-2.85,2.54-.64,5.8-1.57,6.8-4.11C175.38,40.86,166,30.65,156.64,26.4Z"/><path class="cls-3" d="M4.82,32.34a2.07,2.07,0,0,0-.5-.86,43.32,43.32,0,0,0-2.18,4.24c-.06.13-.21.47-.4.91s-.33.81-.48,1.19a40.62,40.62,0,0,0,3-4.53C4.48,33,4.65,32.65,4.82,32.34Z"/><path class="cls-4" d="M4.29,33.29a40.62,40.62,0,0,1-3,4.53c-.3.77-.55,1.46-.74,2a19.14,19.14,0,0,0,2.09-2.23,8.74,8.74,0,0,0,2.22-4.68,1.27,1.27,0,0,0,0-.59C4.65,32.65,4.48,33,4.29,33.29Z"/><path class="cls-3" d="M4.59,31.06a1.85,1.85,0,0,0-.27.42,2.07,2.07,0,0,1,.5.86c.43-.79.81-1.56,1.15-2.3A16.39,16.39,0,0,0,4.59,31.06Z"/><path class="cls-4" d="M162.65,3.64a.6.6,0,0,0-.1-.22.94.94,0,0,0-.69-.26c-1.57-.21-3.8-.49-6.48-.79a329.17,329.17,0,0,0-39-2.37C99,.06,90.34.09,81.48,3c-1.27.42-2.55.88-3.81,1.37l1.42.16,1,.95-1.21,1c-4.5,2.07-8.12,4-10.75,5.58C62.69,15.27,58,18.57,54.66,21L52.9,22.24H45l.41-.64-.12.06a4.35,4.35,0,0,1-1.9.24c-1.92-.23-15.83,1.29-32.48,6A16.81,16.81,0,0,0,6,30c-.34.74-.72,1.51-1.15,2.3a1.27,1.27,0,0,1,0,.59,8.74,8.74,0,0,1-2.22,4.68A19.14,19.14,0,0,1,.52,39.84c-.24.7-.39,1.19-.44,1.38-.47,1.68,1.25,6.15,1.82,10.55.31,2.44,3.93,2.46,8.61,3.64,2.48.62,7.87,2,8.93.16a2.26,2.26,0,0,0,0-1.66,16.88,16.88,0,0,1,1.34-9.72,15.35,15.35,0,0,1,4.82-5.85,14.51,14.51,0,0,1,4.5-2.53,14.32,14.32,0,0,1,6.64-.55,17.08,17.08,0,0,1,5.93,2.05,14,14,0,0,1,5.45,4.82A14.73,14.73,0,0,1,50,48c.74,4.34.14,6.76.32,7.9L132,54.93s0-1.18,0-3.48c0-3.06,0-3.14,0-3.32a15.86,15.86,0,0,1,1.74-7A14.17,14.17,0,0,1,141.31,35a16.84,16.84,0,0,1,15.57,2.13,12.14,12.14,0,0,1,3.32,3.4A13.11,13.11,0,0,1,162,46c.5,3.65-.43,5.69.71,6.48.75.53,1.86.13,2.45-.08,8.7-3,15.43-1.14,17.23-5.45a6.59,6.59,0,0,0,.4-1.58c.63-3.79-.43-6.85,0-7.53.2-.32.27-.15.65-.61a1.72,1.72,0,0,0,.32-.68,6.41,6.41,0,0,0,0-.84c0-.44.07-.5,0-.63s-.19-.23-.74-.37-.34-.11-.47-.12c-.48,0-.95-.12-1.42-.16-1.84-.16-2.79-.22-2.79-.26-.15-1.14,1.06-6.87,0-10-.06-.17-.38-1.06-.79-2.27l-.61-1.78-.06-.17h-5.13l-9.06-7.9L158,8.22l2.53-2.58.35-.34C161,5.21,162.75,4.16,162.65,3.64Zm-63,17.11-31.93.91V15.81l3.83-2.29c1-.45,2.54-1.13,4.43-1.94C83.12,8.52,86.76,7,90.14,6.28a55.26,55.26,0,0,1,8.18-.95c2.16-.12,4-.11,5.37-.08l.63.12Zm33.86-8.38-.2,2.73-.51,3.16-.43,1.14-25.49.67.59-4.94,1.7-7.71.59-2.05,14.74.47,7.35.36h.83l.36,1,.47,2.17Zm17.66-1.78c-.66,3.12-3.43,5.45-5.45,7.11a7.19,7.19,0,0,1-1.58,1.07,7.08,7.08,0,0,1-4,.55L134.43,6.21c.73,0,1.92,0,3.4.12,2,.11,4.7.55,9.92,1.42,1.42.24,3,.52,3.4,1.58A2,2,0,0,1,151.19,10.59Z"/><path class="cls-5" d="M20.37,28.3a23.75,23.75,0,0,0-7.88,2.07,28.58,28.58,0,0,0-6.76,4.1l-.32.39.5.15a10.08,10.08,0,0,0,3.65.23,16.49,16.49,0,0,0,4.59-.77l.1,0,1.68-3.33L16.64,33A24.89,24.89,0,0,1,20,30.28a21.65,21.65,0,0,1,3.83-2A22.3,22.3,0,0,0,20.37,28.3Z"/><path class="cls-6" d="M14.25,34.43A7.62,7.62,0,0,0,16.64,33l-.71-1.85Z"/><polygon class="cls-6" points="15.93 31.11 15.07 31.2 14.31 34.32 15.93 31.11"/><rect class="cls-5" x="48.88" y="31.35" width="2.52" height="1.62" rx="0.81" ry="0.81"/><path class="cls-7" d="M78.88,6.51l1.21-1-1-.95-1.42-.16L74,5.73l-9.44,4.39L52.66,16.65l-7,4.57-.64,1h7.9L54.66,21c3.38-2.4,8-5.7,13.46-8.88C70.75,10.56,74.37,8.57,78.88,6.51Z"/><path class="cls-7" d="M103.69,5.26c-1.38,0-3.21,0-5.37.08a55.26,55.26,0,0,0-8.18.95c-3.38.69-7,2.24-14.15,5.3-1.89.81-3.43,1.49-4.43,1.94l-3.83,2.29v5.85l31.93-.91,4.66-15.37Z"/><polygon class="cls-7" points="132.38 19.4 106.89 20.07 107.48 15.14 109.18 7.43 109.78 5.38 124.51 5.85 131.86 6.21 132.69 6.21 133.05 7.23 133.52 9.41 133.52 12.37 133.33 15.1 132.81 18.26 132.38 19.4"/><path class="cls-7" d="M140.16,19.32a7.08,7.08,0,0,0,4-.55,7.19,7.19,0,0,0,1.58-1.07c2-1.66,4.79-4,5.45-7.11a2,2,0,0,0,0-1.26c-.45-1.07-2-1.34-3.4-1.58-5.22-.88-7.87-1.32-9.92-1.42-1.48-.08-2.67-.11-3.4-.12Z"/><path class="cls-8" d="M152.71,8.83a4.26,4.26,0,0,0-.81-1.35A217.89,217.89,0,0,0,129,4.39c-7.21-.59-13.38-.58-25.72-.56a56.29,56.29,0,0,0-22.11,4,76,76,0,0,0-7.34,3.42c-4,2-7.17,3.88-9.46,5.27l-5.18,3.72-2.88,2.81,85.42-2.34a12.63,12.63,0,0,0,4.83-1.53C150.47,17,153.93,12.21,152.71,8.83Zm-53,11.91-31.93.91V15.81l3.83-2.29c1-.45,2.54-1.13,4.43-1.94C83.12,8.52,86.76,7,90.14,6.28a55.26,55.26,0,0,1,8.18-.95c2.16-.12,4-.11,5.37-.08l.63.12Zm33.86-8.38-.2,2.73-.51,3.16-.43,1.14-25.49.67.59-4.94,1.7-7.71.59-2.05,14.74.47,7.35.36h.83l.36,1,.47,2.17Zm17.66-1.78c-.66,3.12-3.43,5.45-5.45,7.11a7.19,7.19,0,0,1-1.58,1.07,7.08,7.08,0,0,1-4,.55L134.43,6.21c.73,0,1.92,0,3.4.12,2,.11,4.7.55,9.92,1.42,1.42.24,3,.52,3.4,1.58A2,2,0,0,1,151.19,10.59Z"/><polygon class="cls-7" points="175.34 19.97 171.76 19.97 162.7 12.07 158.01 8.22 160.54 5.64 160.9 5.29 170.98 14.36 176.07 18.79 176.76 19.54 176.89 19.97 175.34 19.97"/><path class="cls-9" d="M166,43V41.75h2.1c2.39,0,4.63-.17,6.71-.38a6.2,6.2,0,0,1-.89.72,10,10,0,0,1-5.62,1.38H166Z"/><ellipse class="cls-10" cx="156.13" cy="27.81" rx="3.72" ry="3.09"/><path class="cls-6" d="M166,42.78v-1H168c2.18,0,4.22-.13,6.13-.3a5.6,5.6,0,0,1-.81.55,10.52,10.52,0,0,1-5.13,1.07H166Z"/><path class="cls-9" d="M6.66,44.6h5.22l1.29,2.31q-.17.43-.36.87a20.13,20.13,0,0,1-1.89,3.36H6.66Z"/><ellipse class="cls-11" cx="11.81" cy="47.16" rx="1.36" ry="1.86"/><line class="cls-12" x1="158.01" y1="8.22" x2="157.39" y2="8.85"/><path class="cls-10" d="M149.58,1.74c2.68,2.36,5.78,5.08,8.5,7.65.26.25,1.43,1.35,2.88,2.76,2.53,2.46,6.41,6.3,11.41,11.59"/><path class="cls-10" d="M174.8,29.42q0,.73,0,1.5a32.18,32.18,0,0,0,.24,3.24l3.3,0"/><path class="cls-6" d="M167.37,23.36h-2.61l-.25.13q.79.73,1.67,1.48A3.76,3.76,0,0,0,167.37,23.36Z"/><path class="cls-5" d="M176.75,25.87a2.66,2.66,0,0,0-.45.66,4.21,4.21,0,0,0-.1,2.79c0,.12.06.25.11.39l.51,0A18.3,18.3,0,0,0,176.75,25.87Z"/><path class="cls-13" d="M176.3,26.53a2.66,2.66,0,0,1,.45-.66,6.83,6.83,0,0,0-.31-1.21c-.13-.25-.61-.83-.75-1,0,0-3.14-.19-3.49-.24-.12,0-1,0-2.13,0A8.89,8.89,0,0,1,172,25.6a7,7,0,0,1,.91,4l3.4.12c0-.15-.08-.28-.11-.39A4.21,4.21,0,0,1,176.3,26.53Z"/><path class="cls-5" d="M172.34,26.28a6.66,6.66,0,0,0-.34-.68,8.89,8.89,0,0,0-1.92-2.25h-2.7A3.76,3.76,0,0,1,166.18,25q.75.63,1.55,1.28c1.6,1.27,3.16,2.37,4.63,3.32l.54,0A6.63,6.63,0,0,0,172.34,26.28Z"/><path class="cls-9" d="M56.37,55.06l64.06-1.54a5,5,0,0,0,1.68-.48,5.8,5.8,0,0,0,2.82-3.42h7v6.85L50.32,57.55V49.81h3c0,.19-.07,2.54,0,2.87a3.11,3.11,0,0,0,1.25,2l.11.08a2.44,2.44,0,0,0,1.67.35"/><path class="cls-10" d="M56.38,23l0,0A19.65,19.65,0,0,0,51.68,34.9c0,3,.79,3,1.38,8.65a58.31,58.31,0,0,1,.32,6.26l0,1.77,0,1.1.17.6.14.3L54,54l1.27,1.09,45.94-1.17c-.24-5.46-.51-9.16-.63-11.9-.23-5.08-.38-8.69.48-13.33a42.25,42.25,0,0,1,1.74-6.49l.12-.48"/><line class="cls-14" x1="102.91" y1="21.74" x2="107.46" y2="4.06"/><path class="cls-14" d="M89.59,5.24A59.83,59.83,0,0,0,82,7.39c-2.81,1.11-5.35,2.4-7.78,3.63-1.89,1-3.44,1.8-4.53,2.41l-5,2.89-5.49,3.92A19.68,19.68,0,0,0,56.38,23"/><path class="cls-14" d="M107.46,4.06l.06-.24H105a53.59,53.59,0,0,0-12.52.84c-1,.17-2,.38-2.85.58"/><polyline class="cls-14" points="132.91 4.79 132.87 4.69 126.6 4.24 121.9 4.03 115.58 3.88 111.4 3.88 107.52 3.81 107.46 4.06"/><path class="cls-14" d="M139.6,20.79l-.3-.36L132.91,4.79"/><path class="cls-10" d="M102.91,21.74"/><path class="cls-10" d="M102.91,21.74v0l-1,3.22-.54,2.16-.57,3.11-.33,3.36-.05,4,.16,4.37.23,4.14.31,5.81.09,2,19.36-.45,1-.22.59-.24.94-.6.61-.59.68-.94.36-.7.23-.59c2.53-3.89,5.38-7.93,8.59-12.07Q136.29,34,139,30.78a6.86,6.86,0,0,0,1.53-1.91,7.52,7.52,0,0,0,.81-2.78,7.9,7.9,0,0,0-1.77-5.31"/><rect class="cls-15" x="93.16" y="23.39" width="4.58" height="4.96" rx="2.29" ry="2.29"/><path class="cls-16" d="M99,26.65h-7a.78.78,0,0,1,0-1.56h7a.78.78,0,0,1,0,1.56Z"/><rect class="cls-15" x="131.24" y="23.39" width="4.58" height="4.96" rx="2.29" ry="2.29"/><path class="cls-16" d="M137,26.65h-7a.78.78,0,0,1,0-1.56h7a.78.78,0,0,1,0,1.56Z"/><rect class="cls-17" x="56.26" y="43.71" width="67.29" height="1.2" rx="0.6" ry="0.6" transform="translate(-0.98 2.05) rotate(-1.3)"/><circle class="cls-18" cx="146.94" cy="49.81" r="13.42"/><circle class="cls-19" cx="146.89" cy="49.83" r="9.65"/><circle class="cls-20" cx="146.89" cy="49.83" r="5.93"/><path class="cls-21" d="M146.94,39.38a10.42,10.42,0,1,0,10.42,10.42A10.42,10.42,0,0,0,146.94,39.38Zm-9.22,10.51a8.31,8.31,0,0,1,1.81-5.58c.14-.17.27-.31.37-.41l4.67,3.22-.27.85-.29.88-.29.88-.27.85-5.67-.14C137.76,50.31,137.73,50.12,137.72,49.89Zm7,8.82-.53-.11a8.31,8.31,0,0,1-4.74-3.45c-.12-.19-.21-.36-.27-.47l4.5-3.45.72.52.75.54.75.54.72.52Zm1.31-12h-.89l-1.62-5.44.5-.22a8.31,8.31,0,0,1,5.86,0l.5.22-1.62,5.44H146Zm8.43,8.43a8.31,8.31,0,0,1-4.74,3.45l-.53.11-1.89-5.35.72-.52.75-.54.75-.54.72-.52,4.5,3.45C154.66,54.8,154.57,55,154.45,55.16Zm1.65-4.72-5.67.14-.27-.85-.29-.88-.29-.88-.27-.85L154,43.91c.09.09.22.23.37.41a8.31,8.31,0,0,1,1.81,5.58C156.14,50.12,156.12,50.31,156.1,50.44Z"/><circle class="cls-22" cx="145.56" cy="47.85" r="0.56" transform="translate(-1.13 3.58) rotate(-1.4)"/><circle class="cls-22" cx="144.64" cy="50.51" r="0.56" transform="matrix(0.29, -0.96, 0.96, 0.29, 54.92, 174.69)"/><circle class="cls-22" cx="146.89" cy="52.2" r="0.56" transform="translate(20.51 143.47) rotate(-55.4)"/><circle class="cls-22" cx="149.2" cy="50.59" r="0.56" transform="translate(-0.05 101.02) rotate(-37.4)"/><circle class="cls-22" cx="148.37" cy="47.9" r="0.56" transform="translate(-7.48 52.01) rotate(-19.4)"/><circle class="cls-18" cx="34.72" cy="49.81" r="13.42"/><circle class="cls-19" cx="34.68" cy="49.83" r="9.65"/><circle class="cls-20" cx="34.68" cy="49.83" r="5.93"/><path class="cls-21" d="M34.72,39.38A10.42,10.42,0,1,0,45.15,49.81,10.42,10.42,0,0,0,34.72,39.38ZM25.5,49.89a8.31,8.31,0,0,1,1.81-5.58c.14-.17.27-.31.37-.41l4.67,3.22-.27.85-.29.88-.29.88-.27.85-5.67-.14C25.54,50.31,25.52,50.12,25.5,49.89Zm7,8.82L32,58.6a8.31,8.31,0,0,1-4.74-3.45c-.12-.19-.21-.36-.27-.47l4.5-3.45.72.52.75.54.75.54.72.52Zm1.31-12h-.89l-1.62-5.44.5-.22a8.31,8.31,0,0,1,5.86,0l.5.22-1.62,5.44H33.8Zm8.43,8.43a8.31,8.31,0,0,1-4.74,3.45l-.53.11-1.89-5.35.72-.52.75-.54.75-.54.72-.52,4.5,3.45C42.45,54.8,42.36,55,42.24,55.16Zm1.65-4.72-5.67.14-.27-.85-.29-.88L37.37,48l-.27-.85,4.67-3.22c.09.09.22.23.37.41a8.31,8.31,0,0,1,1.81,5.58C43.93,50.12,43.91,50.31,43.89,50.44Z"/><circle class="cls-22" cx="33.35" cy="47.85" r="0.56" transform="matrix(1, -0.02, 0.02, 1, -1.16, 0.83)"/><circle class="cls-22" cx="32.43" cy="50.51" r="0.56" transform="translate(-25.24 67.16) rotate(-73.4)"/><circle class="cls-22" cx="34.68" cy="52.2" r="0.56" transform="translate(-27.98 51.11) rotate(-55.4)"/><circle class="cls-22" cx="36.98" cy="50.59" r="0.56" transform="translate(-23.12 32.87) rotate(-37.4)"/><circle class="cls-22" cx="36.16" cy="47.9" r="0.56" transform="translate(-13.86 14.73) rotate(-19.4)"/><path class="cls-23" d="M68.73,16.49a8.78,8.78,0,0,0-1.48.06c-1.62.14-2.44.14-3.11.54-1.25.75-2.1,2.52-1.26,3.84a3.56,3.56,0,0,0,2.39,1.34,3.68,3.68,0,0,0,3.49-1Z"/></g></g></g></svg>