<?xml version="1.0" encoding="utf-8"?>
<!-- Generator: Adobe Illustrator 22.0.1, SVG Export Plug-In . SVG Version: 6.00 Build 0)  -->
<svg version="1.1" id="Layer_1" xmlns="http://www.w3.org/2000/svg" xmlns:xlink="http://www.w3.org/1999/xlink" x="0px" y="0px"
	 viewBox="0 0 22.5 47.3" style="enable-background:new 0 0 22.5 47.3;" xml:space="preserve">
<style type="text/css">
	.st0{fill:#FFFFFF;stroke:#E6E7E8;stroke-miterlimit:10;}
	.st1{fill:#066A8E;}
	.st2{fill:#FDFBE6;}
	.st3{fill:#7DC9C2;}
	.st4{fill:#26A59A;}
	.st5{fill:#D4EDEB;}
	.st6{fill:#A8DBD7;}
</style>
<title>Asset 22</title>
<g id="Layer_2_1_">
	<g id="Layer_2-2">
		<rect x="0.5" y="7.3" class="st0" width="21.5" height="39.5"/>
		<rect x="0.5" y="41.7" class="st1" width="21.5" height="2.4"/>
		<rect x="0.5" y="38.8" class="st1" width="21.5" height="2.4"/>
		<rect x="0.5" y="9.7" class="st1" width="21.5" height="8.2"/>
		<path class="st2" d="M9.2,15.4C9.2,15.5,9.2,15.5,9.2,15.4l-1,0.1c-0.1,0-0.1,0-0.1-0.1s0-0.4,0-0.8s0-0.6,0-0.8s0-0.1,0-0.1
			C8,14,7.9,14.3,7.8,14.6l-0.4,0.9c0,0,0,0.1-0.1,0.1H7.2c-0.1,0-0.1,0-0.2-0.1c-0.1-0.2-0.2-0.5-0.4-0.8c-0.2-0.4-0.3-0.6-0.4-0.8
			l0,0c0,0,0,0,0,0.1c0,0.2,0,0.4,0,0.8c0,0.3,0,0.6,0,0.8c0,0.1,0,0.1-0.1,0.1H5.4H5.3c0,0,0,0,0-0.1c0-0.2,0-0.5,0-0.9
			c0-0.4,0-0.7,0-0.9c0-0.2,0-0.6,0-1.1c0-0.1,0-0.4,0-0.6l0,0c0,0,0-0.1,0.1-0.1h0.8c0,0,0,0,0.1,0.1l0.8,1.7
			c0.1,0.1,0.1,0.2,0.1,0.2c0.1,0,0.1-0.1,0.1-0.2L8.1,12c0-0.1,0.1-0.1,0.1-0.1h0.9c0.1,0,0.1,0,0.1,0.1c0,0.2,0,0.5,0,0.9
			c0,0.4,0,0.7,0,0.9c0,0.2,0,0.5,0,0.8C9.2,15,9.2,15.3,9.2,15.4z"/>
		<path class="st2" d="M10.7,13.6c0,0.2,0,0.5,0,0.9s0,0.7,0,0.9c0,0.3,0,0.1,0,0.1h-0.1h-0.4c-0.2,0-0.3,0-0.5,0c0,0-0.1,0-0.1-0.1
			s0-0.1,0-0.4c0-0.7,0-1.1,0-1.4c0-0.2,0-0.5,0-0.8c0-0.4,0-0.6,0-0.8c0-0.3,0-0.1,0.1-0.1h1c0,0,0.1,0,0.1,0.1s0,0.5,0,0.8
			S10.7,13.4,10.7,13.6z"/>
		<path class="st2" d="M13.6,15.6h-2.3c0,0-0.1,0-0.1-0.1s0-0.5,0-0.8s0-0.7,0-0.8s0-0.5,0-0.9s0-0.7,0-0.9c0,0,0-0.1,0.1-0.1h1l0,0
			l0,0c0,0.3,0,0.8-0.1,1.5v0.7c0,0.2,0,0.4,0,0.5v0.1l0,0h0.1h0.7h0.7c0,0,0.1,0,0.1,0.1c0,0.3,0,0.5-0.1,0.8
			C13.8,15.4,13.8,15.5,13.6,15.6L13.6,15.6z"/>
		<path class="st2" d="M17.3,15.4c0,0.1,0,0.1-0.1,0.1c-0.1,0-0.3,0-0.4,0c-0.2,0-0.3,0-0.5,0h-0.1c0,0,0,0-0.1-0.1l-0.4-0.7
			c-0.1-0.2-0.2-0.4-0.4-0.6c-0.2,0.1-0.3,0.1-0.3,0.1s0,0.2,0,0.6c0,0.3,0,0.5,0,0.6c0,0,0,0.1-0.1,0.1c0,0,0,0,0,0h-0.5
			c-0.1,0-0.3,0-0.4,0c-0.1,0-0.1,0-0.1-0.1s0-0.5,0-0.8s0-0.7,0-0.8s0-0.5,0-0.9s0-0.7,0-0.9c0,0,0-0.1,0.1-0.1h1l0,0
			c0,0,0,0.3,0,0.6s0,0.4,0,0.6s0,0.2,0.1,0.2c0.2,0,0.3-0.1,0.5-0.2c0.1-0.1,0.2-0.3,0.3-0.4c0.1-0.2,0.1-0.4,0.3-0.7
			c0,0,0.1-0.1,0.1-0.1h0.8c0,0,0.1,0,0.1,0.1c0,0.1-0.1,0.3-0.1,0.4c-0.1,0.5-0.4,0.9-0.7,1.2c-0.1,0-0.1,0.1-0.1,0.1l0.5,0.8
			C17,14.7,17.2,15,17.3,15.4z"/>
		<rect x="0.5" y="2.3" class="st0" width="21.5" height="5"/>
		<rect x="0.5" y="0.5" class="st0" width="21.5" height="1.8"/>
		<path class="st1" d="M13.7,4.1v1.3c0,0.6-1.1,1.2-2.5,1.2S8.7,6,8.7,5.4V4.1"/>
		<ellipse class="st1" cx="11.2" cy="4.1" rx="2.5" ry="1.2"/>
	</g>
</g>
<image style="overflow:visible;" width="725" height="430" xlink:href="27E107E0.jpg"  transform="matrix(1 0 0 1 -510.7999 616.0089)">
</image>
<image style="overflow:visible;" width="1024" height="1024" xlink:href="27E107E7.jpg"  transform="matrix(1 0 0 1 -1488.0891 -617.0486)">
</image>
<rect x="-1260" y="634" class="st3" width="65" height="38"/>
<rect x="-1426.8" y="587" class="st4" width="65" height="38"/>
<rect x="-853.5" y="503" class="st5" width="65" height="38"/>
<rect x="-956.5" y="606" class="st6" width="65" height="38"/>
</svg>
