<?xml version="1.0" encoding="utf-8"?>
<!-- Generator: Adobe Illustrator 22.0.1, SVG Export Plug-In . SVG Version: 6.00 Build 0)  -->
<svg version="1.1" xmlns="http://www.w3.org/2000/svg" xmlns:xlink="http://www.w3.org/1999/xlink" x="0px" y="0px"
	 viewBox="0 0 174.1 58.4" style="enable-background:new 0 0 174.1 58.4;" xml:space="preserve">
<style type="text/css">
	.st0{display:none;}
	.st1{display:inline;fill:#FEDCA9;}
	.st2{display:inline;fill:#6E4B47;}
	.st3{display:inline;fill:none;stroke:#B6C3CB;stroke-miterlimit:10;}
	.st4{fill:#FEDCA9;}
	.st5{fill:#6E4B47;}
	.st6{fill:none;stroke:#B6C3CB;stroke-miterlimit:10;}
</style>
<g id="Layer_1" class="st0">
	<title>PriceTag_1</title>
	<path class="st1" d="M97.6,36.7H39.1c-3.9,0-7,3.1-7,7v7.7c0,3.9,3.1,7,7,7h58.5V36.7z"/>
	<path class="st1" d="M97.6,36.7v21.7l7.9-10.9L97.6,36.7z M97.5,47.5c0-0.8,0.6-1.4,1.4-1.4c0.8,0,1.4,0.6,1.4,1.4
		c0,0.8-0.6,1.4-1.4,1.4l0,0C98.2,48.9,97.5,48.3,97.5,47.5z"/>
	<path class="st2" d="M96.1,47.5c0,1.6,1.3,2.9,2.9,2.9c1.6,0,2.9-1.3,2.9-2.9c0-1.6-1.3-2.9-2.9-2.9l0,0
		C97.4,44.6,96.1,45.9,96.1,47.5z M97.6,47.5c0-0.8,0.6-1.4,1.4-1.4c0.8,0,1.4,0.6,1.4,1.4c0,0.8-0.6,1.4-1.4,1.4l0,0
		C98.2,48.9,97.6,48.3,97.6,47.5C97.6,47.5,97.6,47.5,97.6,47.5z"/>
	<path class="st3" d="M23.6,16.8c-0.5,1.5-6.9,5.6-3.4,12.8c1,2.2,5.5,6.2,30.1,3.8c34.1-3.4,68.1-15.6,68.1,2.6
		c0,8.2-12.4,11.4-19.5,11.4"/>
	
		<image style="display:inline;overflow:visible;" width="1024" height="1024" xlink:href="ADEA3CDD.jpg"  transform="matrix(1 0 0 1 -1264.8988 -519.9167)">
	</image>
</g>
<g id="Layer_1_copy">
	<title>PriceTag_1</title>
	<path class="st4" d="M118.6,36.7H60.2c-3.9,0-7,3.1-7,7v7.7c0,3.9,3.1,7,7,7h58.5V36.7z"/>
	<path class="st4" d="M118.6,36.7v21.7l7.9-10.9L118.6,36.7z M118.6,47.5c0-0.8,0.6-1.4,1.4-1.4c0.8,0,1.4,0.6,1.4,1.4
		c0,0.8-0.6,1.4-1.4,1.4l0,0C119.2,48.9,118.6,48.3,118.6,47.5z"/>
	<path class="st5" d="M117.2,47.5c0,1.6,1.3,2.9,2.9,2.9c1.6,0,2.9-1.3,2.9-2.9c0-1.6-1.3-2.9-2.9-2.9l0,0
		C118.5,44.6,117.2,45.9,117.2,47.5z M118.7,47.5c0-0.8,0.6-1.4,1.4-1.4c0.8,0,1.4,0.6,1.4,1.4c0,0.8-0.6,1.4-1.4,1.4l0,0
		C119.3,48.9,118.7,48.3,118.7,47.5C118.7,47.5,118.7,47.5,118.7,47.5z"/>
	
		<image style="overflow:visible;" width="1024" height="1024" xlink:href="ADEA3CDE.jpg"  transform="matrix(1 0 0 1 -1264.8988 -519.9167)">
	</image>
	<path class="st6" d="M121,47.5c2.2-0.3,41.2-0.9,49.1-8.8s2.5-16.1-3.1-18.6c-9.9-4.4-18.4-0.1-24.9-0.1
		c-12.8,0-12.8-10.8-12.8-10.8V0"/>
</g>
</svg>
