<svg width="500" height="248" viewBox="0 0 500 248" fill="none" xmlns="http://www.w3.org/2000/svg">
<g filter="url(#filter0_d_1533_4327)">
<rect x="115.879" y="17.0024" width="268.242" height="83.7981" rx="11.5997" fill="#FFF9F0" shape-rendering="crispEdges"/>
<rect x="116.241" y="17.3649" width="267.517" height="83.0732" rx="11.2372" stroke="#757575" stroke-width="0.724979" shape-rendering="crispEdges"/>
<path d="M135.414 32.2321H137.954V40.4051C137.954 41.3566 137.75 42.1581 137.342 42.8094C136.94 43.4608 136.382 43.9507 135.669 44.2792C134.961 44.6077 134.145 44.772 133.222 44.772C132.298 44.772 131.477 44.6077 130.758 44.2792C130.044 43.9507 129.484 43.4608 129.076 42.8094C128.674 42.1581 128.473 41.3566 128.473 40.4051V32.2321H131.021V40.4051C131.021 40.9602 131.109 41.4133 131.285 41.7644C131.46 42.1156 131.712 42.3733 132.041 42.5376C132.375 42.7018 132.769 42.7839 133.222 42.7839C133.686 42.7839 134.08 42.7018 134.403 42.5376C134.731 42.3733 134.98 42.1156 135.15 41.7644C135.326 41.4133 135.414 40.9602 135.414 40.4051V32.2321ZM144.87 42.0618C144.87 41.8862 144.819 41.7276 144.717 41.586C144.615 41.4444 144.425 41.3142 144.147 41.1952C143.875 41.0706 143.482 40.9573 142.966 40.8554C142.502 40.7534 142.069 40.626 141.667 40.4731C141.27 40.3145 140.925 40.1247 140.63 39.9038C140.341 39.683 140.115 39.4224 139.95 39.1222C139.786 38.8164 139.704 38.4681 139.704 38.0772C139.704 37.6921 139.786 37.3296 139.95 36.9898C140.12 36.6499 140.361 36.3498 140.673 36.0892C140.99 35.823 141.375 35.6163 141.828 35.469C142.287 35.3161 142.802 35.2396 143.374 35.2396C144.173 35.2396 144.858 35.3671 145.43 35.6219C146.008 35.8768 146.45 36.228 146.756 36.6754C147.067 37.1172 147.223 37.6213 147.223 38.1877H144.776C144.776 37.9498 144.725 37.7374 144.623 37.5505C144.527 37.3579 144.374 37.2078 144.164 37.1002C143.96 36.9869 143.694 36.9303 143.366 36.9303C143.094 36.9303 142.859 36.9784 142.661 37.0747C142.462 37.1654 142.309 37.29 142.202 37.4485C142.1 37.6015 142.049 37.7714 142.049 37.9583C142.049 38.0999 142.077 38.2273 142.134 38.3406C142.196 38.4482 142.295 38.5473 142.431 38.638C142.567 38.7286 142.743 38.8135 142.958 38.8928C143.179 38.9665 143.451 39.0344 143.774 39.0967C144.436 39.2327 145.028 39.4111 145.549 39.632C146.07 39.8472 146.484 40.1417 146.79 40.5155C147.095 40.8837 147.248 41.368 147.248 41.9683C147.248 42.3761 147.158 42.75 146.976 43.0898C146.795 43.4296 146.535 43.727 146.195 43.9819C145.855 44.2311 145.447 44.4265 144.971 44.5681C144.501 44.704 143.972 44.772 143.383 44.772C142.527 44.772 141.803 44.619 141.208 44.3132C140.619 44.0073 140.171 43.6194 139.865 43.1493C139.565 42.6735 139.415 42.1864 139.415 41.688H141.735C141.746 42.0221 141.831 42.2912 141.989 42.4951C142.154 42.699 142.36 42.8462 142.61 42.9369C142.864 43.0275 143.139 43.0728 143.434 43.0728C143.751 43.0728 144.014 43.0303 144.224 42.9454C144.433 42.8547 144.592 42.7358 144.7 42.5885C144.813 42.4356 144.87 42.26 144.87 42.0618ZM153.799 42.5291V38.4341C153.799 38.1395 153.751 37.8875 153.654 37.6779C153.558 37.4627 153.408 37.2956 153.204 37.1767C153.006 37.0577 152.748 36.9983 152.431 36.9983C152.159 36.9983 151.924 37.0464 151.726 37.1427C151.527 37.2333 151.374 37.3664 151.267 37.542C151.159 37.7119 151.105 37.913 151.105 38.1452H148.659C148.659 37.7544 148.749 37.3834 148.931 37.0323C149.112 36.6811 149.375 36.3724 149.721 36.1062C150.066 35.8343 150.477 35.6219 150.953 35.469C151.434 35.3161 151.972 35.2396 152.567 35.2396C153.28 35.2396 153.915 35.3586 154.47 35.5965C155.025 35.8343 155.461 36.1912 155.778 36.6669C156.101 37.1427 156.262 37.7374 156.262 38.4511V42.3846C156.262 42.8887 156.294 43.3022 156.356 43.625C156.418 43.9422 156.509 44.2197 156.628 44.4576V44.6021H154.155C154.037 44.3528 153.946 44.0413 153.884 43.6675C153.827 43.288 153.799 42.9085 153.799 42.5291ZM154.121 39.0033L154.138 40.3881H152.771C152.448 40.3881 152.167 40.4249 151.93 40.4986C151.692 40.5722 151.496 40.677 151.343 40.8129C151.19 40.9432 151.077 41.0961 151.004 41.2717C150.936 41.4473 150.902 41.6398 150.902 41.8494C150.902 42.059 150.95 42.2487 151.046 42.4186C151.142 42.5829 151.281 42.7131 151.462 42.8094C151.644 42.9 151.856 42.9454 152.099 42.9454C152.468 42.9454 152.788 42.8717 153.06 42.7245C153.331 42.5772 153.541 42.396 153.688 42.1807C153.841 41.9655 153.92 41.7616 153.926 41.569L154.572 42.6055C154.481 42.8377 154.357 43.0785 154.198 43.3277C154.045 43.5769 153.85 43.8119 153.612 44.0328C153.374 44.2481 153.088 44.4265 152.754 44.5681C152.419 44.704 152.023 44.772 151.564 44.772C150.981 44.772 150.451 44.6559 149.976 44.4236C149.505 44.1858 149.132 43.8601 148.854 43.4466C148.582 43.0275 148.446 42.5517 148.446 42.0193C148.446 41.5379 148.537 41.1103 148.718 40.7364C148.899 40.3626 149.166 40.0483 149.517 39.7934C149.874 39.5329 150.318 39.3375 150.851 39.2072C151.383 39.0713 152 39.0033 152.703 39.0033H154.121ZM163.968 35.4095H166.186V44.2962C166.186 45.1345 165.999 45.8453 165.625 46.4287C165.257 47.0177 164.741 47.4623 164.079 47.7625C163.416 48.0684 162.646 48.2213 161.768 48.2213C161.383 48.2213 160.975 48.1703 160.544 48.0684C160.12 47.9664 159.712 47.8078 159.321 47.5926C158.936 47.3774 158.613 47.1055 158.352 46.777L159.431 45.3327C159.715 45.6612 160.043 45.9161 160.417 46.0973C160.791 46.2842 161.204 46.3777 161.657 46.3777C162.099 46.3777 162.473 46.2956 162.779 46.1313C163.085 45.9727 163.32 45.7377 163.484 45.4261C163.648 45.1203 163.73 44.7493 163.73 44.3132V37.5335L163.968 35.4095ZM157.783 40.1162V39.9378C157.783 39.2355 157.868 38.5983 158.038 38.0263C158.214 37.4485 158.46 36.953 158.777 36.5395C159.1 36.126 159.491 35.806 159.95 35.5795C160.408 35.3529 160.927 35.2396 161.504 35.2396C162.116 35.2396 162.629 35.3529 163.042 35.5795C163.456 35.806 163.795 36.1289 164.062 36.548C164.328 36.9615 164.535 37.4514 164.682 38.0178C164.835 38.5785 164.954 39.193 165.039 39.8614V40.2522C164.954 40.8922 164.826 41.4869 164.656 42.0363C164.486 42.5857 164.263 43.0671 163.985 43.4806C163.708 43.8884 163.362 44.2056 162.949 44.4321C162.541 44.6587 162.054 44.772 161.487 44.772C160.921 44.772 160.408 44.6559 159.95 44.4236C159.497 44.1914 159.109 43.8657 158.786 43.4466C158.463 43.0275 158.214 42.5347 158.038 41.9683C157.868 41.4019 157.783 40.7846 157.783 40.1162ZM160.23 39.9378V40.1162C160.23 40.4957 160.267 40.8497 160.34 41.1782C160.414 41.5067 160.527 41.7984 160.68 42.0533C160.839 42.3025 161.034 42.4979 161.266 42.6395C161.504 42.7754 161.785 42.8434 162.108 42.8434C162.555 42.8434 162.92 42.75 163.204 42.563C163.487 42.3705 163.699 42.1071 163.841 41.7729C163.982 41.4388 164.064 41.0536 164.087 40.6175V39.5045C164.076 39.1477 164.028 38.8277 163.943 38.5445C163.858 38.2557 163.739 38.0093 163.586 37.8054C163.433 37.6015 163.235 37.4429 162.991 37.3296C162.748 37.2163 162.459 37.1597 162.125 37.1597C161.802 37.1597 161.521 37.2333 161.283 37.3806C161.051 37.5222 160.856 37.7176 160.697 37.9668C160.544 38.216 160.428 38.5105 160.349 38.8504C160.27 39.1845 160.23 39.547 160.23 39.9378ZM172.32 44.772C171.606 44.772 170.966 44.6587 170.4 44.4321C169.833 44.1999 169.352 43.8799 168.955 43.4721C168.564 43.0643 168.264 42.5914 168.055 42.0533C167.845 41.5096 167.74 40.9318 167.74 40.3201V39.9803C167.74 39.2837 167.839 38.6465 168.038 38.0687C168.236 37.491 168.519 36.9898 168.887 36.565C169.261 36.1402 169.714 35.8145 170.247 35.588C170.779 35.3557 171.379 35.2396 172.048 35.2396C172.699 35.2396 173.277 35.3472 173.781 35.5625C174.285 35.7777 174.707 36.0835 175.047 36.48C175.392 36.8765 175.653 37.3523 175.828 37.9073C176.004 38.4567 176.092 39.0684 176.092 39.7424V40.7619H168.785V39.1307H173.687V38.9438C173.687 38.604 173.625 38.301 173.501 38.0348C173.382 37.7629 173.2 37.5477 172.957 37.3891C172.713 37.2305 172.402 37.1512 172.022 37.1512C171.699 37.1512 171.422 37.222 171.19 37.3636C170.957 37.5052 170.768 37.7034 170.62 37.9583C170.479 38.2132 170.371 38.5134 170.298 38.8589C170.23 39.1987 170.196 39.5725 170.196 39.9803V40.3201C170.196 40.6883 170.247 41.0281 170.349 41.3396C170.456 41.6512 170.606 41.9202 170.799 42.1468C170.997 42.3733 171.235 42.5489 171.512 42.6735C171.796 42.7981 172.116 42.8604 172.473 42.8604C172.914 42.8604 173.325 42.7754 173.704 42.6055C174.09 42.4299 174.421 42.1666 174.698 41.8154L175.888 43.1068C175.695 43.3843 175.432 43.6505 175.098 43.9054C174.769 44.1603 174.373 44.3698 173.908 44.5341C173.444 44.6927 172.914 44.772 172.32 44.772Z" fill="#423E3A"/>
<rect x="127.841" y="60.5641" width="34.074" height="5.07485" rx="2.53743" fill="#918B83" stroke="#383838" stroke-width="0.724979"/>
<rect x="201.426" y="60.2017" width="95.6972" height="5.79983" rx="2.89992" fill="#C7C1B7"/>
<rect x="201.426" y="68.9014" width="152.246" height="5.79983" rx="2.89992" fill="#C7C1B7"/>
<rect x="201.426" y="77.6011" width="134.846" height="5.79983" rx="2.89992" fill="#C7C1B7"/>
</g>
<g filter="url(#filter1_d_1533_4327)">
<rect x="116.241" y="124.362" width="267.517" height="106.272" rx="11.2372" fill="#E3DDD3"/>
<rect x="116.241" y="124.362" width="267.517" height="106.272" rx="11.2372" stroke="#757575" stroke-width="0.724979"/>
<path d="M133.043 149.017L135.957 139.23H138.795L134.488 151.6H132.619L133.043 149.017ZM130.359 139.23L133.264 149.017L133.706 151.6H131.82L127.538 139.23H130.359ZM144.368 149.527V145.432C144.368 145.137 144.32 144.885 144.224 144.675C144.128 144.46 143.977 144.293 143.774 144.174C143.575 144.055 143.318 143.996 143 143.996C142.729 143.996 142.494 144.044 142.295 144.14C142.097 144.231 141.944 144.364 141.836 144.54C141.729 144.709 141.675 144.911 141.675 145.143H139.228C139.228 144.752 139.319 144.381 139.5 144.03C139.681 143.679 139.945 143.37 140.29 143.104C140.636 142.832 141.046 142.62 141.522 142.467C142.004 142.314 142.542 142.237 143.136 142.237C143.85 142.237 144.484 142.356 145.039 142.594C145.594 142.832 146.031 143.189 146.348 143.664C146.671 144.14 146.832 144.735 146.832 145.449V149.382C146.832 149.886 146.863 150.3 146.926 150.623C146.988 150.94 147.078 151.217 147.197 151.455V151.6H144.725C144.606 151.35 144.516 151.039 144.453 150.665C144.397 150.286 144.368 149.906 144.368 149.527ZM144.691 146.001L144.708 147.386H143.34C143.017 147.386 142.737 147.422 142.499 147.496C142.261 147.57 142.066 147.675 141.913 147.81C141.76 147.941 141.647 148.094 141.573 148.269C141.505 148.445 141.471 148.637 141.471 148.847C141.471 149.057 141.519 149.246 141.616 149.416C141.712 149.58 141.851 149.711 142.032 149.807C142.213 149.898 142.426 149.943 142.669 149.943C143.037 149.943 143.357 149.869 143.629 149.722C143.901 149.575 144.111 149.394 144.258 149.178C144.411 148.963 144.49 148.759 144.496 148.567L145.141 149.603C145.051 149.835 144.926 150.076 144.768 150.325C144.615 150.574 144.419 150.809 144.181 151.03C143.943 151.246 143.657 151.424 143.323 151.566C142.989 151.702 142.593 151.77 142.134 151.77C141.55 151.77 141.021 151.653 140.545 151.421C140.075 151.183 139.701 150.858 139.424 150.444C139.152 150.025 139.016 149.549 139.016 149.017C139.016 148.535 139.106 148.108 139.288 147.734C139.469 147.36 139.735 147.046 140.086 146.791C140.443 146.53 140.888 146.335 141.42 146.205C141.953 146.069 142.57 146.001 143.272 146.001H144.691ZM151.165 144.412V151.6H148.718V142.407H151.021L151.165 144.412ZM153.935 142.348L153.892 144.616C153.773 144.599 153.629 144.585 153.459 144.574C153.295 144.557 153.144 144.548 153.009 144.548C152.663 144.548 152.363 144.593 152.108 144.684C151.859 144.769 151.649 144.896 151.479 145.066C151.315 145.236 151.19 145.443 151.105 145.687C151.026 145.93 150.981 146.208 150.97 146.519L150.477 146.366C150.477 145.771 150.536 145.225 150.655 144.726C150.774 144.222 150.947 143.783 151.173 143.41C151.406 143.036 151.689 142.747 152.023 142.543C152.357 142.339 152.739 142.237 153.17 142.237C153.306 142.237 153.445 142.249 153.586 142.271C153.728 142.288 153.844 142.314 153.935 142.348ZM157.673 142.407V151.6H155.217V142.407H157.673ZM155.065 140.011C155.065 139.654 155.189 139.36 155.438 139.128C155.688 138.895 156.022 138.779 156.441 138.779C156.854 138.779 157.186 138.895 157.435 139.128C157.69 139.36 157.817 139.654 157.817 140.011C157.817 140.368 157.69 140.663 157.435 140.895C157.186 141.127 156.854 141.243 156.441 141.243C156.022 141.243 155.688 141.127 155.438 140.895C155.189 140.663 155.065 140.368 155.065 140.011ZM164.656 149.527V145.432C164.656 145.137 164.608 144.885 164.512 144.675C164.416 144.46 164.266 144.293 164.062 144.174C163.863 144.055 163.606 143.996 163.289 143.996C163.017 143.996 162.782 144.044 162.583 144.14C162.385 144.231 162.232 144.364 162.125 144.54C162.017 144.709 161.963 144.911 161.963 145.143H159.516C159.516 144.752 159.607 144.381 159.788 144.03C159.969 143.679 160.233 143.37 160.578 143.104C160.924 142.832 161.334 142.62 161.81 142.467C162.292 142.314 162.83 142.237 163.424 142.237C164.138 142.237 164.772 142.356 165.328 142.594C165.883 142.832 166.319 143.189 166.636 143.664C166.959 144.14 167.12 144.735 167.12 145.449V149.382C167.12 149.886 167.151 150.3 167.214 150.623C167.276 150.94 167.367 151.217 167.485 151.455V151.6H165.013C164.894 151.35 164.804 151.039 164.741 150.665C164.685 150.286 164.656 149.906 164.656 149.527ZM164.979 146.001L164.996 147.386H163.628C163.305 147.386 163.025 147.422 162.787 147.496C162.549 147.57 162.354 147.675 162.201 147.81C162.048 147.941 161.935 148.094 161.861 148.269C161.793 148.445 161.759 148.637 161.759 148.847C161.759 149.057 161.807 149.246 161.904 149.416C162 149.58 162.139 149.711 162.32 149.807C162.501 149.898 162.714 149.943 162.957 149.943C163.325 149.943 163.645 149.869 163.917 149.722C164.189 149.575 164.399 149.394 164.546 149.178C164.699 148.963 164.778 148.759 164.784 148.567L165.429 149.603C165.339 149.835 165.214 150.076 165.056 150.325C164.903 150.574 164.707 150.809 164.469 151.03C164.232 151.246 163.946 151.424 163.611 151.566C163.277 151.702 162.881 151.77 162.422 151.77C161.839 151.77 161.309 151.653 160.833 151.421C160.363 151.183 159.989 150.858 159.712 150.444C159.44 150.025 159.304 149.549 159.304 149.017C159.304 148.535 159.395 148.108 159.576 147.734C159.757 147.36 160.023 147.046 160.374 146.791C160.731 146.53 161.176 146.335 161.708 146.205C162.241 146.069 162.858 146.001 163.56 146.001H164.979ZM171.402 144.37V151.6H168.955V142.407H171.249L171.402 144.37ZM171.045 146.681H170.383C170.383 146.001 170.47 145.389 170.646 144.845C170.821 144.296 171.068 143.829 171.385 143.444C171.702 143.053 172.079 142.755 172.515 142.552C172.957 142.342 173.45 142.237 173.993 142.237C174.424 142.237 174.817 142.299 175.174 142.424C175.531 142.549 175.837 142.747 176.092 143.019C176.352 143.291 176.551 143.65 176.686 144.098C176.828 144.545 176.899 145.092 176.899 145.737V151.6H174.435V145.729C174.435 145.321 174.378 145.004 174.265 144.777C174.152 144.551 173.985 144.392 173.764 144.302C173.549 144.205 173.282 144.157 172.965 144.157C172.637 144.157 172.351 144.222 172.107 144.353C171.869 144.483 171.671 144.664 171.512 144.896C171.36 145.123 171.243 145.389 171.164 145.695C171.085 146.001 171.045 146.329 171.045 146.681ZM183.262 142.407V144.14H177.91V142.407H183.262ZM179.235 140.139H181.682V148.83C181.682 149.096 181.716 149.3 181.784 149.442C181.858 149.583 181.965 149.682 182.107 149.739C182.248 149.79 182.427 149.815 182.642 149.815C182.795 149.815 182.931 149.81 183.05 149.798C183.174 149.781 183.279 149.765 183.364 149.748L183.373 151.549C183.163 151.617 182.937 151.67 182.693 151.71C182.449 151.75 182.18 151.77 181.886 151.77C181.348 151.77 180.878 151.682 180.476 151.506C180.079 151.325 179.773 151.036 179.558 150.64C179.343 150.243 179.235 149.722 179.235 149.076V140.139ZM189.626 149.059C189.626 148.884 189.575 148.725 189.473 148.584C189.371 148.442 189.181 148.312 188.903 148.193C188.632 148.068 188.238 147.955 187.723 147.853C187.258 147.751 186.825 147.624 186.423 147.471C186.026 147.312 185.681 147.122 185.386 146.901C185.097 146.681 184.871 146.42 184.707 146.12C184.542 145.814 184.46 145.466 184.46 145.075C184.46 144.69 184.542 144.327 184.707 143.987C184.876 143.647 185.117 143.347 185.429 143.087C185.746 142.821 186.131 142.614 186.584 142.467C187.043 142.314 187.558 142.237 188.13 142.237C188.929 142.237 189.614 142.365 190.186 142.62C190.764 142.874 191.206 143.226 191.512 143.673C191.823 144.115 191.979 144.619 191.979 145.185H189.532C189.532 144.947 189.481 144.735 189.379 144.548C189.283 144.355 189.13 144.205 188.92 144.098C188.717 143.984 188.45 143.928 188.122 143.928C187.85 143.928 187.615 143.976 187.417 144.072C187.218 144.163 187.066 144.288 186.958 144.446C186.856 144.599 186.805 144.769 186.805 144.956C186.805 145.097 186.833 145.225 186.89 145.338C186.952 145.446 187.051 145.545 187.187 145.636C187.323 145.726 187.499 145.811 187.714 145.89C187.935 145.964 188.207 146.032 188.53 146.094C189.192 146.23 189.784 146.409 190.305 146.63C190.826 146.845 191.24 147.139 191.546 147.513C191.852 147.881 192.004 148.366 192.004 148.966C192.004 149.374 191.914 149.748 191.733 150.087C191.551 150.427 191.291 150.725 190.951 150.979C190.611 151.229 190.203 151.424 189.728 151.566C189.257 151.702 188.728 151.77 188.139 151.77C187.284 151.77 186.559 151.617 185.964 151.311C185.375 151.005 184.927 150.617 184.622 150.147C184.321 149.671 184.171 149.184 184.171 148.686H186.491C186.502 149.02 186.587 149.289 186.746 149.493C186.91 149.697 187.117 149.844 187.366 149.934C187.621 150.025 187.895 150.07 188.19 150.07C188.507 150.07 188.77 150.028 188.98 149.943C189.19 149.852 189.348 149.733 189.456 149.586C189.569 149.433 189.626 149.258 189.626 149.059Z" fill="#423E3A"/>
<rect x="127.841" y="166.112" width="57.2733" height="16.6745" rx="5.43734" fill="#F1E678"/>
<rect x="127.841" y="166.112" width="57.2733" height="16.6745" rx="5.43734" stroke="#757575" stroke-width="0.724979"/>
<rect x="197.439" y="167.562" width="31.1741" height="5.07485" rx="2.53743" fill="#918B83" stroke="#383838" stroke-width="0.724979"/>
<rect x="197.076" y="175.899" width="152.246" height="5.79983" rx="2.89992" fill="#C7C1B7"/>
<rect x="128.203" y="198.373" width="56.5484" height="15.9495" rx="5.07485" stroke="#EC905F" stroke-width="1.44996"/>
<rect x="197.439" y="199.461" width="31.1741" height="5.07485" rx="2.53743" fill="#918B83" stroke="#383838" stroke-width="0.724979"/>
<rect x="197.076" y="207.798" width="131.946" height="5.79983" rx="2.89992" fill="#C7C1B7"/>
</g>
<defs>
<filter id="filter0_d_1533_4327" x="115.879" y="17.0024" width="276.242" height="91.7983" filterUnits="userSpaceOnUse" color-interpolation-filters="sRGB">
<feFlood flood-opacity="0" result="BackgroundImageFix"/>
<feColorMatrix in="SourceAlpha" type="matrix" values="0 0 0 0 0 0 0 0 0 0 0 0 0 0 0 0 0 0 127 0" result="hardAlpha"/>
<feOffset dx="8" dy="8"/>
<feComposite in2="hardAlpha" operator="out"/>
<feColorMatrix type="matrix" values="0 0 0 0 0 0 0 0 0 0 0 0 0 0 0 0 0 0 1 0"/>
<feBlend mode="normal" in2="BackgroundImageFix" result="effect1_dropShadow_1533_4327"/>
<feBlend mode="normal" in="SourceGraphic" in2="effect1_dropShadow_1533_4327" result="shape"/>
</filter>
<filter id="filter1_d_1533_4327" x="115.879" y="124" width="276.242" height="114.998" filterUnits="userSpaceOnUse" color-interpolation-filters="sRGB">
<feFlood flood-opacity="0" result="BackgroundImageFix"/>
<feColorMatrix in="SourceAlpha" type="matrix" values="0 0 0 0 0 0 0 0 0 0 0 0 0 0 0 0 0 0 127 0" result="hardAlpha"/>
<feOffset dx="8" dy="8"/>
<feComposite in2="hardAlpha" operator="out"/>
<feColorMatrix type="matrix" values="0 0 0 0 0 0 0 0 0 0 0 0 0 0 0 0 0 0 1 0"/>
<feBlend mode="normal" in2="BackgroundImageFix" result="effect1_dropShadow_1533_4327"/>
<feBlend mode="normal" in="SourceGraphic" in2="effect1_dropShadow_1533_4327" result="shape"/>
</filter>
</defs>
</svg>
