<svg xmlns="http://www.w3.org/2000/svg" viewBox="0 0 509.52 508.81"><defs></defs><title>linkedIn</title><g id="Layer_2" data-name="Layer 2"><g id="Layer_1-2" data-name="Layer 1"><path class="cls-1" d="M509.49,40.76c0-.67,0-1.33,0-2C509,15,493.76,0,470,0H39.07A42.3,42.3,0,0,0,28.65.91C10.32,5.53,0,19.55,0,40.19q0,214,0,427.91a54.87,54.87,0,0,0,1.21,12.39c4,17.21,18.82,28.27,37.48,28.28q108,0,216,0,107.73,0,215.45,0c9,0,17.1-2.07,24.32-7.47,11.28-8.44,15-20.12,15-33.68Q509.44,254.21,509.49,40.76ZM145.72,433.48q-32.73-.31-65.45,0c-3.85,0-4.61-1.1-4.6-4.73.13-39,.08-77.95.08-116.92,0-38.81.06-77.62-.09-116.42,0-3.93,1-5,5-5q32.73.3,65.45,0c4.09,0,4.89,1.28,4.89,5.07q-.15,116.42,0,232.85C151,432.6,149.79,433.52,145.72,433.48Zm-32.26-276a43.65,43.65,0,0,1-43.71-43.87c.06-24.14,20.17-44.22,43.88-43.82,24.34.41,44.19,20.27,44,44A44.23,44.23,0,0,1,113.46,157.51Zm315.79,276q-32.75-.32-65.5,0c-4.11,0-5.26-.93-5.24-5.15.17-39.17.09-78.33.11-117.5,0-10.51-.52-21-2.94-31.25-4.44-18.84-16.33-28.37-35.54-28.58-27.33-.31-42.74,14.44-45.49,43-1,10-1,20-1,29.95,0,34.83-.07,69.67.07,104.5,0,3.82-.83,5-4.88,5-21.83-.22-43.67-.17-65.5,0-3.42,0-4.89-.41-4.88-4.47q.21-117,0-234c0-3.42.84-4.55,4.41-4.52q31.5.24,63,0c3.64,0,4.94.8,4.83,4.67-.29,9.44-.09,18.9-.09,28.35l1.19.44a74.3,74.3,0,0,1,26.6-27.11c15.16-9.13,31.72-12.58,49.22-12,16.11.53,31.81,3,46.17,10.93,19.6,10.86,29.53,28.61,34.84,49.52,4,15.58,5.26,31.49,5.31,47.51.14,45.16.18,90.32.45,135.48C434.48,432.4,433.42,433.52,429.25,433.48Z"/></g></g></svg>