<svg width="500" height="500" viewBox="0 0 500 500" fill="none" xmlns="http://www.w3.org/2000/svg">
<rect width="500" height="500" rx="8" fill="#0D0C0B"/>
<rect x="64" y="130" width="372" height="240" rx="16" fill="#FFF9F0"/>
<rect x="96" y="210" width="80" height="80" rx="8" fill="#E3DDD3"/>
<path fill-rule="evenodd" clip-rule="evenodd" d="M125.334 231.333C125.334 229.86 126.528 228.667 128.001 228.667H160.001C161.473 228.667 162.667 229.86 162.667 231.333V260.667C162.667 262.139 161.473 263.333 160.001 263.333H157.239C156.592 267.856 152.703 271.333 148.001 271.333C143.299 271.333 139.409 267.856 138.762 263.333H133.239C132.592 267.856 128.703 271.333 124.001 271.333C119.299 271.333 115.409 267.856 114.762 263.333H112.001C110.528 263.333 109.334 262.139 109.334 260.667V244.667C109.334 244.14 109.49 243.625 109.782 243.187L115.115 235.187C115.61 234.445 116.442 234 117.334 234H125.334V231.333ZM125.334 239.333H118.761L114.667 245.474V258H115.565C117.063 254.847 120.277 252.667 124.001 252.667C124.453 252.667 124.899 252.699 125.334 252.761V239.333ZM130.533 255.333C131.314 256.099 131.961 257 132.436 258H139.565C141.063 254.847 144.277 252.667 148.001 252.667C151.724 252.667 154.938 254.847 156.436 258H157.334V234H130.667V255.333H130.533ZM124.001 258C121.792 258 120.001 259.791 120.001 262C120.001 264.209 121.792 266 124.001 266C126.21 266 128.001 264.209 128.001 262C128.001 259.791 126.21 258 124.001 258ZM148.001 258C145.792 258 144.001 259.791 144.001 262C144.001 264.209 145.792 266 148.001 266C150.21 266 152.001 264.209 152.001 262C152.001 259.791 150.21 258 148.001 258Z" fill="#918B83"/>
<path d="M176 250H195M195 250V185.429H213.5M195 250H213.5M195 250V314.572H213.5" stroke="#C7C1B7" stroke-width="2" stroke-linejoin="round"/>
<rect x="213.5" y="164" width="81" height="44" rx="16" fill="#F1E678"/>
<path d="M240.914 188.34H244.418C244.348 189.488 244.031 190.508 243.469 191.398C242.914 192.289 242.137 192.984 241.137 193.484C240.145 193.984 238.949 194.234 237.551 194.234C236.457 194.234 235.477 194.047 234.609 193.672C233.742 193.289 233 192.742 232.383 192.031C231.773 191.32 231.309 190.461 230.988 189.453C230.668 188.445 230.508 187.316 230.508 186.066V184.883C230.508 183.633 230.672 182.504 231 181.496C231.336 180.48 231.812 179.617 232.43 178.906C233.055 178.195 233.801 177.648 234.668 177.266C235.535 176.883 236.504 176.691 237.574 176.691C238.996 176.691 240.195 176.949 241.172 177.465C242.156 177.98 242.918 178.691 243.457 179.598C244.004 180.504 244.332 181.535 244.441 182.691H240.926C240.887 182.004 240.75 181.422 240.516 180.945C240.281 180.461 239.926 180.098 239.449 179.855C238.98 179.605 238.355 179.48 237.574 179.48C236.988 179.48 236.477 179.59 236.039 179.809C235.602 180.027 235.234 180.359 234.938 180.805C234.641 181.25 234.418 181.812 234.27 182.492C234.129 183.164 234.059 183.953 234.059 184.859V186.066C234.059 186.949 234.125 187.727 234.258 188.398C234.391 189.062 234.594 189.625 234.867 190.086C235.148 190.539 235.508 190.883 235.945 191.117C236.391 191.344 236.926 191.457 237.551 191.457C238.285 191.457 238.891 191.34 239.367 191.105C239.844 190.871 240.207 190.523 240.457 190.062C240.715 189.602 240.867 189.027 240.914 188.34ZM253.664 179.855L249.023 194H245.285L251.625 176.938H254.004L253.664 179.855ZM257.52 194L252.867 179.855L252.492 176.938H254.895L261.27 194H257.52ZM257.309 187.648V190.402H248.297V187.648H257.309ZM276.738 176.938V194H273.223L266.367 182.562V194H262.852V176.938H266.367L273.234 188.387V176.938H276.738Z" fill="#0D0C0B"/>
<rect x="320.504" y="162" width="82.6667" height="48" rx="8" fill="#E3DDD3"/>
<rect x="328.504" y="170" width="22" height="8" rx="4" fill="#ADA79E"/>
<rect x="328.504" y="182" width="60" height="4" rx="2" fill="#ADA79E"/>
<rect x="328.504" y="190" width="52" height="4" rx="2" fill="#ADA79E"/>
<rect x="328.504" y="198" width="47" height="4" rx="2" fill="#ADA79E"/>
<rect x="213.5" y="228" width="62" height="44" rx="16" fill="#EC905F"/>
<path d="M242.473 255.258V258H233.391V255.258H242.473ZM234.539 240.938V258H231.023V240.938H234.539ZM241.289 247.887V250.559H233.391V247.887H241.289ZM242.461 240.938V243.691H233.391V240.938H242.461ZM250.676 254.438L254.695 240.938H258.609L252.668 258H250.09L250.676 254.438ZM246.973 240.938L250.98 254.438L251.59 258H248.988L243.082 240.938H246.973Z" fill="#0D0C0B"/>
<rect x="320.504" y="226" width="82.6667" height="48" rx="8" fill="#E3DDD3"/>
<rect x="328.504" y="234" width="52" height="8" rx="4" fill="#ADA79E"/>
<rect x="328.504" y="246" width="60" height="4" rx="2" fill="#ADA79E"/>
<rect x="328.504" y="254" width="64" height="4" rx="2" fill="#ADA79E"/>
<rect x="328.504" y="262" width="55" height="4" rx="2" fill="#ADA79E"/>
<rect x="213.5" y="292" width="99" height="44" rx="16" fill="#BF406B"/>
<path d="M242.402 311.887V314.629H233.496V311.887H242.402ZM234.539 304.938V322H231.023V304.938H234.539ZM244.91 304.938V322H241.406V304.938H244.91ZM253.594 322.234C252.609 322.234 251.727 322.078 250.945 321.766C250.164 321.445 249.5 321.004 248.953 320.441C248.414 319.879 248 319.227 247.711 318.484C247.422 317.734 247.277 316.938 247.277 316.094V315.625C247.277 314.664 247.414 313.785 247.688 312.988C247.961 312.191 248.352 311.5 248.859 310.914C249.375 310.328 250 309.879 250.734 309.566C251.469 309.246 252.297 309.086 253.219 309.086C254.117 309.086 254.914 309.234 255.609 309.531C256.305 309.828 256.887 310.25 257.355 310.797C257.832 311.344 258.191 312 258.434 312.766C258.676 313.523 258.797 314.367 258.797 315.297V316.703H248.719V314.453H255.48V314.195C255.48 313.727 255.395 313.309 255.223 312.941C255.059 312.566 254.809 312.27 254.473 312.051C254.137 311.832 253.707 311.723 253.184 311.723C252.738 311.723 252.355 311.82 252.035 312.016C251.715 312.211 251.453 312.484 251.25 312.836C251.055 313.188 250.906 313.602 250.805 314.078C250.711 314.547 250.664 315.062 250.664 315.625V316.094C250.664 316.602 250.734 317.07 250.875 317.5C251.023 317.93 251.23 318.301 251.496 318.613C251.77 318.926 252.098 319.168 252.48 319.34C252.871 319.512 253.312 319.598 253.805 319.598C254.414 319.598 254.98 319.48 255.504 319.246C256.035 319.004 256.492 318.641 256.875 318.156L258.516 319.938C258.25 320.32 257.887 320.688 257.426 321.039C256.973 321.391 256.426 321.68 255.785 321.906C255.145 322.125 254.414 322.234 253.594 322.234ZM267.562 319.141V313.492C267.562 313.086 267.496 312.738 267.363 312.449C267.23 312.152 267.023 311.922 266.742 311.758C266.469 311.594 266.113 311.512 265.676 311.512C265.301 311.512 264.977 311.578 264.703 311.711C264.43 311.836 264.219 312.02 264.07 312.262C263.922 312.496 263.848 312.773 263.848 313.094H260.473C260.473 312.555 260.598 312.043 260.848 311.559C261.098 311.074 261.461 310.648 261.938 310.281C262.414 309.906 262.98 309.613 263.637 309.402C264.301 309.191 265.043 309.086 265.863 309.086C266.848 309.086 267.723 309.25 268.488 309.578C269.254 309.906 269.855 310.398 270.293 311.055C270.738 311.711 270.961 312.531 270.961 313.516V318.941C270.961 319.637 271.004 320.207 271.09 320.652C271.176 321.09 271.301 321.473 271.465 321.801V322H268.055C267.891 321.656 267.766 321.227 267.68 320.711C267.602 320.188 267.562 319.664 267.562 319.141ZM268.008 314.277L268.031 316.188H266.145C265.699 316.188 265.312 316.238 264.984 316.34C264.656 316.441 264.387 316.586 264.176 316.773C263.965 316.953 263.809 317.164 263.707 317.406C263.613 317.648 263.566 317.914 263.566 318.203C263.566 318.492 263.633 318.754 263.766 318.988C263.898 319.215 264.09 319.395 264.34 319.527C264.59 319.652 264.883 319.715 265.219 319.715C265.727 319.715 266.168 319.613 266.543 319.41C266.918 319.207 267.207 318.957 267.41 318.66C267.621 318.363 267.73 318.082 267.738 317.816L268.629 319.246C268.504 319.566 268.332 319.898 268.113 320.242C267.902 320.586 267.633 320.91 267.305 321.215C266.977 321.512 266.582 321.758 266.121 321.953C265.66 322.141 265.113 322.234 264.48 322.234C263.676 322.234 262.945 322.074 262.289 321.754C261.641 321.426 261.125 320.977 260.742 320.406C260.367 319.828 260.18 319.172 260.18 318.438C260.18 317.773 260.305 317.184 260.555 316.668C260.805 316.152 261.172 315.719 261.656 315.367C262.148 315.008 262.762 314.738 263.496 314.559C264.23 314.371 265.082 314.277 266.051 314.277H268.008ZM277.688 319.539L280.5 309.32H284.027L279.75 322H277.617L277.688 319.539ZM275.754 309.32L278.578 319.551L278.637 322H276.492L272.215 309.32H275.754ZM289.301 320.57L292.664 309.32H296.285L291.188 323.91C291.078 324.23 290.93 324.574 290.742 324.941C290.562 325.309 290.316 325.656 290.004 325.984C289.699 326.32 289.312 326.594 288.844 326.805C288.383 327.016 287.816 327.121 287.145 327.121C286.824 327.121 286.562 327.102 286.359 327.062C286.156 327.023 285.914 326.969 285.633 326.898V324.426C285.719 324.426 285.809 324.426 285.902 324.426C285.996 324.434 286.086 324.438 286.172 324.438C286.617 324.438 286.98 324.387 287.262 324.285C287.543 324.184 287.77 324.027 287.941 323.816C288.113 323.613 288.25 323.348 288.352 323.02L289.301 320.57ZM287.895 309.32L290.648 318.508L291.129 322.082L288.832 322.328L284.273 309.32H287.895Z" fill="#FFF9F0"/>
<rect x="320.504" y="290" width="82.6667" height="48" rx="8" fill="#E3DDD3"/>
<rect x="328.504" y="298" width="40" height="8" rx="4" fill="#ADA79E"/>
<rect x="328.504" y="310" width="60" height="4" rx="2" fill="#ADA79E"/>
<rect x="328.504" y="318" width="52" height="4" rx="2" fill="#ADA79E"/>
<rect x="328.504" y="326" width="64" height="4" rx="2" fill="#ADA79E"/>
</svg>
