<svg width="500" height="500" viewBox="0 0 500 500" fill="none" xmlns="http://www.w3.org/2000/svg">
<rect width="500" height="500" rx="8" fill="#0D0C0B"/>
<rect x="57" y="161" width="386.25" height="178" rx="10" fill="#FFF9F0"/>
<path d="M84.1024 194.563V197H76.4682V194.563H84.1024ZM77.4785 181.836V197H74.354V181.836H77.4785ZM91.7887 194.459V189.439C91.7887 189.078 91.7297 188.769 91.6117 188.512C91.4936 188.248 91.3096 188.043 91.0597 187.897C90.8167 187.751 90.5007 187.679 90.1119 187.679C89.7786 187.679 89.4905 187.738 89.2475 187.856C89.0044 187.967 88.817 188.13 88.685 188.345C88.5531 188.553 88.4872 188.8 88.4872 189.085H85.4876C85.4876 188.605 85.5987 188.151 85.8209 187.72C86.0431 187.29 86.366 186.911 86.7895 186.585C87.2131 186.252 87.7165 185.991 88.2997 185.804C88.8899 185.616 89.5495 185.523 90.2786 185.523C91.1534 185.523 91.9311 185.668 92.6115 185.96C93.292 186.252 93.8266 186.689 94.2154 187.272C94.6112 187.856 94.8091 188.585 94.8091 189.46V194.282C94.8091 194.9 94.8473 195.406 94.9237 195.802C95 196.191 95.1111 196.531 95.2569 196.823V197H92.2262C92.0804 196.694 91.9693 196.313 91.8929 195.854C91.8234 195.389 91.7887 194.924 91.7887 194.459ZM92.1845 190.136L92.2053 191.834H90.5285C90.1327 191.834 89.789 191.879 89.4974 191.97C89.2058 192.06 88.9663 192.188 88.7788 192.355C88.5913 192.515 88.4524 192.702 88.3622 192.917C88.2789 193.133 88.2372 193.369 88.2372 193.626C88.2372 193.882 88.2962 194.115 88.4143 194.323C88.5323 194.525 88.7024 194.684 88.9246 194.802C89.1468 194.914 89.4072 194.969 89.7057 194.969C90.157 194.969 90.5493 194.879 90.8826 194.698C91.2159 194.518 91.4728 194.296 91.6533 194.032C91.8408 193.768 91.938 193.518 91.945 193.282L92.7365 194.552C92.6254 194.837 92.4727 195.132 92.2782 195.438C92.0908 195.743 91.8512 196.031 91.5596 196.302C91.268 196.566 90.9173 196.785 90.5077 196.958C90.098 197.125 89.612 197.208 89.0496 197.208C88.3344 197.208 87.6852 197.066 87.102 196.781C86.5257 196.49 86.0674 196.09 85.7272 195.584C85.3939 195.07 85.2273 194.487 85.2273 193.834C85.2273 193.244 85.3383 192.719 85.5605 192.261C85.7827 191.803 86.1091 191.418 86.5396 191.105C86.977 190.786 87.522 190.546 88.1747 190.386C88.8274 190.22 89.5842 190.136 90.4452 190.136H92.1845ZM103.787 194.303V185.731H106.786V197H103.964L103.787 194.303ZM104.12 191.99L105.005 191.97C105.005 192.719 104.919 193.417 104.745 194.063C104.571 194.702 104.311 195.257 103.964 195.729C103.617 196.195 103.179 196.559 102.652 196.823C102.124 197.08 101.502 197.208 100.787 197.208C100.239 197.208 99.7319 197.132 99.2667 196.979C98.8085 196.819 98.4127 196.573 98.0794 196.24C97.7531 195.899 97.4962 195.466 97.3087 194.938C97.1282 194.403 97.0379 193.761 97.0379 193.011V185.731H100.037V193.032C100.037 193.365 100.076 193.646 100.152 193.875C100.235 194.105 100.35 194.292 100.496 194.438C100.642 194.584 100.812 194.688 101.006 194.75C101.207 194.813 101.43 194.844 101.673 194.844C102.291 194.844 102.777 194.719 103.131 194.469C103.492 194.219 103.745 193.879 103.891 193.448C104.044 193.011 104.12 192.525 104.12 191.99ZM112.015 188.137V197H109.015V185.731H111.827L112.015 188.137ZM111.577 190.97H110.765C110.765 190.136 110.873 189.387 111.088 188.72C111.303 188.047 111.605 187.474 111.994 187.002C112.383 186.522 112.844 186.158 113.379 185.908C113.921 185.651 114.525 185.523 115.191 185.523C115.719 185.523 116.202 185.599 116.639 185.752C117.076 185.905 117.451 186.148 117.764 186.481C118.083 186.814 118.326 187.255 118.493 187.804C118.666 188.352 118.753 189.022 118.753 189.814V197H115.733V189.803C115.733 189.303 115.663 188.914 115.525 188.637C115.386 188.359 115.181 188.165 114.91 188.053C114.646 187.935 114.32 187.876 113.931 187.876C113.528 187.876 113.178 187.956 112.879 188.116C112.588 188.276 112.345 188.498 112.15 188.783C111.963 189.06 111.82 189.387 111.723 189.762C111.626 190.136 111.577 190.539 111.577 190.97ZM125.69 194.865C126.058 194.865 126.384 194.795 126.669 194.657C126.953 194.511 127.176 194.309 127.335 194.053C127.502 193.789 127.589 193.48 127.596 193.126H130.418C130.411 193.917 130.199 194.622 129.783 195.24C129.366 195.851 128.807 196.333 128.106 196.688C127.405 197.035 126.62 197.208 125.752 197.208C124.877 197.208 124.114 197.062 123.461 196.771C122.815 196.479 122.277 196.077 121.847 195.563C121.416 195.042 121.093 194.438 120.878 193.751C120.663 193.056 120.555 192.313 120.555 191.522V191.22C120.555 190.421 120.663 189.678 120.878 188.991C121.093 188.296 121.416 187.692 121.847 187.179C122.277 186.658 122.815 186.252 123.461 185.96C124.107 185.668 124.863 185.523 125.731 185.523C126.655 185.523 127.464 185.7 128.158 186.054C128.859 186.408 129.408 186.915 129.804 187.574C130.206 188.227 130.411 189.001 130.418 189.897H127.596C127.589 189.522 127.509 189.182 127.356 188.876C127.21 188.571 126.995 188.328 126.71 188.147C126.433 187.96 126.089 187.866 125.679 187.866C125.242 187.866 124.884 187.96 124.607 188.147C124.329 188.328 124.114 188.578 123.961 188.897C123.808 189.21 123.7 189.567 123.638 189.97C123.582 190.366 123.555 190.782 123.555 191.22V191.522C123.555 191.959 123.582 192.379 123.638 192.782C123.693 193.185 123.798 193.542 123.95 193.855C124.11 194.167 124.329 194.414 124.607 194.594C124.884 194.775 125.245 194.865 125.69 194.865ZM135.084 181.003V197H132.085V181.003H135.084ZM134.657 190.97H133.834C133.841 190.185 133.945 189.463 134.147 188.803C134.348 188.137 134.636 187.561 135.011 187.074C135.386 186.581 135.834 186.2 136.355 185.929C136.882 185.658 137.466 185.523 138.104 185.523C138.66 185.523 139.163 185.602 139.615 185.762C140.073 185.915 140.465 186.165 140.791 186.512C141.125 186.852 141.382 187.3 141.562 187.856C141.743 188.411 141.833 189.085 141.833 189.876V197H138.813V189.855C138.813 189.355 138.74 188.963 138.594 188.678C138.455 188.387 138.25 188.182 137.979 188.064C137.716 187.939 137.389 187.876 137 187.876C136.57 187.876 136.202 187.956 135.896 188.116C135.598 188.276 135.358 188.498 135.178 188.783C134.997 189.06 134.865 189.387 134.782 189.762C134.699 190.136 134.657 190.539 134.657 190.97ZM155.508 194.459V189.439C155.508 189.078 155.449 188.769 155.331 188.512C155.213 188.248 155.029 188.043 154.779 187.897C154.536 187.751 154.22 187.679 153.831 187.679C153.498 187.679 153.21 187.738 152.967 187.856C152.724 187.967 152.536 188.13 152.404 188.345C152.272 188.553 152.206 188.8 152.206 189.085H149.207C149.207 188.605 149.318 188.151 149.54 187.72C149.762 187.29 150.085 186.911 150.509 186.585C150.932 186.252 151.436 185.991 152.019 185.804C152.609 185.616 153.269 185.523 153.998 185.523C154.873 185.523 155.65 185.668 156.331 185.96C157.011 186.252 157.546 186.689 157.935 187.272C158.33 187.856 158.528 188.585 158.528 189.46V194.282C158.528 194.9 158.566 195.406 158.643 195.802C158.719 196.191 158.83 196.531 158.976 196.823V197H155.945C155.8 196.694 155.688 196.313 155.612 195.854C155.543 195.389 155.508 194.924 155.508 194.459ZM155.904 190.136L155.925 191.834H154.248C153.852 191.834 153.508 191.879 153.217 191.97C152.925 192.06 152.685 192.188 152.498 192.355C152.311 192.515 152.172 192.702 152.081 192.917C151.998 193.133 151.956 193.369 151.956 193.626C151.956 193.882 152.015 194.115 152.133 194.323C152.252 194.525 152.422 194.684 152.644 194.802C152.866 194.914 153.126 194.969 153.425 194.969C153.876 194.969 154.269 194.879 154.602 194.698C154.935 194.518 155.192 194.296 155.373 194.032C155.56 193.768 155.657 193.518 155.664 193.282L156.456 194.552C156.345 194.837 156.192 195.132 155.997 195.438C155.81 195.743 155.57 196.031 155.279 196.302C154.987 196.566 154.637 196.785 154.227 196.958C153.817 197.125 153.331 197.208 152.769 197.208C152.054 197.208 151.404 197.066 150.821 196.781C150.245 196.49 149.787 196.09 149.446 195.584C149.113 195.07 148.946 194.487 148.946 193.834C148.946 193.244 149.058 192.719 149.28 192.261C149.502 191.803 149.828 191.418 150.259 191.105C150.696 190.786 151.241 190.546 151.894 190.386C152.547 190.22 153.303 190.136 154.164 190.136H155.904ZM170.808 194.865C171.176 194.865 171.502 194.795 171.787 194.657C172.071 194.511 172.294 194.309 172.453 194.053C172.62 193.789 172.707 193.48 172.714 193.126H175.536C175.529 193.917 175.317 194.622 174.901 195.24C174.484 195.851 173.925 196.333 173.224 196.688C172.523 197.035 171.738 197.208 170.87 197.208C169.995 197.208 169.231 197.062 168.579 196.771C167.933 196.479 167.395 196.077 166.964 195.563C166.534 195.042 166.211 194.438 165.996 193.751C165.781 193.056 165.673 192.313 165.673 191.522V191.22C165.673 190.421 165.781 189.678 165.996 188.991C166.211 188.296 166.534 187.692 166.964 187.179C167.395 186.658 167.933 186.252 168.579 185.96C169.225 185.668 169.981 185.523 170.849 185.523C171.773 185.523 172.582 185.7 173.276 186.054C173.977 186.408 174.526 186.915 174.922 187.574C175.324 188.227 175.529 189.001 175.536 189.897H172.714C172.707 189.522 172.627 189.182 172.474 188.876C172.328 188.571 172.113 188.328 171.828 188.147C171.551 187.96 171.207 187.866 170.797 187.866C170.36 187.866 170.002 187.96 169.724 188.147C169.447 188.328 169.231 188.578 169.079 188.897C168.926 189.21 168.818 189.567 168.756 189.97C168.7 190.366 168.673 190.782 168.673 191.22V191.522C168.673 191.959 168.7 192.379 168.756 192.782C168.811 193.185 168.916 193.542 169.068 193.855C169.228 194.167 169.447 194.414 169.724 194.594C170.002 194.775 170.363 194.865 170.808 194.865ZM183.358 194.459V189.439C183.358 189.078 183.299 188.769 183.181 188.512C183.063 188.248 182.879 188.043 182.629 187.897C182.386 187.751 182.07 187.679 181.681 187.679C181.348 187.679 181.06 187.738 180.816 187.856C180.573 187.967 180.386 188.13 180.254 188.345C180.122 188.553 180.056 188.8 180.056 189.085H177.057C177.057 188.605 177.168 188.151 177.39 187.72C177.612 187.29 177.935 186.911 178.359 186.585C178.782 186.252 179.285 185.991 179.869 185.804C180.459 185.616 181.119 185.523 181.848 185.523C182.722 185.523 183.5 185.668 184.181 185.96C184.861 186.252 185.396 186.689 185.784 187.272C186.18 187.856 186.378 188.585 186.378 189.46V194.282C186.378 194.9 186.416 195.406 186.493 195.802C186.569 196.191 186.68 196.531 186.826 196.823V197H183.795C183.649 196.694 183.538 196.313 183.462 195.854C183.392 195.389 183.358 194.924 183.358 194.459ZM183.754 190.136L183.774 191.834H182.098C181.702 191.834 181.358 191.879 181.066 191.97C180.775 192.06 180.535 192.188 180.348 192.355C180.16 192.515 180.021 192.702 179.931 192.917C179.848 193.133 179.806 193.369 179.806 193.626C179.806 193.882 179.865 194.115 179.983 194.323C180.101 194.525 180.271 194.684 180.494 194.802C180.716 194.914 180.976 194.969 181.275 194.969C181.726 194.969 182.118 194.879 182.452 194.698C182.785 194.518 183.042 194.296 183.222 194.032C183.41 193.768 183.507 193.518 183.514 193.282L184.306 194.552C184.194 194.837 184.042 195.132 183.847 195.438C183.66 195.743 183.42 196.031 183.129 196.302C182.837 196.566 182.486 196.785 182.077 196.958C181.667 197.125 181.181 197.208 180.619 197.208C179.903 197.208 179.254 197.066 178.671 196.781C178.095 196.49 177.636 196.09 177.296 195.584C176.963 195.07 176.796 194.487 176.796 193.834C176.796 193.244 176.907 192.719 177.13 192.261C177.352 191.803 177.678 191.418 178.109 191.105C178.546 190.786 179.091 190.546 179.744 190.386C180.396 190.22 181.153 190.136 182.014 190.136H183.754ZM191.69 188.064V197H188.68V185.731H191.502L191.69 188.064ZM191.273 190.97H190.44C190.44 190.185 190.534 189.463 190.721 188.803C190.916 188.137 191.197 187.561 191.565 187.074C191.94 186.581 192.401 186.2 192.95 185.929C193.499 185.658 194.134 185.523 194.856 185.523C195.356 185.523 195.814 185.599 196.231 185.752C196.647 185.898 197.005 186.13 197.303 186.45C197.609 186.762 197.845 187.172 198.012 187.679C198.178 188.178 198.262 188.779 198.262 189.48V197H195.262V189.814C195.262 189.3 195.193 188.904 195.054 188.626C194.915 188.349 194.717 188.154 194.46 188.043C194.21 187.932 193.908 187.876 193.554 187.876C193.165 187.876 192.825 187.956 192.533 188.116C192.249 188.276 192.013 188.498 191.825 188.783C191.638 189.06 191.499 189.387 191.409 189.762C191.318 190.136 191.273 190.539 191.273 190.97ZM197.98 190.626L196.908 190.761C196.908 190.025 196.998 189.341 197.179 188.71C197.366 188.078 197.64 187.522 198.001 187.043C198.369 186.564 198.824 186.193 199.366 185.929C199.907 185.658 200.532 185.523 201.24 185.523C201.782 185.523 202.275 185.602 202.719 185.762C203.164 185.915 203.542 186.161 203.855 186.502C204.174 186.835 204.417 187.272 204.584 187.814C204.757 188.356 204.844 189.019 204.844 189.803V197H201.834V189.803C201.834 189.282 201.765 188.887 201.626 188.616C201.494 188.338 201.299 188.147 201.042 188.043C200.793 187.932 200.494 187.876 200.147 187.876C199.786 187.876 199.47 187.949 199.199 188.095C198.928 188.234 198.703 188.428 198.522 188.678C198.342 188.928 198.206 189.22 198.116 189.553C198.026 189.88 197.98 190.237 197.98 190.626ZM210.166 187.897V201.333H207.167V185.731H209.947L210.166 187.897ZM217.3 191.24V191.459C217.3 192.279 217.203 193.039 217.009 193.74C216.821 194.441 216.544 195.052 216.176 195.573C215.808 196.087 215.349 196.49 214.801 196.781C214.259 197.066 213.634 197.208 212.926 197.208C212.239 197.208 211.642 197.069 211.135 196.792C210.628 196.514 210.201 196.125 209.854 195.625C209.513 195.118 209.239 194.532 209.031 193.865C208.823 193.199 208.663 192.483 208.552 191.72V191.147C208.663 190.327 208.823 189.578 209.031 188.897C209.239 188.21 209.513 187.616 209.854 187.116C210.201 186.609 210.624 186.217 211.124 185.939C211.631 185.661 212.225 185.523 212.905 185.523C213.62 185.523 214.249 185.658 214.79 185.929C215.339 186.2 215.797 186.588 216.165 187.095C216.54 187.602 216.821 188.206 217.009 188.908C217.203 189.609 217.3 190.386 217.3 191.24ZM214.29 191.459V191.24C214.29 190.761 214.249 190.32 214.165 189.918C214.089 189.508 213.964 189.151 213.79 188.845C213.624 188.54 213.402 188.303 213.124 188.137C212.853 187.963 212.523 187.876 212.135 187.876C211.725 187.876 211.374 187.942 211.083 188.074C210.798 188.206 210.565 188.397 210.385 188.647C210.204 188.897 210.069 189.196 209.979 189.543C209.888 189.89 209.833 190.282 209.812 190.72V192.167C209.847 192.681 209.944 193.143 210.104 193.553C210.263 193.955 210.51 194.275 210.843 194.511C211.176 194.747 211.614 194.865 212.155 194.865C212.551 194.865 212.884 194.778 213.155 194.605C213.426 194.424 213.645 194.178 213.811 193.865C213.985 193.553 214.106 193.192 214.176 192.782C214.252 192.372 214.29 191.931 214.29 191.459ZM225.247 194.459V189.439C225.247 189.078 225.188 188.769 225.07 188.512C224.952 188.248 224.768 188.043 224.518 187.897C224.275 187.751 223.959 187.679 223.57 187.679C223.237 187.679 222.949 187.738 222.706 187.856C222.463 187.967 222.275 188.13 222.143 188.345C222.011 188.553 221.945 188.8 221.945 189.085H218.946C218.946 188.605 219.057 188.151 219.279 187.72C219.501 187.29 219.824 186.911 220.248 186.585C220.671 186.252 221.175 185.991 221.758 185.804C222.348 185.616 223.008 185.523 223.737 185.523C224.612 185.523 225.389 185.668 226.07 185.96C226.75 186.252 227.285 186.689 227.674 187.272C228.07 187.856 228.267 188.585 228.267 189.46V194.282C228.267 194.9 228.306 195.406 228.382 195.802C228.458 196.191 228.569 196.531 228.715 196.823V197H225.684C225.539 196.694 225.428 196.313 225.351 195.854C225.282 195.389 225.247 194.924 225.247 194.459ZM225.643 190.136L225.664 191.834H223.987C223.591 191.834 223.247 191.879 222.956 191.97C222.664 192.06 222.425 192.188 222.237 192.355C222.05 192.515 221.911 192.702 221.82 192.917C221.737 193.133 221.696 193.369 221.696 193.626C221.696 193.882 221.755 194.115 221.873 194.323C221.991 194.525 222.161 194.684 222.383 194.802C222.605 194.914 222.865 194.969 223.164 194.969C223.615 194.969 224.008 194.879 224.341 194.698C224.674 194.518 224.931 194.296 225.112 194.032C225.299 193.768 225.396 193.518 225.403 193.282L226.195 194.552C226.084 194.837 225.931 195.132 225.737 195.438C225.549 195.743 225.31 196.031 225.018 196.302C224.726 196.566 224.376 196.785 223.966 196.958C223.556 197.125 223.07 197.208 222.508 197.208C221.793 197.208 221.144 197.066 220.56 196.781C219.984 196.49 219.526 196.09 219.185 195.584C218.852 195.07 218.686 194.487 218.686 193.834C218.686 193.244 218.797 192.719 219.019 192.261C219.241 191.803 219.567 191.418 219.998 191.105C220.435 190.786 220.98 190.546 221.633 190.386C222.286 190.22 223.043 190.136 223.903 190.136H225.643ZM233.746 185.731V197H230.736V185.731H233.746ZM230.548 182.794C230.548 182.356 230.701 181.995 231.007 181.711C231.312 181.426 231.722 181.284 232.236 181.284C232.742 181.284 233.149 181.426 233.454 181.711C233.767 181.995 233.923 182.356 233.923 182.794C233.923 183.231 233.767 183.592 233.454 183.877C233.149 184.162 232.742 184.304 232.236 184.304C231.722 184.304 231.312 184.162 231.007 183.877C230.701 183.592 230.548 183.231 230.548 182.794ZM243.359 185.731H246.077V196.625C246.077 197.653 245.848 198.524 245.39 199.239C244.938 199.961 244.307 200.506 243.494 200.874C242.682 201.249 241.738 201.437 240.661 201.437C240.189 201.437 239.689 201.374 239.162 201.249C238.641 201.124 238.141 200.93 237.662 200.666C237.19 200.402 236.794 200.069 236.474 199.666L237.797 197.896C238.144 198.298 238.547 198.611 239.005 198.833C239.464 199.062 239.97 199.177 240.526 199.177C241.067 199.177 241.526 199.076 241.901 198.875C242.276 198.68 242.564 198.392 242.765 198.01C242.966 197.635 243.067 197.181 243.067 196.646V188.335L243.359 185.731ZM235.777 191.501V191.282C235.777 190.421 235.881 189.64 236.089 188.939C236.304 188.231 236.606 187.623 236.995 187.116C237.391 186.609 237.87 186.217 238.432 185.939C238.995 185.661 239.63 185.523 240.338 185.523C241.088 185.523 241.717 185.661 242.224 185.939C242.73 186.217 243.147 186.613 243.473 187.127C243.8 187.633 244.053 188.234 244.234 188.928C244.421 189.616 244.567 190.369 244.671 191.188V191.668C244.567 192.452 244.411 193.181 244.202 193.855C243.994 194.528 243.72 195.118 243.38 195.625C243.039 196.125 242.616 196.514 242.109 196.792C241.609 197.069 241.012 197.208 240.318 197.208C239.623 197.208 238.995 197.066 238.432 196.781C237.877 196.497 237.401 196.097 237.006 195.584C236.61 195.07 236.304 194.466 236.089 193.771C235.881 193.077 235.777 192.32 235.777 191.501ZM238.776 191.282V191.501C238.776 191.966 238.821 192.4 238.912 192.803C239.002 193.205 239.141 193.563 239.328 193.875C239.523 194.181 239.762 194.421 240.047 194.594C240.338 194.761 240.682 194.844 241.078 194.844C241.626 194.844 242.074 194.73 242.421 194.5C242.769 194.264 243.029 193.941 243.203 193.532C243.376 193.122 243.477 192.65 243.505 192.115V190.751C243.491 190.314 243.432 189.921 243.328 189.574C243.223 189.22 243.078 188.918 242.89 188.668C242.703 188.418 242.46 188.224 242.161 188.085C241.862 187.946 241.508 187.876 241.099 187.876C240.703 187.876 240.359 187.967 240.068 188.147C239.783 188.321 239.543 188.56 239.349 188.866C239.162 189.171 239.019 189.532 238.922 189.949C238.825 190.359 238.776 190.803 238.776 191.282ZM251.347 188.137V197H248.348V185.731H251.16L251.347 188.137ZM250.91 190.97H250.097C250.097 190.136 250.205 189.387 250.42 188.72C250.635 188.047 250.937 187.474 251.326 187.002C251.715 186.522 252.177 186.158 252.712 185.908C253.253 185.651 253.857 185.523 254.524 185.523C255.051 185.523 255.534 185.599 255.971 185.752C256.409 185.905 256.784 186.148 257.096 186.481C257.416 186.814 257.659 187.255 257.825 187.804C257.999 188.352 258.086 189.022 258.086 189.814V197H255.065V189.803C255.065 189.303 254.996 188.914 254.857 188.637C254.718 188.359 254.513 188.165 254.243 188.053C253.979 187.935 253.652 187.876 253.263 187.876C252.861 187.876 252.51 187.956 252.212 188.116C251.92 188.276 251.677 188.498 251.483 188.783C251.295 189.06 251.153 189.387 251.056 189.762C250.958 190.136 250.91 190.539 250.91 190.97Z" fill="#423E3A"/>
<rect x="380.25" y="183.5" width="47" height="12" rx="6" fill="#BF406B"/>
<path d="M427.25 210.75H73V213.25H427.25V210.75Z" fill="#E3DDD3" mask="url(#path-3-inside-1_144_3920)"/>
<path d="M73 232L73 267" stroke="#E3DDD3" stroke-width="2.5" stroke-linecap="round"/>
<path d="M97.7148 232L97.7148 267" stroke="#E3DDD3" stroke-width="2.5" stroke-linecap="round"/>
<path d="M122.428 232L122.428 267" stroke="#E3DDD3" stroke-width="2.5" stroke-linecap="round"/>
<path d="M147.143 232L147.143 267" stroke="#E3DDD3" stroke-width="2.5" stroke-linecap="round"/>
<path d="M171.857 232L171.857 267" stroke="#E3DDD3" stroke-width="2.5" stroke-linecap="round"/>
<path d="M196.572 232L196.572 267" stroke="#E3DDD3" stroke-width="2.5" stroke-linecap="round"/>
<path d="M221.285 232L221.285 267" stroke="#E3DDD3" stroke-width="2.5" stroke-linecap="round"/>
<path d="M246 232L246 267" stroke="#E3DDD3" stroke-width="2.5" stroke-linecap="round"/>
<path d="M73 258.667L85.3571 253.667L97.7143 258.667L110.071 267L122.429 265.333L134.786 257L147.143 255.333L159.5 252L171.857 258.667L184.214 263.667L196.571 245.333L208.929 247L221.286 242L233.643 232L246 248.667" stroke="#EC905F" stroke-width="3" stroke-linecap="round" stroke-linejoin="round"/>
<rect x="262" y="232" width="2.5" height="20" rx="1.25" fill="#F1E678"/>
<rect x="267" y="232" width="55" height="5" rx="2.5" fill="#C7C1B7"/>
<rect x="267" y="242" width="98.75" height="10" rx="5" fill="#C7C1B7"/>
<circle cx="247" cy="249" r="4" fill="#EC905F"/>
<rect x="73" y="287" width="71" height="36" rx="8" fill="#E3DDD3"/>
<rect x="81" y="295" width="55" height="5" rx="2.5" fill="#ADA79E"/>
<rect x="81" y="305" width="49" height="10" rx="5" fill="#ADA79E"/>
<rect x="152.084" y="287" width="84" height="36" rx="8" fill="#E3DDD3"/>
<rect x="160.084" y="295" width="55" height="5" rx="2.5" fill="#ADA79E"/>
<rect x="160.084" y="305" width="68" height="10" rx="5" fill="#ADA79E"/>
<rect x="244.166" y="287" width="97" height="36" rx="8" fill="#E3DDD3"/>
<rect x="252.166" y="295" width="55" height="5" rx="2.5" fill="#ADA79E"/>
<rect x="252.166" y="305" width="81" height="10" rx="5" fill="#ADA79E"/>
<rect x="349.25" y="287" width="78" height="36" rx="8" fill="#E3DDD3"/>
<rect x="357.25" y="295" width="55" height="5" rx="2.5" fill="#ADA79E"/>
<rect x="357.25" y="305" width="62" height="10" rx="5" fill="#ADA79E"/>
</svg>
