<svg width="500" height="249" viewBox="0 0 500 249" fill="none" xmlns="http://www.w3.org/2000/svg">
<g filter="url(#filter0_d_1533_4255)">
<path d="M139.073 23.6807H360.928C367.598 23.6807 373.006 29.0886 373.006 35.7588V119.335H126.995V35.7588C126.995 29.0886 132.403 23.6807 139.073 23.6807Z" fill="#FFF9F0" stroke="#757575" stroke-width="1.15464"/>
<rect x="218.941" y="44.403" width="62.1196" height="62.9105" rx="31.0598" fill="#E3DDD3"/>
<rect x="218.941" y="44.403" width="62.1196" height="62.9105" rx="31.0598" stroke="#757575" stroke-width="1.15464"/>
<path fill-rule="evenodd" clip-rule="evenodd" d="M250.001 59.7764C247.27 59.7764 245.057 62.0265 245.057 64.8021C245.057 67.5777 247.27 69.8278 250.001 69.8278C252.731 69.8278 254.944 67.5777 254.944 64.8021C254.944 62.0265 252.731 59.7764 250.001 59.7764ZM241.103 64.8021C241.103 59.806 245.086 55.7559 250.001 55.7559C254.915 55.7559 258.899 59.806 258.899 64.8021C258.899 69.7982 254.915 73.8483 250.001 73.8483C245.086 73.8483 241.103 69.7982 241.103 64.8021ZM237.501 89.9305H262.5C261.099 84.0829 256.388 79.8792 250.001 79.8792C243.613 79.8792 238.903 84.0829 237.501 89.9305ZM233.202 91.7527C234.017 82.937 240.593 75.8586 250.001 75.8586C259.408 75.8586 265.984 82.937 266.799 91.7527C266.851 92.3161 266.667 92.8757 266.293 93.2941C265.918 93.7126 265.387 93.9511 264.83 93.9511H235.171C234.614 93.9511 234.083 93.7126 233.709 93.2941C233.334 92.8757 233.15 92.3161 233.202 91.7527Z" fill="#918B83"/>
<rect width="247.165" height="7.90928" transform="translate(126.418 119.912)" fill="#C7C1B7"/>
<rect x="126.995" y="120.489" width="246.01" height="6.75464" fill="#EC905F" stroke="#757575" stroke-width="1.15464"/>
<path d="M373.006 128.399V143.64C373.006 150.31 367.598 155.718 360.928 155.718H139.073C132.403 155.718 126.995 150.31 126.995 143.64V128.399H373.006Z" fill="#E3DDD3"/>
<path d="M373.006 128.399V143.64C373.006 150.31 367.598 155.718 360.928 155.718H139.073C132.403 155.718 126.995 150.31 126.995 143.64V128.399H373.006Z" stroke="#767676" stroke-width="1.15464"/>
<rect x="134.328" y="131.776" width="20.5641" height="20.5641" rx="10.2821" fill="#E3DDD3"/>
<path fill-rule="evenodd" clip-rule="evenodd" d="M144.611 137.84C143.883 137.84 143.293 138.43 143.293 139.158C143.293 139.886 143.883 140.477 144.611 140.477C145.339 140.477 145.929 139.886 145.929 139.158C145.929 138.43 145.339 137.84 144.611 137.84ZM142.238 139.158C142.238 137.848 143.3 136.786 144.611 136.786C145.921 136.786 146.984 137.848 146.984 139.158C146.984 140.469 145.921 141.531 144.611 141.531C143.3 141.531 142.238 140.469 142.238 139.158ZM141.278 145.749H147.944C147.57 144.216 146.314 143.113 144.611 143.113C142.908 143.113 141.651 144.216 141.278 145.749ZM140.131 146.227C140.349 143.915 142.102 142.058 144.611 142.058C147.12 142.058 148.873 143.915 149.09 146.227C149.104 146.375 149.055 146.522 148.955 146.632C148.855 146.742 148.714 146.804 148.565 146.804H140.656C140.508 146.804 140.366 146.742 140.266 146.632C140.166 146.522 140.117 146.375 140.131 146.227Z" fill="#918B83"/>
<rect x="162.801" y="133.826" width="45.4784" height="7.90928" rx="3.95464" fill="#ADA79E"/>
<rect x="212.234" y="133.826" width="33.6144" height="7.90928" rx="3.95464" fill="#F1E678"/>
<rect x="162.801" y="145.69" width="167.677" height="4.60075" rx="2.30037" fill="#C7C1B7"/>
</g>
<g filter="url(#filter1_d_1533_4255)">
<rect x="126.418" y="162.623" width="247.165" height="28.4734" rx="12.6548" fill="#FFF9F0" shape-rendering="crispEdges"/>
<rect x="126.995" y="163.2" width="246.01" height="27.3188" rx="12.0775" stroke="#767676" stroke-width="1.15464" shape-rendering="crispEdges"/>
<rect x="134.328" y="166.577" width="20.5641" height="20.5641" rx="10.2821" fill="#E3DDD3"/>
<path fill-rule="evenodd" clip-rule="evenodd" d="M144.611 172.641C143.883 172.641 143.293 173.231 143.293 173.959C143.293 174.687 143.883 175.277 144.611 175.277C145.339 175.277 145.929 174.687 145.929 173.959C145.929 173.231 145.339 172.641 144.611 172.641ZM142.238 173.959C142.238 172.649 143.3 171.586 144.611 171.586C145.921 171.586 146.984 172.649 146.984 173.959C146.984 175.27 145.921 176.332 144.611 176.332C143.3 176.332 142.238 175.27 142.238 173.959ZM141.278 180.55H147.944C147.57 179.016 146.314 177.914 144.611 177.914C142.908 177.914 141.651 179.016 141.278 180.55ZM140.131 181.028C140.349 178.716 142.102 176.859 144.611 176.859C147.12 176.859 148.873 178.716 149.09 181.028C149.104 181.176 149.055 181.323 148.955 181.433C148.855 181.542 148.714 181.605 148.565 181.605H140.656C140.508 181.605 140.366 181.542 140.266 181.433C140.166 181.323 140.117 181.176 140.131 181.028Z" fill="#918B83"/>
<rect x="162.801" y="168.627" width="45.4784" height="7.90928" rx="3.95464" fill="#ADA79E"/>
<rect x="212.234" y="168.627" width="33.6144" height="7.90928" rx="3.95464" fill="#F1E678"/>
<rect x="162.801" y="180.491" width="114.685" height="4.60075" rx="2.30037" fill="#C7C1B7"/>
</g>
<g filter="url(#filter2_d_1533_4255)">
<rect x="126.418" y="197.423" width="247.165" height="28.4734" rx="12.6548" fill="#FFF9F0" shape-rendering="crispEdges"/>
<rect x="126.995" y="198.001" width="246.01" height="27.3188" rx="12.0775" stroke="#767676" stroke-width="1.15464" shape-rendering="crispEdges"/>
<rect x="134.328" y="201.378" width="20.5641" height="20.5641" rx="10.2821" fill="#E3DDD3"/>
<path fill-rule="evenodd" clip-rule="evenodd" d="M144.611 207.442C143.883 207.442 143.293 208.032 143.293 208.76C143.293 209.488 143.883 210.078 144.611 210.078C145.339 210.078 145.929 209.488 145.929 208.76C145.929 208.032 145.339 207.442 144.611 207.442ZM142.238 208.76C142.238 207.45 143.3 206.387 144.611 206.387C145.921 206.387 146.984 207.45 146.984 208.76C146.984 210.07 145.921 211.133 144.611 211.133C143.3 211.133 142.238 210.07 142.238 208.76ZM141.278 215.351H147.944C147.57 213.817 146.314 212.715 144.611 212.715C142.908 212.715 141.651 213.817 141.278 215.351ZM140.131 215.829C140.349 213.517 142.102 211.66 144.611 211.66C147.12 211.66 148.873 213.517 149.09 215.829C149.104 215.977 149.055 216.124 148.955 216.233C148.855 216.343 148.714 216.406 148.565 216.406H140.656C140.508 216.406 140.366 216.343 140.266 216.233C140.166 216.124 140.117 215.977 140.131 215.829Z" fill="#918B83"/>
<rect x="162.801" y="203.428" width="45.4784" height="7.90928" rx="3.95464" fill="#ADA79E"/>
<rect x="212.234" y="203.428" width="33.6144" height="7.90928" rx="3.95464" fill="#F1E678"/>
<rect x="162.801" y="215.292" width="199.709" height="4.60075" rx="2.30037" fill="#C7C1B7"/>
</g>
<defs>
<filter id="filter0_d_1533_4255" x="126.418" y="23.1035" width="255.164" height="141.192" filterUnits="userSpaceOnUse" color-interpolation-filters="sRGB">
<feFlood flood-opacity="0" result="BackgroundImageFix"/>
<feColorMatrix in="SourceAlpha" type="matrix" values="0 0 0 0 0 0 0 0 0 0 0 0 0 0 0 0 0 0 127 0" result="hardAlpha"/>
<feOffset dx="8" dy="8"/>
<feComposite in2="hardAlpha" operator="out"/>
<feColorMatrix type="matrix" values="0 0 0 0 0 0 0 0 0 0 0 0 0 0 0 0 0 0 1 0"/>
<feBlend mode="normal" in2="BackgroundImageFix" result="effect1_dropShadow_1533_4255"/>
<feBlend mode="normal" in="SourceGraphic" in2="effect1_dropShadow_1533_4255" result="shape"/>
</filter>
<filter id="filter1_d_1533_4255" x="126.418" y="162.623" width="255.164" height="36.4736" filterUnits="userSpaceOnUse" color-interpolation-filters="sRGB">
<feFlood flood-opacity="0" result="BackgroundImageFix"/>
<feColorMatrix in="SourceAlpha" type="matrix" values="0 0 0 0 0 0 0 0 0 0 0 0 0 0 0 0 0 0 127 0" result="hardAlpha"/>
<feOffset dx="8" dy="8"/>
<feComposite in2="hardAlpha" operator="out"/>
<feColorMatrix type="matrix" values="0 0 0 0 0 0 0 0 0 0 0 0 0 0 0 0 0 0 1 0"/>
<feBlend mode="normal" in2="BackgroundImageFix" result="effect1_dropShadow_1533_4255"/>
<feBlend mode="normal" in="SourceGraphic" in2="effect1_dropShadow_1533_4255" result="shape"/>
</filter>
<filter id="filter2_d_1533_4255" x="126.418" y="197.423" width="255.164" height="36.4736" filterUnits="userSpaceOnUse" color-interpolation-filters="sRGB">
<feFlood flood-opacity="0" result="BackgroundImageFix"/>
<feColorMatrix in="SourceAlpha" type="matrix" values="0 0 0 0 0 0 0 0 0 0 0 0 0 0 0 0 0 0 127 0" result="hardAlpha"/>
<feOffset dx="8" dy="8"/>
<feComposite in2="hardAlpha" operator="out"/>
<feColorMatrix type="matrix" values="0 0 0 0 0 0 0 0 0 0 0 0 0 0 0 0 0 0 1 0"/>
<feBlend mode="normal" in2="BackgroundImageFix" result="effect1_dropShadow_1533_4255"/>
<feBlend mode="normal" in="SourceGraphic" in2="effect1_dropShadow_1533_4255" result="shape"/>
</filter>
</defs>
</svg>
