<svg width="500" height="500" viewBox="0 0 500 500" fill="none" xmlns="http://www.w3.org/2000/svg">
<rect width="500" height="500" rx="8" fill="#0D0C0B"/>
<rect x="87.125" y="118.75" width="326.25" height="262.5" rx="15" fill="#FFF9F0"/>
<path d="M177.966 178.322V181.75H166.613V178.322H177.966ZM168.049 160.422V181.75H163.654V160.422H168.049ZM176.486 169.108V172.448H166.613V169.108H176.486ZM177.951 160.422V163.864H166.613V160.422H177.951ZM183.664 165.9L186.286 170.72L188.981 165.9H193.479L188.996 173.649L193.684 181.75H189.172L186.315 176.652L183.459 181.75H178.947L183.635 173.649L179.152 165.9H183.664ZM199.748 168.947V187.844H195.529V165.9H199.44L199.748 168.947ZM209.782 173.649V173.957C209.782 175.109 209.645 176.179 209.372 177.165C209.108 178.151 208.718 179.011 208.2 179.743C207.683 180.466 207.038 181.032 206.267 181.442C205.505 181.843 204.626 182.043 203.63 182.043C202.663 182.043 201.823 181.848 201.11 181.457C200.397 181.066 199.797 180.52 199.309 179.816C198.83 179.104 198.444 178.278 198.151 177.341C197.858 176.403 197.634 175.397 197.478 174.323V173.518C197.634 172.365 197.858 171.311 198.151 170.354C198.444 169.387 198.83 168.552 199.309 167.849C199.797 167.136 200.393 166.584 201.096 166.193C201.809 165.803 202.644 165.607 203.601 165.607C204.606 165.607 205.49 165.798 206.252 166.179C207.023 166.56 207.668 167.106 208.186 167.819C208.713 168.532 209.108 169.382 209.372 170.368C209.645 171.354 209.782 172.448 209.782 173.649ZM205.549 173.957V173.649C205.549 172.976 205.49 172.355 205.373 171.789C205.266 171.213 205.09 170.71 204.846 170.28C204.611 169.851 204.299 169.519 203.908 169.284C203.527 169.04 203.063 168.918 202.517 168.918C201.94 168.918 201.447 169.011 201.037 169.196C200.637 169.382 200.31 169.65 200.056 170.002C199.802 170.354 199.611 170.773 199.484 171.262C199.357 171.75 199.279 172.302 199.25 172.917V174.953C199.299 175.676 199.436 176.325 199.66 176.901C199.885 177.468 200.231 177.917 200.7 178.249C201.169 178.581 201.784 178.747 202.546 178.747C203.103 178.747 203.571 178.625 203.952 178.381C204.333 178.127 204.641 177.78 204.875 177.341C205.119 176.901 205.29 176.394 205.388 175.817C205.495 175.241 205.549 174.621 205.549 173.957ZM219.699 182.043C218.469 182.043 217.365 181.848 216.389 181.457C215.412 181.057 214.582 180.505 213.898 179.802C213.225 179.099 212.707 178.283 212.346 177.355C211.984 176.418 211.804 175.422 211.804 174.367V173.781C211.804 172.58 211.975 171.481 212.316 170.485C212.658 169.489 213.146 168.625 213.781 167.893C214.426 167.16 215.207 166.599 216.125 166.208C217.043 165.808 218.078 165.607 219.23 165.607C220.354 165.607 221.35 165.793 222.219 166.164C223.088 166.535 223.815 167.063 224.401 167.746C224.997 168.43 225.446 169.25 225.749 170.207C226.052 171.154 226.203 172.209 226.203 173.371V175.129H213.605V172.316H222.058V171.994C222.058 171.408 221.95 170.886 221.735 170.427C221.53 169.958 221.218 169.587 220.798 169.313C220.378 169.04 219.841 168.903 219.187 168.903C218.63 168.903 218.151 169.025 217.751 169.27C217.351 169.514 217.023 169.855 216.77 170.295C216.525 170.734 216.34 171.252 216.213 171.848C216.096 172.434 216.037 173.078 216.037 173.781V174.367C216.037 175.002 216.125 175.588 216.301 176.125C216.486 176.662 216.745 177.126 217.077 177.517C217.419 177.907 217.829 178.21 218.308 178.425C218.796 178.64 219.348 178.747 219.963 178.747C220.725 178.747 221.433 178.601 222.087 178.308C222.751 178.005 223.322 177.551 223.801 176.945L225.852 179.172C225.52 179.65 225.065 180.109 224.489 180.549C223.923 180.988 223.239 181.35 222.438 181.633C221.638 181.906 220.725 182.043 219.699 182.043ZM235.153 178.747C235.671 178.747 236.13 178.649 236.53 178.454C236.931 178.249 237.243 177.966 237.468 177.604C237.702 177.233 237.824 176.799 237.834 176.301H241.804C241.794 177.414 241.496 178.405 240.91 179.274C240.324 180.134 239.538 180.813 238.552 181.311C237.565 181.799 236.462 182.043 235.241 182.043C234.011 182.043 232.937 181.838 232.019 181.428C231.11 181.018 230.353 180.451 229.748 179.729C229.143 178.996 228.688 178.146 228.386 177.18C228.083 176.203 227.932 175.158 227.932 174.045V173.62C227.932 172.497 228.083 171.452 228.386 170.485C228.688 169.509 229.143 168.659 229.748 167.937C230.353 167.204 231.11 166.633 232.019 166.223C232.927 165.813 233.991 165.607 235.212 165.607C236.511 165.607 237.648 165.856 238.625 166.354C239.611 166.853 240.383 167.565 240.939 168.493C241.506 169.411 241.794 170.5 241.804 171.76H237.834C237.824 171.232 237.712 170.754 237.497 170.324C237.292 169.895 236.989 169.553 236.589 169.299C236.198 169.035 235.715 168.903 235.139 168.903C234.523 168.903 234.02 169.035 233.63 169.299C233.239 169.553 232.937 169.904 232.722 170.354C232.507 170.793 232.355 171.296 232.268 171.862C232.189 172.419 232.15 173.005 232.15 173.62V174.045C232.15 174.66 232.189 175.251 232.268 175.817C232.346 176.384 232.492 176.887 232.707 177.326C232.932 177.766 233.239 178.112 233.63 178.366C234.02 178.62 234.528 178.747 235.153 178.747ZM252.014 165.9V168.889H242.785V165.9H252.014ZM245.07 161.989H249.289V176.975C249.289 177.434 249.348 177.785 249.465 178.029C249.592 178.273 249.777 178.444 250.021 178.542C250.266 178.63 250.573 178.674 250.944 178.674C251.208 178.674 251.442 178.664 251.647 178.645C251.862 178.615 252.043 178.586 252.189 178.557L252.204 181.662C251.843 181.779 251.452 181.872 251.032 181.94C250.612 182.009 250.148 182.043 249.641 182.043C248.713 182.043 247.902 181.892 247.209 181.589C246.525 181.276 245.998 180.778 245.627 180.095C245.256 179.411 245.07 178.513 245.07 177.399V161.989ZM261.711 182.043C260.48 182.043 259.377 181.848 258.4 181.457C257.424 181.057 256.594 180.505 255.91 179.802C255.236 179.099 254.719 178.283 254.357 177.355C253.996 176.418 253.815 175.422 253.815 174.367V173.781C253.815 172.58 253.986 171.481 254.328 170.485C254.67 169.489 255.158 168.625 255.793 167.893C256.437 167.16 257.219 166.599 258.137 166.208C259.055 165.808 260.09 165.607 261.242 165.607C262.365 165.607 263.361 165.793 264.23 166.164C265.1 166.535 265.827 167.063 266.413 167.746C267.009 168.43 267.458 169.25 267.761 170.207C268.063 171.154 268.215 172.209 268.215 173.371V175.129H255.617V172.316H264.069V171.994C264.069 171.408 263.962 170.886 263.747 170.427C263.542 169.958 263.229 169.587 262.81 169.313C262.39 169.04 261.853 168.903 261.198 168.903C260.642 168.903 260.163 169.025 259.763 169.27C259.362 169.514 259.035 169.855 258.781 170.295C258.537 170.734 258.352 171.252 258.225 171.848C258.107 172.434 258.049 173.078 258.049 173.781V174.367C258.049 175.002 258.137 175.588 258.312 176.125C258.498 176.662 258.757 177.126 259.089 177.517C259.431 177.907 259.841 178.21 260.319 178.425C260.808 178.64 261.359 178.747 261.975 178.747C262.736 178.747 263.444 178.601 264.099 178.308C264.763 178.005 265.334 177.551 265.812 176.945L267.863 179.172C267.531 179.65 267.077 180.109 266.501 180.549C265.935 180.988 265.251 181.35 264.45 181.633C263.649 181.906 262.736 182.043 261.711 182.043ZM279.978 178.293V159.25H284.226V181.75H280.402L279.978 178.293ZM269.958 174.016V173.708C269.958 172.497 270.095 171.398 270.368 170.412C270.642 169.416 271.042 168.562 271.569 167.849C272.097 167.136 272.746 166.584 273.518 166.193C274.289 165.803 275.168 165.607 276.154 165.607C277.082 165.607 277.893 165.803 278.586 166.193C279.289 166.584 279.885 167.141 280.373 167.863C280.871 168.576 281.271 169.421 281.574 170.397C281.877 171.364 282.097 172.424 282.233 173.576V174.25C282.097 175.354 281.877 176.379 281.574 177.326C281.271 178.273 280.871 179.104 280.373 179.816C279.885 180.52 279.289 181.066 278.586 181.457C277.883 181.848 277.062 182.043 276.125 182.043C275.139 182.043 274.26 181.843 273.488 181.442C272.727 181.042 272.082 180.48 271.555 179.758C271.037 179.035 270.642 178.186 270.368 177.209C270.095 176.232 269.958 175.168 269.958 174.016ZM274.177 173.708V174.016C274.177 174.67 274.226 175.28 274.323 175.847C274.431 176.413 274.602 176.916 274.836 177.355C275.08 177.785 275.393 178.122 275.773 178.366C276.164 178.601 276.638 178.718 277.194 178.718C277.917 178.718 278.513 178.557 278.981 178.234C279.45 177.902 279.807 177.448 280.051 176.872C280.305 176.296 280.451 175.632 280.49 174.88V172.961C280.461 172.346 280.373 171.794 280.227 171.306C280.09 170.808 279.885 170.383 279.611 170.031C279.348 169.68 279.016 169.406 278.615 169.211C278.225 169.016 277.761 168.918 277.224 168.918C276.677 168.918 276.208 169.045 275.817 169.299C275.427 169.543 275.109 169.88 274.865 170.31C274.631 170.739 274.455 171.247 274.338 171.833C274.23 172.409 274.177 173.034 274.177 173.708ZM308.967 178.322V181.75H298.229V178.322H308.967ZM299.65 160.422V181.75H295.256V160.422H299.65ZM315.676 165.9V181.75H311.442V165.9H315.676ZM311.179 161.77C311.179 161.154 311.394 160.646 311.823 160.246C312.253 159.846 312.829 159.646 313.552 159.646C314.265 159.646 314.836 159.846 315.266 160.246C315.705 160.646 315.925 161.154 315.925 161.77C315.925 162.385 315.705 162.893 315.266 163.293C314.836 163.693 314.265 163.894 313.552 163.894C312.829 163.894 312.253 163.693 311.823 163.293C311.394 162.893 311.179 162.385 311.179 161.77ZM324.538 181.75H320.29V164.494C320.29 163.293 320.524 162.282 320.993 161.462C321.472 160.632 322.141 160.007 323 159.587C323.869 159.157 324.899 158.942 326.091 158.942C326.481 158.942 326.857 158.972 327.219 159.03C327.58 159.079 327.932 159.143 328.273 159.221L328.229 162.399C328.044 162.351 327.849 162.316 327.644 162.297C327.438 162.277 327.199 162.268 326.926 162.268C326.418 162.268 325.983 162.355 325.622 162.531C325.27 162.697 325.002 162.946 324.816 163.278C324.631 163.61 324.538 164.016 324.538 164.494V181.75ZM327.702 165.9V168.889H317.932V165.9H327.702ZM337.678 165.9V168.889H328.449V165.9H337.678ZM330.734 161.989H334.953V176.975C334.953 177.434 335.012 177.785 335.129 178.029C335.256 178.273 335.441 178.444 335.685 178.542C335.93 178.63 336.237 178.674 336.608 178.674C336.872 178.674 337.106 178.664 337.311 178.645C337.526 178.615 337.707 178.586 337.853 178.557L337.868 181.662C337.507 181.779 337.116 181.872 336.696 181.94C336.276 182.009 335.812 182.043 335.305 182.043C334.377 182.043 333.566 181.892 332.873 181.589C332.189 181.276 331.662 180.778 331.291 180.095C330.92 179.411 330.734 178.513 330.734 177.399V161.989Z" fill="#423E3A"/>
<g clip-path="url(#clip0_169_3064)">
<rect x="192.125" y="196.25" width="37.5" height="10" fill="#F1E678"/>
<rect x="231.5" y="196.25" width="37.5" height="10" fill="#EC905F"/>
<rect x="270.875" y="196.25" width="37.5" height="10" fill="#BF406B"/>
</g>
<rect x="102.125" y="226.25" width="18.75" height="3.75" rx="1.875" fill="#ADA79E"/>
<line x1="398.375" y1="234.687" x2="102.125" y2="234.687" stroke="#C7C1B7" stroke-width="1.875"/>
<rect x="102.125" y="263.75" width="18.75" height="3.75" rx="1.875" fill="#ADA79E"/>
<line x1="398.375" y1="272.187" x2="102.125" y2="272.187" stroke="#C7C1B7" stroke-width="1.875"/>
<rect x="102.125" y="301.25" width="18.75" height="3.75" rx="1.875" fill="#ADA79E"/>
<line x1="398.375" y1="309.687" x2="102.125" y2="309.687" stroke="#C7C1B7" stroke-width="1.875"/>
<rect x="102.125" y="338.75" width="18.75" height="3.75" rx="1.875" fill="#ADA79E"/>
<line x1="398.375" y1="347.187" x2="102.125" y2="347.187" stroke="#C7C1B7" stroke-width="1.875"/>
<path d="M102.75 294.169C102.75 294.169 114.857 281.438 123.911 281.438C132.964 281.438 138.032 286.179 145.071 294.169C153.375 303.594 156.134 312.596 166.232 315.388C174.416 317.651 179.598 315.187 187.393 311.144C197.012 306.156 198.935 294.913 208.554 289.925C216.349 285.883 221.557 288.11 229.714 285.681C238.134 283.175 242.294 276.037 250.875 277.194C260.45 278.485 263.489 288.222 272.036 294.169C280.076 299.764 284.162 307.687 293.196 306.901C309.044 305.521 298.911 265.18 314.357 260.218C322.484 257.608 327.227 265.858 335.518 264.462C344.501 262.949 349.006 258.193 356.679 251.731C366.077 243.815 366.757 226.861 377.839 226.268C392.669 225.474 396.928 251.731 399 268.706" stroke="#F1E678" stroke-width="3.75" stroke-linecap="round" stroke-linejoin="round"/>
<path d="M102.75 297.919C102.75 297.919 114.857 285.188 123.911 285.188C132.964 285.188 138.032 289.929 145.071 297.919C153.375 307.344 156.134 316.346 166.232 319.138C174.416 321.401 179.598 318.937 187.393 314.894C197.012 309.906 198.935 298.663 208.554 293.675C216.349 289.633 221.557 291.86 229.714 289.431C238.134 286.925 242.294 279.787 250.875 280.944C260.45 282.235 263.489 291.972 272.036 297.919C280.076 303.514 284.162 311.437 293.196 310.651C309.044 309.271 298.911 268.93 314.357 263.968C322.484 261.358 327.227 269.608 335.518 268.212C344.501 266.699 349.006 261.943 356.679 255.481C366.077 247.565 366.757 230.611 377.839 230.018C392.669 229.224 396.928 255.481 399 272.456" stroke="#EC905F" stroke-width="3.75" stroke-linecap="round" stroke-linejoin="round"/>
<path d="M102.75 301.669C102.75 301.669 114.857 288.938 123.911 288.938C132.964 288.938 138.032 293.679 145.071 301.669C153.375 311.094 156.134 320.096 166.232 322.888C174.416 325.151 179.598 322.687 187.393 318.644C197.012 313.656 198.935 302.413 208.554 297.425C216.349 293.383 221.557 295.61 229.714 293.181C238.134 290.675 242.294 283.537 250.875 284.694C260.45 285.985 263.489 295.722 272.036 301.669C280.076 307.264 284.162 315.187 293.196 314.401C309.044 313.021 298.911 272.68 314.357 267.718C322.484 265.108 327.227 273.358 335.518 271.962C344.501 270.449 349.006 265.693 356.679 259.231C366.077 251.315 366.757 234.361 377.839 233.768C392.669 232.974 396.928 259.231 399 276.206" stroke="#BF406B" stroke-width="3.75" stroke-linecap="round" stroke-linejoin="round"/>
<defs>
<clipPath id="clip0_169_3064">
<rect x="192.125" y="196.25" width="116.25" height="10" rx="3.75" fill="white"/>
</clipPath>
</defs>
</svg>
