<svg width="500" height="249" viewBox="0 0 500 249" fill="none" xmlns="http://www.w3.org/2000/svg">
<g filter="url(#filter0_d_1533_4190)">
<path d="M101.389 16.4678H398.611C406.612 16.4678 413.099 22.954 413.099 30.9551V210.986H86.9014V30.9551C86.9014 22.954 93.3875 16.4678 101.389 16.4678Z" fill="#FFF9F0"/>
<path d="M101.389 16.4678H398.611C406.612 16.4678 413.099 22.954 413.099 30.9551V210.986H86.9014V30.9551C86.9014 22.954 93.3875 16.4678 101.389 16.4678Z" stroke="#757575" stroke-width="0.934665"/>
<path d="M120.309 50.9615V66.9092H118.195V50.9615H120.309ZM126.99 58.1357V59.8663H119.849V58.1357H126.99ZM128.075 50.9615V52.692H119.849V50.9615H128.075ZM132.489 50.0852V66.9092H130.451V50.0852H132.489ZM140.66 67.1282C139.835 67.1282 139.086 66.9895 138.414 66.712C137.75 66.4272 137.177 66.0293 136.695 65.5181C136.22 65.007 135.855 64.4009 135.599 63.6999C135.344 62.9989 135.216 62.2322 135.216 61.3998V60.9397C135.216 59.9759 135.358 59.1179 135.643 58.3658C135.928 57.6063 136.315 56.9638 136.804 56.438C137.293 55.9123 137.848 55.5143 138.469 55.2441C139.09 54.9739 139.732 54.8389 140.397 54.8389C141.244 54.8389 141.974 54.9849 142.587 55.277C143.208 55.5691 143.716 55.978 144.11 56.5037C144.504 57.0222 144.796 57.6355 144.986 58.3438C145.176 59.0448 145.271 59.8116 145.271 60.644V61.5531H136.421V59.8992H143.245V59.7458C143.215 59.2201 143.106 58.709 142.916 58.2124C142.733 57.7159 142.441 57.307 142.04 56.9857C141.638 56.6644 141.09 56.5037 140.397 56.5037C139.937 56.5037 139.513 56.6023 139.126 56.7995C138.739 56.9893 138.407 57.2741 138.129 57.6538C137.852 58.0335 137.637 58.4972 137.483 59.0448C137.33 59.5925 137.253 60.2241 137.253 60.9397V61.3998C137.253 61.962 137.33 62.4914 137.483 62.988C137.644 63.4772 137.874 63.908 138.173 64.2804C138.48 64.6528 138.849 64.9449 139.28 65.1567C139.718 65.3684 140.214 65.4743 140.769 65.4743C141.485 65.4743 142.091 65.3283 142.587 65.0362C143.084 64.7441 143.518 64.3535 143.891 63.8642L145.118 64.839C144.862 65.2261 144.537 65.5948 144.143 65.9453C143.748 66.2958 143.263 66.5806 142.686 66.7996C142.116 67.0187 141.441 67.1282 140.66 67.1282ZM152.555 67.1282C151.73 67.1282 150.981 66.9895 150.309 66.712C149.645 66.4272 149.072 66.0293 148.59 65.5181C148.115 65.007 147.75 64.4009 147.494 63.6999C147.239 62.9989 147.111 62.2322 147.111 61.3998V60.9397C147.111 59.9759 147.253 59.1179 147.538 58.3658C147.823 57.6063 148.21 56.9638 148.699 56.438C149.188 55.9123 149.743 55.5143 150.364 55.2441C150.985 54.9739 151.627 54.8389 152.292 54.8389C153.139 54.8389 153.869 54.9849 154.482 55.277C155.103 55.5691 155.611 55.978 156.005 56.5037C156.399 57.0222 156.691 57.6355 156.881 58.3438C157.071 59.0448 157.166 59.8116 157.166 60.644V61.5531H148.316V59.8992H155.14V59.7458C155.11 59.2201 155.001 58.709 154.811 58.2124C154.629 57.7159 154.336 57.307 153.935 56.9857C153.533 56.6644 152.986 56.5037 152.292 56.5037C151.832 56.5037 151.408 56.6023 151.021 56.7995C150.634 56.9893 150.302 57.2741 150.025 57.6538C149.747 58.0335 149.532 58.4972 149.378 59.0448C149.225 59.5925 149.148 60.2241 149.148 60.9397V61.3998C149.148 61.962 149.225 62.4914 149.378 62.988C149.539 63.4772 149.769 63.908 150.068 64.2804C150.375 64.6528 150.744 64.9449 151.175 65.1567C151.613 65.3684 152.109 65.4743 152.664 65.4743C153.38 65.4743 153.986 65.3283 154.482 65.0362C154.979 64.7441 155.413 64.3535 155.786 63.8642L157.013 64.839C156.757 65.2261 156.432 65.5948 156.038 65.9453C155.644 66.2958 155.158 66.5806 154.581 66.7996C154.011 67.0187 153.336 67.1282 152.555 67.1282ZM164.494 55.0579V56.6133H158.086V55.0579H164.494ZM160.255 52.1772H162.281V63.9737C162.281 64.3754 162.343 64.6784 162.467 64.8829C162.591 65.0873 162.752 65.2224 162.949 65.2881C163.146 65.3538 163.358 65.3867 163.585 65.3867C163.752 65.3867 163.928 65.3721 164.11 65.3429C164.3 65.3064 164.442 65.2772 164.537 65.2553L164.548 66.9092C164.388 66.9603 164.176 67.0078 163.913 67.0516C163.658 67.1027 163.347 67.1282 162.982 67.1282C162.486 67.1282 162.029 67.0297 161.613 66.8325C161.197 66.6354 160.864 66.3068 160.616 65.8467C160.375 65.3794 160.255 64.7514 160.255 63.9628V52.1772ZM181.241 62.8784C181.241 62.506 181.182 62.1774 181.066 61.8927C180.956 61.6006 180.759 61.3377 180.474 61.104C180.197 60.8704 179.81 60.6477 179.313 60.4359C178.824 60.2241 178.203 60.0087 177.451 59.7897C176.663 59.556 175.951 59.2968 175.315 59.012C174.68 58.7199 174.136 58.3877 173.683 58.0153C173.231 57.6429 172.884 57.2157 172.643 56.7337C172.402 56.2518 172.281 55.7005 172.281 55.0798C172.281 54.4591 172.409 53.8859 172.665 53.3602C172.92 52.8344 173.285 52.3781 173.76 51.991C174.242 51.5967 174.815 51.29 175.48 51.071C176.144 50.8519 176.885 50.7424 177.703 50.7424C178.901 50.7424 179.916 50.9724 180.748 51.4324C181.588 51.8852 182.227 52.4803 182.665 53.2178C183.103 53.948 183.322 54.7293 183.322 55.5618H181.219C181.219 54.963 181.091 54.4336 180.836 53.9736C180.58 53.5062 180.193 53.1411 179.675 52.8782C179.156 52.6081 178.499 52.473 177.703 52.473C176.951 52.473 176.33 52.5862 175.841 52.8125C175.352 53.0389 174.987 53.3456 174.746 53.7326C174.512 54.1196 174.395 54.5614 174.395 55.0579C174.395 55.3938 174.465 55.7005 174.603 55.978C174.749 56.2482 174.972 56.5001 175.271 56.7337C175.578 56.9674 175.965 57.1828 176.433 57.38C176.907 57.5771 177.473 57.767 178.13 57.9495C179.036 58.2051 179.817 58.4899 180.474 58.8039C181.131 59.1179 181.672 59.472 182.095 59.8663C182.526 60.2533 182.844 60.6951 183.048 61.1917C183.26 61.6809 183.366 62.2359 183.366 62.8565C183.366 63.5064 183.234 64.0942 182.972 64.62C182.709 65.1457 182.333 65.5948 181.843 65.9672C181.354 66.3396 180.766 66.628 180.08 66.8325C179.401 67.0297 178.641 67.1282 177.802 67.1282C177.064 67.1282 176.338 67.026 175.622 66.8216C174.914 66.6171 174.267 66.3104 173.683 65.9015C173.106 65.4926 172.643 64.9887 172.292 64.39C171.949 63.7839 171.777 63.0829 171.777 62.287H173.88C173.88 62.8346 173.986 63.3056 174.198 63.6999C174.41 64.0869 174.698 64.4082 175.063 64.6638C175.436 64.9194 175.856 65.1092 176.323 65.2334C176.798 65.3502 177.29 65.4086 177.802 65.4086C178.539 65.4086 179.163 65.3064 179.675 65.1019C180.186 64.8975 180.573 64.6054 180.836 64.2257C181.106 63.846 181.241 63.3969 181.241 62.8784ZM192.742 64.8829V58.782C192.742 58.3146 192.647 57.9094 192.457 57.5662C192.274 57.2157 191.997 56.9455 191.624 56.7556C191.252 56.5658 190.792 56.4709 190.244 56.4709C189.733 56.4709 189.284 56.5585 188.897 56.7337C188.517 56.909 188.218 57.139 187.999 57.4238C187.787 57.7086 187.681 58.0153 187.681 58.3438H185.655C185.655 57.9203 185.765 57.5005 185.984 57.0842C186.203 56.668 186.517 56.292 186.926 55.9561C187.342 55.6129 187.838 55.3427 188.415 55.1455C188.999 54.9411 189.649 54.8389 190.365 54.8389C191.226 54.8389 191.986 54.9849 192.643 55.277C193.308 55.5691 193.826 56.0108 194.198 56.6023C194.578 57.1865 194.768 57.9203 194.768 58.8039V64.3242C194.768 64.7186 194.801 65.1384 194.867 65.5839C194.94 66.0293 195.045 66.4126 195.184 66.7339V66.9092H193.07C192.968 66.6755 192.888 66.3652 192.829 65.9782C192.771 65.5839 192.742 65.2188 192.742 64.8829ZM193.092 59.7239L193.114 61.1478H191.066C190.489 61.1478 189.974 61.1953 189.521 61.2902C189.069 61.3779 188.689 61.5129 188.382 61.6955C188.076 61.8781 187.842 62.1081 187.681 62.3855C187.521 62.6557 187.44 62.9734 187.44 63.3385C187.44 63.7109 187.524 64.0504 187.692 64.3571C187.86 64.6638 188.112 64.9084 188.448 65.091C188.791 65.2662 189.211 65.3538 189.708 65.3538C190.328 65.3538 190.876 65.2224 191.351 64.9595C191.825 64.6967 192.201 64.3754 192.479 63.9957C192.764 63.6159 192.917 63.2472 192.939 62.8894L193.804 63.8642C193.753 64.1709 193.614 64.5104 193.388 64.8829C193.162 65.2553 192.859 65.6131 192.479 65.9563C192.106 66.2922 191.661 66.5733 191.143 66.7996C190.631 67.0187 190.055 67.1282 189.412 67.1282C188.609 67.1282 187.904 66.9712 187.298 66.6573C186.699 66.3433 186.232 65.9234 185.896 65.3977C185.567 64.8646 185.403 64.2695 185.403 63.6123C185.403 62.977 185.527 62.4184 185.776 61.9365C186.024 61.4472 186.382 61.042 186.849 60.7207C187.316 60.3921 187.878 60.1438 188.536 59.9759C189.193 59.8079 189.927 59.7239 190.737 59.7239H193.092ZM200.978 66.9092H198.952V53.8093C198.952 52.9549 199.105 52.2357 199.412 51.6515C199.726 51.06 200.175 50.6146 200.759 50.3152C201.344 50.0085 202.037 49.8552 202.84 49.8552C203.074 49.8552 203.308 49.8698 203.541 49.899C203.782 49.9282 204.016 49.972 204.242 50.0304L204.133 51.6844C203.98 51.6478 203.804 51.6223 203.607 51.6077C203.417 51.5931 203.227 51.5858 203.038 51.5858C202.607 51.5858 202.234 51.6734 201.92 51.8487C201.614 52.0166 201.38 52.2649 201.219 52.5935C201.059 52.9221 200.978 53.3273 200.978 53.8093V66.9092ZM203.498 55.0579V56.6133H197.079V55.0579H203.498ZM210.409 67.1282C209.584 67.1282 208.835 66.9895 208.164 66.712C207.499 66.4272 206.926 66.0293 206.444 65.5181C205.969 65.007 205.604 64.4009 205.349 63.6999C205.093 62.9989 204.965 62.2322 204.965 61.3998V60.9397C204.965 59.9759 205.108 59.1179 205.393 58.3658C205.677 57.6063 206.064 56.9638 206.554 56.438C207.043 55.9123 207.598 55.5143 208.218 55.2441C208.839 54.9739 209.482 54.8389 210.146 54.8389C210.993 54.8389 211.723 54.9849 212.337 55.277C212.957 55.5691 213.465 55.978 213.859 56.5037C214.254 57.0222 214.546 57.6355 214.736 58.3438C214.925 59.0448 215.02 59.8116 215.02 60.644V61.5531H206.17V59.8992H212.994V59.7458C212.965 59.2201 212.855 58.709 212.665 58.2124C212.483 57.7159 212.191 57.307 211.789 56.9857C211.388 56.6644 210.84 56.5037 210.146 56.5037C209.686 56.5037 209.263 56.6023 208.876 56.7995C208.489 56.9893 208.156 57.2741 207.879 57.6538C207.601 58.0335 207.386 58.4972 207.233 59.0448C207.079 59.5925 207.003 60.2241 207.003 60.9397V61.3998C207.003 61.962 207.079 62.4914 207.233 62.988C207.393 63.4772 207.623 63.908 207.923 64.2804C208.229 64.6528 208.598 64.9449 209.029 65.1567C209.467 65.3684 209.964 65.4743 210.519 65.4743C211.234 65.4743 211.84 65.3283 212.337 65.0362C212.833 64.7441 213.268 64.3535 213.64 63.8642L214.867 64.839C214.611 65.2261 214.286 65.5948 213.892 65.9453C213.498 66.2958 213.012 66.5806 212.435 66.7996C211.866 67.0187 211.19 67.1282 210.409 67.1282ZM222.348 55.0579V56.6133H215.94V55.0579H222.348ZM218.109 52.1772H220.135V63.9737C220.135 64.3754 220.197 64.6784 220.322 64.8829C220.446 65.0873 220.606 65.2224 220.804 65.2881C221.001 65.3538 221.212 65.3867 221.439 65.3867C221.607 65.3867 221.782 65.3721 221.965 65.3429C222.154 65.3064 222.297 65.2772 222.392 65.2553L222.403 66.9092C222.242 66.9603 222.03 67.0078 221.767 67.0516C221.512 67.1027 221.202 67.1282 220.836 67.1282C220.34 67.1282 219.883 67.0297 219.467 66.8325C219.051 66.6354 218.719 66.3068 218.471 65.8467C218.23 65.3794 218.109 64.7514 218.109 63.9628V52.1772ZM228.054 65.6824L231.351 55.0579H233.52L228.766 68.7383C228.657 69.0304 228.511 69.3444 228.328 69.6803C228.153 70.0235 227.927 70.3485 227.649 70.6551C227.372 70.9618 227.036 71.2101 226.642 71.4C226.255 71.5971 225.791 71.6957 225.25 71.6957C225.09 71.6957 224.885 71.6738 224.637 71.63C224.389 71.5862 224.214 71.5496 224.111 71.5204L224.1 69.8775C224.159 69.8848 224.25 69.8921 224.374 69.8994C224.506 69.914 224.597 69.9213 224.648 69.9213C225.108 69.9213 225.499 69.8592 225.82 69.7351C226.141 69.6182 226.412 69.4174 226.631 69.1327C226.857 68.8552 227.05 68.4718 227.211 67.9826L228.054 65.6824ZM225.634 55.0579L228.712 64.2585L229.237 66.3944L227.781 67.1392L223.421 55.0579H225.634ZM249.72 62.8784C249.72 62.506 249.661 62.1774 249.544 61.8927C249.435 61.6006 249.238 61.3377 248.953 61.104C248.676 60.8704 248.289 60.6477 247.792 60.4359C247.303 60.2241 246.682 60.0087 245.93 59.7897C245.141 59.556 244.429 59.2968 243.794 59.012C243.159 58.7199 242.615 58.3877 242.162 58.0153C241.709 57.6429 241.363 57.2157 241.122 56.7337C240.881 56.2518 240.76 55.7005 240.76 55.0798C240.76 54.4591 240.888 53.8859 241.143 53.3602C241.399 52.8344 241.764 52.3781 242.239 51.991C242.721 51.5967 243.294 51.29 243.958 51.071C244.623 50.8519 245.364 50.7424 246.182 50.7424C247.379 50.7424 248.394 50.9724 249.227 51.4324C250.067 51.8852 250.706 52.4803 251.144 53.2178C251.582 53.948 251.801 54.7293 251.801 55.5618H249.698C249.698 54.963 249.57 54.4336 249.314 53.9736C249.059 53.5062 248.672 53.1411 248.153 52.8782C247.635 52.6081 246.978 52.473 246.182 52.473C245.43 52.473 244.809 52.5862 244.32 52.8125C243.831 53.0389 243.466 53.3456 243.225 53.7326C242.991 54.1196 242.874 54.5614 242.874 55.0579C242.874 55.3938 242.943 55.7005 243.082 55.978C243.228 56.2482 243.451 56.5001 243.75 56.7337C244.057 56.9674 244.444 57.1828 244.911 57.38C245.386 57.5771 245.952 57.767 246.609 57.9495C247.515 58.2051 248.296 58.4899 248.953 58.8039C249.61 59.1179 250.151 59.472 250.574 59.8663C251.005 60.2533 251.323 60.6951 251.527 61.1917C251.739 61.6809 251.845 62.2359 251.845 62.8565C251.845 63.5064 251.713 64.0942 251.45 64.62C251.187 65.1457 250.811 65.5948 250.322 65.9672C249.833 66.3396 249.245 66.628 248.559 66.8325C247.88 67.0297 247.12 67.1282 246.28 67.1282C245.543 67.1282 244.816 67.026 244.101 66.8216C243.392 66.6171 242.746 66.3104 242.162 65.9015C241.585 65.4926 241.122 64.9887 240.771 64.39C240.428 63.7839 240.256 63.0829 240.256 62.287H242.359C242.359 62.8346 242.465 63.3056 242.677 63.6999C242.889 64.0869 243.177 64.4082 243.542 64.6638C243.915 64.9194 244.334 65.1092 244.802 65.2334C245.276 65.3502 245.769 65.4086 246.28 65.4086C247.018 65.4086 247.642 65.3064 248.153 65.1019C248.665 64.8975 249.052 64.6054 249.314 64.2257C249.585 63.846 249.72 63.3969 249.72 62.8784ZM258.975 65.4634C259.457 65.4634 259.902 65.3648 260.311 65.1676C260.72 64.9705 261.056 64.7003 261.319 64.3571C261.582 64.0066 261.732 63.6086 261.768 63.1632H263.696C263.659 63.8642 263.422 64.5178 262.984 65.1238C262.553 65.7226 261.987 66.2082 261.286 66.5806C260.585 66.9457 259.815 67.1282 258.975 67.1282C258.084 67.1282 257.307 66.9712 256.642 66.6573C255.985 66.3433 255.437 65.9124 254.999 65.3648C254.568 64.8171 254.243 64.1892 254.024 63.4809C253.813 62.7653 253.707 62.0095 253.707 61.2136V60.7535C253.707 59.9576 253.813 59.2055 254.024 58.4972C254.243 57.7816 254.568 57.15 254.999 56.6023C255.437 56.0546 255.985 55.6238 256.642 55.3098C257.307 54.9958 258.084 54.8389 258.975 54.8389C259.902 54.8389 260.713 55.0287 261.407 55.4084C262.1 55.7808 262.644 56.292 263.039 56.9419C263.44 57.5844 263.659 58.3146 263.696 59.1325H261.768C261.732 58.6432 261.593 58.2015 261.352 57.8071C261.118 57.4128 260.797 57.0988 260.388 56.8652C259.986 56.6242 259.515 56.5037 258.975 56.5037C258.354 56.5037 257.832 56.6279 257.409 56.8761C256.993 57.1171 256.66 57.4457 256.412 57.8619C256.171 58.2708 255.996 58.7272 255.886 59.2311C255.784 59.7276 255.733 60.2351 255.733 60.7535V61.2136C255.733 61.732 255.784 62.2432 255.886 62.747C255.989 63.2508 256.16 63.7072 256.401 64.1161C256.649 64.5251 256.982 64.8536 257.398 65.1019C257.821 65.3429 258.347 65.4634 258.975 65.4634ZM265.437 61.115V60.8631C265.437 60.0087 265.562 59.2164 265.81 58.4862C266.058 57.7487 266.416 57.1098 266.883 56.5694C267.351 56.0218 267.917 55.5983 268.581 55.2989C269.245 54.9922 269.99 54.8389 270.815 54.8389C271.648 54.8389 272.396 54.9922 273.061 55.2989C273.733 55.5983 274.302 56.0218 274.769 56.5694C275.244 57.1098 275.606 57.7487 275.854 58.4862C276.102 59.2164 276.226 60.0087 276.226 60.8631V61.115C276.226 61.9693 276.102 62.7616 275.854 63.4918C275.606 64.222 275.244 64.8609 274.769 65.4086C274.302 65.949 273.736 66.3725 273.072 66.6792C272.415 66.9785 271.67 67.1282 270.837 67.1282C270.005 67.1282 269.256 66.9785 268.592 66.6792C267.927 66.3725 267.358 65.949 266.883 65.4086C266.416 64.8609 266.058 64.222 265.81 63.4918C265.562 62.7616 265.437 61.9693 265.437 61.115ZM267.464 60.8631V61.115C267.464 61.7065 267.533 62.2651 267.672 62.7908C267.811 63.3093 268.019 63.7693 268.296 64.1709C268.581 64.5725 268.935 64.8902 269.359 65.1238C269.782 65.3502 270.275 65.4634 270.837 65.4634C271.392 65.4634 271.878 65.3502 272.294 65.1238C272.718 64.8902 273.068 64.5725 273.346 64.1709C273.623 63.7693 273.831 63.3093 273.97 62.7908C274.116 62.2651 274.189 61.7065 274.189 61.115V60.8631C274.189 60.2789 274.116 59.7276 273.97 59.2091C273.831 58.6834 273.619 58.2197 273.335 57.8181C273.057 57.4092 272.707 57.0879 272.283 56.8542C271.867 56.6206 271.378 56.5037 270.815 56.5037C270.26 56.5037 269.771 56.6206 269.348 56.8542C268.931 57.0879 268.581 57.4092 268.296 57.8181C268.019 58.2197 267.811 58.6834 267.672 59.2091C267.533 59.7276 267.464 60.2789 267.464 60.8631ZM280.794 56.9199V66.9092H278.767V55.0579H280.739L280.794 56.9199ZM284.496 54.9922L284.485 56.8761C284.317 56.8396 284.156 56.8177 284.003 56.8104C283.857 56.7958 283.689 56.7885 283.499 56.7885C283.032 56.7885 282.619 56.8615 282.261 57.0076C281.904 57.1536 281.601 57.3581 281.352 57.6209C281.104 57.8838 280.907 58.1978 280.761 58.5629C280.622 58.9207 280.531 59.315 280.487 59.7458L279.917 60.0744C279.917 59.3588 279.987 58.687 280.126 58.0591C280.272 57.4311 280.494 56.8761 280.794 56.3942C281.093 55.905 281.473 55.5252 281.933 55.2551C282.4 54.9776 282.955 54.8389 283.598 54.8389C283.744 54.8389 283.912 54.8571 284.102 54.8936C284.291 54.9228 284.423 54.9557 284.496 54.9922ZM291.068 67.1282C290.243 67.1282 289.494 66.9895 288.822 66.712C288.158 66.4272 287.585 66.0293 287.103 65.5181C286.628 65.007 286.263 64.4009 286.007 63.6999C285.752 62.9989 285.624 62.2322 285.624 61.3998V60.9397C285.624 59.9759 285.766 59.1179 286.051 58.3658C286.336 57.6063 286.723 56.9638 287.212 56.438C287.701 55.9123 288.256 55.5143 288.877 55.2441C289.498 54.9739 290.14 54.8389 290.805 54.8389C291.652 54.8389 292.382 54.9849 292.995 55.277C293.616 55.5691 294.124 55.978 294.518 56.5037C294.912 57.0222 295.204 57.6355 295.394 58.3438C295.584 59.0448 295.679 59.8116 295.679 60.644V61.5531H286.829V59.8992H293.653V59.7458C293.623 59.2201 293.514 58.709 293.324 58.2124C293.142 57.7159 292.849 57.307 292.448 56.9857C292.046 56.6644 291.499 56.5037 290.805 56.5037C290.345 56.5037 289.921 56.6023 289.534 56.7995C289.147 56.9893 288.815 57.2741 288.538 57.6538C288.26 58.0335 288.045 58.4972 287.891 59.0448C287.738 59.5925 287.661 60.2241 287.661 60.9397V61.3998C287.661 61.962 287.738 62.4914 287.891 62.988C288.052 63.4772 288.282 63.908 288.581 64.2804C288.888 64.6528 289.257 64.9449 289.688 65.1567C290.126 65.3684 290.622 65.4743 291.177 65.4743C291.893 65.4743 292.499 65.3283 292.995 65.0362C293.492 64.7441 293.926 64.3535 294.299 63.8642L295.526 64.839C295.27 65.2261 294.945 65.5948 294.551 65.9453C294.157 66.2958 293.671 66.5806 293.094 66.7996C292.524 67.0187 291.849 67.1282 291.068 67.1282Z" fill="#423E3A"/>
<path d="M209.811 86.8638L209.811 148.552" stroke="#C7C1B7" stroke-width="1.86933" stroke-linecap="round"/>
<path d="M234.646 86.8638L234.646 148.552" stroke="#C7C1B7" stroke-width="1.86933" stroke-linecap="round"/>
<path d="M259.48 86.8638L259.48 148.552" stroke="#C7C1B7" stroke-width="1.86933" stroke-linecap="round"/>
<path d="M284.316 86.8638L284.316 148.552" stroke="#C7C1B7" stroke-width="1.86933" stroke-linecap="round"/>
<path d="M309.152 86.8638L309.152 148.552" stroke="#C7C1B7" stroke-width="1.86933" stroke-linecap="round"/>
<path d="M333.988 86.8638L333.988 148.552" stroke="#C7C1B7" stroke-width="1.86933" stroke-linecap="round"/>
<path d="M358.822 86.8638L358.822 148.552" stroke="#C7C1B7" stroke-width="1.86933" stroke-linecap="round"/>
<path d="M383.658 86.8638L383.658 148.552" stroke="#C7C1B7" stroke-width="1.86933" stroke-linecap="round"/>
<path d="M141.211 97.203H118.327V88.5596H156.16L131.222 138.861H120.453L141.211 97.203ZM173.72 140.42C170.083 140.42 166.8 139.641 163.872 138.082C160.944 136.523 158.724 134.398 157.212 131.706L162.668 126.038C163.99 127.88 165.643 129.344 167.627 130.431C169.611 131.517 171.665 132.06 173.791 132.06C175.491 132.06 176.979 131.706 178.254 130.997C179.577 130.289 180.616 129.297 181.371 128.022C182.127 126.746 182.505 125.282 182.505 123.629C182.505 121.976 182.151 120.535 181.442 119.307C180.734 118.079 179.766 117.135 178.537 116.474C177.309 115.765 175.916 115.411 174.357 115.411C172.799 115.411 171.335 115.765 169.965 116.474C168.642 117.135 167.58 118.103 166.777 119.378H158.488L164.297 89.4097H189.094V98.0532H171.169L169.115 109.318C169.729 108.751 170.579 108.279 171.665 107.901C172.752 107.476 174.098 107.263 175.704 107.263C178.868 107.263 181.702 107.948 184.205 109.318C186.709 110.688 188.669 112.601 190.086 115.057C191.503 117.465 192.211 120.252 192.211 123.417C192.211 126.77 191.408 129.722 189.802 132.273C188.196 134.87 186 136.878 183.213 138.295C180.427 139.712 177.262 140.42 173.72 140.42Z" fill="#423E3A"/>
<path d="M209.811 132.44L222.228 123.894L234.646 132.44L247.064 146.682L259.481 143.834L271.899 129.591L284.317 126.743L296.734 121.046L309.152 132.44L321.57 140.985L333.987 109.652L346.405 112.5L358.823 103.955L371.241 86.8638L383.658 115.349" stroke="#78726B" stroke-width="3.73866" stroke-linecap="round" stroke-linejoin="round"/>
<path d="M126.426 162.792C126.93 161.919 128.19 161.919 128.694 162.792L138.098 179.08C138.602 179.953 137.971 181.044 136.963 181.044H118.156C117.148 181.044 116.518 179.953 117.021 179.08L126.426 162.792Z" fill="#78726B" stroke="#383838"/>
<rect x="146.752" y="164.613" width="34.5173" height="13.9547" rx="6.97733" fill="#78726B" stroke="#383838"/>
<rect x="189.748" y="164.613" width="98.0745" height="13.9547" rx="6.97733" fill="#ADA79E" stroke="#383838"/>
<path d="M413.091 211.921C412.844 219.706 406.456 225.941 398.611 225.941H101.389C93.5441 225.941 87.1561 219.706 86.9092 211.921H413.091Z" fill="#EC905F" stroke="#757575" stroke-width="0.934665"/>
</g>
<defs>
<filter id="filter0_d_1533_4190" x="86.4336" y="16" width="335.133" height="218.408" filterUnits="userSpaceOnUse" color-interpolation-filters="sRGB">
<feFlood flood-opacity="0" result="BackgroundImageFix"/>
<feColorMatrix in="SourceAlpha" type="matrix" values="0 0 0 0 0 0 0 0 0 0 0 0 0 0 0 0 0 0 127 0" result="hardAlpha"/>
<feOffset dx="8" dy="8"/>
<feComposite in2="hardAlpha" operator="out"/>
<feColorMatrix type="matrix" values="0 0 0 0 0 0 0 0 0 0 0 0 0 0 0 0 0 0 1 0"/>
<feBlend mode="normal" in2="BackgroundImageFix" result="effect1_dropShadow_1533_4190"/>
<feBlend mode="normal" in="SourceGraphic" in2="effect1_dropShadow_1533_4190" result="shape"/>
</filter>
</defs>
</svg>
