<svg width="2000" height="500" viewBox="0 0 2000 500" fill="none" xmlns="http://www.w3.org/2000/svg">
<rect width="2000" height="500" rx="8" fill="#0D0C0B"/>
<rect x="815" y="80" width="370" height="116" rx="16" fill="#FFF9F0"/>
<path d="M841.945 100.938H845.449V112.211C845.449 113.523 845.168 114.629 844.605 115.527C844.051 116.426 843.281 117.102 842.297 117.555C841.32 118.008 840.195 118.234 838.922 118.234C837.648 118.234 836.516 118.008 835.523 117.555C834.539 117.102 833.766 116.426 833.203 115.527C832.648 114.629 832.371 113.523 832.371 112.211V100.938H835.887V112.211C835.887 112.977 836.008 113.602 836.25 114.086C836.492 114.57 836.84 114.926 837.293 115.152C837.754 115.379 838.297 115.492 838.922 115.492C839.562 115.492 840.105 115.379 840.551 115.152C841.004 114.926 841.348 114.57 841.582 114.086C841.824 113.602 841.945 112.977 841.945 112.211V100.938ZM854.988 114.496C854.988 114.254 854.918 114.035 854.777 113.84C854.637 113.645 854.375 113.465 853.992 113.301C853.617 113.129 853.074 112.973 852.363 112.832C851.723 112.691 851.125 112.516 850.57 112.305C850.023 112.086 849.547 111.824 849.141 111.52C848.742 111.215 848.43 110.855 848.203 110.441C847.977 110.02 847.863 109.539 847.863 109C847.863 108.469 847.977 107.969 848.203 107.5C848.438 107.031 848.77 106.617 849.199 106.258C849.637 105.891 850.168 105.605 850.793 105.402C851.426 105.191 852.137 105.086 852.926 105.086C854.027 105.086 854.973 105.262 855.762 105.613C856.559 105.965 857.168 106.449 857.59 107.066C858.02 107.676 858.234 108.371 858.234 109.152H854.859C854.859 108.824 854.789 108.531 854.648 108.273C854.516 108.008 854.305 107.801 854.016 107.652C853.734 107.496 853.367 107.418 852.914 107.418C852.539 107.418 852.215 107.484 851.941 107.617C851.668 107.742 851.457 107.914 851.309 108.133C851.168 108.344 851.098 108.578 851.098 108.836C851.098 109.031 851.137 109.207 851.215 109.363C851.301 109.512 851.438 109.648 851.625 109.773C851.812 109.898 852.055 110.016 852.352 110.125C852.656 110.227 853.031 110.32 853.477 110.406C854.391 110.594 855.207 110.84 855.926 111.145C856.645 111.441 857.215 111.848 857.637 112.363C858.059 112.871 858.27 113.539 858.27 114.367C858.27 114.93 858.145 115.445 857.895 115.914C857.645 116.383 857.285 116.793 856.816 117.145C856.348 117.488 855.785 117.758 855.129 117.953C854.48 118.141 853.75 118.234 852.938 118.234C851.758 118.234 850.758 118.023 849.938 117.602C849.125 117.18 848.508 116.645 848.086 115.996C847.672 115.34 847.465 114.668 847.465 113.98H850.664C850.68 114.441 850.797 114.812 851.016 115.094C851.242 115.375 851.527 115.578 851.871 115.703C852.223 115.828 852.602 115.891 853.008 115.891C853.445 115.891 853.809 115.832 854.098 115.715C854.387 115.59 854.605 115.426 854.754 115.223C854.91 115.012 854.988 114.77 854.988 114.496ZM867.305 115.141V109.492C867.305 109.086 867.238 108.738 867.105 108.449C866.973 108.152 866.766 107.922 866.484 107.758C866.211 107.594 865.855 107.512 865.418 107.512C865.043 107.512 864.719 107.578 864.445 107.711C864.172 107.836 863.961 108.02 863.812 108.262C863.664 108.496 863.59 108.773 863.59 109.094H860.215C860.215 108.555 860.34 108.043 860.59 107.559C860.84 107.074 861.203 106.648 861.68 106.281C862.156 105.906 862.723 105.613 863.379 105.402C864.043 105.191 864.785 105.086 865.605 105.086C866.59 105.086 867.465 105.25 868.23 105.578C868.996 105.906 869.598 106.398 870.035 107.055C870.48 107.711 870.703 108.531 870.703 109.516V114.941C870.703 115.637 870.746 116.207 870.832 116.652C870.918 117.09 871.043 117.473 871.207 117.801V118H867.797C867.633 117.656 867.508 117.227 867.422 116.711C867.344 116.188 867.305 115.664 867.305 115.141ZM867.75 110.277L867.773 112.188H865.887C865.441 112.188 865.055 112.238 864.727 112.34C864.398 112.441 864.129 112.586 863.918 112.773C863.707 112.953 863.551 113.164 863.449 113.406C863.355 113.648 863.309 113.914 863.309 114.203C863.309 114.492 863.375 114.754 863.508 114.988C863.641 115.215 863.832 115.395 864.082 115.527C864.332 115.652 864.625 115.715 864.961 115.715C865.469 115.715 865.91 115.613 866.285 115.41C866.66 115.207 866.949 114.957 867.152 114.66C867.363 114.363 867.473 114.082 867.48 113.816L868.371 115.246C868.246 115.566 868.074 115.898 867.855 116.242C867.645 116.586 867.375 116.91 867.047 117.215C866.719 117.512 866.324 117.758 865.863 117.953C865.402 118.141 864.855 118.234 864.223 118.234C863.418 118.234 862.688 118.074 862.031 117.754C861.383 117.426 860.867 116.977 860.484 116.406C860.109 115.828 859.922 115.172 859.922 114.438C859.922 113.773 860.047 113.184 860.297 112.668C860.547 112.152 860.914 111.719 861.398 111.367C861.891 111.008 862.504 110.738 863.238 110.559C863.973 110.371 864.824 110.277 865.793 110.277H867.75ZM881.332 105.32H884.391V117.578C884.391 118.734 884.133 119.715 883.617 120.52C883.109 121.332 882.398 121.945 881.484 122.359C880.57 122.781 879.508 122.992 878.297 122.992C877.766 122.992 877.203 122.922 876.609 122.781C876.023 122.641 875.461 122.422 874.922 122.125C874.391 121.828 873.945 121.453 873.586 121L875.074 119.008C875.465 119.461 875.918 119.812 876.434 120.062C876.949 120.32 877.52 120.449 878.145 120.449C878.754 120.449 879.27 120.336 879.691 120.109C880.113 119.891 880.438 119.566 880.664 119.137C880.891 118.715 881.004 118.203 881.004 117.602V108.25L881.332 105.32ZM872.801 111.812V111.566C872.801 110.598 872.918 109.719 873.152 108.93C873.395 108.133 873.734 107.449 874.172 106.879C874.617 106.309 875.156 105.867 875.789 105.555C876.422 105.242 877.137 105.086 877.934 105.086C878.777 105.086 879.484 105.242 880.055 105.555C880.625 105.867 881.094 106.312 881.461 106.891C881.828 107.461 882.113 108.137 882.316 108.918C882.527 109.691 882.691 110.539 882.809 111.461V112C882.691 112.883 882.516 113.703 882.281 114.461C882.047 115.219 881.738 115.883 881.355 116.453C880.973 117.016 880.496 117.453 879.926 117.766C879.363 118.078 878.691 118.234 877.91 118.234C877.129 118.234 876.422 118.074 875.789 117.754C875.164 117.434 874.629 116.984 874.184 116.406C873.738 115.828 873.395 115.148 873.152 114.367C872.918 113.586 872.801 112.734 872.801 111.812ZM876.176 111.566V111.812C876.176 112.336 876.227 112.824 876.328 113.277C876.43 113.73 876.586 114.133 876.797 114.484C877.016 114.828 877.285 115.098 877.605 115.293C877.934 115.48 878.32 115.574 878.766 115.574C879.383 115.574 879.887 115.445 880.277 115.188C880.668 114.922 880.961 114.559 881.156 114.098C881.352 113.637 881.465 113.105 881.496 112.504V110.969C881.48 110.477 881.414 110.035 881.297 109.645C881.18 109.246 881.016 108.906 880.805 108.625C880.594 108.344 880.32 108.125 879.984 107.969C879.648 107.812 879.25 107.734 878.789 107.734C878.344 107.734 877.957 107.836 877.629 108.039C877.309 108.234 877.039 108.504 876.82 108.848C876.609 109.191 876.449 109.598 876.34 110.066C876.23 110.527 876.176 111.027 876.176 111.566ZM892.852 118.234C891.867 118.234 890.984 118.078 890.203 117.766C889.422 117.445 888.758 117.004 888.211 116.441C887.672 115.879 887.258 115.227 886.969 114.484C886.68 113.734 886.535 112.938 886.535 112.094V111.625C886.535 110.664 886.672 109.785 886.945 108.988C887.219 108.191 887.609 107.5 888.117 106.914C888.633 106.328 889.258 105.879 889.992 105.566C890.727 105.246 891.555 105.086 892.477 105.086C893.375 105.086 894.172 105.234 894.867 105.531C895.562 105.828 896.145 106.25 896.613 106.797C897.09 107.344 897.449 108 897.691 108.766C897.934 109.523 898.055 110.367 898.055 111.297V112.703H887.977V110.453H894.738V110.195C894.738 109.727 894.652 109.309 894.48 108.941C894.316 108.566 894.066 108.27 893.73 108.051C893.395 107.832 892.965 107.723 892.441 107.723C891.996 107.723 891.613 107.82 891.293 108.016C890.973 108.211 890.711 108.484 890.508 108.836C890.312 109.188 890.164 109.602 890.062 110.078C889.969 110.547 889.922 111.062 889.922 111.625V112.094C889.922 112.602 889.992 113.07 890.133 113.5C890.281 113.93 890.488 114.301 890.754 114.613C891.027 114.926 891.355 115.168 891.738 115.34C892.129 115.512 892.57 115.598 893.062 115.598C893.672 115.598 894.238 115.48 894.762 115.246C895.293 115.004 895.75 114.641 896.133 114.156L897.773 115.938C897.508 116.32 897.145 116.688 896.684 117.039C896.23 117.391 895.684 117.68 895.043 117.906C894.402 118.125 893.672 118.234 892.852 118.234Z" fill="#423E3A"/>
<rect x="831" y="140" width="48" height="8" rx="4" fill="#918B83"/>
<rect x="933" y="140" width="132" height="8" rx="4" fill="#C7C1B7"/>
<rect x="933" y="152" width="210" height="8" rx="4" fill="#C7C1B7"/>
<rect x="933" y="164" width="186" height="8" rx="4" fill="#C7C1B7"/>
<rect x="815" y="228" width="370" height="192" rx="16" fill="#FFF9F0"/>
<path d="M838.676 262.438L842.695 248.938H846.609L840.668 266H838.09L838.676 262.438ZM834.973 248.938L838.98 262.438L839.59 266H836.988L831.082 248.938H834.973ZM854.297 263.141V257.492C854.297 257.086 854.23 256.738 854.098 256.449C853.965 256.152 853.758 255.922 853.477 255.758C853.203 255.594 852.848 255.512 852.41 255.512C852.035 255.512 851.711 255.578 851.438 255.711C851.164 255.836 850.953 256.02 850.805 256.262C850.656 256.496 850.582 256.773 850.582 257.094H847.207C847.207 256.555 847.332 256.043 847.582 255.559C847.832 255.074 848.195 254.648 848.672 254.281C849.148 253.906 849.715 253.613 850.371 253.402C851.035 253.191 851.777 253.086 852.598 253.086C853.582 253.086 854.457 253.25 855.223 253.578C855.988 253.906 856.59 254.398 857.027 255.055C857.473 255.711 857.695 256.531 857.695 257.516V262.941C857.695 263.637 857.738 264.207 857.824 264.652C857.91 265.09 858.035 265.473 858.199 265.801V266H854.789C854.625 265.656 854.5 265.227 854.414 264.711C854.336 264.188 854.297 263.664 854.297 263.141ZM854.742 258.277L854.766 260.188H852.879C852.434 260.188 852.047 260.238 851.719 260.34C851.391 260.441 851.121 260.586 850.91 260.773C850.699 260.953 850.543 261.164 850.441 261.406C850.348 261.648 850.301 261.914 850.301 262.203C850.301 262.492 850.367 262.754 850.5 262.988C850.633 263.215 850.824 263.395 851.074 263.527C851.324 263.652 851.617 263.715 851.953 263.715C852.461 263.715 852.902 263.613 853.277 263.41C853.652 263.207 853.941 262.957 854.145 262.66C854.355 262.363 854.465 262.082 854.473 261.816L855.363 263.246C855.238 263.566 855.066 263.898 854.848 264.242C854.637 264.586 854.367 264.91 854.039 265.215C853.711 265.512 853.316 265.758 852.855 265.953C852.395 266.141 851.848 266.234 851.215 266.234C850.41 266.234 849.68 266.074 849.023 265.754C848.375 265.426 847.859 264.977 847.477 264.406C847.102 263.828 846.914 263.172 846.914 262.438C846.914 261.773 847.039 261.184 847.289 260.668C847.539 260.152 847.906 259.719 848.391 259.367C848.883 259.008 849.496 258.738 850.23 258.559C850.965 258.371 851.816 258.277 852.785 258.277H854.742ZM863.672 256.086V266H860.297V253.32H863.473L863.672 256.086ZM867.492 253.238L867.434 256.367C867.27 256.344 867.07 256.324 866.836 256.309C866.609 256.285 866.402 256.273 866.215 256.273C865.738 256.273 865.324 256.336 864.973 256.461C864.629 256.578 864.34 256.754 864.105 256.988C863.879 257.223 863.707 257.508 863.59 257.844C863.48 258.18 863.418 258.562 863.402 258.992L862.723 258.781C862.723 257.961 862.805 257.207 862.969 256.52C863.133 255.824 863.371 255.219 863.684 254.703C864.004 254.188 864.395 253.789 864.855 253.508C865.316 253.227 865.844 253.086 866.438 253.086C866.625 253.086 866.816 253.102 867.012 253.133C867.207 253.156 867.367 253.191 867.492 253.238ZM872.648 253.32V266H869.262V253.32H872.648ZM869.051 250.016C869.051 249.523 869.223 249.117 869.566 248.797C869.91 248.477 870.371 248.316 870.949 248.316C871.52 248.316 871.977 248.477 872.32 248.797C872.672 249.117 872.848 249.523 872.848 250.016C872.848 250.508 872.672 250.914 872.32 251.234C871.977 251.555 871.52 251.715 870.949 251.715C870.371 251.715 869.91 251.555 869.566 251.234C869.223 250.914 869.051 250.508 869.051 250.016ZM882.281 263.141V257.492C882.281 257.086 882.215 256.738 882.082 256.449C881.949 256.152 881.742 255.922 881.461 255.758C881.188 255.594 880.832 255.512 880.395 255.512C880.02 255.512 879.695 255.578 879.422 255.711C879.148 255.836 878.938 256.02 878.789 256.262C878.641 256.496 878.566 256.773 878.566 257.094H875.191C875.191 256.555 875.316 256.043 875.566 255.559C875.816 255.074 876.18 254.648 876.656 254.281C877.133 253.906 877.699 253.613 878.355 253.402C879.02 253.191 879.762 253.086 880.582 253.086C881.566 253.086 882.441 253.25 883.207 253.578C883.973 253.906 884.574 254.398 885.012 255.055C885.457 255.711 885.68 256.531 885.68 257.516V262.941C885.68 263.637 885.723 264.207 885.809 264.652C885.895 265.09 886.02 265.473 886.184 265.801V266H882.773C882.609 265.656 882.484 265.227 882.398 264.711C882.32 264.188 882.281 263.664 882.281 263.141ZM882.727 258.277L882.75 260.188H880.863C880.418 260.188 880.031 260.238 879.703 260.34C879.375 260.441 879.105 260.586 878.895 260.773C878.684 260.953 878.527 261.164 878.426 261.406C878.332 261.648 878.285 261.914 878.285 262.203C878.285 262.492 878.352 262.754 878.484 262.988C878.617 263.215 878.809 263.395 879.059 263.527C879.309 263.652 879.602 263.715 879.938 263.715C880.445 263.715 880.887 263.613 881.262 263.41C881.637 263.207 881.926 262.957 882.129 262.66C882.34 262.363 882.449 262.082 882.457 261.816L883.348 263.246C883.223 263.566 883.051 263.898 882.832 264.242C882.621 264.586 882.352 264.91 882.023 265.215C881.695 265.512 881.301 265.758 880.84 265.953C880.379 266.141 879.832 266.234 879.199 266.234C878.395 266.234 877.664 266.074 877.008 265.754C876.359 265.426 875.844 264.977 875.461 264.406C875.086 263.828 874.898 263.172 874.898 262.438C874.898 261.773 875.023 261.184 875.273 260.668C875.523 260.152 875.891 259.719 876.375 259.367C876.867 259.008 877.48 258.738 878.215 258.559C878.949 258.371 879.801 258.277 880.77 258.277H882.727ZM891.586 256.027V266H888.211V253.32H891.375L891.586 256.027ZM891.094 259.215H890.18C890.18 258.277 890.301 257.434 890.543 256.684C890.785 255.926 891.125 255.281 891.562 254.75C892 254.211 892.52 253.801 893.121 253.52C893.73 253.23 894.41 253.086 895.16 253.086C895.754 253.086 896.297 253.172 896.789 253.344C897.281 253.516 897.703 253.789 898.055 254.164C898.414 254.539 898.688 255.035 898.875 255.652C899.07 256.27 899.168 257.023 899.168 257.914V266H895.77V257.902C895.77 257.34 895.691 256.902 895.535 256.59C895.379 256.277 895.148 256.059 894.844 255.934C894.547 255.801 894.18 255.734 893.742 255.734C893.289 255.734 892.895 255.824 892.559 256.004C892.23 256.184 891.957 256.434 891.738 256.754C891.527 257.066 891.367 257.434 891.258 257.855C891.148 258.277 891.094 258.73 891.094 259.215ZM907.945 253.32V255.711H900.562V253.32H907.945ZM902.391 250.191H905.766V262.18C905.766 262.547 905.812 262.828 905.906 263.023C906.008 263.219 906.156 263.355 906.352 263.434C906.547 263.504 906.793 263.539 907.09 263.539C907.301 263.539 907.488 263.531 907.652 263.516C907.824 263.492 907.969 263.469 908.086 263.445L908.098 265.93C907.809 266.023 907.496 266.098 907.16 266.152C906.824 266.207 906.453 266.234 906.047 266.234C905.305 266.234 904.656 266.113 904.102 265.871C903.555 265.621 903.133 265.223 902.836 264.676C902.539 264.129 902.391 263.41 902.391 262.52V250.191ZM916.723 262.496C916.723 262.254 916.652 262.035 916.512 261.84C916.371 261.645 916.109 261.465 915.727 261.301C915.352 261.129 914.809 260.973 914.098 260.832C913.457 260.691 912.859 260.516 912.305 260.305C911.758 260.086 911.281 259.824 910.875 259.52C910.477 259.215 910.164 258.855 909.938 258.441C909.711 258.02 909.598 257.539 909.598 257C909.598 256.469 909.711 255.969 909.938 255.5C910.172 255.031 910.504 254.617 910.934 254.258C911.371 253.891 911.902 253.605 912.527 253.402C913.16 253.191 913.871 253.086 914.66 253.086C915.762 253.086 916.707 253.262 917.496 253.613C918.293 253.965 918.902 254.449 919.324 255.066C919.754 255.676 919.969 256.371 919.969 257.152H916.594C916.594 256.824 916.523 256.531 916.383 256.273C916.25 256.008 916.039 255.801 915.75 255.652C915.469 255.496 915.102 255.418 914.648 255.418C914.273 255.418 913.949 255.484 913.676 255.617C913.402 255.742 913.191 255.914 913.043 256.133C912.902 256.344 912.832 256.578 912.832 256.836C912.832 257.031 912.871 257.207 912.949 257.363C913.035 257.512 913.172 257.648 913.359 257.773C913.547 257.898 913.789 258.016 914.086 258.125C914.391 258.227 914.766 258.32 915.211 258.406C916.125 258.594 916.941 258.84 917.66 259.145C918.379 259.441 918.949 259.848 919.371 260.363C919.793 260.871 920.004 261.539 920.004 262.367C920.004 262.93 919.879 263.445 919.629 263.914C919.379 264.383 919.02 264.793 918.551 265.145C918.082 265.488 917.52 265.758 916.863 265.953C916.215 266.141 915.484 266.234 914.672 266.234C913.492 266.234 912.492 266.023 911.672 265.602C910.859 265.18 910.242 264.645 909.82 263.996C909.406 263.34 909.199 262.668 909.199 261.98H912.398C912.414 262.441 912.531 262.812 912.75 263.094C912.977 263.375 913.262 263.578 913.605 263.703C913.957 263.828 914.336 263.891 914.742 263.891C915.18 263.891 915.543 263.832 915.832 263.715C916.121 263.59 916.34 263.426 916.488 263.223C916.645 263.012 916.723 262.77 916.723 262.496Z" fill="#423E3A"/>
<rect x="831" y="286" width="82" height="24" rx="8" fill="#F1E678"/>
<rect x="929" y="288" width="44" height="8" rx="4" fill="#918B83"/>
<rect x="929" y="300" width="210" height="8" rx="4" fill="#C7C1B7"/>
<rect x="832" y="331" width="78" height="22" rx="7" stroke="#EC905F" stroke-width="2"/>
<rect x="927" y="332" width="44" height="8" rx="4" fill="#918B83"/>
<rect x="927" y="344" width="182" height="8" rx="4" fill="#C7C1B7"/>
<rect x="847" y="382" width="48" height="8" rx="4" fill="#BF406B"/>
<rect x="927" y="376" width="44" height="8" rx="4" fill="#918B83"/>
<rect x="927" y="388" width="210" height="8" rx="4" fill="#C7C1B7"/>
</svg>
