<svg id="Layer_1" data-name="Layer 1" xmlns="http://www.w3.org/2000/svg" viewBox="0 0 100.63 100.63"><defs><style>.cls-1{fill:#fff;}</style></defs><title>BFLogoOutline</title><path class="cls-1" d="M0,0V100.63H100.63V0ZM28,82.37l-3.2,18.17h-12l6-33.72,3-17,2.22-12.61,1.84-10.43h12l-2.12,12-.85,4.8L32.17,58.63l-.39,2.18Zm31.9-21.55a4.82,4.82,0,0,1,1.26.13,4.89,4.89,0,0,1,3.67,5.87,7.47,7.47,0,0,1-7.05,6H35l2.12-12ZM87.5,32.76a27.88,27.88,0,0,1-10.74,17c4,4.16,5.93,10.26,4.7,17C79.25,79.35,67.3,89.52,54.76,89.52H32.07l2-11.35H56.76A14.13,14.13,0,0,0,70.1,66.81c1.1-6.26-3.08-11.35-9.34-11.35H38.07l2-11.35H62.76A14.13,14.13,0,0,0,76.1,32.75C77.21,26.49,73,21.4,66.76,21.4H26.66l-2-11.35H68.81C81.34,10.05,89.76,20.22,87.5,32.76ZM41,38.75l2.12-12H65.87a4.92,4.92,0,0,1,4.94,6,7.47,7.47,0,0,1-7.05,6Z"/></svg>