<svg width="2000" height="500" viewBox="0 0 2000 500" fill="none" xmlns="http://www.w3.org/2000/svg">
<rect width="2000" height="500" rx="8" fill="#0D0C0B"/>
<path d="M848 95.6098C848 86.9887 854.989 80 863.61 80H1137.27C1145.89 80 1152.88 86.9887 1152.88 95.6098V258.049H848V95.6098Z" fill="#FFF9F0"/>
<rect x="951.658" y="120.244" width="97.561" height="97.561" rx="48.7805" fill="#E3DDD3"/>
<path fill-rule="evenodd" clip-rule="evenodd" d="M1000.44 143.008C995.949 143.008 992.309 146.648 992.309 151.138C992.309 155.628 995.949 159.268 1000.44 159.268C1004.93 159.268 1008.57 155.628 1008.57 151.138C1008.57 146.648 1004.93 143.008 1000.44 143.008ZM985.805 151.138C985.805 143.056 992.357 136.504 1000.44 136.504C1008.52 136.504 1015.07 143.056 1015.07 151.138C1015.07 159.22 1008.52 165.772 1000.44 165.772C992.357 165.772 985.805 159.22 985.805 151.138ZM979.881 191.788H1021C1018.69 182.329 1010.94 175.528 1000.44 175.528C989.934 175.528 982.187 182.329 979.881 191.788ZM972.811 194.736C974.152 180.475 984.967 169.024 1000.44 169.024C1015.91 169.024 1026.73 180.475 1028.07 194.736C1028.15 195.648 1027.85 196.553 1027.23 197.23C1026.62 197.907 1025.74 198.293 1024.83 198.293H976.049C975.133 198.293 974.26 197.907 973.644 197.23C973.028 196.553 972.725 195.648 972.811 194.736Z" fill="#918B83"/>
<rect x="848" y="258.049" width="304.878" height="9.7561" fill="#F1E678"/>
<rect x="848" y="267.805" width="304.878" height="9.7561" fill="#EC905F"/>
<rect x="848" y="277.561" width="304.878" height="9.7561" fill="#BF406B"/>
<path d="M848 287.317H1152.88V310.732C1152.88 319.353 1145.89 326.342 1137.27 326.342H863.61C854.989 326.342 848 319.353 848 310.732V287.317Z" fill="#E3DDD3"/>
<rect x="857.756" y="292.195" width="29.2683" height="29.2683" rx="14.6341" fill="#E3DDD3"/>
<path fill-rule="evenodd" clip-rule="evenodd" d="M872.391 300.325C871.269 300.325 870.359 301.235 870.359 302.358C870.359 303.48 871.269 304.39 872.391 304.39C873.514 304.39 874.424 303.48 874.424 302.358C874.424 301.235 873.514 300.325 872.391 300.325ZM868.733 302.358C868.733 300.337 870.37 298.699 872.391 298.699C874.412 298.699 876.05 300.337 876.05 302.358C876.05 304.378 874.412 306.016 872.391 306.016C870.37 306.016 868.733 304.378 868.733 302.358ZM867.252 312.52H877.531C876.954 310.155 875.017 308.455 872.391 308.455C869.765 308.455 867.828 310.155 867.252 312.52ZM865.484 313.257C865.819 309.692 868.523 306.829 872.391 306.829C876.259 306.829 878.963 309.692 879.298 313.257C879.319 313.485 879.244 313.711 879.09 313.881C878.936 314.05 878.717 314.146 878.489 314.146H866.293C866.065 314.146 865.846 314.05 865.692 313.881C865.538 313.711 865.463 313.485 865.484 313.257Z" fill="#918B83"/>
<rect x="896.781" y="294.635" width="56.0976" height="9.7561" rx="4.87805" fill="#ADA79E"/>
<rect x="957.758" y="294.635" width="41.4634" height="9.7561" rx="4.87805" fill="#F1E678"/>
<rect x="896.781" y="309.269" width="206.829" height="9.7561" rx="4.87805" fill="#C7C1B7"/>
<rect x="848" y="334.146" width="304.878" height="39.0244" rx="15.6098" fill="#FFF9F0"/>
<rect x="857.756" y="339.024" width="29.2683" height="29.2683" rx="14.6341" fill="#E3DDD3"/>
<path fill-rule="evenodd" clip-rule="evenodd" d="M872.391 347.154C871.269 347.154 870.359 348.064 870.359 349.187C870.359 350.309 871.269 351.219 872.391 351.219C873.514 351.219 874.424 350.309 874.424 349.187C874.424 348.064 873.514 347.154 872.391 347.154ZM868.733 349.187C868.733 347.166 870.37 345.528 872.391 345.528C874.412 345.528 876.05 347.166 876.05 349.187C876.05 351.207 874.412 352.845 872.391 352.845C870.37 352.845 868.733 351.207 868.733 349.187ZM867.252 359.349H877.531C876.954 356.985 875.017 355.284 872.391 355.284C869.765 355.284 867.828 356.985 867.252 359.349ZM865.484 360.086C865.819 356.521 868.523 353.658 872.391 353.658C876.259 353.658 878.963 356.521 879.298 360.086C879.319 360.314 879.244 360.541 879.09 360.71C878.936 360.879 878.717 360.975 878.489 360.975H866.293C866.065 360.975 865.846 360.879 865.692 360.71C865.538 360.541 865.463 360.314 865.484 360.086Z" fill="#918B83"/>
<rect x="896.781" y="341.464" width="56.0976" height="9.7561" rx="4.87805" fill="#ADA79E"/>
<rect x="957.758" y="341.464" width="41.4634" height="9.7561" rx="4.87805" fill="#F1E678"/>
<rect x="896.781" y="356.098" width="141.463" height="9.7561" rx="4.87805" fill="#C7C1B7"/>
<rect x="848" y="380.976" width="304.878" height="39.0244" rx="15.6098" fill="#FFF9F0"/>
<rect x="857.756" y="385.854" width="29.2683" height="29.2683" rx="14.6341" fill="#E3DDD3"/>
<path fill-rule="evenodd" clip-rule="evenodd" d="M872.391 393.983C871.269 393.983 870.359 394.893 870.359 396.016C870.359 397.138 871.269 398.048 872.391 398.048C873.514 398.048 874.424 397.138 874.424 396.016C874.424 394.893 873.514 393.983 872.391 393.983ZM868.733 396.016C868.733 393.995 870.37 392.357 872.391 392.357C874.412 392.357 876.05 393.995 876.05 396.016C876.05 398.037 874.412 399.674 872.391 399.674C870.37 399.674 868.733 398.037 868.733 396.016ZM867.252 406.179H877.531C876.954 403.814 875.017 402.114 872.391 402.114C869.765 402.114 867.828 403.814 867.252 406.179ZM865.484 406.915C865.819 403.35 868.523 400.488 872.391 400.488C876.259 400.488 878.963 403.35 879.298 406.915C879.319 407.143 879.244 407.37 879.09 407.539C878.936 407.708 878.717 407.805 878.489 407.805H866.293C866.065 407.805 865.846 407.708 865.692 407.539C865.538 407.37 865.463 407.143 865.484 406.915Z" fill="#918B83"/>
<rect x="896.781" y="388.293" width="56.0976" height="9.7561" rx="4.87805" fill="#ADA79E"/>
<rect x="957.758" y="388.293" width="41.4634" height="9.7561" rx="4.87805" fill="#F1E678"/>
<rect x="896.781" y="402.927" width="246.341" height="9.7561" rx="4.87805" fill="#C7C1B7"/>
</svg>
