<svg id="Layer_1" data-name="Layer 1" xmlns="http://www.w3.org/2000/svg" viewBox="0 0 2880 2121"><defs><style>.cls-1{fill:#a0a5b5;}.cls-2{fill:#a0a3aa;}.cls-3{fill:#8a8c91;}.cls-4{fill:#66686b;}</style></defs><title>Untitled-1</title><rect class="cls-1" width="2880" height="2121"/><polygon class="cls-2" points="0 263.75 153 263.75 153 510 300 510 300 192 501 192 501 582 798 582 798 63 948 63 948 645 1053 645 1053 435 1392 435 1392 570 1875 570 1875 303 2016 303 2016 471 2148 471 2148 144 2409 144 2409 540 2634 540 2634 387 2880 387 2880 2121 0 2121 0 263.75"/><polygon class="cls-3" points="0 806.81 201 806.81 201 384 456 384 456 918 609 918 609 531 861 531 861 756 1023 756 1023 597 1155 597 1155 669 1440 669 1440 483 1842 483 1842 933 2028 933 2028 816 2424 816 2424 891 2589 891 2589 1188 2676 1188 2676 834 2880 834 2880 2121 0 2121 0 806.81"/><polygon class="cls-4" points="0 1145.84 33 1145.84 33 741 495 741 495 1173 678 1173 678 984 1185 984 1185 1341 1284 1341 1284 1209 1368 1209 1368 1314 1587 1314 1587 1179 1713 1179 1713 1326 1869 1326 1869 1167 2013 1167 2013 1560 2328 1560 2328 1092 2490 1092 2490 1253 2634 1253 2634 993 2787 993 2787 1461 2829 1461 2829 1314 2880 1314 2880 2121 0 2121 0 1145.84"/></svg>