<svg width="2000" height="500" viewBox="0 0 2000 500" fill="none" xmlns="http://www.w3.org/2000/svg">
<rect width="2000" height="500" rx="8" fill="#0D0C0B"/>
<g filter="url(#filter0_d_198_3115)">
<path d="M825 96C825 87.1635 832.163 80 841 80H1159C1167.84 80 1175 87.1634 1175 96V324.299H825V96Z" fill="#FFF9F0"/>
<path d="M862.656 119.25V142H859.641V119.25H862.656ZM872.188 129.484V131.953H862V129.484H872.188ZM873.734 119.25V121.719H862V119.25H873.734ZM880.031 118V142H877.125V118H880.031ZM891.688 142.313C890.51 142.313 889.443 142.115 888.484 141.719C887.536 141.312 886.719 140.745 886.031 140.016C885.354 139.286 884.833 138.422 884.469 137.422C884.104 136.422 883.922 135.328 883.922 134.141V133.484C883.922 132.109 884.125 130.885 884.531 129.812C884.938 128.729 885.49 127.812 886.188 127.062C886.885 126.312 887.677 125.745 888.563 125.359C889.448 124.974 890.365 124.781 891.313 124.781C892.521 124.781 893.563 124.99 894.438 125.406C895.323 125.823 896.047 126.406 896.609 127.156C897.172 127.896 897.589 128.771 897.859 129.781C898.13 130.781 898.266 131.875 898.266 133.062V134.359H885.641V132H895.375V131.781C895.333 131.031 895.177 130.302 894.906 129.594C894.646 128.885 894.229 128.302 893.656 127.844C893.083 127.385 892.302 127.156 891.313 127.156C890.656 127.156 890.052 127.297 889.5 127.578C888.948 127.849 888.474 128.255 888.078 128.797C887.682 129.339 887.375 130 887.156 130.781C886.938 131.562 886.828 132.464 886.828 133.484V134.141C886.828 134.943 886.938 135.698 887.156 136.406C887.385 137.104 887.714 137.719 888.141 138.25C888.578 138.781 889.104 139.198 889.719 139.5C890.344 139.802 891.052 139.953 891.844 139.953C892.865 139.953 893.729 139.745 894.438 139.328C895.146 138.911 895.766 138.354 896.297 137.656L898.047 139.047C897.682 139.599 897.219 140.125 896.656 140.625C896.094 141.125 895.401 141.531 894.578 141.844C893.766 142.156 892.802 142.313 891.688 142.313ZM908.656 142.313C907.479 142.313 906.411 142.115 905.453 141.719C904.505 141.312 903.688 140.745 903 140.016C902.323 139.286 901.802 138.422 901.438 137.422C901.073 136.422 900.891 135.328 900.891 134.141V133.484C900.891 132.109 901.094 130.885 901.5 129.812C901.906 128.729 902.458 127.812 903.156 127.062C903.854 126.312 904.646 125.745 905.531 125.359C906.417 124.974 907.333 124.781 908.281 124.781C909.49 124.781 910.531 124.99 911.406 125.406C912.292 125.823 913.016 126.406 913.578 127.156C914.141 127.896 914.557 128.771 914.828 129.781C915.099 130.781 915.234 131.875 915.234 133.062V134.359H902.609V132H912.344V131.781C912.302 131.031 912.146 130.302 911.875 129.594C911.615 128.885 911.198 128.302 910.625 127.844C910.052 127.385 909.271 127.156 908.281 127.156C907.625 127.156 907.021 127.297 906.469 127.578C905.917 127.849 905.443 128.255 905.047 128.797C904.651 129.339 904.344 130 904.125 130.781C903.906 131.562 903.797 132.464 903.797 133.484V134.141C903.797 134.943 903.906 135.698 904.125 136.406C904.354 137.104 904.682 137.719 905.109 138.25C905.547 138.781 906.073 139.198 906.688 139.5C907.313 139.802 908.021 139.953 908.813 139.953C909.833 139.953 910.698 139.745 911.406 139.328C912.115 138.911 912.734 138.354 913.266 137.656L915.016 139.047C914.651 139.599 914.188 140.125 913.625 140.625C913.063 141.125 912.37 141.531 911.547 141.844C910.734 142.156 909.771 142.313 908.656 142.313ZM925.688 125.094V127.312H916.547V125.094H925.688ZM919.641 120.984H922.531V137.812C922.531 138.385 922.62 138.818 922.797 139.109C922.974 139.401 923.203 139.594 923.484 139.687C923.766 139.781 924.068 139.828 924.391 139.828C924.63 139.828 924.88 139.807 925.141 139.766C925.411 139.714 925.615 139.672 925.75 139.641L925.766 142C925.536 142.073 925.234 142.141 924.859 142.203C924.495 142.276 924.052 142.313 923.531 142.313C922.823 142.313 922.172 142.172 921.578 141.891C920.984 141.609 920.51 141.141 920.156 140.484C919.813 139.818 919.641 138.922 919.641 137.797V120.984ZM949.578 136.25C949.578 135.719 949.495 135.25 949.328 134.844C949.172 134.427 948.891 134.052 948.484 133.719C948.089 133.385 947.537 133.068 946.828 132.766C946.13 132.464 945.245 132.156 944.172 131.844C943.047 131.51 942.031 131.141 941.125 130.734C940.219 130.318 939.443 129.844 938.797 129.312C938.151 128.781 937.656 128.172 937.313 127.484C936.969 126.797 936.797 126.01 936.797 125.125C936.797 124.24 936.979 123.422 937.344 122.672C937.708 121.922 938.229 121.271 938.906 120.719C939.594 120.156 940.412 119.719 941.359 119.406C942.307 119.094 943.365 118.937 944.531 118.937C946.24 118.937 947.688 119.266 948.875 119.922C950.073 120.568 950.984 121.417 951.609 122.469C952.234 123.51 952.547 124.625 952.547 125.812H949.547C949.547 124.958 949.365 124.203 949 123.547C948.635 122.88 948.083 122.359 947.344 121.984C946.604 121.599 945.667 121.406 944.531 121.406C943.458 121.406 942.573 121.568 941.875 121.891C941.177 122.214 940.656 122.651 940.313 123.203C939.979 123.755 939.813 124.385 939.813 125.094C939.813 125.573 939.912 126.01 940.109 126.406C940.318 126.792 940.635 127.151 941.063 127.484C941.5 127.818 942.052 128.125 942.719 128.406C943.396 128.687 944.203 128.958 945.141 129.219C946.432 129.583 947.547 129.99 948.484 130.437C949.422 130.885 950.193 131.391 950.797 131.953C951.412 132.505 951.865 133.135 952.156 133.844C952.458 134.542 952.609 135.333 952.609 136.219C952.609 137.146 952.422 137.984 952.047 138.734C951.672 139.484 951.135 140.125 950.438 140.656C949.74 141.187 948.901 141.599 947.922 141.891C946.953 142.172 945.87 142.313 944.672 142.313C943.62 142.313 942.583 142.167 941.563 141.875C940.552 141.583 939.63 141.146 938.797 140.562C937.974 139.979 937.313 139.26 936.813 138.406C936.323 137.542 936.078 136.542 936.078 135.406H939.078C939.078 136.187 939.229 136.859 939.531 137.422C939.833 137.974 940.245 138.432 940.766 138.797C941.297 139.161 941.896 139.432 942.563 139.609C943.24 139.776 943.943 139.859 944.672 139.859C945.724 139.859 946.615 139.714 947.344 139.422C948.073 139.13 948.625 138.714 949 138.172C949.385 137.63 949.578 136.99 949.578 136.25ZM965.984 139.109V130.406C965.984 129.74 965.849 129.161 965.578 128.672C965.318 128.172 964.922 127.786 964.391 127.516C963.859 127.245 963.203 127.109 962.422 127.109C961.693 127.109 961.052 127.234 960.5 127.484C959.958 127.734 959.531 128.062 959.219 128.469C958.917 128.875 958.766 129.312 958.766 129.781H955.875C955.875 129.177 956.031 128.578 956.344 127.984C956.656 127.391 957.104 126.854 957.688 126.375C958.281 125.885 958.99 125.5 959.813 125.219C960.646 124.927 961.573 124.781 962.594 124.781C963.823 124.781 964.906 124.99 965.844 125.406C966.792 125.823 967.531 126.453 968.063 127.297C968.604 128.13 968.875 129.177 968.875 130.437V138.312C968.875 138.875 968.922 139.474 969.016 140.109C969.12 140.745 969.271 141.292 969.469 141.75V142H966.453C966.307 141.667 966.193 141.224 966.109 140.672C966.026 140.109 965.984 139.589 965.984 139.109ZM966.484 131.75L966.516 133.781H963.594C962.771 133.781 962.037 133.849 961.391 133.984C960.745 134.109 960.203 134.302 959.766 134.562C959.328 134.823 958.995 135.151 958.766 135.547C958.537 135.932 958.422 136.385 958.422 136.906C958.422 137.437 958.542 137.922 958.781 138.359C959.021 138.797 959.38 139.146 959.859 139.406C960.349 139.656 960.948 139.781 961.656 139.781C962.542 139.781 963.323 139.594 964 139.219C964.677 138.844 965.214 138.385 965.609 137.844C966.016 137.302 966.234 136.776 966.266 136.266L967.5 137.656C967.427 138.094 967.229 138.578 966.906 139.109C966.583 139.641 966.151 140.151 965.609 140.641C965.078 141.12 964.443 141.521 963.703 141.844C962.974 142.156 962.151 142.313 961.234 142.313C960.089 142.313 959.083 142.089 958.219 141.641C957.365 141.193 956.698 140.594 956.219 139.844C955.75 139.083 955.516 138.234 955.516 137.297C955.516 136.391 955.693 135.594 956.047 134.906C956.401 134.208 956.912 133.63 957.578 133.172C958.245 132.703 959.047 132.349 959.984 132.109C960.922 131.87 961.969 131.75 963.125 131.75H966.484ZM977.734 142H974.844V123.312C974.844 122.094 975.063 121.068 975.5 120.234C975.948 119.391 976.589 118.755 977.422 118.328C978.255 117.891 979.245 117.672 980.391 117.672C980.724 117.672 981.057 117.693 981.391 117.734C981.734 117.776 982.068 117.839 982.391 117.922L982.234 120.281C982.016 120.229 981.766 120.193 981.484 120.172C981.214 120.151 980.943 120.141 980.672 120.141C980.057 120.141 979.526 120.266 979.078 120.516C978.641 120.755 978.307 121.109 978.078 121.578C977.849 122.047 977.734 122.625 977.734 123.312V142ZM981.328 125.094V127.312H972.172V125.094H981.328ZM991.188 142.313C990.01 142.313 988.943 142.115 987.984 141.719C987.037 141.312 986.219 140.745 985.531 140.016C984.854 139.286 984.333 138.422 983.969 137.422C983.604 136.422 983.422 135.328 983.422 134.141V133.484C983.422 132.109 983.625 130.885 984.031 129.812C984.438 128.729 984.99 127.812 985.688 127.062C986.385 126.312 987.177 125.745 988.063 125.359C988.948 124.974 989.865 124.781 990.813 124.781C992.021 124.781 993.063 124.99 993.938 125.406C994.823 125.823 995.547 126.406 996.109 127.156C996.672 127.896 997.089 128.771 997.359 129.781C997.63 130.781 997.766 131.875 997.766 133.062V134.359H985.141V132H994.875V131.781C994.833 131.031 994.677 130.302 994.406 129.594C994.146 128.885 993.729 128.302 993.156 127.844C992.583 127.385 991.802 127.156 990.813 127.156C990.156 127.156 989.552 127.297 989 127.578C988.448 127.849 987.974 128.255 987.578 128.797C987.182 129.339 986.875 130 986.656 130.781C986.438 131.562 986.328 132.464 986.328 133.484V134.141C986.328 134.943 986.438 135.698 986.656 136.406C986.885 137.104 987.214 137.719 987.641 138.25C988.078 138.781 988.604 139.198 989.219 139.5C989.844 139.802 990.552 139.953 991.344 139.953C992.365 139.953 993.229 139.745 993.938 139.328C994.646 138.911 995.266 138.354 995.797 137.656L997.547 139.047C997.182 139.599 996.719 140.125 996.156 140.625C995.594 141.125 994.901 141.531 994.078 141.844C993.266 142.156 992.302 142.313 991.188 142.313ZM1008.22 125.094V127.312H999.078V125.094H1008.22ZM1002.17 120.984H1005.06V137.812C1005.06 138.385 1005.15 138.818 1005.33 139.109C1005.51 139.401 1005.73 139.594 1006.02 139.687C1006.3 139.781 1006.6 139.828 1006.92 139.828C1007.16 139.828 1007.41 139.807 1007.67 139.766C1007.94 139.714 1008.15 139.672 1008.28 139.641L1008.3 142C1008.07 142.073 1007.77 142.141 1007.39 142.203C1007.03 142.276 1006.58 142.313 1006.06 142.313C1005.35 142.313 1004.7 142.172 1004.11 141.891C1003.52 141.609 1003.04 141.141 1002.69 140.484C1002.34 139.818 1002.17 138.922 1002.17 137.797V120.984ZM1016.36 140.25L1021.06 125.094H1024.16L1017.38 144.609C1017.22 145.026 1017.01 145.474 1016.75 145.953C1016.5 146.443 1016.18 146.906 1015.78 147.344C1015.39 147.781 1014.91 148.135 1014.34 148.406C1013.79 148.688 1013.13 148.828 1012.36 148.828C1012.13 148.828 1011.84 148.797 1011.48 148.734C1011.13 148.672 1010.88 148.62 1010.73 148.578L1010.72 146.234C1010.8 146.245 1010.93 146.255 1011.11 146.266C1011.3 146.286 1011.43 146.297 1011.5 146.297C1012.16 146.297 1012.71 146.208 1013.17 146.031C1013.63 145.865 1014.02 145.578 1014.33 145.172C1014.65 144.776 1014.93 144.229 1015.16 143.531L1016.36 140.25ZM1012.91 125.094L1017.3 138.219L1018.05 141.266L1015.97 142.328L1009.75 125.094H1012.91ZM1047.27 136.25C1047.27 135.719 1047.18 135.25 1047.02 134.844C1046.86 134.427 1046.58 134.052 1046.17 133.719C1045.78 133.385 1045.22 133.068 1044.52 132.766C1043.82 132.464 1042.93 132.156 1041.86 131.844C1040.73 131.51 1039.72 131.141 1038.81 130.734C1037.91 130.318 1037.13 129.844 1036.48 129.312C1035.84 128.781 1035.34 128.172 1035 127.484C1034.66 126.797 1034.48 126.01 1034.48 125.125C1034.48 124.24 1034.67 123.422 1035.03 122.672C1035.4 121.922 1035.92 121.271 1036.59 120.719C1037.28 120.156 1038.1 119.719 1039.05 119.406C1039.99 119.094 1041.05 118.937 1042.22 118.937C1043.93 118.937 1045.38 119.266 1046.56 119.922C1047.76 120.568 1048.67 121.417 1049.3 122.469C1049.92 123.51 1050.23 124.625 1050.23 125.812H1047.23C1047.23 124.958 1047.05 124.203 1046.69 123.547C1046.32 122.88 1045.77 122.359 1045.03 121.984C1044.29 121.599 1043.35 121.406 1042.22 121.406C1041.15 121.406 1040.26 121.568 1039.56 121.891C1038.86 122.214 1038.34 122.651 1038 123.203C1037.67 123.755 1037.5 124.385 1037.5 125.094C1037.5 125.573 1037.6 126.01 1037.8 126.406C1038.01 126.792 1038.32 127.151 1038.75 127.484C1039.19 127.818 1039.74 128.125 1040.41 128.406C1041.08 128.687 1041.89 128.958 1042.83 129.219C1044.12 129.583 1045.23 129.99 1046.17 130.437C1047.11 130.885 1047.88 131.391 1048.48 131.953C1049.1 132.505 1049.55 133.135 1049.84 133.844C1050.15 134.542 1050.3 135.333 1050.3 136.219C1050.3 137.146 1050.11 137.984 1049.73 138.734C1049.36 139.484 1048.82 140.125 1048.13 140.656C1047.43 141.187 1046.59 141.599 1045.61 141.891C1044.64 142.172 1043.56 142.313 1042.36 142.313C1041.31 142.313 1040.27 142.167 1039.25 141.875C1038.24 141.583 1037.32 141.146 1036.48 140.562C1035.66 139.979 1035 139.26 1034.5 138.406C1034.01 137.542 1033.77 136.542 1033.77 135.406H1036.77C1036.77 136.187 1036.92 136.859 1037.22 137.422C1037.52 137.974 1037.93 138.432 1038.45 138.797C1038.98 139.161 1039.58 139.432 1040.25 139.609C1040.93 139.776 1041.63 139.859 1042.36 139.859C1043.41 139.859 1044.3 139.714 1045.03 139.422C1045.76 139.13 1046.31 138.714 1046.69 138.172C1047.07 137.63 1047.27 136.99 1047.27 136.25ZM1060.47 139.937C1061.16 139.937 1061.79 139.797 1062.38 139.516C1062.96 139.234 1063.44 138.849 1063.81 138.359C1064.19 137.859 1064.4 137.292 1064.45 136.656H1067.2C1067.15 137.656 1066.81 138.589 1066.19 139.453C1065.57 140.307 1064.77 141 1063.77 141.531C1062.77 142.052 1061.67 142.313 1060.47 142.313C1059.2 142.313 1058.09 142.089 1057.14 141.641C1056.2 141.193 1055.42 140.578 1054.8 139.797C1054.18 139.016 1053.72 138.12 1053.41 137.109C1053.1 136.089 1052.95 135.01 1052.95 133.875V133.219C1052.95 132.083 1053.1 131.01 1053.41 130C1053.72 128.979 1054.18 128.078 1054.8 127.297C1055.42 126.516 1056.2 125.901 1057.14 125.453C1058.09 125.005 1059.2 124.781 1060.47 124.781C1061.79 124.781 1062.95 125.052 1063.94 125.594C1064.93 126.125 1065.7 126.854 1066.27 127.781C1066.84 128.698 1067.15 129.74 1067.2 130.906H1064.45C1064.4 130.208 1064.2 129.578 1063.86 129.016C1063.53 128.453 1063.07 128.005 1062.48 127.672C1061.91 127.328 1061.24 127.156 1060.47 127.156C1059.58 127.156 1058.84 127.333 1058.23 127.687C1057.64 128.031 1057.17 128.5 1056.81 129.094C1056.47 129.677 1056.22 130.328 1056.06 131.047C1055.92 131.755 1055.84 132.479 1055.84 133.219V133.875C1055.84 134.615 1055.92 135.344 1056.06 136.062C1056.21 136.781 1056.45 137.432 1056.8 138.016C1057.15 138.599 1057.63 139.068 1058.22 139.422C1058.82 139.766 1059.57 139.937 1060.47 139.937ZM1069.69 133.734V133.375C1069.69 132.156 1069.86 131.026 1070.22 129.984C1070.57 128.932 1071.08 128.021 1071.75 127.25C1072.42 126.469 1073.22 125.865 1074.17 125.437C1075.12 125 1076.18 124.781 1077.36 124.781C1078.55 124.781 1079.61 125 1080.56 125.437C1081.52 125.865 1082.33 126.469 1083 127.25C1083.68 128.021 1084.19 128.932 1084.55 129.984C1084.9 131.026 1085.08 132.156 1085.08 133.375V133.734C1085.08 134.953 1084.9 136.083 1084.55 137.125C1084.19 138.167 1083.68 139.078 1083 139.859C1082.33 140.63 1081.53 141.234 1080.58 141.672C1079.64 142.099 1078.58 142.313 1077.39 142.313C1076.2 142.313 1075.14 142.099 1074.19 141.672C1073.24 141.234 1072.43 140.63 1071.75 139.859C1071.08 139.078 1070.57 138.167 1070.22 137.125C1069.86 136.083 1069.69 134.953 1069.69 133.734ZM1072.58 133.375V133.734C1072.58 134.578 1072.68 135.375 1072.88 136.125C1073.07 136.865 1073.37 137.521 1073.77 138.094C1074.17 138.667 1074.68 139.12 1075.28 139.453C1075.89 139.776 1076.59 139.937 1077.39 139.937C1078.18 139.937 1078.88 139.776 1079.47 139.453C1080.07 139.12 1080.57 138.667 1080.97 138.094C1081.36 137.521 1081.66 136.865 1081.86 136.125C1082.07 135.375 1082.17 134.578 1082.17 133.734V133.375C1082.17 132.542 1082.07 131.755 1081.86 131.016C1081.66 130.266 1081.36 129.604 1080.95 129.031C1080.56 128.448 1080.06 127.99 1079.45 127.656C1078.86 127.323 1078.16 127.156 1077.36 127.156C1076.57 127.156 1075.87 127.323 1075.27 127.656C1074.67 127.99 1074.17 128.448 1073.77 129.031C1073.37 129.604 1073.07 130.266 1072.88 131.016C1072.68 131.755 1072.58 132.542 1072.58 133.375ZM1091.59 127.75V142H1088.7V125.094H1091.52L1091.59 127.75ZM1096.88 125L1096.86 127.687C1096.62 127.635 1096.39 127.604 1096.17 127.594C1095.96 127.573 1095.72 127.562 1095.45 127.562C1094.79 127.562 1094.2 127.667 1093.69 127.875C1093.18 128.083 1092.74 128.375 1092.39 128.75C1092.04 129.125 1091.76 129.573 1091.55 130.094C1091.35 130.604 1091.22 131.167 1091.16 131.781L1090.34 132.25C1090.34 131.229 1090.44 130.271 1090.64 129.375C1090.85 128.479 1091.17 127.687 1091.59 127C1092.02 126.302 1092.56 125.76 1093.22 125.375C1093.89 124.979 1094.68 124.781 1095.59 124.781C1095.8 124.781 1096.04 124.807 1096.31 124.859C1096.58 124.901 1096.77 124.948 1096.88 125ZM1106.25 142.313C1105.07 142.313 1104.01 142.115 1103.05 141.719C1102.1 141.312 1101.28 140.745 1100.59 140.016C1099.92 139.286 1099.4 138.422 1099.03 137.422C1098.67 136.422 1098.48 135.328 1098.48 134.141V133.484C1098.48 132.109 1098.69 130.885 1099.09 129.812C1099.5 128.729 1100.05 127.812 1100.75 127.062C1101.45 126.312 1102.24 125.745 1103.13 125.359C1104.01 124.974 1104.93 124.781 1105.88 124.781C1107.08 124.781 1108.13 124.99 1109 125.406C1109.89 125.823 1110.61 126.406 1111.17 127.156C1111.73 127.896 1112.15 128.771 1112.42 129.781C1112.69 130.781 1112.83 131.875 1112.83 133.062V134.359H1100.2V132H1109.94V131.781C1109.9 131.031 1109.74 130.302 1109.47 129.594C1109.21 128.885 1108.79 128.302 1108.22 127.844C1107.65 127.385 1106.86 127.156 1105.88 127.156C1105.22 127.156 1104.61 127.297 1104.06 127.578C1103.51 127.849 1103.04 128.255 1102.64 128.797C1102.24 129.339 1101.94 130 1101.72 130.781C1101.5 131.562 1101.39 132.464 1101.39 133.484V134.141C1101.39 134.943 1101.5 135.698 1101.72 136.406C1101.95 137.104 1102.28 137.719 1102.7 138.25C1103.14 138.781 1103.67 139.198 1104.28 139.5C1104.91 139.802 1105.61 139.953 1106.41 139.953C1107.43 139.953 1108.29 139.745 1109 139.328C1109.71 138.911 1110.33 138.354 1110.86 137.656L1112.61 139.047C1112.24 139.599 1111.78 140.125 1111.22 140.625C1110.66 141.125 1109.96 141.531 1109.14 141.844C1108.33 142.156 1107.36 142.313 1106.25 142.313Z" fill="#423E3A"/>
<path d="M957 182L957 248" stroke="#E3DDD3" stroke-width="2" stroke-linecap="round"/>
<path d="M983.572 182L983.572 248" stroke="#E3DDD3" stroke-width="2" stroke-linecap="round"/>
<path d="M1010.14 182L1010.14 248" stroke="#E3DDD3" stroke-width="2" stroke-linecap="round"/>
<path d="M1036.71 182L1036.71 248" stroke="#E3DDD3" stroke-width="2" stroke-linecap="round"/>
<path d="M1063.29 182L1063.29 248" stroke="#E3DDD3" stroke-width="2" stroke-linecap="round"/>
<path d="M1089.86 182L1089.86 248" stroke="#E3DDD3" stroke-width="2" stroke-linecap="round"/>
<path d="M1116.43 182L1116.43 248" stroke="#E3DDD3" stroke-width="2" stroke-linecap="round"/>
<path d="M1143 182L1143 248" stroke="#E3DDD3" stroke-width="2" stroke-linecap="round"/>
<path d="M883.606 202.056H859.122V192.809H899.6L872.918 246.627H861.396L883.606 202.056ZM920.065 212.82C922.592 212.82 924.942 213.249 927.114 214.108C929.287 214.917 931.157 216.079 932.724 217.595C934.29 219.111 935.503 220.93 936.362 223.053C937.272 225.175 937.726 227.525 937.726 230.102C937.726 232.831 937.221 235.307 936.21 237.531C935.25 239.754 933.886 241.649 932.117 243.216C930.349 244.833 928.251 246.071 925.826 246.93C923.4 247.839 920.773 248.294 917.943 248.294C914.001 248.294 910.464 247.46 907.331 245.793C904.248 244.125 901.898 241.851 900.281 238.971L906.118 232.907C907.533 234.878 909.301 236.444 911.424 237.606C913.546 238.769 915.744 239.35 918.018 239.35C920.747 239.35 922.971 238.541 924.689 236.924C926.458 235.257 927.342 233.058 927.342 230.33C927.342 227.702 926.508 225.579 924.84 223.962C923.223 222.345 921.152 221.537 918.625 221.537C916.957 221.537 915.391 221.916 913.925 222.674C912.51 223.432 911.373 224.468 910.514 225.782H901.646C901.646 225.63 901.747 225.074 901.949 224.114C902.151 223.103 902.404 221.84 902.707 220.324C903.01 218.757 903.339 217.039 903.692 215.17C904.046 213.249 904.425 211.304 904.829 209.333C905.739 204.684 906.75 199.479 907.861 193.718H934.391V202.966H915.214L913.016 215.018C913.622 214.361 914.506 213.83 915.669 213.426C916.881 213.022 918.347 212.82 920.065 212.82Z" fill="#423E3A"/>
<path d="M957 227.262L970.286 218.119L983.571 227.262L996.857 242.5L1010.14 239.452L1023.43 224.214L1036.71 221.167L1050 215.071L1063.29 227.262L1076.57 236.405L1089.86 202.881L1103.14 205.929L1116.43 196.786L1129.71 178.5L1143 208.976" stroke="#78726B" stroke-width="4" stroke-linecap="round" stroke-linejoin="round"/>
<path d="M867.323 271.968C868.068 270.677 869.932 270.677 870.677 271.968L880.738 289.394C881.483 290.685 880.551 292.298 879.061 292.298H858.939C857.449 292.298 856.517 290.685 857.262 289.394L867.323 271.968Z" fill="#598C0E"/>
<rect x="889" y="273.649" width="38" height="16" rx="8.00001" fill="#598C0E"/>
<rect x="935" y="273.649" width="106" height="16" rx="8.00001" fill="#ADA79E"/>
<rect x="825" y="324.299" width="350" height="32" fill="#F1E678"/>
<rect x="825" y="356.299" width="350" height="32" fill="#EC905F"/>
<path d="M825 388.299H1175V404.299C1175 413.135 1167.84 420.299 1159 420.299H841C832.163 420.299 825 413.135 825 404.299V388.299Z" fill="#BF406B"/>
</g>
<defs>
<filter id="filter0_d_198_3115" x="817" y="76" width="366" height="356.299" filterUnits="userSpaceOnUse" color-interpolation-filters="sRGB">
<feFlood flood-opacity="0" result="BackgroundImageFix"/>
<feColorMatrix in="SourceAlpha" type="matrix" values="0 0 0 0 0 0 0 0 0 0 0 0 0 0 0 0 0 0 127 0" result="hardAlpha"/>
<feOffset dy="4"/>
<feGaussianBlur stdDeviation="4"/>
<feComposite in2="hardAlpha" operator="out"/>
<feColorMatrix type="matrix" values="0 0 0 0 0 0 0 0 0 0 0 0 0 0 0 0 0 0 0.5 0"/>
<feBlend mode="normal" in2="BackgroundImageFix" result="effect1_dropShadow_198_3115"/>
<feBlend mode="normal" in="SourceGraphic" in2="effect1_dropShadow_198_3115" result="shape"/>
</filter>
</defs>
</svg>
