<svg id="Layer_1" data-name="Layer 1" xmlns="http://www.w3.org/2000/svg" xmlns:xlink="http://www.w3.org/1999/xlink" viewBox="0 0 3660.6 4623.42"><defs><style>.cls-1{fill:#dda466;}.cls-2{fill:#d28633;}.cls-3{fill:#c76800;}.cls-4{fill:url(#linear-gradient);}.cls-5{fill:none;}.cls-6{fill:#fff;}.cls-7{fill:#0e2e5c;}</style><linearGradient id="linear-gradient" x1="1830.8" y1="2405.9" x2="1830.8" y2="3924.65" gradientUnits="userSpaceOnUse"><stop offset="0" stop-color="#133d7a"/><stop offset="0.57" stop-color="#133c78"/><stop offset="0.78" stop-color="#123971"/><stop offset="0.93" stop-color="#103366"/><stop offset="1" stop-color="#0e2e5c"/></linearGradient></defs><title>Artboard 3</title><polygon class="cls-1" points="0.4 0 0.4 1417.41 0 1417.41 0.4 1706.57 0.4 2480.16 3661.2 2480.16 3661.2 1663.13 3661.2 1417.41 3661.2 0 0.4 0"/><path class="cls-2" d="M3661.2,1999.11c-43.83-38.11-84.28-65.26-162-38.11-151.53,52.94-116.4,49.58-295.38,149.17-130.44,72.57-309.4,17.18-476.42-28.59-106.84-29.27-142.44-54.94-257.27-70.51-151.24-20.51-173.84,12.57-257.26-19.06-139.46-52.87-131.83-180.34-251.55-198.19-52.87-7.88-89.74,4.3-282,80-294,115.8-345.65,141.61-417.35,118.15-71.18-23.28-52.37-59.22-182.94-152.45-83.48-59.6-196.58-140.36-318.25-123.87-80.14,10.86-73.3,51.62-181,101-189.07,86.67-300.38,2.5-451.64,93.38C79.72,1939.12,6.37,1975.5.4,2035.84v654.27H3661.2Z"/><path class="cls-3" d="M3661.2,2298.12c-43.83-38.11-84.28-65.26-162-38.11-151.53,52.94-116.4,49.58-295.38,149.17-130.44,72.57-309.4,17.18-476.42-28.59-106.84-29.27-142.44-54.94-257.27-70.51-151.24-20.51-173.84,12.57-257.26-19.06-139.46-52.87-131.83-180.34-251.55-198.19-52.87-7.88-89.74,4.3-282,80-294,115.8-345.65,141.61-417.35,118.15-71.18-23.28-52.37-59.22-182.94-152.45-83.48-59.6-196.58-140.36-318.25-123.87-80.14,10.86-73.3,51.62-181,101-189.07,86.67-300.38,2.5-451.64,93.38C79.72,2238.13,6.37,2274.51.4,2334.85v654.27H3661.2Z"/><path class="cls-4" d="M3661.2,2599.69c-43.83-38.11-84.28-65.26-162-38.11-151.53,53-116.4,49.58-295.38,149.17-130.44,72.58-309.4,17.18-476.42-28.59-106.84-29.27-142.44-54.93-257.27-70.51-151.24-20.51-173.84,12.58-257.26-19.05-139.46-52.87-131.83-180.34-251.55-198.19-52.87-7.88-89.74,4.3-282,80-294,115.8-345.65,141.6-417.35,118.15-71.18-23.29-52.37-59.23-182.94-152.46-83.48-59.6-196.58-140.35-318.25-123.87-80.14,10.86-73.3,51.62-181,101-189.07,86.67-300.38,2.5-451.64,93.37C79.72,2539.71,6.37,2576.09.4,2636.43V3961.28H3661.2Z"/><path class="cls-5" d="M2772.19,2694.83c147.4,54.48,177.94,81,176.29,86.43-2.64,8.67-95.82-9.78-171.51-24.77-29.72-5.89-54.55-11.26-72.42-15.25,221.72,118.62,381.35,343.68,411.63,304.91,11.34-14.52-111.65-139.67-81.68-179.89,2.39-3.21,8.74-9.86,65.16-12.18,81.88-3.37,129.32,8.14,131.38,1.06,3-10.39-95.44-47.58-107-51.92-62.18-23.34-250.21-82.18-286.88-92"/><path class="cls-5" d="M1870.18,2403.78c22.53,49.22,63.79,121.51,138.8,179.29,102.88,79.24,245.59,75.67,289.66,76.23,150.55,1.9,333.5,0,484,38.11"/><path class="cls-5" d="M3069.1,2745.5c39.18,15.92,71,23.21,103.67,30.17,79.58,17,147.33,15.49,209.79,13.78,66.43-1.83,65.59-7,114.42-5.3,66.77,2.33,109.47,13.43,114.43,1.06,4-9.85-18.54-28.2-31.78-37.09-26.56-17.82-61.86-28.41-133.5-24.37-72.67,4.11-85.49,17.78-142,20.14-52,2.16-102.76-11.81-129.14-19.43"/><path class="cls-5" d="M3069.1,2745.5c-92.65,3.59-195.91-23.22-296.83-51"/><path class="cls-6" d="M2782.68,2697.41c-150.54-38.11-333.49-36.21-484-38.11-44.07-.56-260.17,1.72-363-77.52-75-57.78-42.89-128.78-65.42-178,41.39-12.19,64.19-13.39,91.16-9.37,119.72,17.85,112.09,145.32,251.55,198.19,83.42,31.63,106-1.46,257.26,19.05,114.83,15.58,150.43,41.24,257.27,70.51q22.3,6.12,44.85,12.36Z"/><path class="cls-6" d="M3175,2724.46c26.38,7.62,77.12,21.59,129.14,19.43,56.49-2.36,69.31-16,142-20.14,71.64-4,106.94,6.55,133.5,24.37,13.24,8.89,35.73,27.24,31.78,37.09-5,12.37-47.66,1.27-114.43-1.06-48.83-1.7-48,3.47-114.42,5.3-62.46,1.71-130.21,3.18-209.79-13.78-32.69-7-64.49-14.25-103.67-30.17C3106.41,2744.06,3142,2737.68,3175,2724.46Z"/><path class="cls-6" d="M3661.2,2599.69c-43.83-38.11-84.28-65.26-162-38.11-123.22,43.05-123,48.87-214.86,103.09a117.82,117.82,0,0,0,45.22,20.94c28.32,6.31,51.29-.54,65.69-4.24,20.85-5.34,117.38-28.26,197.07-1.06,13.18,4.5,47.47,17,67.91,31.26"/><path class="cls-6" d="M1262,2592.6c-70.4-25.58-52.37-59.23-182.94-152.46-83.48-59.6-196.58-140.35-318.25-123.87-80.14,10.86-73.3,51.62-181,101-189.07,86.67-300.38,2.5-451.64,93.37C79.72,2539.71,6.37,2576.09.4,2636.43c-9.81,99,164.75,188.14,251.55,232.49C543.54,3017.91,848,3032,856,2998.51c8.71-36.23-333.3-115-324-209.63,4.53-45.88,89.53-73.32,116.25-81.94,132.4-42.74,257.61,3.23,285.85,13.34,329.51,118,910.1,171.44,918.53,144.83C1856.49,2853.21,1724.54,2760.64,1262,2592.6Z"/><path class="cls-6" d="M920.67,3345.86c-176.55-40.45-183.71-120.61-437-213C289.4,3062,116.18,3044.4,0,3040.67a1821,1821,0,0,0,156.3,108c228.76,140.93,431.76,194.91,591.21,235.21,484.88,122.56,916.35,231.62,931.33,184.36C1684,3551.93,1273,3397.61,935.05,3349Z"/><path class="cls-6" d="M2038,3069.16c19.05,6.78,326.36,115.91,493.74,163.17,420.28,118.66,822.77,91.32,824.31,76.28,1.36-13.3-207.2-25.57-527.65-131.38-86.37-28.52-158.39-56.41-211.9-78.4-54.24-21.2-159.54-56.28-229.49-58.11q-39.2-1-78.22-5.06l-249.36-32.55a503,503,0,0,0-106.71-2.5l-1.37.12c-19.56,1.63-23.22,28.71-4.78,35.45C1973.8,3046.13,2004.5,3057.23,2038,3069.16Z"/><path class="cls-6" d="M2772.19,2694.83c151.75,40.83,177.94,81,176.29,86.43-2.64,8.67-95.82-9.78-171.51-24.77-29.72-5.89-54.55-11.26-72.42-15.25,221.72,118.62,381.35,343.68,411.63,304.91,11.34-14.52-111.65-139.67-81.68-179.89,2.39-3.21,8.74-9.86,65.16-12.18,81.88-3.37,129.32,8.14,131.38,1.06,3-10.39-95.44-47.58-107-51.92C3061.85,2779.88,2808.86,2704.7,2772.19,2694.83Z"/><rect class="cls-7" x="0.4" y="3961.28" width="3660.8" height="662.14"/></svg>