<svg xmlns="http://www.w3.org/2000/svg" xmlns:xlink="http://www.w3.org/1999/xlink" viewBox="0 0 1920 1080"><defs><style>.cls-1{fill:#fff;}.cls-2{fill:url(#linear-gradient);}.cls-3{fill:url(#linear-gradient-2);}.cls-4{fill:url(#linear-gradient-3);}</style><linearGradient id="linear-gradient" x1="-89.69" y1="765.31" x2="802.03" y2="765.31" gradientTransform="matrix(-0.9, 0.17, -0.17, 0.7, 638.69, 94.96)" gradientUnits="userSpaceOnUse"><stop offset="0" stop-color="#ec905f"/><stop offset="1" stop-color="#f1e678"/></linearGradient><linearGradient id="linear-gradient-2" x1="8.17" y1="915.95" x2="899.89" y2="915.95" gradientTransform="matrix(-0.9, 0.17, -0.17, 0.7, 638.69, 94.96)" gradientUnits="userSpaceOnUse"><stop offset="0" stop-color="#bf406b"/><stop offset="1" stop-color="#ec905f"/></linearGradient><linearGradient id="linear-gradient-3" x1="106.03" y1="1066.59" x2="997.76" y2="1066.59" gradientTransform="matrix(-0.9, 0.17, -0.17, 0.7, 638.69, 94.96)" gradientUnits="userSpaceOnUse"><stop offset="0" stop-color="#682a6e"/><stop offset="1" stop-color="#bf406b"/></linearGradient></defs><title>Asset 2</title><g id="Layer_2" data-name="Layer 2"><g id="Layer_1-2" data-name="Layer 1"><polygon class="cls-1" points="0 1080 65.6 1080 0 966.38 0 1080"/><polygon class="cls-1" points="1920 0 0 0 0 288.38 457.04 1080 1920 1080 1920 0"/><polygon class="cls-1" points="0 514.38 326.56 1080 457.04 1080 0 288.38 0 514.38"/><polygon class="cls-2" points="0 514.38 326.56 1080 457.04 1080 0 288.38 0 514.38"/><polygon class="cls-1" points="196.08 1080 326.56 1080 0 514.38 0 740.38 196.08 1080"/><polygon class="cls-3" points="196.08 1080 326.56 1080 0 514.38 0 740.38 196.08 1080"/><polygon class="cls-1" points="0 740.38 0 966.38 65.6 1080 196.08 1080 0 740.38"/><polygon class="cls-4" points="0 740.38 0 966.38 65.6 1080 196.08 1080 0 740.38"/></g></g></svg>