<svg xmlns="http://www.w3.org/2000/svg" viewBox="0 0 347.23 418.13"><defs><style>.cls-1{fill:#29292b;}</style></defs><title>DownStroke</title><g id="Layer_2" data-name="Layer 2"><g id="Layer_1-2" data-name="Layer 1"><polygon class="cls-1" points="87.95 234.42 87.95 234.42 89.73 224.33 102.01 154.69 105.92 132.49 105.92 132.49 115.72 76.94 87.94 76.94 60.16 76.94 51.66 125.19 41.38 183.46 27.5 262.2 0 418.13 55.56 418.13 70.37 334.13 70.37 334.13 87.95 234.42"/><path class="cls-1" d="M345.59,104.71C355.36,49.29,320.43,3.91,266.69,0L257.4,52.79c24.69,3.72,40.3,25.55,35.65,51.93s-27.94,48.19-53.93,51.92l-9.45,53.65c24.66,3.74,40.26,25.56,35.61,51.92s-27.92,48.17-53.89,51.92l-9.29,52.79c55.07-4,106-49.32,115.73-104.71,5.53-31.37-3.28-59.51-21.7-78.74C321.32,164.22,340.06,136.08,345.59,104.71Z"/></g></g></svg>