<svg xmlns="http://www.w3.org/2000/svg" viewBox="0 0 507.9 507.9" width="40px"><title>mail</title><g id="Layer_2" data-name="Layer 2"><g id="Layer_1-2" data-name="Layer 1"><path class="cls-1" d="M253.95,296.95a20,20,0,0,1-11.75-3.82l-121.72-88.4V347.45H387.42V204.73L265.7,293.13A20,20,0,0,1,253.95,296.95Z"/><path class="cls-1" d="M475.38,0H32.52A32.52,32.52,0,0,0,0,32.52V475.38A32.52,32.52,0,0,0,32.52,507.9H475.38a32.52,32.52,0,0,0,32.52-32.52V32.52A32.52,32.52,0,0,0,475.38,0Zm-48,350.67a36.82,36.82,0,0,1-36.77,36.78H117.25a36.82,36.82,0,0,1-36.78-36.78V157.22a36.82,36.82,0,0,1,36.78-36.78h273.4a36.82,36.82,0,0,1,36.77,36.78Z"/><polygon class="cls-1" points="380.33 160.45 127.57 160.45 253.95 252.23 380.33 160.45"/></g></g></svg>