<svg xmlns="http://www.w3.org/2000/svg" viewBox="0 0 213.79 367.48"><defs><style>.cls-1{fill:#29292b;}</style></defs><title>SideStroke</title><g id="Layer_2" data-name="Layer 2"><g id="Layer_1-2" data-name="Layer 1"><path class="cls-1" d="M190.54,77.22H85.42l-9.8,55.56H180.75c15.32,0,29.91-12.45,32.61-27.78S205.85,77.25,190.54,77.22Z"/><path class="cls-1" d="M152.91,290.26H153c15.32,0,29.91-12.45,32.61-27.78s-7.51-27.74-22.82-27.78H57.65l-9.8,55.56Z"/><path class="cls-1" d="M176.32,157.49H71.26L62,210H167.08a50.84,50.84,0,0,1,7.58.57l9.45-53.65A55,55,0,0,1,176.32,157.49Z"/><path class="cls-1" d="M204.16,0H0L9.26,52.5H194.84a50.86,50.86,0,0,1,7.54.57L211.68.28C209.21.1,206.7,0,204.16,0Z"/><path class="cls-1" d="M148.55,315H43.5l-9.26,52.5H139.36q3.86,0,7.71-.28l9.29-52.79A55,55,0,0,1,148.55,315Z"/></g></g></svg>